<svg xmlns="http://www.w3.org/2000/svg" width="90" height="90" viewBox="0 0 90 90">
  <g id="img6" transform="translate(-579.711 -3735)">
    <circle id="Elipse_11620" data-name="Elipse 11620" cx="45" cy="45" r="45" transform="translate(579.711 3735)" fill="#ffce73"/>
    <g id="Grupo_1117891" data-name="Grupo 1117891" transform="translate(595.783 3750.428)">
      <path id="Trazado_907288" data-name="Trazado 907288" d="M131.655,17.755V8H102.39a3.9,3.9,0,0,0-3.9,3.9v7.8a17.559,17.559,0,0,1,24.1,16.3,17.367,17.367,0,0,1-2.692,9.345l9.15,9.16a3.9,3.9,0,0,1-5.511,5.511l-9.16-9.15a17.6,17.6,0,0,1-15.891,1.434v8.37a3.9,3.9,0,0,0,3.9,3.9h37.068a3.9,3.9,0,0,0,3.9-3.9V19.706h-9.755a1.951,1.951,0,0,1-1.951-1.951Zm7.8,40.97a1.951,1.951,0,0,1-1.951,1.951A1.951,1.951,0,0,0,139.458,58.725ZM122.875,25.559" transform="translate(-86.479 -7.025)" fill="#e0e0e2"/>
      <path id="Trazado_907289" data-name="Trazado 907289" d="M370.488,17.755a1.951,1.951,0,0,0,1.951,1.951h9.755L370.488,8Zm0,0" transform="translate(-325.312 -7.025)" fill="#c6c5ca"/>
      <path id="Trazado_907290" data-name="Trazado 907290" d="M35.072,126.106a17.56,17.56,0,1,0-9.345,2.692,17.486,17.486,0,0,0,9.345-2.692Zm-15.891-2.878a13.657,13.657,0,1,1,18.554-5.5,13.444,13.444,0,0,1-5.521,5.521,13.7,13.7,0,0,1-13.033-.02Zm0,0" transform="translate(-7.172 -82.257)" fill="#ffcd00"/>
      <path id="Trazado_907291" data-name="Trazado 907291" d="M63.353,148.863a13.3,13.3,0,0,0,2.351-3.17,13.663,13.663,0,1,0-5.521,5.521,13.309,13.309,0,0,0,3.17-2.351Zm-13.277-3.521" transform="translate(-35.14 -110.224)" fill="#c6c5ca"/>
      <path id="Trazado_907292" data-name="Trazado 907292" d="M228.809,319.842l9.16,9.15a3.9,3.9,0,0,0,5.511-5.511l-9.15-9.16a17.486,17.486,0,0,1-5.521,5.521Zm0,0" transform="translate(-200.909 -275.994)" fill="#00aeef"/>
      <g id="Grupo_1117891-2" data-name="Grupo 1117891" transform="translate(0 0)">
        <path id="Trazado_907293" data-name="Trazado 907293" d="M57.845,12.62a.936.936,0,0,0-.05-.251c-.01-.031-.019-.061-.032-.092a.979.979,0,0,0-.2-.286L45.862.286a.96.96,0,0,0-.287-.2c-.029-.013-.059-.021-.089-.032a.96.96,0,0,0-.256-.051C45.214.011,45.2,0,45.176,0H15.911a4.883,4.883,0,0,0-4.877,4.877v7.179a18.5,18.5,0,0,0,0,33.85v7.745a4.883,4.883,0,0,0,4.877,4.877H52.98a4.883,4.883,0,0,0,4.877-4.877V12.681c0-.021-.01-.04-.012-.061Zm-3.318-.914h-7.4a.976.976,0,0,1-.975-.975V3.33ZM1.972,28.982A16.562,16.562,0,0,1,18.555,12.4q.832,0,1.648.08A16.538,16.538,0,0,1,34.934,26.5a16.746,16.746,0,0,1,.2,2.483,16.583,16.583,0,0,1-33.166,0ZM29.885,43.635c.133-.1.265-.206.4-.312a18.256,18.256,0,0,0,1.382-1.234A18.335,18.335,0,0,0,32.9,40.708c.106-.131.209-.263.312-.4.118-.154.246-.3.359-.458l8.316,8.326a2.9,2.9,0,0,1,0,4.127,2.971,2.971,0,0,1-4.13,0l-8.327-8.312c.157-.114.3-.241.458-.359Zm23.1,12.943H15.911a2.927,2.927,0,0,1-2.926-2.926V46.668c.06.02.124.032.185.051.156.048.314.086.473.13.365.1.733.2,1.1.268.182.038.365.073.549.106.372.065.746.117,1.123.16.168.019.334.043.5.057.541.046,1.085.076,1.634.076a18.412,18.412,0,0,0,9.189-2.448l8.625,8.616A4.877,4.877,0,1,0,43.262,46.8L34.641,38.17a18.407,18.407,0,0,0,2.448-9.188q0-.927-.09-1.839a18.53,18.53,0,0,0-18.445-16.7c-.549,0-1.093.03-1.634.076-.169.015-.336.038-.5.058q-.563.063-1.12.16-.278.049-.554.106c-.367.076-.731.166-1.092.265-.162.044-.324.083-.488.131-.06.019-.122.031-.182.051V4.877a2.927,2.927,0,0,1,2.926-2.926H44.2V10.73a2.927,2.927,0,0,0,2.926,2.926h8.779V53.652a2.926,2.926,0,0,1-2.926,2.926Zm0,0" transform="translate(0 0)" fill="#231f20"/>
        <path id="Trazado_907294" data-name="Trazado 907294" d="M161.9,48.975a.976.976,0,0,0-.975-.975H139.464a.975.975,0,1,0,0,1.951h21.461A.976.976,0,0,0,161.9,48.975Zm0,0" transform="translate(-121.601 -42.147)" fill="#231f20"/>
        <path id="Trazado_907295" data-name="Trazado 907295" d="M327.169,192H315.463a.975.975,0,0,0,0,1.951h11.706a.975.975,0,0,0,0-1.951Zm0,0" transform="translate(-276.141 -168.588)" fill="#231f20"/>
        <path id="Trazado_907296" data-name="Trazado 907296" d="M327.169,240H315.463a.975.975,0,1,0,0,1.951h11.706a.975.975,0,0,0,0-1.951Zm0,0" transform="translate(-276.141 -210.735)" fill="#231f20"/>
        <path id="Trazado_907297" data-name="Trazado 907297" d="M321.12,288.976a.976.976,0,0,0-.975-.976H307.464a.976.976,0,0,0,0,1.951h12.681A.976.976,0,0,0,321.12,288.976Zm0,0" transform="translate(-269.116 -252.882)" fill="#231f20"/>
        <path id="Trazado_907298" data-name="Trazado 907298" d="M349.218,336.975a.976.976,0,0,0-.975-.975h-8.779a.975.975,0,1,0,0,1.951h8.779A.976.976,0,0,0,349.218,336.975Zm0,0" transform="translate(-297.214 -295.03)" fill="#231f20"/>
        <path id="Trazado_907299" data-name="Trazado 907299" d="M260.243,96.975a.976.976,0,0,0-.976-.975h-7.8a.975.975,0,1,0,0,1.951h7.8A.976.976,0,0,0,260.243,96.975Zm0,0" transform="translate(-219.945 -84.294)" fill="#231f20"/>
        <path id="Trazado_907300" data-name="Trazado 907300" d="M307.071,144.975A.976.976,0,0,0,306.1,144H291.464a.976.976,0,0,0,0,1.951H306.1A.976.976,0,0,0,307.071,144.975Zm0,0" transform="translate(-255.067 -126.441)" fill="#231f20"/>
        <path id="Trazado_907301" data-name="Trazado 907301" d="M115.463,185.951h6.828a.975.975,0,1,0,0-1.951h-6.828a.975.975,0,1,0,0,1.951Zm0,0" transform="translate(-100.528 -161.564)" fill="#231f20"/>
        <path id="Trazado_907302" data-name="Trazado 907302" d="M99.071,232.975A.976.976,0,0,0,98.1,232H83.463a.975.975,0,1,0,0,1.951H98.1A.976.976,0,0,0,99.071,232.975Zm0,0" transform="translate(-72.43 -203.711)" fill="#231f20"/>
        <path id="Trazado_907303" data-name="Trazado 907303" d="M122.292,280h-6.828a.975.975,0,1,0,0,1.951h6.828a.975.975,0,1,0,0-1.951Zm0,0" transform="translate(-100.528 -245.858)" fill="#231f20"/>
        <path id="Trazado_907304" data-name="Trazado 907304" d="M53.73,145.211a14.306,14.306,0,0,0,5.691-5.52c.077-.135.161-.265.233-.4.038-.071.067-.143.1-.214.148-.285.292-.57.42-.861s.229-.569.333-.855c.03-.083.068-.164.1-.248a14.64,14.64,0,1,0-6.878,8.106Zm-13.023-1.738a12.586,12.586,0,0,1-2.888-2.164,12.843,12.843,0,0,1-1.592-1.936q-.346-.517-.637-1.062a12.682,12.682,0,1,1,22.347.056v.008a12.466,12.466,0,0,1-5.123,5.12,12.645,12.645,0,0,1-12.106-.019Zm0,0" transform="translate(-28.232 -103.363)" fill="#231f20"/>
        <path id="Trazado_907305" data-name="Trazado 907305" d="M385.316,384a.975.975,0,0,0-.975.976v3.9a.976.976,0,0,1-.976.975h-3.9a.975.975,0,1,0,0,1.951h3.9a2.926,2.926,0,0,0,2.926-2.926v-3.9A.976.976,0,0,0,385.316,384Zm0,0" transform="translate(-332.337 -337.177)" fill="#231f20"/>
      </g>
    </g>
  </g>
</svg>
