<svg xmlns="http://www.w3.org/2000/svg" width="60" height="58.651" viewBox="0 0 60 58.651">
  <g id="img10" transform="translate(-30.201 -35.269)">
    <g id="Grupo_1118719" data-name="Grupo 1118719" transform="translate(33.99 37.032)">
      <path id="Trazado_908035" data-name="Trazado 908035" d="M230,192.987c0,1.679-3.857,3.047-8.614,3.047s-8.61-1.367-8.61-3.047V178.54H230Z" transform="translate(-192.31 -161.267)" fill="#faa21b" fill-rule="evenodd"/>
      <path id="Trazado_908036" data-name="Trazado 908036" d="M221.39,161.7c4.746,0,8.614-1.367,8.614-3.047s-3.868-3.047-8.614-3.047-8.61,1.371-8.61,3.047S216.648,161.7,221.39,161.7Z" transform="translate(-192.31 -141.384)" fill="#ffcd05" fill-rule="evenodd"/>
      <path id="Trazado_908037" data-name="Trazado 908037" d="M290.839,171.49c.919,0,1.669-.347,1.669-.768s-.749-.772-1.669-.772-1.669.347-1.669.772S289.919,171.49,290.839,171.49Z" transform="translate(-258.551 -153.818)" fill="#feeb90" fill-rule="evenodd"/>
      <path id="Trazado_908038" data-name="Trazado 908038" d="M81.265,60.829A19.627,19.627,0,0,0,73.111,95.14l-4.426,5.713A26.855,26.855,0,0,1,79.438,53.83Z" transform="translate(-58.72 -53.127)" fill="#6d51a1" fill-rule="evenodd"/>
      <path id="Trazado_908039" data-name="Trazado 908039" d="M194.768,305.446a26.9,26.9,0,0,1-23.908,0l2.975-5.984.24-.486A19.632,19.632,0,0,0,201.87,286.11l7.1,1.386A26.9,26.9,0,0,1,194.768,305.446Z" transform="translate(-155.96 -254.544)" fill="#1bbecb" fill-rule="evenodd"/>
      <path id="Trazado_908040" data-name="Trazado 908040" d="M260.83,48.54a26.853,26.853,0,0,1,26.854,26.854h-7.228a19.629,19.629,0,0,0-19.626-19.63Z" transform="translate(-233.976 -48.54)" fill="#bfafd5" fill-rule="evenodd"/>
      <path id="Trazado_908041" data-name="Trazado 908041" d="M164.837,232.951a8.355,8.355,0,1,0-8.357-8.353A8.367,8.367,0,0,0,164.837,232.951Z" transform="translate(-143.491 -193.958)" fill="#ffcd05" fill-rule="evenodd"/>
      <path id="Trazado_908042" data-name="Trazado 908042" d="M181.894,247.42a5.74,5.74,0,1,0-5.744-5.74A5.753,5.753,0,0,0,181.894,247.42Z" transform="translate(-160.547 -211.04)" fill="#faa21b" fill-rule="evenodd"/>
      <path id="Trazado_908043" data-name="Trazado 908043" d="M249.044,263.217a1.624,1.624,0,1,0-1.624-1.624A1.629,1.629,0,0,0,249.044,263.217Z" transform="translate(-222.348 -231.878)" fill="#feeb90" fill-rule="evenodd"/>
      <path id="Trazado_908044" data-name="Trazado 908044" d="M293.26,194.516c-1.646,0-2.215-.667-2.215-3.736,0,2.833-.294,3.736-2.215,3.736,1.921,0,2.215.987,2.215,3.126C291.045,195.74,291.339,194.516,293.26,194.516Z" transform="translate(-258.256 -171.881)" fill="#feeb90" fill-rule="evenodd"/>
    </g>
    <path id="Trazado_908045" data-name="Trazado 908045" d="M72.67,54.266V68.741c0,1.307-1.217,2.388-3.182,3.085a19.824,19.824,0,0,1-6.331.949A9.343,9.343,0,1,1,53.473,58.5V54.3c0-1.31,1.22-2.392,3.182-3.085a22.172,22.172,0,0,1,12.832,0C71.442,51.9,72.655,52.975,72.67,54.266ZM52.019,69.814a.985.985,0,0,1,1.962-.177c.068.761,1.544,1.22,2.388.531a.8.8,0,0,0,.324-.591c0-.648-.772-.8-1.54-.949-1.574-.306-3.145-.61-3.145-2.885a2.963,2.963,0,0,1,2.328-2.768v-.421a.987.987,0,0,1,1.014-.987v0a.979.979,0,0,1,.983,1l-.008.4a2.969,2.969,0,0,1,2.342,2.772.987.987,0,1,1-1.974,0c0-.8-1.525-1.3-2.388-.591a.8.8,0,0,0-.324.591c0,.648.772.8,1.54.949,1.574.306,3.145.614,3.145,2.885a2.973,2.973,0,0,1-2.35,2.776l0,.415a.989.989,0,0,1-1.978,0v-.421a3.016,3.016,0,0,1-2.315-2.532Zm12.128.959a16.7,16.7,0,0,0,4.685-.809c1.152-.407,1.864-.848,1.864-1.224V66.485a15.72,15.72,0,0,1-6.019,1.42,9.271,9.271,0,0,1-.53,2.869Zm.376-4.831a15.811,15.811,0,0,0,4.5-.862c1.039-.392,1.675-.807,1.675-1.152v-2.26a17.076,17.076,0,0,1-7.183,1.472,9.294,9.294,0,0,1,1.01,2.8Zm-2.486-4.8a19.383,19.383,0,0,0,6.795-.813c1.152-.407,1.864-.848,1.864-1.224V56.854c-3.665,1.966-11.585,1.966-15.249,0V58.32a9.288,9.288,0,0,1,6.59,2.827Zm-7.457-.817c-.008,0-.019,0-.027,0a7.094,7.094,0,1,0,.027,0ZM82.045,91.41H78.1a.986.986,0,0,1-.768-.365L74.64,88.057a27.86,27.86,0,0,1-26.191.749.987.987,0,0,1-.415-1.375l3.19-6.414a.985.985,0,0,1,1.322-.448,18.651,18.651,0,0,0,26.4-12.219.983.983,0,0,1,1.145-.731v0L87.19,69a.987.987,0,0,1,.761,1.242,27.732,27.732,0,0,1-5.262,10.881A28.016,28.016,0,0,1,76.343,87l2.192,2.429h3.51a3.5,3.5,0,1,1,0,1.98Zm-8.761-4.854L71.86,84.977a.987.987,0,0,1,1.466-1.322l1.679,1.868A25.873,25.873,0,0,0,85.789,70.741l-5.175-1.01A20.619,20.619,0,0,1,52.563,82.755L50.22,87.462a25.884,25.884,0,0,0,23.063-.906ZM85.4,91.945a1.522,1.522,0,1,0-1.521-1.521A1.524,1.524,0,0,0,85.4,91.945ZM34.687,43.16v5.321L36.6,50.2a27.867,27.867,0,0,1,17.891-13.43.98.98,0,0,1,1.191.768l1.815,6.937a.988.988,0,0,1-.768,1.217,18.644,18.644,0,0,0-7.717,32.586.983.983,0,0,1,.154,1.359l-4.426,5.713a.983.983,0,0,1-1.408.154A27.822,27.822,0,0,1,35.658,52.01l-2.58-2.324a.992.992,0,0,1-.365-.768V43.16a3.5,3.5,0,1,1,1.974,0Zm3.408,8.391,2.178,1.962a.986.986,0,0,1-1.318,1.466l-1.763-1.585a25.879,25.879,0,0,0,6.614,29.942l3.227-4.165a20.617,20.617,0,0,1,8.3-35.16L54,38.921A25.923,25.923,0,0,0,38.095,51.55ZM33.7,38.278A1.524,1.524,0,1,0,35.221,39.8,1.527,1.527,0,0,0,33.7,38.278Zm49.649,1.48h-3.51l-1.917,2.125A27.789,27.789,0,0,1,88.684,63.874a.986.986,0,0,1-.987.987H80.473a.99.99,0,0,1-.991-.987,18.639,18.639,0,0,0-18.64-18.64.986.986,0,0,1-.987-.987V37.019a.989.989,0,0,1,.987-.987A27.7,27.7,0,0,1,76.306,40.72l2.32-2.576a1,1,0,0,1,.768-.365h3.951a3.5,3.5,0,1,1,0,1.98Zm-6.758,3.6-1.962,2.18a.988.988,0,0,1-1.47-1.322l1.811-2.008a25.707,25.707,0,0,0-13.137-4.177v5.254a20.616,20.616,0,0,1,19.6,19.6H86.69A25.816,25.816,0,0,0,76.591,43.355Zm11.19-5.664a1.524,1.524,0,1,0,0,2.155A1.527,1.527,0,0,0,87.781,37.691ZM68.832,53.069a20.333,20.333,0,0,0-11.521,0c-1.152.411-1.864.848-1.864,1.228s.712.817,1.864,1.224a20.333,20.333,0,0,0,11.521,0c1.152-.407,1.864-.848,1.864-1.224S69.984,53.48,68.832,53.069Z" transform="translate(0)"/>
  </g>
</svg>
