<svg xmlns="http://www.w3.org/2000/svg" width="60" height="60" viewBox="0 0 60 60">
  <g id="img11" transform="translate(-8.004 -8.001)">
    <g id="Grupo_1118724" data-name="Grupo 1118724" transform="translate(8.971 8.905)">
      <g id="Grupo_1118721" data-name="Grupo 1118721" transform="translate(31.367 10.55)">
        <path id="Trazado_908046" data-name="Trazado 908046" d="M303.823,146.6l-.018-11.889c0-2.231.291-4.328,1.949-5.822,1.847-1.665,5.206-4.187,7.791-7.244a2.857,2.857,0,0,1,3.953,0,2.766,2.766,0,0,1,0,3.953l.88-1.083a6.412,6.412,0,0,0,1.539-4.2l-.044-11.446c-.034-8.9,6.5-6.431,6.581-3.43l.6,21.07a6.582,6.582,0,0,1-2.014,4.991l-9.53,9.53V146.6a1.947,1.947,0,0,1-1.943,1.943h-7.8A1.947,1.947,0,0,1,303.823,146.6Z" transform="translate(-300.356 -102.687)" fill="#f6dccd" fill-rule="evenodd"/>
        <path id="Trazado_908047" data-name="Trazado 908047" d="M370.134,263.661a2.822,2.822,0,0,1-.416,3.442c-1.555,1.565-3.12,3.121-4.68,4.68a1.07,1.07,0,0,1-1.513-1.513Z" transform="translate(-352.577 -244.188)" fill="#f1cbbc" fill-rule="evenodd"/>
        <path id="Trazado_908048" data-name="Trazado 908048" d="M303.823,312.619,303.8,300.73c0-2.231.291-4.328,1.949-5.822.988-.891,2.409-2.027,3.913-3.359v23.01h-3.9A1.947,1.947,0,0,1,303.823,312.619Z" transform="translate(-300.356 -268.703)" fill="#f1cbbc" fill-rule="evenodd"/>
        <path id="Trazado_908049" data-name="Trazado 908049" d="M276.795,444.917l16.563.142a1.461,1.461,0,0,1,1.444,1.469l-.027,3.189a1.46,1.46,0,0,1-1.469,1.444l-16.563-.142a1.461,1.461,0,0,1-1.444-1.469l.027-3.189A1.46,1.46,0,0,1,276.795,444.917Z" transform="translate(-275.299 -403.517)" fill="#d1d1d6" fill-rule="evenodd"/>
        <path id="Trazado_908050" data-name="Trazado 908050" d="M287.986,446.152l2.932.025,2.9.025a1.46,1.46,0,0,1,1.444,1.464l.01-1.139a1.46,1.46,0,0,0-1.444-1.469l-2.909-.025-5.841-.05-5.847-.05-1.966-.017a1.462,1.462,0,0,0-1.432,1.132l3.4.029,5.841.05,2.909.025Z" transform="translate(-275.767 -403.516)" fill="#b1b1b5" fill-rule="evenodd"/>
      </g>
      <g id="Grupo_1118722" data-name="Grupo 1118722" transform="translate(0 10.55)">
        <path id="Trazado_908051" data-name="Trazado 908051" d="M39.232,146.6l.018-11.889c0-2.231-.291-4.328-1.949-5.822-1.847-1.665-5.206-4.187-7.791-7.244a2.858,2.858,0,0,0-3.953,0,2.766,2.766,0,0,0,0,3.953l-.88-1.083a6.413,6.413,0,0,1-1.539-4.2l.044-11.446c.034-8.9-6.5-6.431-6.581-3.43l-.6,21.07a6.582,6.582,0,0,0,2.014,4.991l9.53,9.53V146.6a1.947,1.947,0,0,0,1.943,1.943h7.8a1.947,1.947,0,0,0,1.943-1.941Z" transform="translate(-16 -102.687)" fill="#f6dccd" fill-rule="evenodd"/>
        <path id="Trazado_908052" data-name="Trazado 908052" d="M88.567,263.661a2.822,2.822,0,0,0,.416,3.442c1.555,1.565,3.12,3.121,4.68,4.68a1.07,1.07,0,1,0,1.513-1.513Z" transform="translate(-79.426 -244.188)" fill="#f1cbbc" fill-rule="evenodd"/>
        <path id="Trazado_908053" data-name="Trazado 908053" d="M165.585,312.619l.018-11.889c0-2.231-.291-4.328-1.949-5.822-.988-.891-2.409-2.027-3.913-3.359v23.01h3.9A1.947,1.947,0,0,0,165.585,312.619Z" transform="translate(-142.353 -268.703)" fill="#f1cbbc" fill-rule="evenodd"/>
        <path id="Trazado_908054" data-name="Trazado 908054" d="M93.485,444.917l-16.563.142a1.46,1.46,0,0,0-1.444,1.469l.027,3.189a1.46,1.46,0,0,0,1.469,1.444l16.563-.142a1.461,1.461,0,0,0,1.444-1.469l-.027-3.189A1.461,1.461,0,0,0,93.485,444.917Z" transform="translate(-68.284 -403.517)" fill="#d1d1d6" fill-rule="evenodd"/>
        <path id="Trazado_908055" data-name="Trazado 908055" d="M82.762,446.152l-2.932.025-2.9.025a1.46,1.46,0,0,0-1.444,1.464l-.01-1.139a1.46,1.46,0,0,1,1.444-1.469l2.909-.025,5.841-.05,5.847-.05,1.966-.017a1.462,1.462,0,0,1,1.432,1.132l-3.4.029-5.841.05-2.909.025Z" transform="translate(-68.283 -403.516)" fill="#b1b1b5" fill-rule="evenodd"/>
      </g>
      <g id="Grupo_1118723" data-name="Grupo 1118723" transform="translate(12.48 0)">
        <path id="Trazado_908056" data-name="Trazado 908056" d="M139.018,18.214a14.13,14.13,0,0,1,4.136,1.715l2.688-1.194L149.01,21.9l-1.193,2.687a14.126,14.126,0,0,1,1.715,4.138l2.742,1.056v4.48l-2.743,1.056a14.127,14.127,0,0,1-1.715,4.136l1.194,2.688-3.168,3.168-2.687-1.193a14.127,14.127,0,0,1-4.138,1.715l-1.055,2.742h-4.48l-1.056-2.743a14.128,14.128,0,0,1-4.136-1.715L125.6,45.311l-3.168-3.168,1.193-2.687a14.13,14.13,0,0,1-1.715-4.138l-2.742-1.056v-4.48l2.743-1.056a14.126,14.126,0,0,1,1.715-4.137L122.434,21.9l3.168-3.168,2.688,1.194a14.127,14.127,0,0,1,4.137-1.715l1.056-2.743h4.48Z" transform="translate(-119.17 -15.471)" fill="#a79ba7" fill-rule="evenodd"/>
        <path id="Trazado_908057" data-name="Trazado 908057" d="M189.04,19.109l.837-.372,3.168,3.168-1.193,2.687a14.126,14.126,0,0,1,1.715,4.138l2.742,1.056v4.48l-2.743,1.056a14.128,14.128,0,0,1-1.715,4.136l1.194,2.688-3.168,3.168-.837-.372,2.8-2.8-1.194-2.688a14.128,14.128,0,0,0,1.715-4.136l2.743-1.056v-4.48l-2.742-1.056a14.125,14.125,0,0,0-1.715-4.138l1.193-2.687Zm-5.987-.893a14.129,14.129,0,0,1,4.066,1.672c.023.015.046.029.07.043l-.688.306a18.141,18.141,0,0,0-4.658-2.021l-1.056-2.743H182Zm-13.788.893.372-.372,2.688,1.194q-.263.147-.521.306Zm3.06,25.011-2.688,1.194-.372-.372,2.539-1.128Q172.061,43.972,172.325,44.12Zm14.866,0a14.13,14.13,0,0,1-4.137,1.715L182,48.577h-1.209l1.055-2.742a18.135,18.135,0,0,0,4.659-2.021Z" transform="translate(-163.205 -15.473)" fill="#837683" fill-rule="evenodd"/>
        <circle id="Elipse_11654" data-name="Elipse 11654" cx="10.279" cy="10.279" r="10.279" transform="translate(2.012 16.554) rotate(-45)" fill="#ffe177"/>
        <path id="Trazado_908058" data-name="Trazado 908058" d="M181.3,67.329c.141,0,.28,0,.42.009a10.279,10.279,0,0,0,0,20.54c-.139.006-.279.009-.42.009a10.279,10.279,0,0,1,0-20.558Z" transform="translate(-164.752 -61.056)" fill="#ffd064" fill-rule="evenodd"/>
      </g>
    </g>
    <path id="Trazado_908059" data-name="Trazado 908059" d="M22.42,27.1l2.122.818a.965.965,0,0,1,.594.679,13.147,13.147,0,0,0,1.6,3.854.967.967,0,0,1,.06.9l-.924,2.081L28.1,37.655l2.081-.924a.967.967,0,0,1,.9.06,13.148,13.148,0,0,0,3.853,1.6.969.969,0,0,1,.679.594l.817,2.123h3.151l.817-2.122a.969.969,0,0,1,.679-.594,13.133,13.133,0,0,0,3.854-1.6.971.971,0,0,1,.9-.06l2.08.924,2.228-2.228-.924-2.081a.969.969,0,0,1,.06-.9,13.133,13.133,0,0,0,1.6-3.853.969.969,0,0,1,.594-.679l2.123-.818V23.944l-2.122-.817a.969.969,0,0,1-.594-.679,13.131,13.131,0,0,0-1.6-3.854.968.968,0,0,1-.06-.9l.924-2.081L47.91,13.386l-2.081.924a.965.965,0,0,1-.9-.06,13.163,13.163,0,0,0-3.853-1.6.97.97,0,0,1-.679-.594L39.58,9.936H36.428l-.817,2.123a.969.969,0,0,1-.679.594,13.162,13.162,0,0,0-3.853,1.6.965.965,0,0,1-.9.06L28.1,13.386,25.87,15.615l.924,2.081a.967.967,0,0,1-.06.9,13.127,13.127,0,0,0-1.6,3.854.969.969,0,0,1-.594.679l-2.123.818Zm-1.936.665V23.28a.966.966,0,0,1,.62-.9l2.277-.877a15.079,15.079,0,0,1,1.441-3.477l-.991-2.231a.968.968,0,0,1,.2-1.078L27.2,11.549a.969.969,0,0,1,1.077-.2l2.232.99A15.061,15.061,0,0,1,33.984,10.9l.877-2.276a.967.967,0,0,1,.9-.621h4.48a.967.967,0,0,1,.9.621l.877,2.276A15.076,15.076,0,0,1,45.5,12.338l2.232-.99a.968.968,0,0,1,1.077.2l3.168,3.167a.968.968,0,0,1,.2,1.078l-.991,2.231A15.07,15.07,0,0,1,52.628,21.5l2.276.877a.966.966,0,0,1,.62.9v4.481a.966.966,0,0,1-.62.9l-2.277.877a15.022,15.022,0,0,1-1.441,3.476l.991,2.232a.968.968,0,0,1-.2,1.078l-3.168,3.167a.969.969,0,0,1-1.077.2L45.5,38.7a15.055,15.055,0,0,1-3.477,1.44l-.876,2.277a.968.968,0,0,1-.9.621h-4.48a.968.968,0,0,1-.9-.621l-.877-2.277A15.027,15.027,0,0,1,30.508,38.7l-2.232.992a.969.969,0,0,1-1.077-.2l-3.168-3.167a.968.968,0,0,1-.2-1.078l.991-2.23a15.042,15.042,0,0,1-1.441-3.477L21.1,28.663a.965.965,0,0,1-.62-.9ZM32.219,62.945A.988.988,0,1,0,33.5,63.5.988.988,0,0,0,32.219,62.945Zm2.411,2.491a.491.491,0,0,1-.48.488l-16.519.142h0a.491.491,0,0,1-.485-.48l-.027-3.181a.49.49,0,0,1,.48-.489l16.519-.142h0a.49.49,0,0,1,.484.481ZM21.456,57.763a.968.968,0,0,0-.284-.684l-9.5-9.5a5.614,5.614,0,0,1-1.726-4.266l.6-21.014a2.2,2.2,0,0,1,2.186-1.806c1.542.024,2.455,1.967,2.443,5.2L15.122,37.1a7.327,7.327,0,0,0,1.752,4.8c.214.264.427.518.64.765.04.057,4.46,4.546,4.972,5.058a.968.968,0,0,0,1.369-1.369c-.522-.521-3.729-3.637-4.805-4.873a1.733,1.733,0,0,1,.138-2.369,1.868,1.868,0,0,1,2.565,0,51.233,51.233,0,0,0,6.137,5.822c.65.548,1.211,1.021,1.678,1.442,1.432,1.29,1.626,3.207,1.623,5.085l-.013,8.406-9.723.083V57.763Zm15.083,4.476.027,3.181a2.423,2.423,0,0,1-2.4,2.441L17.648,68h-.021a2.422,2.422,0,0,1-2.42-2.4l-.027-3.181a2.423,2.423,0,0,1,2.4-2.441l1.942-.017v-1.8L10.3,48.942a7.579,7.579,0,0,1-2.292-5.689l.6-21.014a4.123,4.123,0,0,1,4.152-3.686c1.026.017,4.372.58,4.347,7.138L17.058,37.1a5.409,5.409,0,0,0,.167,1.386,4.056,4.056,0,0,1,.594-.745,3.829,3.829,0,0,1,5.274-.035.885.885,0,0,1,.091.094,49.451,49.451,0,0,0,5.953,5.647c.635.535,1.236,1.041,1.727,1.483,2,1.8,2.267,4.311,2.263,6.526l-.013,8.386.984-.009h.021a2.425,2.425,0,0,1,2.419,2.4Zm6.52,2.543a.988.988,0,1,0-.553-1.283.989.989,0,0,0,.553,1.283Zm11.494-4.833-9.723-.083-.013-8.406c0-1.878.192-3.8,1.624-5.085.467-.421,1.028-.894,1.678-1.442a51.251,51.251,0,0,0,6.137-5.822,1.868,1.868,0,0,1,2.565,0,1.733,1.733,0,0,1,.138,2.369c-1.076,1.236-4.283,4.351-4.805,4.873a.968.968,0,0,0,1.369,1.369c.512-.513,4.932-5,4.972-5.058.213-.247.426-.5.64-.765a7.328,7.328,0,0,0,1.752-4.8l-.044-11.415c-.012-3.228.9-5.171,2.443-5.2a2.206,2.206,0,0,1,2.186,1.806l.6,21.014a5.613,5.613,0,0,1-1.726,4.266l-9.5,9.5a.968.968,0,0,0-.284.684v2.186Zm3.86,1.968a.49.49,0,0,1,.48.489l-.027,3.181a.487.487,0,0,1-.489.48l-16.519-.142a.491.491,0,0,1-.48-.488l.027-3.18a.491.491,0,0,1,.485-.481h0Zm-1.925-3.753v1.8l1.942.017a2.423,2.423,0,0,1,2.4,2.441L60.8,65.6a2.423,2.423,0,0,1-2.42,2.4H58.36L41.841,67.86a2.423,2.423,0,0,1-2.4-2.441l.027-3.181a2.422,2.422,0,0,1,2.42-2.4h.021l.984.009-.013-8.386c0-2.216.263-4.723,2.263-6.526.491-.442,1.091-.949,1.727-1.483a49.478,49.478,0,0,0,5.953-5.647.871.871,0,0,1,.091-.094,3.829,3.829,0,0,1,5.275.035,4.06,4.06,0,0,1,.593.745A5.409,5.409,0,0,0,58.95,37.1L58.907,25.69c-.025-6.559,3.321-7.121,4.347-7.138a4.121,4.121,0,0,1,4.152,3.686L68,43.253a7.575,7.575,0,0,1-2.292,5.689Zm-27.2-32.642A8.715,8.715,0,1,1,38,34.237,8.726,8.726,0,0,1,29.289,25.521Zm-1.935,0A10.651,10.651,0,1,1,38,36.172,10.663,10.663,0,0,1,27.353,25.521Zm6.606,2.839a.968.968,0,1,1,1.878-.468,2.135,2.135,0,0,0,2.271,1.419,2.634,2.634,0,0,0,1.823-.668.894.894,0,0,0,.2-.739c-.063-.518-.378-1.151-2.277-1.463-2.874-.471-3.545-1.974-3.6-3.151a3.337,3.337,0,0,1,2.782-3.382v-.514a.968.968,0,1,1,1.936,0V19.9a3.818,3.818,0,0,1,2.775,2.305.968.968,0,1,1-1.785.749,2.087,2.087,0,0,0-2.478-1.162c-.226.051-1.348.358-1.3,1.4.013.278.049,1.017,1.982,1.336,2.372.39,3.679,1.446,3.885,3.139a2.811,2.811,0,0,1-.661,2.238,4.13,4.13,0,0,1-2.422,1.258v.482a.968.968,0,0,1-1.936,0v-.5A3.837,3.837,0,0,1,33.959,28.36Z" transform="translate(0)" fill-rule="evenodd"/>
  </g>
</svg>
