<svg id="img2" xmlns="http://www.w3.org/2000/svg" xmlns:xlink="http://www.w3.org/1999/xlink" width="190" height="144" viewBox="0 0 190 144">
  <defs>
    <clipPath id="clip-path">
      <rect id="Rectángulo_400938" data-name="Rectángulo 400938" width="123" height="123" fill="none"/>
    </clipPath>
    <clipPath id="clip-path-2">
      <rect id="Rectángulo_401073" data-name="Rectángulo 401073" width="94.019" height="42.342" fill="#efb499"/>
    </clipPath>
  </defs>
  <rect id="Rectángulo_408804" data-name="Rectángulo 408804" width="190" height="144" fill="#ffe2b7"/>
  <g id="Grupo_1120361" data-name="Grupo 1120361" transform="translate(34 11)">
    <g id="Grupo_1099349" data-name="Grupo 1099349">
      <rect id="Rectángulo_401103" data-name="Rectángulo 401103" width="123" height="123" fill="none"/>
      <g id="Grupo_1099348" data-name="Grupo 1099348" transform="translate(0 0)">
        <g id="Grupo_1099282" data-name="Grupo 1099282">
          <g id="Grupo_1099281" data-name="Grupo 1099281" clip-path="url(#clip-path-2)">
            <path id="Trazado_873375" data-name="Trazado 873375" d="M76.265,9.279c-4.22,0-6.4-2.069-8.329-3.9-1.891-1.79-3.519-3.337-6.925-3.337s-5.034,1.547-6.925,3.337c-1.927,1.826-4.106,3.9-8.329,3.9s-6.4-2.069-8.329-3.9C35.538,3.594,33.91,2.047,30.5,2.047S25.47,3.594,23.583,5.384c-1.927,1.826-4.109,3.9-8.329,3.9S8.848,7.21,6.921,5.384C5.034,3.594,3.406,2.047,0,2.047V0C4.22,0,6.4,2.073,8.329,3.9c1.891,1.794,3.519,3.337,6.925,3.337S20.287,5.689,22.175,3.9C24.1,2.073,26.284,0,30.5,0s6.406,2.073,8.329,3.9c1.891,1.794,3.519,3.337,6.925,3.337S50.791,5.689,52.682,3.9C54.606,2.073,56.792,0,61.011,0s6.406,2.073,8.329,3.9c1.891,1.794,3.519,3.337,6.925,3.337S81.3,5.689,83.189,3.9C85.113,2.073,87.3,0,91.518,0V2.047c-3.406,0-5.034,1.547-6.925,3.337-1.927,1.826-4.109,3.9-8.329,3.9" transform="translate(2.501 33.063)" fill="#efb499"/>
            <path id="Trazado_873376" data-name="Trazado 873376" d="M76.265,9.279c-4.22,0-6.406-2.069-8.329-3.9-1.891-1.79-3.519-3.334-6.925-3.334S55.977,3.59,54.087,5.381c-1.923,1.829-4.106,3.9-8.329,3.9s-6.406-2.069-8.329-3.9C35.538,3.59,33.909,2.047,30.5,2.047S25.47,3.594,23.583,5.381c-1.927,1.829-4.109,3.9-8.329,3.9S8.848,7.21,6.921,5.381C5.034,3.59,3.406,2.047,0,2.047V0C4.22,0,6.406,2.069,8.329,3.9c1.891,1.794,3.519,3.337,6.925,3.337S20.287,5.689,22.175,3.9C24.1,2.069,26.284,0,30.5,0s6.406,2.069,8.332,3.9c1.888,1.794,3.516,3.337,6.921,3.337S50.791,5.689,52.682,3.9C54.606,2.069,56.792,0,61.011,0s6.406,2.069,8.329,3.9c1.891,1.794,3.519,3.337,6.925,3.337S81.3,5.689,83.189,3.9C85.116,2.069,87.3,0,91.522,0V2.047c-3.406,0-5.037,1.547-6.928,3.334-1.927,1.829-4.109,3.9-8.329,3.9" transform="translate(1.667 22.042)" fill="#efb499"/>
            <path id="Trazado_873377" data-name="Trazado 873377" d="M76.265,9.279c-4.22,0-6.406-2.069-8.329-3.9-1.891-1.79-3.519-3.334-6.925-3.334S55.977,3.59,54.087,5.381c-1.923,1.829-4.109,3.9-8.329,3.9s-6.406-2.069-8.329-3.9C35.538,3.59,33.91,2.047,30.5,2.047S25.47,3.594,23.583,5.381c-1.927,1.829-4.109,3.9-8.329,3.9S8.848,7.21,6.921,5.381C5.034,3.59,3.406,2.047,0,2.047V0C4.22,0,6.406,2.069,8.329,3.9c1.888,1.794,3.519,3.337,6.925,3.337S20.287,5.689,22.175,3.9C24.1,2.069,26.284,0,30.5,0s6.406,2.069,8.332,3.9c1.888,1.794,3.516,3.337,6.921,3.337S50.791,5.689,52.682,3.9C54.605,2.069,56.791,0,61.011,0s6.406,2.069,8.329,3.9c1.891,1.794,3.519,3.337,6.925,3.337S81.3,5.689,83.189,3.9C85.116,2.069,87.3,0,91.522,0V2.047c-3.406,0-5.037,1.547-6.928,3.334-1.927,1.829-4.109,3.9-8.329,3.9" transform="translate(0.834 11.021)" fill="#efb499"/>
            <path id="Trazado_873378" data-name="Trazado 873378" d="M76.265,9.276c-4.22,0-6.4-2.069-8.329-3.9-1.891-1.79-3.519-3.334-6.925-3.334S55.977,3.59,54.09,5.381c-1.927,1.826-4.109,3.9-8.332,3.9s-6.4-2.069-8.329-3.9C35.538,3.59,33.91,2.047,30.5,2.047S25.47,3.59,23.583,5.378c-1.923,1.829-4.109,3.9-8.329,3.9s-6.406-2.069-8.332-3.9C5.034,3.59,3.406,2.047,0,2.047V0C4.22,0,6.406,2.069,8.329,3.9c1.891,1.79,3.519,3.334,6.925,3.334S20.287,5.686,22.175,3.9C24.1,2.069,26.284,0,30.5,0s6.4,2.069,8.332,3.9c1.888,1.79,3.516,3.334,6.921,3.334S50.791,5.686,52.682,3.9C54.609,2.069,56.792,0,61.011,0s6.4,2.069,8.329,3.9c1.891,1.79,3.519,3.334,6.925,3.334S81.3,5.686,83.189,3.9C85.116,2.069,87.3,0,91.522,0V2.047c-3.409,0-5.037,1.544-6.928,3.334-1.927,1.826-4.109,3.9-8.329,3.9" transform="translate(0 0.003)" fill="#efb499"/>
          </g>
        </g>
      </g>
      <circle id="Elipse_11504" data-name="Elipse 11504" cx="51.5" cy="51.5" r="51.5" transform="translate(15 19)" fill="#ffce73"/>
      <circle id="Elipse_11503" data-name="Elipse 11503" cx="53.5" cy="53.5" r="53.5" transform="translate(8 8)" fill="#f3f9ff"/>
    </g>
    <g id="Page-1" transform="translate(31.095 31.096)">
      <g id="_015---Financial-Profit" data-name="015---Financial-Profit" transform="translate(0 0)">
        <path id="Shape" d="M4.058,32.625a3.052,3.052,0,0,0,2.163-.894L11.2,26.767l2.511,2.513a5.1,5.1,0,0,0,7.212,0L35.877,14.316l4.549,4.551a5.1,5.1,0,0,0,7.213,0l9.106-9.119.756.756a2.438,2.438,0,0,0,4.154-1.54l.51-6.567v-.01A2.234,2.234,0,0,0,59.785.006l-6.573.51A2.43,2.43,0,0,0,51.67,4.659l.756.759-8.4,8.4L39.483,9.266a5.1,5.1,0,0,0-7.212,0L17.312,24.231,14.8,21.716a5.1,5.1,0,0,0-7.213,0l-5.684,5.7a3.05,3.05,0,0,0,2.152,5.21Zm-.714-3.772,5.688-5.7a3.059,3.059,0,0,1,4.328,0l3.231,3.233a1.02,1.02,0,0,0,1.443,0L33.712,10.7a3.133,3.133,0,0,1,4.329,0l4.549,4.551a2.088,2.088,0,0,0,2.884,0L54.59,6.135a1.02,1.02,0,0,0,0-1.441L53.109,3.214a.365.365,0,0,1-.089-.408.385.385,0,0,1,.348-.26l6.569-.507a.177.177,0,0,1,.137.055.193.193,0,0,1,.059.149l-.51,6.566a.4.4,0,0,1-.679.254L57.466,7.583a1.05,1.05,0,0,0-1.443,0L46.2,17.425a3.138,3.138,0,0,1-4.328,0l-4.549-4.551a2.037,2.037,0,0,0-2.883,0L19.478,27.838a3.134,3.134,0,0,1-4.329,0l-2.511-2.513a2.039,2.039,0,0,0-2.882,0L4.777,30.3a1.028,1.028,0,0,1-1.438,0,1,1,0,0,1,0-1.427Z" transform="translate(-0.999 -0.001)" fill="#7d3a1b"/>
        <path id="Shape-2" data-name="Shape" d="M41.39,38.2A10.2,10.2,0,1,0,25.1,46.352h-.025a3.045,3.045,0,0,0-2.263,5.1,3.012,3.012,0,0,0,0,4.078,3.045,3.045,0,0,0,2.263,5.1H37.312a3.045,3.045,0,0,0,2.263-5.1,3.012,3.012,0,0,0,0-4.078,3.045,3.045,0,0,0-2.263-5.1h-.025a10.177,10.177,0,0,0,4.1-8.156ZM38.332,53.488a1.02,1.02,0,0,1-1.02,1.02H25.078a1.02,1.02,0,1,1,0-2.039H37.312A1.02,1.02,0,0,1,38.332,53.488Zm-1.02,5.1H25.078a1.02,1.02,0,0,1,0-2.039H37.312a1.02,1.02,0,0,1,0,2.039Zm0-10.2a1.02,1.02,0,1,1,0,2.039H25.078a1.02,1.02,0,0,1,0-2.039ZM23.039,38.2A8.156,8.156,0,1,1,31.2,46.352,8.156,8.156,0,0,1,23.039,38.2Z" transform="translate(-0.609 0.545)" fill="#7d3a1b"/>
        <path id="Path" d="M31.059,37.1a1.02,1.02,0,1,1,.884-1.529,1.02,1.02,0,1,0,1.765-1.02,3.059,3.059,0,0,0-1.629-1.325v-.2a1.02,1.02,0,0,0-2.039,0v.188a3.051,3.051,0,0,0,1.02,5.93,1.02,1.02,0,1,1-.884,1.529,1.02,1.02,0,0,0-1.765,1.02,3.059,3.059,0,0,0,1.631,1.325v.2a1.02,1.02,0,1,0,2.039,0v-.188a3.051,3.051,0,0,0-1.022-5.93Z" transform="translate(-0.472 0.624)" fill="#7d3a1b" fill-rule="evenodd"/>
        <path id="Shape-3" data-name="Shape" d="M51.2,20A10.183,10.183,0,0,0,45.1,38.351h-.025a3.045,3.045,0,0,0-2.263,5.1,3.012,3.012,0,0,0,0,4.078,3.012,3.012,0,0,0,0,4.078,3.012,3.012,0,0,0,0,4.078,3.045,3.045,0,0,0,2.263,5.1H57.312a3.045,3.045,0,0,0,2.263-5.1,3.012,3.012,0,0,0,0-4.078,3.012,3.012,0,0,0,0-4.078,3.012,3.012,0,0,0,0-4.078,3.045,3.045,0,0,0-2.263-5.1h-.027A10.182,10.182,0,0,0,51.2,20Zm7.137,25.488a1.02,1.02,0,0,1-1.02,1.02H45.078a1.02,1.02,0,0,1,0-2.039H57.312A1.02,1.02,0,0,1,58.332,45.488Zm0,4.078a1.02,1.02,0,0,1-1.02,1.02H45.078a1.02,1.02,0,0,1,0-2.039H57.312A1.02,1.02,0,0,1,58.332,49.566Zm0,4.078a1.02,1.02,0,0,1-1.02,1.02H45.078a1.02,1.02,0,0,1,0-2.039H57.312A1.02,1.02,0,0,1,58.332,53.644Zm-1.02,5.1H45.078a1.02,1.02,0,0,1,0-2.039H57.312a1.02,1.02,0,0,1,0,2.039Zm0-18.351a1.02,1.02,0,1,1,0,2.039H45.078a1.02,1.02,0,1,1,0-2.039ZM51.2,38.351A8.156,8.156,0,1,1,59.351,30.2,8.156,8.156,0,0,1,51.2,38.351Z" transform="translate(-0.218 0.389)" fill="#7d3a1b"/>
        <path id="Path-2" data-name="Path" d="M51.059,29.1a1.02,1.02,0,1,1,.884-1.529,1.02,1.02,0,0,0,1.765-1.02,3.051,3.051,0,0,0-1.629-1.325v-.2a1.02,1.02,0,1,0-2.039,0v.188a3.051,3.051,0,0,0,1.02,5.93,1.02,1.02,0,1,1-.884,1.529,1.02,1.02,0,0,0-1.765,1.02,3.051,3.051,0,0,0,1.631,1.325v.2a1.02,1.02,0,1,0,2.039,0v-.188a3.051,3.051,0,0,0-1.022-5.93Z" transform="translate(-0.082 0.468)" fill="#7d3a1b" fill-rule="evenodd"/>
        <path id="Shape-4" data-name="Shape" d="M5.1,54.352H5.078a3.059,3.059,0,0,0,0,6.117H17.312a3.059,3.059,0,1,0,0-6.117h-.025a10.2,10.2,0,1,0-12.183,0Zm12.209,2.039a1.02,1.02,0,0,1,0,2.039H5.078a1.02,1.02,0,0,1,0-2.039ZM11.2,38.039A8.156,8.156,0,1,1,3.039,46.2,8.156,8.156,0,0,1,11.2,38.039Z" transform="translate(-0.999 0.701)" fill="#7d3a1b"/>
        <path id="Path-3" data-name="Path" d="M11.059,47.137a1.02,1.02,0,1,1-.884,1.529,1.02,1.02,0,1,0-1.765,1.02,3.059,3.059,0,0,0,1.631,1.325v.2a1.02,1.02,0,0,0,2.039,0v-.188a3.051,3.051,0,0,0-1.022-5.93,1.02,1.02,0,1,1,.884-1.529,1.02,1.02,0,1,0,1.765-1.02,3.059,3.059,0,0,0-1.629-1.325v-.2a1.02,1.02,0,1,0-2.039,0v.188a3.051,3.051,0,0,0,1.02,5.93Z" transform="translate(-0.863 0.78)" fill="#7d3a1b" fill-rule="evenodd"/>
      </g>
    </g>
  </g>
</svg>
