<svg xmlns="http://www.w3.org/2000/svg" xmlns:xlink="http://www.w3.org/1999/xlink" width="295" height="250" viewBox="0 0 295 250">
  <defs>
    <clipPath id="clip-path">
      <rect id="Rectángulo_378415" data-name="Rectángulo 378415" width="295" height="250" rx="20" fill="#d1e1dd"/>
    </clipPath>
    <clipPath id="clip-path-2">
      <rect id="Rectángulo_377901" data-name="Rectángulo 377901" width="418.4" height="323.115" rx="20" fill="#d1e1dd"/>
    </clipPath>
    <clipPath id="clip-path-3">
      <rect id="Rectángulo_377901-2" data-name="Rectángulo 377901" width="419.985" height="339.892" rx="20" transform="translate(0)" fill="#d1e1dd"/>
    </clipPath>
    <clipPath id="clip-path-5">
      <rect id="Rectángulo_400938" data-name="Rectángulo 400938" width="121" height="121" transform="translate(0 0)" fill="none"/>
    </clipPath>
    <clipPath id="clip-path-6">
      <path id="Sustracción_1" data-name="Sustracción 1" d="M8.532,57H0V0H93V23.266A51.962,51.962,0,0,0,60.5,12,52.725,52.725,0,0,0,8.532,57Z" transform="translate(-6663 -11926)" fill="#fff"/>
    </clipPath>
    <clipPath id="clip-path-8">
      <rect id="Rectángulo_401073" data-name="Rectángulo 401073" width="92.219" height="41.532" fill="#fff"/>
    </clipPath>
  </defs>
  <g id="img1" transform="translate(-180.282 -441)">
    <g id="imgfontarj1" transform="translate(-104.386 -5535)">
      <g id="Enmascarar_grupo_1073331" data-name="Enmascarar grupo 1073331" transform="translate(284.668 5976)" clip-path="url(#clip-path)">
        <g id="Grupo_1074341" data-name="Grupo 1074341" transform="translate(-17.871 -53.04)">
          <rect id="Rectángulo_378306" data-name="Rectángulo 378306" width="463.061" height="327.897" transform="translate(330.36) rotate(90)" fill="none"/>
          <g id="Grupo_1074334" data-name="Grupo 1074334" transform="translate(323.115 35.728) rotate(90)">
            <g id="Enmascarar_grupo_154360" data-name="Enmascarar grupo 154360" transform="translate(0)" clip-path="url(#clip-path-2)">
              <rect id="Rectángulo_378306-2" data-name="Rectángulo 378306" width="367.701" height="341.557" transform="translate(411.269 322.837) rotate(180)" fill="none"/>
              <g id="Grupo_1074332" data-name="Grupo 1074332" transform="translate(-23.571 -26.48)">
                <g id="Grupo_154360" data-name="Grupo 154360" transform="translate(0)" clip-path="url(#clip-path-3)">
                  <path id="Trazado_610761" data-name="Trazado 610761" d="M0,0H372.34V421.4H0Z" transform="translate(418.463 0.508) rotate(90)" fill="#d1e1dd"/>
                  <path id="Trazado_611367" data-name="Trazado 611367" d="M0,0H27.948V433.225H0Z" transform="translate(421.522 -13.561) rotate(90)" fill="#d1e1dd"/>
                  <rect id="Rectángulo_378306-3" data-name="Rectángulo 378306" width="395.577" height="359.468" transform="translate(393.56 338.287) rotate(180)" fill="none"/>
                  <g id="Grupo_1074333" data-name="Grupo 1074333" transform="translate(-11.066 -10.099)">
                    <path id="Trazado_611368" data-name="Trazado 611368" d="M1.139,0,131.8,2.033l6.912,22.573L0,24.745Z" transform="translate(5.597)" fill="#d1e1dd"/>
                    <path id="Trazado_611369" data-name="Trazado 611369" d="M1.139,0,145.129,1.813l-6.64,21.845L0,24.745Z" transform="translate(0 331.609)" fill="#d1e1dd"/>
                  </g>
                </g>
              </g>
            </g>
          </g>
        </g>
        <path id="Trazado_873424" data-name="Trazado 873424" d="M367.034,400.668c0-26.034-37.454-57.905-63.143-57.905s-47.417,5.1-76.663,5.1-71.643-10.6-71.643-62.441c0-13.744,6.475-29.845,6.475-54.583S144.3,181.36,98.349,184.7s-56.19-21.795-56.19-44.572S74.118,56.29,0,0V400.668Z" transform="translate(238.797 -29.566) rotate(90)" fill="#e2f5f1" opacity="0.58"/>
      </g>
    </g>
    <g id="img1-2" data-name="img1" transform="translate(-2)">
      <g id="Grupo_1117001" data-name="Grupo 1117001" transform="translate(-125.429 -1212.798)">
        <g id="Grupo_1099349" data-name="Grupo 1099349" transform="translate(5.043 -4325.202)">
          <rect id="Rectángulo_401103" data-name="Rectángulo 401103" width="121" height="121" transform="translate(387.668 6013)" fill="none"/>
          <circle id="Elipse_11504" data-name="Elipse 11504" cx="50.5" cy="50.5" r="50.5" transform="translate(402.668 6031)" fill="#fff"/>
          <circle id="Elipse_11503" data-name="Elipse 11503" cx="52.5" cy="52.5" r="52.5" transform="translate(395.668 6021)" fill="#09614d"/>
        </g>
      </g>
      <g id="OUTLINE" transform="translate(257.479 485.552)">
        <path id="Trazado_907345" data-name="Trazado 907345" d="M87.879,67.016H85.471a5.58,5.58,0,0,1-3.327-1.109L77.31,62.282a1.346,1.346,0,0,1,1.475-2.245l4.822,2.755a3.09,3.09,0,0,0,4.1-4.4L86.9,57.176l2.754-2.754,4.93,7.747,7.849,7.849L104,68.45l-7.677-7.677-.87-1.368V48.622l3.557-3.557a3.463,3.463,0,0,0-3.557-5.728V19.327A3.331,3.331,0,0,0,92.125,16H47.763a3.331,3.331,0,0,0-3.327,3.327V40.954l-2.218,1.664A5.572,5.572,0,0,0,40,47.053v35.49h2.218V47.053a3.343,3.343,0,0,1,1.331-2.662l.887-.665V58.6a2.218,2.218,0,0,0,3.86,1.491l2.777-3.057h.018v-.019l4.683-5.156a1.625,1.625,0,0,1,2.187-.209l.057.042a1.721,1.721,0,0,1,.686,1.187,1.7,1.7,0,0,1-.387,1.3c-1.108,1.327-2.42,2.9-3.127,3.75a3.332,3.332,0,0,0-.771,2.13v.5a6.421,6.421,0,0,1-1.893,4.571,8.625,8.625,0,0,0-2.543,6.139V82.543H52.2V80.325H92.125A3.331,3.331,0,0,0,95.452,77v-.65l6.979,6.979L104,81.759,90.232,67.991a3.305,3.305,0,0,0-2.353-.975Zm-11.9-2.96.515.386L71.7,69.234H69.944V67.476l4.889-4.889A3.562,3.562,0,0,0,75.979,64.056ZM73.95,58.879l3.12-7.8a1.1,1.1,0,0,1,1.03-.7h5.8l-9.7,9.7a1.116,1.116,0,0,1-.253-1.2Zm5.547-.956L92.125,45.295l1.759,1.759L81.757,59.18l-1.871-1.069a3.546,3.546,0,0,0-.389-.188Zm6.368,1.7a.872.872,0,0,1-1.158,1.241l-.954-.545L85.3,58.776Zm7.369-3.706-1.975-3.1,1.975-1.975Zm3.327-14.546a1.244,1.244,0,0,1,.879,2.123l-1.988,1.988-1.759-1.759,1.988-1.988A1.235,1.235,0,0,1,96.561,41.373ZM46.654,58.6V19.327a1.11,1.11,0,0,1,1.109-1.109H92.125a1.11,1.11,0,0,1,1.109,1.109V41.049l-2.218,2.218V20.436H48.872V56.158Zm9.981,1.457a1.11,1.11,0,0,1,.257-.71l2.853-3.421h2.436a1.11,1.11,0,0,1,1.109,1.109v4.436a1.11,1.11,0,0,1-1.109,1.109H57.745a1.11,1.11,0,0,1-1.109-1.109V60.056Zm-2.543,6.635a8.684,8.684,0,0,0,1.745-2.5,3.308,3.308,0,0,0,1.907.6h4.436a3.331,3.331,0,0,0,3.327-3.327V57.035a3.331,3.331,0,0,0-3.327-3.327h-1.3a3.956,3.956,0,0,0,.023-1.083,3.908,3.908,0,0,0-1.042-2.244h2.318a3.331,3.331,0,0,0,3.327-3.327V44.835H63.29v2.218a1.11,1.11,0,0,1-1.109,1.109H57.745a1.11,1.11,0,0,1-1.109-1.109V42.617a1.11,1.11,0,0,1,1.109-1.109h2.218V39.29H57.745a3.331,3.331,0,0,0-3.327,3.327v4.436a3.317,3.317,0,0,0,1,2.379,3.865,3.865,0,0,0-1.291.936L51.09,53.716V22.654H88.8V45.485l-2.9,2.9a7.734,7.734,0,0,0-1.859-.226H78.1a3.311,3.311,0,0,0-3.089,2.091l-3.12,7.8c-.012.029-.02.059-.031.089H68.835v2.218H71.84a3.358,3.358,0,0,0,.8,1.284l-4.911,4.911v4.9h4.9l5.665-5.665,2.526,1.894a7.812,7.812,0,0,0,4.658,1.553h2.408a1.1,1.1,0,0,1,.784.325l.135.135V73.67H52.2V71.262a6.421,6.421,0,0,1,1.893-4.571ZM93.234,77a1.11,1.11,0,0,1-1.109,1.109H52.2V75.889H91.016V71.912l2.218,2.218Z" transform="translate(0 0)" fill="#fff"/>
        <path id="Trazado_907346" data-name="Trazado 907346" d="M155.09,85.545h-2.218v2.218a1.11,1.11,0,0,1-1.109,1.109h-4.436a1.11,1.11,0,0,1-1.109-1.109V83.327a1.11,1.11,0,0,1,1.109-1.109h2.218V80h-2.218A3.331,3.331,0,0,0,144,83.327v4.436a3.331,3.331,0,0,0,3.327,3.327h4.436a3.331,3.331,0,0,0,3.327-3.327Z" transform="translate(-89.582 -55.128)" fill="#fff"/>
        <rect id="Rectángulo_408499" data-name="Rectángulo 408499" width="7.842" height="2.218" transform="translate(58.07 30.742) rotate(-45)" fill="#fff"/>
        <rect id="Rectángulo_408500" data-name="Rectángulo 408500" width="16.186" height="3.035" transform="translate(69.138 24.546)" fill="#fff"/>
        <rect id="Rectángulo_408501" data-name="Rectángulo 408501" width="7.842" height="2.218" transform="translate(58.07 45.16) rotate(-45.002)" fill="#fff"/>
        <rect id="Rectángulo_408502" data-name="Rectángulo 408502" width="10.116" height="3.035" transform="translate(69.138 43.767)" fill="#fff"/>
        <rect id="Rectángulo_408503" data-name="Rectángulo 408503" width="12.14" height="2.023" transform="translate(69.138 29.604)" fill="#fff"/>
        <rect id="Rectángulo_408504" data-name="Rectángulo 408504" width="16.186" height="3.035" transform="translate(69.138 38.709)" fill="#fff"/>
      </g>
      <g id="Enmascarar_grupo_1098777" data-name="Enmascarar grupo 1098777" transform="translate(6931.282 12396)" clip-path="url(#clip-path-6)">
        <rect id="Rectángulo_401103-2" data-name="Rectángulo 401103" width="121" height="121" transform="translate(-6663 -11922)" fill="none"/>
        <g id="Grupo_1099348" data-name="Grupo 1099348" transform="translate(-6663 -11922)">
          <g id="Grupo_1099282" data-name="Grupo 1099282">
            <g id="Grupo_1099281" data-name="Grupo 1099281" clip-path="url(#clip-path-8)">
              <path id="Trazado_873375" data-name="Trazado 873375" d="M74.8,9.1c-4.139,0-6.28-2.03-8.17-3.821-1.855-1.756-3.452-3.274-6.792-3.274s-4.937,1.517-6.792,3.274C51.161,7.072,49.023,9.1,44.881,9.1s-6.28-2.03-8.169-3.821C34.857,3.525,33.26,2.007,29.92,2.007s-4.937,1.517-6.789,3.274C21.241,7.072,19.1,9.1,14.962,9.1S8.679,7.072,6.789,5.281C4.937,3.525,3.34,2.007,0,2.007V0C4.139,0,6.28,2.033,8.17,3.821c1.855,1.759,3.452,3.274,6.792,3.274S19.9,5.58,21.75,3.824C23.637,2.033,25.781,0,29.92,0s6.283,2.033,8.17,3.821c1.855,1.759,3.452,3.274,6.792,3.274s4.937-1.514,6.792-3.274C53.56,2.033,55.7,0,59.843,0s6.283,2.033,8.17,3.821C69.867,5.58,71.464,7.094,74.8,7.094S79.742,5.58,81.6,3.821C83.483,2.033,85.624,0,89.766,0V2.007c-3.34,0-4.937,1.517-6.792,3.274C81.084,7.072,78.943,9.1,74.8,9.1" transform="translate(2.453 32.43)" fill="#fff"/>
              <path id="Trazado_873376" data-name="Trazado 873376" d="M74.8,9.1c-4.139,0-6.283-2.03-8.17-3.824-1.855-1.756-3.452-3.27-6.792-3.27s-4.937,1.514-6.792,3.27C51.164,7.072,49.023,9.1,44.881,9.1s-6.283-2.03-8.17-3.824c-1.855-1.756-3.452-3.27-6.792-3.27s-4.937,1.517-6.789,3.27C21.241,7.072,19.1,9.1,14.962,9.1S8.679,7.072,6.789,5.278C4.937,3.522,3.34,2.007,0,2.007V0C4.139,0,6.283,2.03,8.17,3.821c1.855,1.759,3.452,3.274,6.792,3.274S19.9,5.58,21.75,3.821C23.637,2.03,25.781,0,29.92,0S36.2,2.03,38.093,3.821c1.852,1.759,3.449,3.274,6.789,3.274s4.937-1.514,6.792-3.274C53.56,2.03,55.7,0,59.843,0s6.283,2.03,8.17,3.821C69.867,5.58,71.464,7.094,74.8,7.094S79.742,5.58,81.6,3.821C83.486,2.03,85.627,0,89.769,0V2.007c-3.34,0-4.94,1.517-6.8,3.27C81.084,7.072,78.943,9.1,74.8,9.1" transform="translate(1.635 21.62)" fill="#fff"/>
              <path id="Trazado_873377" data-name="Trazado 873377" d="M74.8,9.1c-4.139,0-6.283-2.03-8.169-3.824-1.855-1.756-3.452-3.27-6.792-3.27s-4.937,1.514-6.792,3.27C51.164,7.072,49.02,9.1,44.881,9.1s-6.283-2.03-8.17-3.824c-1.855-1.756-3.452-3.27-6.792-3.27s-4.937,1.517-6.789,3.27C21.241,7.072,19.1,9.1,14.962,9.1S8.678,7.072,6.789,5.278C4.937,3.522,3.34,2.007,0,2.007V0C4.139,0,6.283,2.03,8.169,3.821c1.851,1.759,3.452,3.274,6.792,3.274S19.9,5.58,21.75,3.821C23.637,2.03,25.781,0,29.92,0S36.2,2.03,38.093,3.821c1.852,1.759,3.449,3.274,6.789,3.274s4.937-1.514,6.792-3.274C53.56,2.03,55.7,0,59.843,0s6.283,2.03,8.17,3.821C69.867,5.58,71.464,7.094,74.8,7.094S79.742,5.58,81.6,3.821C83.486,2.03,85.624,0,89.769,0V2.007c-3.34,0-4.941,1.517-6.8,3.27C81.084,7.072,78.943,9.1,74.8,9.1" transform="translate(0.818 10.81)" fill="#fff"/>
              <path id="Trazado_873378" data-name="Trazado 873378" d="M74.8,9.1c-4.139,0-6.28-2.03-8.17-3.821-1.855-1.756-3.452-3.27-6.792-3.27s-4.937,1.514-6.789,3.27C51.164,7.069,49.023,9.1,44.881,9.1s-6.28-2.03-8.169-3.821c-1.855-1.756-3.452-3.27-6.792-3.27s-4.937,1.514-6.789,3.267C21.245,7.069,19.1,9.1,14.962,9.1S8.678,7.069,6.789,5.278C4.937,3.522,3.34,2.007,0,2.007V0C4.139,0,6.283,2.03,8.17,3.821c1.855,1.756,3.452,3.27,6.792,3.27S19.9,5.577,21.75,3.821C23.64,2.03,25.781,0,29.92,0s6.28,2.03,8.173,3.821c1.852,1.756,3.449,3.27,6.789,3.27s4.937-1.514,6.792-3.27C53.563,2.03,55.7,0,59.843,0s6.28,2.03,8.17,3.821c1.855,1.756,3.452,3.27,6.792,3.27s4.937-1.514,6.792-3.27C83.486,2.03,85.627,0,89.769,0V2.007c-3.344,0-4.941,1.514-6.8,3.27C81.084,7.069,78.943,9.1,74.8,9.1" transform="translate(0 0.003)" fill="#fff"/>
            </g>
          </g>
        </g>
      </g>
    </g>
  </g>
</svg>
