<svg xmlns="http://www.w3.org/2000/svg" xmlns:xlink="http://www.w3.org/1999/xlink" width="121" height="121" viewBox="0 0 121 121">
  <defs>
    <clipPath id="clip-path">
      <rect id="Rectángulo_400938" data-name="Rectángulo 400938" width="121" height="121" transform="translate(0 0)" fill="none"/>
    </clipPath>
    <clipPath id="clip-path-2">
      <rect id="Rectángulo_401073" data-name="Rectángulo 401073" width="92.219" height="41.532" fill="#efb499"/>
    </clipPath>
  </defs>
  <g id="img18" transform="translate(4249 11105)">
    <g id="Grupo_1099376" data-name="Grupo 1099376" transform="translate(-4636.668 -17118)">
      <rect id="Rectángulo_401103" data-name="Rectángulo 401103" width="121" height="121" transform="translate(387.668 6013)" fill="none"/>
      <g id="Grupo_1099348" data-name="Grupo 1099348" transform="translate(387.668 6013)">
        <g id="Grupo_1099282" data-name="Grupo 1099282">
          <g id="Grupo_1099281" data-name="Grupo 1099281" clip-path="url(#clip-path-2)">
            <path id="Trazado_873375" data-name="Trazado 873375" d="M74.8,9.1c-4.139,0-6.28-2.03-8.17-3.821-1.855-1.756-3.452-3.274-6.792-3.274s-4.937,1.517-6.792,3.274C51.161,7.072,49.023,9.1,44.881,9.1s-6.28-2.03-8.169-3.821C34.857,3.525,33.26,2.007,29.92,2.007s-4.937,1.517-6.789,3.274C21.241,7.072,19.1,9.1,14.962,9.1S8.679,7.072,6.789,5.281C4.937,3.525,3.34,2.007,0,2.007V0C4.139,0,6.28,2.033,8.17,3.821c1.855,1.759,3.452,3.274,6.792,3.274S19.9,5.58,21.75,3.824C23.637,2.033,25.781,0,29.92,0s6.283,2.033,8.17,3.821c1.855,1.759,3.452,3.274,6.792,3.274s4.937-1.514,6.792-3.274C53.56,2.033,55.7,0,59.843,0s6.283,2.033,8.17,3.821C69.867,5.58,71.464,7.094,74.8,7.094S79.742,5.58,81.6,3.821C83.483,2.033,85.624,0,89.766,0V2.007c-3.34,0-4.937,1.517-6.792,3.274C81.084,7.072,78.943,9.1,74.8,9.1" transform="translate(2.453 32.43)" fill="#efb499"/>
            <path id="Trazado_873376" data-name="Trazado 873376" d="M74.8,9.1c-4.139,0-6.283-2.03-8.17-3.824-1.855-1.756-3.452-3.27-6.792-3.27s-4.937,1.514-6.792,3.27C51.164,7.072,49.023,9.1,44.881,9.1s-6.283-2.03-8.17-3.824c-1.855-1.756-3.452-3.27-6.792-3.27s-4.937,1.517-6.789,3.27C21.241,7.072,19.1,9.1,14.962,9.1S8.679,7.072,6.789,5.278C4.937,3.522,3.34,2.007,0,2.007V0C4.139,0,6.283,2.03,8.17,3.821c1.855,1.759,3.452,3.274,6.792,3.274S19.9,5.58,21.75,3.821C23.637,2.03,25.781,0,29.92,0S36.2,2.03,38.093,3.821c1.852,1.759,3.449,3.274,6.789,3.274s4.937-1.514,6.792-3.274C53.56,2.03,55.7,0,59.843,0s6.283,2.03,8.17,3.821C69.867,5.58,71.464,7.094,74.8,7.094S79.742,5.58,81.6,3.821C83.486,2.03,85.627,0,89.769,0V2.007c-3.34,0-4.94,1.517-6.8,3.27C81.084,7.072,78.943,9.1,74.8,9.1" transform="translate(1.635 21.62)" fill="#efb499"/>
            <path id="Trazado_873377" data-name="Trazado 873377" d="M74.8,9.1c-4.139,0-6.283-2.03-8.169-3.824-1.855-1.756-3.452-3.27-6.792-3.27s-4.937,1.514-6.792,3.27C51.164,7.072,49.02,9.1,44.881,9.1s-6.283-2.03-8.17-3.824c-1.855-1.756-3.452-3.27-6.792-3.27s-4.937,1.517-6.789,3.27C21.241,7.072,19.1,9.1,14.962,9.1S8.678,7.072,6.789,5.278C4.937,3.522,3.34,2.007,0,2.007V0C4.139,0,6.283,2.03,8.169,3.821c1.851,1.759,3.452,3.274,6.792,3.274S19.9,5.58,21.75,3.821C23.637,2.03,25.781,0,29.92,0S36.2,2.03,38.093,3.821c1.852,1.759,3.449,3.274,6.789,3.274s4.937-1.514,6.792-3.274C53.56,2.03,55.7,0,59.843,0s6.283,2.03,8.17,3.821C69.867,5.58,71.464,7.094,74.8,7.094S79.742,5.58,81.6,3.821C83.486,2.03,85.624,0,89.769,0V2.007c-3.34,0-4.941,1.517-6.8,3.27C81.084,7.072,78.943,9.1,74.8,9.1" transform="translate(0.818 10.81)" fill="#efb499"/>
            <path id="Trazado_873378" data-name="Trazado 873378" d="M74.8,9.1c-4.139,0-6.28-2.03-8.17-3.821-1.855-1.756-3.452-3.27-6.792-3.27s-4.937,1.514-6.789,3.27C51.164,7.069,49.023,9.1,44.881,9.1s-6.28-2.03-8.169-3.821c-1.855-1.756-3.452-3.27-6.792-3.27s-4.937,1.514-6.789,3.267C21.245,7.069,19.1,9.1,14.962,9.1S8.678,7.069,6.789,5.278C4.937,3.522,3.34,2.007,0,2.007V0C4.139,0,6.283,2.03,8.17,3.821c1.855,1.756,3.452,3.27,6.792,3.27S19.9,5.577,21.75,3.821C23.64,2.03,25.781,0,29.92,0s6.28,2.03,8.173,3.821c1.852,1.756,3.449,3.27,6.789,3.27s4.937-1.514,6.792-3.27C53.563,2.03,55.7,0,59.843,0s6.28,2.03,8.17,3.821c1.855,1.756,3.452,3.27,6.792,3.27s4.937-1.514,6.792-3.27C83.486,2.03,85.627,0,89.769,0V2.007c-3.344,0-4.941,1.514-6.8,3.27C81.084,7.069,78.943,9.1,74.8,9.1" transform="translate(0 0.003)" fill="#efb499"/>
          </g>
        </g>
      </g>
      <circle id="Elipse_11504" data-name="Elipse 11504" cx="50.5" cy="50.5" r="50.5" transform="translate(402.668 6031)" fill="#ffce73"/>
      <circle id="Elipse_11503" data-name="Elipse 11503" cx="52.5" cy="52.5" r="52.5" transform="translate(395.668 6021)" fill="#f3f9ff"/>
    </g>
    <g id="Grupo_1117962" data-name="Grupo 1117962" transform="translate(-4222 -11078)">
      <path id="Trazado_907397" data-name="Trazado 907397" d="M30.989,55.818H9.273a4.364,4.364,0,0,1-4.364-4.364V20.909h48V30.1a1.455,1.455,0,1,0,2.909,0V13.636a7.281,7.281,0,0,0-7.273-7.273H45.636a4.364,4.364,0,1,0-8.727,0h-16a4.364,4.364,0,1,0-8.727,0H9.273A7.281,7.281,0,0,0,2,13.636V51.455a7.281,7.281,0,0,0,7.273,7.273H30.989a1.455,1.455,0,0,0,0-2.909ZM39.818,6.364a1.455,1.455,0,1,1,2.909,0V9.273a1.455,1.455,0,1,1-2.909,0Zm-24.727,0a1.455,1.455,0,0,1,2.909,0V9.273a1.455,1.455,0,0,1-2.909,0ZM4.909,13.636A4.364,4.364,0,0,1,9.273,9.273h2.909a4.364,4.364,0,0,0,8.727,0h16a4.364,4.364,0,1,0,8.727,0h2.909a4.364,4.364,0,0,1,4.364,4.364V18h-48Z" fill="#7d3a1b"/>
      <path id="Trazado_907398" data-name="Trazado 907398" d="M17.182,20.909A2.909,2.909,0,0,0,14.273,18H9.909A2.909,2.909,0,0,0,7,20.909v4.364a2.909,2.909,0,0,0,2.909,2.909h4.364a2.909,2.909,0,0,0,2.909-2.909ZM9.909,25.273V20.909h4.364v4.364Z" transform="translate(2.273 7.273)" fill="#7d3a1b"/>
      <path id="Trazado_907399" data-name="Trazado 907399" d="M27.182,20.909A2.909,2.909,0,0,0,24.273,18H19.909A2.909,2.909,0,0,0,17,20.909v4.364a2.909,2.909,0,0,0,2.909,2.909h4.364a2.909,2.909,0,0,0,2.909-2.909Zm-7.273,4.364V20.909h4.364v4.364Z" transform="translate(6.818 7.273)" fill="#7d3a1b"/>
      <path id="Trazado_907400" data-name="Trazado 907400" d="M35.727,24.022a1.455,1.455,0,0,0,1.455-1.455V20.909A2.909,2.909,0,0,0,34.273,18H29.909A2.909,2.909,0,0,0,27,20.909V25.1a1.455,1.455,0,1,0,2.909,0V20.909h4.364v1.658A1.455,1.455,0,0,0,35.727,24.022Z" transform="translate(11.364 7.273)" fill="#7d3a1b"/>
      <path id="Trazado_907401" data-name="Trazado 907401" d="M14.273,28H9.909A2.909,2.909,0,0,0,7,30.909v4.364a2.909,2.909,0,0,0,2.909,2.909h4.364a2.909,2.909,0,0,0,2.909-2.909V30.909A2.909,2.909,0,0,0,14.273,28ZM9.909,35.273V30.909h4.364v4.364Z" transform="translate(2.273 11.818)" fill="#7d3a1b"/>
      <path id="Trazado_907402" data-name="Trazado 907402" d="M25.276,28.191a2.7,2.7,0,0,0-1-.191H19.909A2.909,2.909,0,0,0,17,30.909v4.364a2.909,2.909,0,0,0,2.909,2.909h2.967a1.455,1.455,0,0,0,0-2.909H19.909V30.909l4.291-.016a1.455,1.455,0,1,0,1.076-2.7Z" transform="translate(6.818 11.818)" fill="#7d3a1b"/>
      <path id="Trazado_907403" data-name="Trazado 907403" d="M40,24A16,16,0,1,0,56,40,16,16,0,0,0,40,24Zm0,29.091A13.091,13.091,0,1,1,53.091,40,13.091,13.091,0,0,1,40,53.091Z" transform="translate(10 10)" fill="#7d3a1b"/>
      <path id="Trazado_907404" data-name="Trazado 907404" d="M36.909,37.125V30.455a1.455,1.455,0,1,0-2.909,0v7.273a1.454,1.454,0,0,0,.426,1.028l2.909,2.909a1.454,1.454,0,1,0,2.057-2.057Z" transform="translate(14.545 12.273)" fill="#7d3a1b"/>
    </g>
  </g>
</svg>
