<svg xmlns="http://www.w3.org/2000/svg" width="780" height="370" viewBox="0 0 780 370">
  <g id="img9" transform="translate(4842 6560)">
    <rect id="Rectángulo_408525" data-name="Rectángulo 408525" width="780" height="370" rx="10" transform="translate(-4842 -6560)" fill="#fef7eb"/>
    <g id="Grupo_1120397" data-name="Grupo 1120397">
      <g id="Grupo_1118075" data-name="Grupo 1118075" transform="translate(681 -442.043)">
        <g id="Rectángulo_408520" data-name="Rectángulo 408520" transform="translate(-5434 -6064.957)" fill="#ffce73" stroke="#ffb937" stroke-width="2">
          <rect width="40" height="24" stroke="none"/>
          <rect x="1" y="1" width="38" height="22" fill="none"/>
        </g>
        <g id="Rectángulo_408552" data-name="Rectángulo 408552" transform="translate(-5434 -5799.957)" fill="#ffce73" stroke="#ffb937" stroke-width="2">
          <rect width="40" height="25" stroke="none"/>
          <rect x="1" y="1" width="38" height="23" fill="none"/>
        </g>
        <g id="Rectángulo_408528" data-name="Rectángulo 408528" transform="translate(-5005 -6064.957)" fill="#ffce73" stroke="#ffb937" stroke-width="2">
          <rect width="40" height="24" stroke="none"/>
          <rect x="1" y="1" width="38" height="22" fill="none"/>
        </g>
        <g id="Rectángulo_408550" data-name="Rectángulo 408550" transform="translate(-5005 -5798.957)" fill="#ffce73" stroke="#ffb937" stroke-width="2">
          <rect width="40" height="24" stroke="none"/>
          <rect x="1" y="1" width="38" height="22" fill="none"/>
        </g>
        <g id="Rectángulo_408526" data-name="Rectángulo 408526" transform="translate(-5370 -6064.957)" fill="#ffe9df" stroke="#efb499" stroke-width="2">
          <rect width="40" height="24" stroke="none"/>
          <rect x="1" y="1" width="38" height="22" fill="none"/>
        </g>
        <g id="Rectángulo_408551" data-name="Rectángulo 408551" transform="translate(-5370 -5799.957)" fill="#ffe9df" stroke="#efb499" stroke-width="2">
          <rect width="40" height="25" stroke="none"/>
          <rect x="1" y="1" width="38" height="23" fill="none"/>
        </g>
        <g id="Rectángulo_408527" data-name="Rectángulo 408527" transform="translate(-4941 -6064.957)" fill="#ffe9df" stroke="#efb499" stroke-width="2">
          <rect width="40" height="24" stroke="none"/>
          <rect x="1" y="1" width="38" height="22" fill="none"/>
        </g>
        <g id="Rectángulo_408549" data-name="Rectángulo 408549" transform="translate(-4941 -5798.957)" fill="#ffe9df" stroke="#efb499" stroke-width="2">
          <rect width="40" height="24" stroke="none"/>
          <rect x="1" y="1" width="38" height="22" fill="none"/>
        </g>
        <g id="Rectángulo_408529" data-name="Rectángulo 408529" transform="translate(-5223 -6084.957)" fill="#ffe7ba" stroke="#ffb937" stroke-width="2" stroke-dasharray="9 4">
          <rect width="180" height="89" stroke="none"/>
          <rect x="1" y="1" width="178" height="87" fill="none"/>
        </g>
        <g id="Rectángulo_408534" data-name="Rectángulo 408534" transform="translate(-5223 -5865.957)" fill="#ffe7ba" stroke="#ffb937" stroke-width="2" stroke-dasharray="9 4">
          <rect width="180" height="91" stroke="none"/>
          <rect x="1" y="1" width="178" height="89" fill="none"/>
        </g>
        <g id="Rectángulo_408539" data-name="Rectángulo 408539" transform="translate(-5043 -5975.957)" fill="#ffe7ba" stroke="#ffb937" stroke-width="2" stroke-dasharray="9 4">
          <rect width="180" height="90" stroke="none"/>
          <rect x="1" y="1" width="178" height="88" fill="none"/>
        </g>
        <g id="Rectángulo_408544" data-name="Rectángulo 408544" transform="translate(-5403 -5975.957)" fill="#ffe7ba" stroke="#ffb937" stroke-width="2" stroke-dasharray="9 4">
          <rect width="180" height="90" stroke="none"/>
          <rect x="1" y="1" width="178" height="88" fill="none"/>
        </g>
        <path id="Trazado_908729" data-name="Trazado 908729" d="M20.534,11.542a7.436,7.436,0,0,1-.976,4.245,3.47,3.47,0,0,1-3.05,1.389,3.5,3.5,0,0,1-3.032-1.358,7.058,7.058,0,0,1-1.02-4.056V9.591A7.271,7.271,0,0,1,13.433,5.4a3.5,3.5,0,0,1,3.059-1.371A3.528,3.528,0,0,1,19.532,5.35a7.017,7.017,0,0,1,1,4.083ZM18.908,9.318a5.958,5.958,0,0,0-.58-3.01,2,2,0,0,0-1.837-.945,1.97,1.97,0,0,0-1.819.94A5.817,5.817,0,0,0,14.083,9.2v2.6a6.053,6.053,0,0,0,.6,3.063,1.993,1.993,0,0,0,1.824.989,1.966,1.966,0,0,0,1.789-.932,5.834,5.834,0,0,0,.611-2.936Z" transform="translate(-5430 -6061.957)" fill="#12263f"/>
        <path id="Trazado_908737" data-name="Trazado 908737" d="M13.257,10.584l.65-6.381h6.557v1.5H15.287L14.9,9.2a4.13,4.13,0,0,1,2.136-.554A3.531,3.531,0,0,1,19.813,9.8a4.53,4.53,0,0,1,1.028,3.125,4.372,4.372,0,0,1-1.068,3.116,3.892,3.892,0,0,1-2.984,1.138,4.045,4.045,0,0,1-2.769-.94,3.754,3.754,0,0,1-1.222-2.6h1.538a2.582,2.582,0,0,0,.782,1.657,2.432,2.432,0,0,0,1.67.558,2.194,2.194,0,0,0,1.78-.773,3.233,3.233,0,0,0,.646-2.136,2.968,2.968,0,0,0-.7-2.061,2.377,2.377,0,0,0-1.859-.778,2.681,2.681,0,0,0-1.67.466l-.431.352Z" transform="translate(-5430 -5795.957)" fill="#12263f"/>
        <path id="Trazado_908715" data-name="Trazado 908715" d="M20.771,5.117,15.472,17H13.767L19.049,5.539H12.123V4.2h8.648Z" transform="translate(-5001 -6061.957)" fill="#12263f"/>
        <path id="Trazado_908739" data-name="Trazado 908739" d="M18.741,11.375a3.978,3.978,0,0,1-1.217.976,3.3,3.3,0,0,1-1.551.369,3.41,3.41,0,0,1-1.929-.545,3.543,3.543,0,0,1-1.27-1.534,5.229,5.229,0,0,1-.448-2.184,5.327,5.327,0,0,1,.488-2.312A3.583,3.583,0,0,1,14.2,4.572a3.947,3.947,0,0,1,2.092-.545,3.574,3.574,0,0,1,2.993,1.419,6.191,6.191,0,0,1,1.094,3.872v.475q0,3.735-1.477,5.454a5.673,5.673,0,0,1-4.456,1.762h-.316v-1.38h.343a4.476,4.476,0,0,0,3.094-1.048A4.5,4.5,0,0,0,18.741,11.375Zm-2.5,0a2.511,2.511,0,0,0,1.507-.5A2.953,2.953,0,0,0,18.75,9.635v-.65a4.474,4.474,0,0,0-.694-2.6,2.122,2.122,0,0,0-3.48-.18,3.39,3.39,0,0,0-.65,2.167,3.528,3.528,0,0,0,.628,2.158A1.99,1.99,0,0,0,16.236,11.375Z" transform="translate(-5001 -5795.957)" fill="#12263f"/>
        <path id="Trazado_908727" data-name="Trazado 908727" d="M20.534,11.542a7.436,7.436,0,0,1-.976,4.245,3.47,3.47,0,0,1-3.05,1.389,3.5,3.5,0,0,1-3.032-1.358,7.058,7.058,0,0,1-1.02-4.056V9.591A7.271,7.271,0,0,1,13.433,5.4a3.5,3.5,0,0,1,3.059-1.371A3.528,3.528,0,0,1,19.532,5.35a7.017,7.017,0,0,1,1,4.083ZM18.908,9.318a5.958,5.958,0,0,0-.58-3.01,2,2,0,0,0-1.837-.945,1.97,1.97,0,0,0-1.819.94A5.817,5.817,0,0,0,14.083,9.2v2.6a6.053,6.053,0,0,0,.6,3.063,1.993,1.993,0,0,0,1.824.989,1.966,1.966,0,0,0,1.789-.932,5.834,5.834,0,0,0,.611-2.936Z" transform="translate(-5366 -6061.957)" fill="#12263f"/>
        <path id="Trazado_908738" data-name="Trazado 908738" d="M13.257,10.584l.65-6.381h6.557v1.5H15.287L14.9,9.2a4.13,4.13,0,0,1,2.136-.554A3.531,3.531,0,0,1,19.813,9.8a4.53,4.53,0,0,1,1.028,3.125,4.372,4.372,0,0,1-1.068,3.116,3.892,3.892,0,0,1-2.984,1.138,4.045,4.045,0,0,1-2.769-.94,3.754,3.754,0,0,1-1.222-2.6h1.538a2.582,2.582,0,0,0,.782,1.657,2.432,2.432,0,0,0,1.67.558,2.194,2.194,0,0,0,1.78-.773,3.233,3.233,0,0,0,.646-2.136,2.968,2.968,0,0,0-.7-2.061,2.377,2.377,0,0,0-1.859-.778,2.681,2.681,0,0,0-1.67.466l-.431.352Z" transform="translate(-5366 -5795.957)" fill="#12263f"/>
        <path id="Trazado_908716" data-name="Trazado 908716" d="M13.257,10.584l.65-6.381h6.557v1.5H15.287L14.9,9.2a4.13,4.13,0,0,1,2.136-.554A3.531,3.531,0,0,1,19.813,9.8a4.53,4.53,0,0,1,1.028,3.125,4.372,4.372,0,0,1-1.068,3.116,3.892,3.892,0,0,1-2.984,1.138,4.045,4.045,0,0,1-2.769-.94,3.754,3.754,0,0,1-1.222-2.6h1.538a2.582,2.582,0,0,0,.782,1.657,2.432,2.432,0,0,0,1.67.558,2.194,2.194,0,0,0,1.78-.773,3.233,3.233,0,0,0,.646-2.136,2.968,2.968,0,0,0-.7-2.061,2.377,2.377,0,0,0-1.859-.778,2.681,2.681,0,0,0-1.67.466l-.431.352Z" transform="translate(-4937 -6061.957)" fill="#12263f"/>
        <path id="Trazado_908740" data-name="Trazado 908740" d="M18.741,11.375a3.978,3.978,0,0,1-1.217.976,3.3,3.3,0,0,1-1.551.369,3.41,3.41,0,0,1-1.929-.545,3.543,3.543,0,0,1-1.27-1.534,5.229,5.229,0,0,1-.448-2.184,5.327,5.327,0,0,1,.488-2.312A3.583,3.583,0,0,1,14.2,4.572a3.947,3.947,0,0,1,2.092-.545,3.574,3.574,0,0,1,2.993,1.419,6.191,6.191,0,0,1,1.094,3.872v.475q0,3.735-1.477,5.454a5.673,5.673,0,0,1-4.456,1.762h-.316v-1.38h.343a4.476,4.476,0,0,0,3.094-1.048A4.5,4.5,0,0,0,18.741,11.375Zm-2.5,0a2.511,2.511,0,0,0,1.507-.5A2.953,2.953,0,0,0,18.75,9.635v-.65a4.474,4.474,0,0,0-.694-2.6,2.122,2.122,0,0,0-3.48-.18,3.39,3.39,0,0,0-.65,2.167,3.528,3.528,0,0,0,.628,2.158A1.99,1.99,0,0,0,16.236,11.375Z" transform="translate(-4937 -5795.957)" fill="#12263f"/>
        <path id="Trazado_908707" data-name="Trazado 908707" d="M13.641,17h-1.7V11.085H5.493V17H3.806V4.2H5.493v5.5h6.451V4.2h1.7Zm2.312-4.843A5.617,5.617,0,0,1,16.5,9.644a4.1,4.1,0,0,1,1.529-1.723,4.163,4.163,0,0,1,2.237-.606A4.01,4.01,0,0,1,23.41,8.659a5.174,5.174,0,0,1,1.2,3.577v.114a5.666,5.666,0,0,1-.532,2.492,4.038,4.038,0,0,1-1.521,1.718,4.211,4.211,0,0,1-2.272.615,4,4,0,0,1-3.133-1.345,5.147,5.147,0,0,1-1.2-3.56Zm1.635.193a4.068,4.068,0,0,0,.734,2.54,2.487,2.487,0,0,0,3.933-.013,4.449,4.449,0,0,0,.729-2.72,4.061,4.061,0,0,0-.743-2.536,2.361,2.361,0,0,0-1.973-.971,2.335,2.335,0,0,0-1.942.958A4.416,4.416,0,0,0,17.587,12.351ZM28.415,17H26.789V3.5h1.626Zm2.215-4.834a5.589,5.589,0,0,1,1.028-3.538,3.545,3.545,0,0,1,5.44-.083l.079-1.055h1.485v9.281a3.869,3.869,0,0,1-1.094,2.909,4.038,4.038,0,0,1-2.94,1.063,4.891,4.891,0,0,1-2.013-.439,3.465,3.465,0,0,1-1.5-1.2l.844-.976a3.18,3.18,0,0,0,2.558,1.292,2.491,2.491,0,0,0,1.85-.668,2.553,2.553,0,0,0,.664-1.881v-.817a3.342,3.342,0,0,1-2.663,1.125,3.248,3.248,0,0,1-2.7-1.345A5.876,5.876,0,0,1,30.63,12.166Zm1.635.185a4.264,4.264,0,0,0,.659,2.527,2.142,2.142,0,0,0,1.846.918,2.382,2.382,0,0,0,2.259-1.4V10.057a2.41,2.41,0,0,0-2.241-1.362,2.161,2.161,0,0,0-1.854.923A4.644,4.644,0,0,0,32.265,12.351ZM46.986,16.06A3.454,3.454,0,0,1,44.2,17.176a2.956,2.956,0,0,1-2.316-.883,3.823,3.823,0,0,1-.8-2.615V7.49h1.626v6.144q0,2.162,1.758,2.162a2.434,2.434,0,0,0,2.479-1.389V7.49h1.626V17H47.021Zm8.648-7.11a4.873,4.873,0,0,0-.8-.062,2.143,2.143,0,0,0-2.171,1.362V17H51.038V7.49H52.62l.026,1.1a2.532,2.532,0,0,1,2.268-1.274,1.661,1.661,0,0,1,.721.123ZM62.648,17a3.416,3.416,0,0,1-.229-1,3.628,3.628,0,0,1-2.707,1.178,3.357,3.357,0,0,1-2.307-.8,2.573,2.573,0,0,1-.9-2.017,2.688,2.688,0,0,1,1.129-2.307,5.325,5.325,0,0,1,3.177-.822h1.582v-.747a1.826,1.826,0,0,0-.51-1.358,2.049,2.049,0,0,0-1.5-.505,2.371,2.371,0,0,0-1.459.439,1.3,1.3,0,0,0-.589,1.063H56.7A2.244,2.244,0,0,1,57.2,8.751,3.449,3.449,0,0,1,58.575,7.7a4.613,4.613,0,0,1,1.9-.387,3.759,3.759,0,0,1,2.575.822A2.964,2.964,0,0,1,64.02,10.4v4.377a5.351,5.351,0,0,0,.334,2.083V17Zm-2.7-1.239a2.858,2.858,0,0,0,1.45-.4,2.392,2.392,0,0,0,.993-1.028V12.386H61.119q-2.988,0-2.988,1.749a1.48,1.48,0,0,0,.51,1.2A1.959,1.959,0,0,0,59.95,15.761Zm10.679-3.595a5.571,5.571,0,0,1,1.037-3.52,3.529,3.529,0,0,1,5.361-.189V3.5h1.626V17H77.159l-.079-1.02a3.311,3.311,0,0,1-2.716,1.2,3.248,3.248,0,0,1-2.694-1.354,5.634,5.634,0,0,1-1.042-3.533Zm1.626.185a4.218,4.218,0,0,0,.668,2.531,2.159,2.159,0,0,0,1.846.914,2.372,2.372,0,0,0,2.259-1.389V10.039a2.39,2.39,0,0,0-2.241-1.345,2.17,2.17,0,0,0-1.863.923A4.644,4.644,0,0,0,72.255,12.351Zm12.867,4.825a4.155,4.155,0,0,1-3.146-1.27,4.714,4.714,0,0,1-1.213-3.4v-.3A5.707,5.707,0,0,1,81.3,9.683a4.217,4.217,0,0,1,1.512-1.74,3.8,3.8,0,0,1,2.1-.628A3.562,3.562,0,0,1,87.8,8.536a5.289,5.289,0,0,1,1.028,3.5v.677H82.389a3.38,3.38,0,0,0,.822,2.272,2.583,2.583,0,0,0,2,.866,2.832,2.832,0,0,0,1.459-.352,3.666,3.666,0,0,0,1.046-.932l.993.773A3.993,3.993,0,0,1,85.122,17.176Zm-.2-8.525a2.169,2.169,0,0,0-1.652.716,3.482,3.482,0,0,0-.826,2.008h4.764v-.123a3.1,3.1,0,0,0-.668-1.92A2.042,2.042,0,0,0,84.92,8.65Zm17.569,5H97.128L95.924,17h-1.74L99.07,4.2h1.477l4.9,12.8h-1.731Zm-4.852-1.38h4.351l-2.18-5.985Z" transform="translate(-5434 -6090.957)" fill="#12263f"/>
        <path id="Trazado_908712" data-name="Trazado 908712" d="M13.654,17h-1.7V11.085H5.506V17H3.819V4.2H5.506v5.5h6.451V4.2h1.7Zm2.312-4.843a5.617,5.617,0,0,1,.549-2.514,4.1,4.1,0,0,1,1.529-1.723,4.163,4.163,0,0,1,2.237-.606,4.01,4.01,0,0,1,3.142,1.345,5.174,5.174,0,0,1,1.2,3.577v.114a5.666,5.666,0,0,1-.532,2.492,4.038,4.038,0,0,1-1.521,1.718,4.211,4.211,0,0,1-2.272.615,4,4,0,0,1-3.133-1.345,5.147,5.147,0,0,1-1.2-3.56Zm1.635.193a4.068,4.068,0,0,0,.734,2.54,2.487,2.487,0,0,0,3.933-.013A4.449,4.449,0,0,0,23,12.157a4.061,4.061,0,0,0-.743-2.536,2.361,2.361,0,0,0-1.973-.971,2.335,2.335,0,0,0-1.942.958A4.416,4.416,0,0,0,17.6,12.351ZM28.428,17H26.8V3.5h1.626Zm2.215-4.834a5.589,5.589,0,0,1,1.028-3.538,3.545,3.545,0,0,1,5.44-.083l.079-1.055h1.485v9.281a3.869,3.869,0,0,1-1.094,2.909,4.038,4.038,0,0,1-2.94,1.063,4.891,4.891,0,0,1-2.013-.439,3.465,3.465,0,0,1-1.5-1.2l.844-.976a3.18,3.18,0,0,0,2.558,1.292,2.491,2.491,0,0,0,1.85-.668,2.553,2.553,0,0,0,.664-1.881v-.817a3.342,3.342,0,0,1-2.663,1.125,3.248,3.248,0,0,1-2.7-1.345A5.876,5.876,0,0,1,30.643,12.166Zm1.635.185a4.264,4.264,0,0,0,.659,2.527,2.142,2.142,0,0,0,1.846.918,2.382,2.382,0,0,0,2.259-1.4V10.057A2.41,2.41,0,0,0,34.8,8.694a2.161,2.161,0,0,0-1.854.923A4.644,4.644,0,0,0,32.278,12.351ZM47,16.06a3.454,3.454,0,0,1-2.786,1.116,2.956,2.956,0,0,1-2.316-.883,3.823,3.823,0,0,1-.8-2.615V7.49h1.626v6.144q0,2.162,1.758,2.162a2.434,2.434,0,0,0,2.479-1.389V7.49h1.626V17H47.035Zm8.648-7.11a4.873,4.873,0,0,0-.8-.062,2.143,2.143,0,0,0-2.171,1.362V17H51.051V7.49h1.582l.026,1.1a2.532,2.532,0,0,1,2.268-1.274,1.661,1.661,0,0,1,.721.123ZM62.662,17a3.416,3.416,0,0,1-.229-1,3.628,3.628,0,0,1-2.707,1.178,3.357,3.357,0,0,1-2.307-.8,2.573,2.573,0,0,1-.9-2.017,2.688,2.688,0,0,1,1.129-2.307,5.325,5.325,0,0,1,3.177-.822h1.582v-.747a1.826,1.826,0,0,0-.51-1.358,2.049,2.049,0,0,0-1.5-.505,2.371,2.371,0,0,0-1.459.439,1.3,1.3,0,0,0-.589,1.063H56.711a2.244,2.244,0,0,1,.505-1.375A3.449,3.449,0,0,1,58.588,7.7a4.613,4.613,0,0,1,1.9-.387,3.759,3.759,0,0,1,2.575.822,2.964,2.964,0,0,1,.967,2.263v4.377a5.351,5.351,0,0,0,.334,2.083V17Zm-2.7-1.239a2.858,2.858,0,0,0,1.45-.4,2.392,2.392,0,0,0,.993-1.028V12.386H61.132q-2.988,0-2.988,1.749a1.48,1.48,0,0,0,.51,1.2A1.959,1.959,0,0,0,59.963,15.761Zm10.679-3.595a5.571,5.571,0,0,1,1.037-3.52,3.529,3.529,0,0,1,5.361-.189V3.5h1.626V17H77.172l-.079-1.02a3.311,3.311,0,0,1-2.716,1.2,3.248,3.248,0,0,1-2.694-1.354,5.634,5.634,0,0,1-1.042-3.533Zm1.626.185a4.218,4.218,0,0,0,.668,2.531,2.159,2.159,0,0,0,1.846.914,2.372,2.372,0,0,0,2.259-1.389V10.039A2.39,2.39,0,0,0,74.8,8.694a2.17,2.17,0,0,0-1.863.923A4.644,4.644,0,0,0,72.268,12.351Zm12.867,4.825a4.155,4.155,0,0,1-3.146-1.27,4.714,4.714,0,0,1-1.213-3.4v-.3a5.707,5.707,0,0,1,.541-2.527,4.217,4.217,0,0,1,1.512-1.74,3.8,3.8,0,0,1,2.1-.628,3.562,3.562,0,0,1,2.883,1.222,5.289,5.289,0,0,1,1.028,3.5v.677H82.4a3.38,3.38,0,0,0,.822,2.272,2.583,2.583,0,0,0,2,.866,2.832,2.832,0,0,0,1.459-.352,3.666,3.666,0,0,0,1.046-.932l.993.773A3.993,3.993,0,0,1,85.135,17.176Zm-.2-8.525a2.169,2.169,0,0,0-1.652.716,3.482,3.482,0,0,0-.826,2.008h4.764v-.123a3.1,3.1,0,0,0-.668-1.92A2.042,2.042,0,0,0,84.933,8.65Zm19.916,4.289a4.708,4.708,0,0,1-1.5,3.133,4.911,4.911,0,0,1-3.353,1.1,4.509,4.509,0,0,1-3.634-1.626A6.542,6.542,0,0,1,95,11.2V9.969a7.291,7.291,0,0,1,.637-3.138A4.76,4.76,0,0,1,97.44,4.752a5.029,5.029,0,0,1,2.707-.725,4.624,4.624,0,0,1,3.27,1.138,4.765,4.765,0,0,1,1.433,3.151h-1.7a3.677,3.677,0,0,0-.954-2.222,2.885,2.885,0,0,0-2.052-.688,3.019,3.019,0,0,0-2.536,1.2,5.492,5.492,0,0,0-.918,3.4v1.24a5.645,5.645,0,0,0,.87,3.316A2.812,2.812,0,0,0,100,15.8a3.247,3.247,0,0,0,2.158-.637,3.536,3.536,0,0,0,1-2.219Z" transform="translate(-5434 -5825.957)" fill="#12263f"/>
        <path id="Trazado_908709" data-name="Trazado 908709" d="M13.909,17h-1.7V11.085H5.761V17H4.074V4.2H5.761v5.5h6.451V4.2h1.7Zm2.312-4.843a5.617,5.617,0,0,1,.549-2.514A4.1,4.1,0,0,1,18.3,7.921a4.163,4.163,0,0,1,2.237-.606,4.01,4.01,0,0,1,3.142,1.345,5.174,5.174,0,0,1,1.2,3.577v.114a5.666,5.666,0,0,1-.532,2.492,4.038,4.038,0,0,1-1.521,1.718,4.211,4.211,0,0,1-2.272.615,4,4,0,0,1-3.133-1.345,5.147,5.147,0,0,1-1.2-3.56Zm1.635.193a4.068,4.068,0,0,0,.734,2.54,2.487,2.487,0,0,0,3.933-.013,4.449,4.449,0,0,0,.729-2.72,4.061,4.061,0,0,0-.743-2.536,2.361,2.361,0,0,0-1.973-.971,2.335,2.335,0,0,0-1.942.958A4.416,4.416,0,0,0,17.855,12.351ZM28.683,17H27.057V3.5h1.626ZM30.9,12.166a5.589,5.589,0,0,1,1.028-3.538,3.545,3.545,0,0,1,5.44-.083l.079-1.055h1.485v9.281a3.869,3.869,0,0,1-1.094,2.909,4.038,4.038,0,0,1-2.94,1.063,4.891,4.891,0,0,1-2.013-.439,3.465,3.465,0,0,1-1.5-1.2l.844-.976a3.18,3.18,0,0,0,2.558,1.292,2.491,2.491,0,0,0,1.85-.668,2.553,2.553,0,0,0,.664-1.881v-.817a3.342,3.342,0,0,1-2.663,1.125,3.248,3.248,0,0,1-2.7-1.345A5.876,5.876,0,0,1,30.9,12.166Zm1.635.185a4.264,4.264,0,0,0,.659,2.527,2.142,2.142,0,0,0,1.846.918A2.382,2.382,0,0,0,37.3,14.4V10.057a2.41,2.41,0,0,0-2.241-1.362,2.161,2.161,0,0,0-1.854.923A4.644,4.644,0,0,0,32.533,12.351ZM47.254,16.06a3.454,3.454,0,0,1-2.786,1.116,2.956,2.956,0,0,1-2.316-.883,3.823,3.823,0,0,1-.8-2.615V7.49h1.626v6.144q0,2.162,1.758,2.162a2.434,2.434,0,0,0,2.479-1.389V7.49h1.626V17H47.29ZM55.9,8.949a4.873,4.873,0,0,0-.8-.062,2.143,2.143,0,0,0-2.171,1.362V17H51.306V7.49h1.582l.026,1.1a2.532,2.532,0,0,1,2.268-1.274,1.661,1.661,0,0,1,.721.123ZM62.917,17a3.416,3.416,0,0,1-.229-1,3.628,3.628,0,0,1-2.707,1.178,3.357,3.357,0,0,1-2.307-.8,2.573,2.573,0,0,1-.9-2.017A2.688,2.688,0,0,1,57.9,12.056a5.325,5.325,0,0,1,3.177-.822h1.582v-.747a1.826,1.826,0,0,0-.51-1.358,2.049,2.049,0,0,0-1.5-.505,2.371,2.371,0,0,0-1.459.439,1.3,1.3,0,0,0-.589,1.063H56.966a2.244,2.244,0,0,1,.505-1.375A3.449,3.449,0,0,1,58.843,7.7a4.613,4.613,0,0,1,1.9-.387,3.759,3.759,0,0,1,2.575.822,2.964,2.964,0,0,1,.967,2.263v4.377a5.351,5.351,0,0,0,.334,2.083V17Zm-2.7-1.239a2.858,2.858,0,0,0,1.45-.4,2.392,2.392,0,0,0,.993-1.028V12.386H61.387q-2.988,0-2.988,1.749a1.48,1.48,0,0,0,.51,1.2A1.959,1.959,0,0,0,60.218,15.761ZM70.9,12.166a5.571,5.571,0,0,1,1.037-3.52A3.529,3.529,0,0,1,77.3,8.457V3.5h1.626V17H77.427l-.079-1.02a3.311,3.311,0,0,1-2.716,1.2,3.248,3.248,0,0,1-2.694-1.354A5.634,5.634,0,0,1,70.9,12.289Zm1.626.185a4.218,4.218,0,0,0,.668,2.531,2.159,2.159,0,0,0,1.846.914A2.372,2.372,0,0,0,77.3,14.407V10.039a2.39,2.39,0,0,0-2.241-1.345,2.17,2.17,0,0,0-1.863.923A4.644,4.644,0,0,0,72.523,12.351ZM85.39,17.176a4.155,4.155,0,0,1-3.146-1.27,4.714,4.714,0,0,1-1.213-3.4v-.3a5.707,5.707,0,0,1,.541-2.527,4.217,4.217,0,0,1,1.512-1.74,3.8,3.8,0,0,1,2.1-.628,3.562,3.562,0,0,1,2.883,1.222,5.289,5.289,0,0,1,1.028,3.5v.677H82.657a3.38,3.38,0,0,0,.822,2.272,2.583,2.583,0,0,0,2,.866,2.832,2.832,0,0,0,1.459-.352,3.666,3.666,0,0,0,1.046-.932l.993.773A3.993,3.993,0,0,1,85.39,17.176Zm-.2-8.525a2.169,2.169,0,0,0-1.652.716,3.482,3.482,0,0,0-.826,2.008h4.764v-.123a3.1,3.1,0,0,0-.668-1.92A2.042,2.042,0,0,0,85.188,8.65ZM95.691,17V4.2h4.184a4.856,4.856,0,0,1,3.133.861,3.1,3.1,0,0,1,1.05,2.549,2.6,2.6,0,0,1-.51,1.586,3.3,3.3,0,0,1-1.389,1.068,2.968,2.968,0,0,1,1.639,1.1,3.166,3.166,0,0,1,.6,1.938,3.423,3.423,0,0,1-1.116,2.707,4.616,4.616,0,0,1-3.155.984Zm1.688-5.985V15.62h2.786a2.683,2.683,0,0,0,1.859-.611,2.145,2.145,0,0,0,.681-1.683q0-2.312-2.514-2.312Zm0-1.354h2.549a2.672,2.672,0,0,0,1.771-.555,1.86,1.86,0,0,0,.664-1.506,1.829,1.829,0,0,0-.615-1.537,3.021,3.021,0,0,0-1.872-.48h-2.5Z" transform="translate(-5005 -6090.957)" fill="#12263f"/>
        <path id="Trazado_908710" data-name="Trazado 908710" d="M13.61,17h-1.7V11.085H5.462V17H3.775V4.2H5.462v5.5h6.451V4.2h1.7Zm2.312-4.843a5.617,5.617,0,0,1,.549-2.514A4.1,4.1,0,0,1,18,7.921a4.163,4.163,0,0,1,2.237-.606,4.01,4.01,0,0,1,3.142,1.345,5.174,5.174,0,0,1,1.2,3.577v.114a5.666,5.666,0,0,1-.532,2.492,4.038,4.038,0,0,1-1.521,1.718,4.211,4.211,0,0,1-2.272.615,4,4,0,0,1-3.133-1.345,5.147,5.147,0,0,1-1.2-3.56Zm1.635.193a4.068,4.068,0,0,0,.734,2.54,2.487,2.487,0,0,0,3.933-.013,4.449,4.449,0,0,0,.729-2.72,4.061,4.061,0,0,0-.743-2.536,2.361,2.361,0,0,0-1.973-.971,2.335,2.335,0,0,0-1.942.958A4.416,4.416,0,0,0,17.556,12.351ZM28.384,17H26.758V3.5h1.626ZM30.6,12.166a5.589,5.589,0,0,1,1.028-3.538,3.545,3.545,0,0,1,5.44-.083l.079-1.055h1.485v9.281a3.869,3.869,0,0,1-1.094,2.909,4.038,4.038,0,0,1-2.94,1.063,4.891,4.891,0,0,1-2.013-.439,3.465,3.465,0,0,1-1.5-1.2l.844-.976a3.18,3.18,0,0,0,2.558,1.292,2.491,2.491,0,0,0,1.85-.668A2.553,2.553,0,0,0,37,16.868v-.817a3.342,3.342,0,0,1-2.663,1.125,3.248,3.248,0,0,1-2.7-1.345A5.876,5.876,0,0,1,30.6,12.166Zm1.635.185a4.264,4.264,0,0,0,.659,2.527,2.142,2.142,0,0,0,1.846.918A2.382,2.382,0,0,0,37,14.4V10.057a2.41,2.41,0,0,0-2.241-1.362,2.161,2.161,0,0,0-1.854.923A4.644,4.644,0,0,0,32.234,12.351ZM46.956,16.06a3.454,3.454,0,0,1-2.786,1.116,2.956,2.956,0,0,1-2.316-.883,3.823,3.823,0,0,1-.8-2.615V7.49h1.626v6.144q0,2.162,1.758,2.162a2.434,2.434,0,0,0,2.479-1.389V7.49h1.626V17H46.991ZM55.6,8.949a4.873,4.873,0,0,0-.8-.062,2.143,2.143,0,0,0-2.171,1.362V17H51.007V7.49h1.582l.026,1.1a2.532,2.532,0,0,1,2.268-1.274,1.661,1.661,0,0,1,.721.123ZM62.618,17a3.416,3.416,0,0,1-.229-1,3.628,3.628,0,0,1-2.707,1.178,3.357,3.357,0,0,1-2.307-.8,2.573,2.573,0,0,1-.9-2.017A2.688,2.688,0,0,1,57.6,12.056a5.325,5.325,0,0,1,3.177-.822h1.582v-.747a1.826,1.826,0,0,0-.51-1.358,2.049,2.049,0,0,0-1.5-.505,2.371,2.371,0,0,0-1.459.439,1.3,1.3,0,0,0-.589,1.063H56.667a2.244,2.244,0,0,1,.505-1.375A3.449,3.449,0,0,1,58.544,7.7a4.613,4.613,0,0,1,1.9-.387,3.759,3.759,0,0,1,2.575.822,2.964,2.964,0,0,1,.967,2.263v4.377a5.351,5.351,0,0,0,.334,2.083V17Zm-2.7-1.239a2.858,2.858,0,0,0,1.45-.4,2.392,2.392,0,0,0,.993-1.028V12.386H61.088q-2.988,0-2.988,1.749a1.48,1.48,0,0,0,.51,1.2A1.959,1.959,0,0,0,59.919,15.761ZM70.6,12.166a5.571,5.571,0,0,1,1.037-3.52A3.529,3.529,0,0,1,77,8.457V3.5h1.626V17H77.128l-.079-1.02a3.311,3.311,0,0,1-2.716,1.2,3.248,3.248,0,0,1-2.694-1.354A5.634,5.634,0,0,1,70.6,12.289Zm1.626.185a4.218,4.218,0,0,0,.668,2.531,2.159,2.159,0,0,0,1.846.914A2.372,2.372,0,0,0,77,14.407V10.039a2.39,2.39,0,0,0-2.241-1.345,2.17,2.17,0,0,0-1.863.923A4.644,4.644,0,0,0,72.224,12.351Zm12.867,4.825a4.155,4.155,0,0,1-3.146-1.27,4.714,4.714,0,0,1-1.213-3.4v-.3a5.707,5.707,0,0,1,.541-2.527,4.217,4.217,0,0,1,1.512-1.74,3.8,3.8,0,0,1,2.1-.628,3.562,3.562,0,0,1,2.883,1.222,5.289,5.289,0,0,1,1.028,3.5v.677H82.358a3.38,3.38,0,0,0,.822,2.272,2.583,2.583,0,0,0,2,.866,2.832,2.832,0,0,0,1.459-.352,3.666,3.666,0,0,0,1.046-.932l.993.773A3.993,3.993,0,0,1,85.091,17.176Zm-.2-8.525a2.169,2.169,0,0,0-1.652.716,3.482,3.482,0,0,0-.826,2.008h4.764v-.123a3.1,3.1,0,0,0-.668-1.92A2.042,2.042,0,0,0,84.889,8.65ZM95.392,17V4.2H99a5.815,5.815,0,0,1,2.953.738,4.993,4.993,0,0,1,1.982,2.1,6.837,6.837,0,0,1,.708,3.129v.817a6.861,6.861,0,0,1-.7,3.173,4.915,4.915,0,0,1-2,2.092A6.185,6.185,0,0,1,98.934,17ZM97.08,5.583V15.62h1.775a3.863,3.863,0,0,0,3.037-1.214,5.016,5.016,0,0,0,1.085-3.457V10.2a5.1,5.1,0,0,0-1.024-3.391,3.644,3.644,0,0,0-2.9-1.227Z" transform="translate(-5005 -5824.957)" fill="#12263f"/>
        <path id="Trazado_908714" data-name="Trazado 908714" d="M17.424,13.651H12.063L10.859,17H9.119L14.005,4.2h1.477l4.9,12.8H18.646Zm-4.852-1.38h4.351l-2.18-5.985ZM25.66,15.849a2.342,2.342,0,0,0,1.521-.527A1.855,1.855,0,0,0,27.9,14h1.538a2.949,2.949,0,0,1-.562,1.556,3.7,3.7,0,0,1-1.384,1.178,3.994,3.994,0,0,1-1.833.439,3.918,3.918,0,0,1-3.089-1.3,5.163,5.163,0,0,1-1.147-3.546v-.272a5.725,5.725,0,0,1,.51-2.47A3.883,3.883,0,0,1,23.4,7.912a4.157,4.157,0,0,1,2.254-.6,3.814,3.814,0,0,1,2.659.958,3.424,3.424,0,0,1,1.129,2.487H27.9a2.241,2.241,0,0,0-.7-1.516,2.174,2.174,0,0,0-1.551-.593,2.276,2.276,0,0,0-1.92.892,4.19,4.19,0,0,0-.681,2.58v.308a4.106,4.106,0,0,0,.677,2.531A2.287,2.287,0,0,0,25.66,15.849ZM33.473,5.188v2.3h1.775V8.747H33.473v5.9a1.32,1.32,0,0,0,.237.858,1,1,0,0,0,.809.286,3.937,3.937,0,0,0,.773-.105V17a4.742,4.742,0,0,1-1.248.175,2.025,2.025,0,0,1-1.644-.659,2.832,2.832,0,0,1-.554-1.872v-5.9H30.116V7.49h1.731v-2.3ZM38.914,17H37.288V7.49h1.626ZM37.156,4.968A.971.971,0,0,1,37.4,4.3a.907.907,0,0,1,.716-.272.922.922,0,0,1,.721.272.96.96,0,0,1,.246.668.929.929,0,0,1-.246.659.938.938,0,0,1-.721.264.924.924,0,0,1-.716-.264A.938.938,0,0,1,37.156,4.968Zm7.5,9.826,2.355-7.3h1.661L45.259,17H44.02L40.575,7.49h1.661ZM52,17H50.375V7.49H52ZM50.243,4.968a.971.971,0,0,1,.242-.668.907.907,0,0,1,.716-.272.922.922,0,0,1,.721.272.96.96,0,0,1,.246.668.929.929,0,0,1-.246.659.938.938,0,0,1-.721.264.924.924,0,0,1-.716-.264A.938.938,0,0,1,50.243,4.968Zm3.964,7.2a5.571,5.571,0,0,1,1.037-3.52A3.529,3.529,0,0,1,60.6,8.457V3.5h1.626V17H60.737l-.079-1.02a3.311,3.311,0,0,1-2.716,1.2,3.248,3.248,0,0,1-2.694-1.354,5.634,5.634,0,0,1-1.042-3.533Zm1.626.185a4.218,4.218,0,0,0,.668,2.531,2.159,2.159,0,0,0,1.846.914A2.372,2.372,0,0,0,60.6,14.407V10.039a2.39,2.39,0,0,0-2.241-1.345,2.17,2.17,0,0,0-1.863.923A4.644,4.644,0,0,0,55.833,12.351ZM70.625,17a3.416,3.416,0,0,1-.229-1,3.628,3.628,0,0,1-2.707,1.178,3.357,3.357,0,0,1-2.307-.8,2.573,2.573,0,0,1-.9-2.017,2.688,2.688,0,0,1,1.129-2.307,5.325,5.325,0,0,1,3.177-.822H70.37v-.747a1.826,1.826,0,0,0-.51-1.358,2.049,2.049,0,0,0-1.5-.505,2.371,2.371,0,0,0-1.459.439,1.3,1.3,0,0,0-.589,1.063H64.674a2.244,2.244,0,0,1,.505-1.375A3.449,3.449,0,0,1,66.551,7.7a4.613,4.613,0,0,1,1.9-.387,3.759,3.759,0,0,1,2.575.822A2.964,2.964,0,0,1,72,10.4v4.377a5.351,5.351,0,0,0,.334,2.083V17Zm-2.7-1.239a2.858,2.858,0,0,0,1.45-.4,2.392,2.392,0,0,0,.993-1.028V12.386H69.1q-2.988,0-2.988,1.749a1.48,1.48,0,0,0,.51,1.2A1.959,1.959,0,0,0,67.926,15.761Zm6.223-3.595a5.571,5.571,0,0,1,1.037-3.52,3.529,3.529,0,0,1,5.361-.189V3.5h1.626V17H80.679L80.6,15.98a3.311,3.311,0,0,1-2.716,1.2,3.248,3.248,0,0,1-2.694-1.354,5.634,5.634,0,0,1-1.042-3.533Zm1.626.185a4.218,4.218,0,0,0,.668,2.531,2.159,2.159,0,0,0,1.846.914,2.372,2.372,0,0,0,2.259-1.389V10.039a2.39,2.39,0,0,0-2.241-1.345,2.17,2.17,0,0,0-1.863.923A4.644,4.644,0,0,0,75.775,12.351ZM89.407,17V4.2H93.59a4.856,4.856,0,0,1,3.133.861,3.1,3.1,0,0,1,1.05,2.549,2.6,2.6,0,0,1-.51,1.586,3.3,3.3,0,0,1-1.389,1.068,2.968,2.968,0,0,1,1.639,1.1,3.166,3.166,0,0,1,.6,1.938A3.423,3.423,0,0,1,97,16.016,4.616,4.616,0,0,1,93.845,17Zm1.688-5.985V15.62H93.88a2.683,2.683,0,0,0,1.859-.611,2.145,2.145,0,0,0,.681-1.683q0-2.312-2.514-2.312Zm0-1.354h2.549a2.672,2.672,0,0,0,1.771-.555A1.86,1.86,0,0,0,96.078,7.6a1.829,1.829,0,0,0-.615-1.537,3.021,3.021,0,0,0-1.872-.48h-2.5ZM19.863,37V24.2h3.612a5.815,5.815,0,0,1,2.953.738,4.993,4.993,0,0,1,1.982,2.1,6.837,6.837,0,0,1,.708,3.129v.817a6.861,6.861,0,0,1-.7,3.173,4.915,4.915,0,0,1-2,2.092A6.185,6.185,0,0,1,23.405,37Zm1.688-11.417V35.62h1.775a3.863,3.863,0,0,0,3.037-1.214,5.016,5.016,0,0,0,1.085-3.457V30.2a5.1,5.1,0,0,0-1.024-3.391,3.644,3.644,0,0,0-2.9-1.227ZM37.283,36.06A3.454,3.454,0,0,1,34.5,37.176a2.956,2.956,0,0,1-2.316-.883,3.823,3.823,0,0,1-.8-2.615V27.49H33v6.144Q33,35.8,34.761,35.8a2.434,2.434,0,0,0,2.479-1.389V27.49h1.626V37H37.318Zm8.648-7.11a4.873,4.873,0,0,0-.8-.062,2.143,2.143,0,0,0-2.171,1.362V37H41.335V27.49h1.582l.026,1.1a2.532,2.532,0,0,1,2.268-1.274,1.661,1.661,0,0,1,.721.123ZM52.945,37a3.416,3.416,0,0,1-.229-1,3.628,3.628,0,0,1-2.707,1.178,3.357,3.357,0,0,1-2.307-.8,2.573,2.573,0,0,1-.9-2.017,2.688,2.688,0,0,1,1.129-2.307,5.325,5.325,0,0,1,3.177-.822H52.69v-.747a1.826,1.826,0,0,0-.51-1.358,2.049,2.049,0,0,0-1.5-.505,2.371,2.371,0,0,0-1.459.439,1.3,1.3,0,0,0-.589,1.063H47a2.244,2.244,0,0,1,.505-1.375,3.449,3.449,0,0,1,1.371-1.05,4.613,4.613,0,0,1,1.9-.387,3.759,3.759,0,0,1,2.575.822,2.964,2.964,0,0,1,.967,2.263v4.377a5.351,5.351,0,0,0,.334,2.083V37Zm-2.7-1.239a2.858,2.858,0,0,0,1.45-.4,2.392,2.392,0,0,0,.993-1.028V32.386H51.416q-2.988,0-2.988,1.749a1.48,1.48,0,0,0,.51,1.2A1.959,1.959,0,0,0,50.247,35.761Zm10.433.088a2.342,2.342,0,0,0,1.521-.527A1.855,1.855,0,0,0,62.921,34h1.538a2.949,2.949,0,0,1-.562,1.556,3.7,3.7,0,0,1-1.384,1.178,3.994,3.994,0,0,1-1.833.439,3.918,3.918,0,0,1-3.089-1.3,5.163,5.163,0,0,1-1.147-3.546v-.272a5.725,5.725,0,0,1,.51-2.47,3.883,3.883,0,0,1,1.463-1.679,4.157,4.157,0,0,1,2.254-.6,3.814,3.814,0,0,1,2.659.958,3.424,3.424,0,0,1,1.129,2.487H62.921a2.241,2.241,0,0,0-.7-1.516,2.174,2.174,0,0,0-1.551-.593,2.276,2.276,0,0,0-1.92.892,4.19,4.19,0,0,0-.681,2.58v.308a4.106,4.106,0,0,0,.677,2.531A2.287,2.287,0,0,0,60.68,35.849ZM68.054,37H66.428V27.49h1.626ZM66.3,24.968a.971.971,0,0,1,.242-.668.907.907,0,0,1,.716-.272.922.922,0,0,1,.721.272.96.96,0,0,1,.246.668.929.929,0,0,1-.246.659.938.938,0,0,1-.721.264.924.924,0,0,1-.716-.264A.938.938,0,0,1,66.3,24.968Zm3.929,7.189a5.617,5.617,0,0,1,.549-2.514A4.1,4.1,0,0,1,72.3,27.921a4.163,4.163,0,0,1,2.237-.606,4.01,4.01,0,0,1,3.142,1.345,5.174,5.174,0,0,1,1.2,3.577v.114a5.666,5.666,0,0,1-.532,2.492,4.038,4.038,0,0,1-1.521,1.718,4.211,4.211,0,0,1-2.272.615,4,4,0,0,1-3.133-1.345,5.147,5.147,0,0,1-1.2-3.56Zm1.635.193a4.068,4.068,0,0,0,.734,2.54,2.487,2.487,0,0,0,3.933-.013,4.449,4.449,0,0,0,.729-2.72,4.061,4.061,0,0,0-.743-2.536,2.361,2.361,0,0,0-1.973-.971,2.335,2.335,0,0,0-1.942.958A4.416,4.416,0,0,0,71.859,32.351ZM75.278,23.5h1.969l-2.355,2.584-1.31,0Zm7.181,3.99.053,1.2a3.465,3.465,0,0,1,2.848-1.371q3.015,0,3.041,3.4V37H86.774V30.707a2.189,2.189,0,0,0-.47-1.521,1.884,1.884,0,0,0-1.437-.492,2.347,2.347,0,0,0-1.389.422,2.865,2.865,0,0,0-.932,1.107V37H80.921V27.49Z" transform="translate(-5187 -6057.957)" fill="#7d3a1b"/>
        <path id="Trazado_908711" data-name="Trazado 908711" d="M17.169,13.651H11.808L10.6,17H8.864L13.75,4.2h1.477l4.9,12.8H18.391Zm-4.852-1.38h4.351l-2.18-5.985ZM25.4,15.849a2.342,2.342,0,0,0,1.521-.527A1.855,1.855,0,0,0,27.646,14h1.538a2.949,2.949,0,0,1-.562,1.556,3.7,3.7,0,0,1-1.384,1.178,3.994,3.994,0,0,1-1.833.439,3.918,3.918,0,0,1-3.089-1.3,5.163,5.163,0,0,1-1.147-3.546v-.272a5.725,5.725,0,0,1,.51-2.47,3.883,3.883,0,0,1,1.463-1.679,4.157,4.157,0,0,1,2.254-.6,3.814,3.814,0,0,1,2.659.958,3.424,3.424,0,0,1,1.129,2.487H27.646a2.241,2.241,0,0,0-.7-1.516A2.174,2.174,0,0,0,25.4,8.65a2.276,2.276,0,0,0-1.92.892,4.19,4.19,0,0,0-.681,2.58v.308a4.106,4.106,0,0,0,.677,2.531A2.287,2.287,0,0,0,25.4,15.849ZM33.218,5.188v2.3h1.775V8.747H33.218v5.9a1.32,1.32,0,0,0,.237.858,1,1,0,0,0,.809.286,3.937,3.937,0,0,0,.773-.105V17a4.742,4.742,0,0,1-1.248.175,2.025,2.025,0,0,1-1.644-.659,2.832,2.832,0,0,1-.554-1.872v-5.9H29.861V7.49h1.731v-2.3ZM38.659,17H37.033V7.49h1.626ZM36.9,4.968a.971.971,0,0,1,.242-.668.907.907,0,0,1,.716-.272.922.922,0,0,1,.721.272.96.96,0,0,1,.246.668.929.929,0,0,1-.246.659.938.938,0,0,1-.721.264.924.924,0,0,1-.716-.264A.938.938,0,0,1,36.9,4.968Zm7.5,9.826,2.355-7.3h1.661L45,17H43.765L40.32,7.49h1.661ZM51.746,17H50.12V7.49h1.626ZM49.988,4.968a.971.971,0,0,1,.242-.668.907.907,0,0,1,.716-.272.922.922,0,0,1,.721.272.96.96,0,0,1,.246.668.929.929,0,0,1-.246.659.938.938,0,0,1-.721.264.924.924,0,0,1-.716-.264A.938.938,0,0,1,49.988,4.968Zm3.964,7.2a5.571,5.571,0,0,1,1.037-3.52,3.529,3.529,0,0,1,5.361-.189V3.5h1.626V17H60.482L60.4,15.98a3.311,3.311,0,0,1-2.716,1.2,3.248,3.248,0,0,1-2.694-1.354,5.634,5.634,0,0,1-1.042-3.533Zm1.626.185a4.218,4.218,0,0,0,.668,2.531,2.159,2.159,0,0,0,1.846.914,2.372,2.372,0,0,0,2.259-1.389V10.039a2.39,2.39,0,0,0-2.241-1.345,2.17,2.17,0,0,0-1.863.923A4.644,4.644,0,0,0,55.578,12.351ZM70.37,17a3.416,3.416,0,0,1-.229-1,3.628,3.628,0,0,1-2.707,1.178,3.357,3.357,0,0,1-2.307-.8,2.573,2.573,0,0,1-.9-2.017,2.688,2.688,0,0,1,1.129-2.307,5.325,5.325,0,0,1,3.177-.822h1.582v-.747a1.826,1.826,0,0,0-.51-1.358,2.049,2.049,0,0,0-1.5-.505,2.371,2.371,0,0,0-1.459.439,1.3,1.3,0,0,0-.589,1.063H64.419a2.244,2.244,0,0,1,.505-1.375A3.449,3.449,0,0,1,66.3,7.7a4.613,4.613,0,0,1,1.9-.387,3.759,3.759,0,0,1,2.575.822,2.964,2.964,0,0,1,.967,2.263v4.377a5.351,5.351,0,0,0,.334,2.083V17Zm-2.7-1.239a2.858,2.858,0,0,0,1.45-.4,2.392,2.392,0,0,0,.993-1.028V12.386H68.84q-2.988,0-2.988,1.749a1.48,1.48,0,0,0,.51,1.2A1.959,1.959,0,0,0,67.671,15.761Zm6.223-3.595a5.571,5.571,0,0,1,1.037-3.52,3.529,3.529,0,0,1,5.361-.189V3.5h1.626V17H80.424l-.079-1.02a3.311,3.311,0,0,1-2.716,1.2,3.248,3.248,0,0,1-2.694-1.354,5.634,5.634,0,0,1-1.042-3.533Zm1.626.185a4.218,4.218,0,0,0,.668,2.531,2.159,2.159,0,0,0,1.846.914,2.372,2.372,0,0,0,2.259-1.389V10.039a2.39,2.39,0,0,0-2.241-1.345,2.17,2.17,0,0,0-1.863.923A4.644,4.644,0,0,0,75.52,12.351Zm23.045.589a4.708,4.708,0,0,1-1.5,3.133,4.911,4.911,0,0,1-3.353,1.1,4.509,4.509,0,0,1-3.634-1.626A6.542,6.542,0,0,1,88.712,11.2V9.969a7.291,7.291,0,0,1,.637-3.138,4.76,4.76,0,0,1,1.806-2.079,5.029,5.029,0,0,1,2.707-.725,4.624,4.624,0,0,1,3.27,1.138,4.765,4.765,0,0,1,1.433,3.151h-1.7a3.677,3.677,0,0,0-.954-2.222,2.885,2.885,0,0,0-2.052-.688,3.019,3.019,0,0,0-2.536,1.2,5.492,5.492,0,0,0-.918,3.4v1.24a5.645,5.645,0,0,0,.87,3.316A2.812,2.812,0,0,0,93.713,15.8a3.247,3.247,0,0,0,2.158-.637,3.536,3.536,0,0,0,1-2.219ZM19.863,37V24.2h3.612a5.815,5.815,0,0,1,2.953.738,4.993,4.993,0,0,1,1.982,2.1,6.837,6.837,0,0,1,.708,3.129v.817a6.861,6.861,0,0,1-.7,3.173,4.915,4.915,0,0,1-2,2.092A6.185,6.185,0,0,1,23.405,37Zm1.688-11.417V35.62h1.775a3.863,3.863,0,0,0,3.037-1.214,5.016,5.016,0,0,0,1.085-3.457V30.2a5.1,5.1,0,0,0-1.024-3.391,3.644,3.644,0,0,0-2.9-1.227ZM37.283,36.06A3.454,3.454,0,0,1,34.5,37.176a2.956,2.956,0,0,1-2.316-.883,3.823,3.823,0,0,1-.8-2.615V27.49H33v6.144Q33,35.8,34.761,35.8a2.434,2.434,0,0,0,2.479-1.389V27.49h1.626V37H37.318Zm8.648-7.11a4.873,4.873,0,0,0-.8-.062,2.143,2.143,0,0,0-2.171,1.362V37H41.335V27.49h1.582l.026,1.1a2.532,2.532,0,0,1,2.268-1.274,1.661,1.661,0,0,1,.721.123ZM52.945,37a3.416,3.416,0,0,1-.229-1,3.628,3.628,0,0,1-2.707,1.178,3.357,3.357,0,0,1-2.307-.8,2.573,2.573,0,0,1-.9-2.017,2.688,2.688,0,0,1,1.129-2.307,5.325,5.325,0,0,1,3.177-.822H52.69v-.747a1.826,1.826,0,0,0-.51-1.358,2.049,2.049,0,0,0-1.5-.505,2.371,2.371,0,0,0-1.459.439,1.3,1.3,0,0,0-.589,1.063H47a2.244,2.244,0,0,1,.505-1.375,3.449,3.449,0,0,1,1.371-1.05,4.613,4.613,0,0,1,1.9-.387,3.759,3.759,0,0,1,2.575.822,2.964,2.964,0,0,1,.967,2.263v4.377a5.351,5.351,0,0,0,.334,2.083V37Zm-2.7-1.239a2.858,2.858,0,0,0,1.45-.4,2.392,2.392,0,0,0,.993-1.028V32.386H51.416q-2.988,0-2.988,1.749a1.48,1.48,0,0,0,.51,1.2A1.959,1.959,0,0,0,50.247,35.761Zm10.433.088a2.342,2.342,0,0,0,1.521-.527A1.855,1.855,0,0,0,62.921,34h1.538a2.949,2.949,0,0,1-.562,1.556,3.7,3.7,0,0,1-1.384,1.178,3.994,3.994,0,0,1-1.833.439,3.918,3.918,0,0,1-3.089-1.3,5.163,5.163,0,0,1-1.147-3.546v-.272a5.725,5.725,0,0,1,.51-2.47,3.883,3.883,0,0,1,1.463-1.679,4.157,4.157,0,0,1,2.254-.6,3.814,3.814,0,0,1,2.659.958,3.424,3.424,0,0,1,1.129,2.487H62.921a2.241,2.241,0,0,0-.7-1.516,2.174,2.174,0,0,0-1.551-.593,2.276,2.276,0,0,0-1.92.892,4.19,4.19,0,0,0-.681,2.58v.308a4.106,4.106,0,0,0,.677,2.531A2.287,2.287,0,0,0,60.68,35.849ZM68.054,37H66.428V27.49h1.626ZM66.3,24.968a.971.971,0,0,1,.242-.668.907.907,0,0,1,.716-.272.922.922,0,0,1,.721.272.96.96,0,0,1,.246.668.929.929,0,0,1-.246.659.938.938,0,0,1-.721.264.924.924,0,0,1-.716-.264A.938.938,0,0,1,66.3,24.968Zm3.929,7.189a5.617,5.617,0,0,1,.549-2.514A4.1,4.1,0,0,1,72.3,27.921a4.163,4.163,0,0,1,2.237-.606,4.01,4.01,0,0,1,3.142,1.345,5.174,5.174,0,0,1,1.2,3.577v.114a5.666,5.666,0,0,1-.532,2.492,4.038,4.038,0,0,1-1.521,1.718,4.211,4.211,0,0,1-2.272.615,4,4,0,0,1-3.133-1.345,5.147,5.147,0,0,1-1.2-3.56Zm1.635.193a4.068,4.068,0,0,0,.734,2.54,2.487,2.487,0,0,0,3.933-.013,4.449,4.449,0,0,0,.729-2.72,4.061,4.061,0,0,0-.743-2.536,2.361,2.361,0,0,0-1.973-.971,2.335,2.335,0,0,0-1.942.958A4.416,4.416,0,0,0,71.859,32.351ZM75.278,23.5h1.969l-2.355,2.584-1.31,0Zm7.181,3.99.053,1.2a3.465,3.465,0,0,1,2.848-1.371q3.015,0,3.041,3.4V37H86.774V30.707a2.189,2.189,0,0,0-.47-1.521,1.884,1.884,0,0,0-1.437-.492,2.347,2.347,0,0,0-1.389.422,2.865,2.865,0,0,0-.932,1.107V37H80.921V27.49Z" transform="translate(-5187 -5837.957)" fill="#7d3a1b"/>
        <path id="Trazado_908713" data-name="Trazado 908713" d="M17.125,13.651H11.764L10.56,17H8.82L13.707,4.2h1.477l4.9,12.8H18.347Zm-4.852-1.38h4.351l-2.18-5.985Zm13.087,3.577a2.342,2.342,0,0,0,1.521-.527A1.855,1.855,0,0,0,27.6,14H29.14a2.949,2.949,0,0,1-.562,1.556,3.7,3.7,0,0,1-1.384,1.178,3.994,3.994,0,0,1-1.833.439,3.918,3.918,0,0,1-3.089-1.3,5.163,5.163,0,0,1-1.147-3.546v-.272a5.725,5.725,0,0,1,.51-2.47A3.883,3.883,0,0,1,23.1,7.912a4.157,4.157,0,0,1,2.254-.6,3.814,3.814,0,0,1,2.659.958A3.424,3.424,0,0,1,29.14,10.76H27.6a2.241,2.241,0,0,0-.7-1.516,2.174,2.174,0,0,0-1.551-.593,2.276,2.276,0,0,0-1.92.892,4.19,4.19,0,0,0-.681,2.58v.308a4.106,4.106,0,0,0,.677,2.531A2.287,2.287,0,0,0,25.361,15.849ZM33.174,5.188v2.3H34.95V8.747H33.174v5.9a1.32,1.32,0,0,0,.237.858,1,1,0,0,0,.809.286,3.937,3.937,0,0,0,.773-.105V17a4.742,4.742,0,0,1-1.248.175,2.025,2.025,0,0,1-1.644-.659,2.832,2.832,0,0,1-.554-1.872v-5.9H29.817V7.49h1.731v-2.3ZM38.615,17H36.989V7.49h1.626ZM36.857,4.968A.971.971,0,0,1,37.1,4.3a.907.907,0,0,1,.716-.272.922.922,0,0,1,.721.272.96.96,0,0,1,.246.668.929.929,0,0,1-.246.659.938.938,0,0,1-.721.264.924.924,0,0,1-.716-.264A.938.938,0,0,1,36.857,4.968Zm7.5,9.826,2.355-7.3h1.661L44.96,17H43.721L40.276,7.49h1.661ZM51.7,17H50.076V7.49H51.7ZM49.944,4.968a.971.971,0,0,1,.242-.668.907.907,0,0,1,.716-.272.922.922,0,0,1,.721.272.96.96,0,0,1,.246.668.929.929,0,0,1-.246.659.938.938,0,0,1-.721.264.924.924,0,0,1-.716-.264A.938.938,0,0,1,49.944,4.968Zm3.964,7.2a5.571,5.571,0,0,1,1.037-3.52,3.529,3.529,0,0,1,5.361-.189V3.5h1.626V17H60.438l-.079-1.02a3.311,3.311,0,0,1-2.716,1.2,3.248,3.248,0,0,1-2.694-1.354,5.634,5.634,0,0,1-1.042-3.533Zm1.626.185a4.218,4.218,0,0,0,.668,2.531,2.159,2.159,0,0,0,1.846.914,2.372,2.372,0,0,0,2.259-1.389V10.039a2.39,2.39,0,0,0-2.241-1.345,2.17,2.17,0,0,0-1.863.923A4.644,4.644,0,0,0,55.534,12.351ZM70.326,17a3.416,3.416,0,0,1-.229-1,3.628,3.628,0,0,1-2.707,1.178,3.357,3.357,0,0,1-2.307-.8,2.573,2.573,0,0,1-.9-2.017,2.688,2.688,0,0,1,1.129-2.307,5.325,5.325,0,0,1,3.177-.822h1.582v-.747a1.826,1.826,0,0,0-.51-1.358,2.049,2.049,0,0,0-1.5-.505,2.371,2.371,0,0,0-1.459.439,1.3,1.3,0,0,0-.589,1.063H64.375a2.244,2.244,0,0,1,.505-1.375A3.449,3.449,0,0,1,66.252,7.7a4.613,4.613,0,0,1,1.9-.387,3.759,3.759,0,0,1,2.575.822A2.964,2.964,0,0,1,71.7,10.4v4.377a5.351,5.351,0,0,0,.334,2.083V17Zm-2.7-1.239a2.858,2.858,0,0,0,1.45-.4,2.392,2.392,0,0,0,.993-1.028V12.386H68.8q-2.988,0-2.988,1.749a1.48,1.48,0,0,0,.51,1.2A1.959,1.959,0,0,0,67.627,15.761Zm6.223-3.595a5.571,5.571,0,0,1,1.037-3.52,3.529,3.529,0,0,1,5.361-.189V3.5h1.626V17H80.38L80.3,15.98a3.311,3.311,0,0,1-2.716,1.2,3.248,3.248,0,0,1-2.694-1.354,5.634,5.634,0,0,1-1.042-3.533Zm1.626.185a4.218,4.218,0,0,0,.668,2.531,2.159,2.159,0,0,0,1.846.914,2.372,2.372,0,0,0,2.259-1.389V10.039a2.39,2.39,0,0,0-2.241-1.345,2.17,2.17,0,0,0-1.863.923A4.644,4.644,0,0,0,75.476,12.351ZM89.108,17V4.2H92.72a5.815,5.815,0,0,1,2.953.738,4.993,4.993,0,0,1,1.982,2.1,6.837,6.837,0,0,1,.708,3.129v.817a6.861,6.861,0,0,1-.7,3.173,4.915,4.915,0,0,1-2,2.092A6.185,6.185,0,0,1,92.65,17ZM90.8,5.583V15.62h1.775a3.863,3.863,0,0,0,3.037-1.214,5.016,5.016,0,0,0,1.085-3.457V10.2A5.1,5.1,0,0,0,95.669,6.81a3.644,3.644,0,0,0-2.9-1.227ZM19.863,37V24.2h3.612a5.815,5.815,0,0,1,2.953.738,4.993,4.993,0,0,1,1.982,2.1,6.837,6.837,0,0,1,.708,3.129v.817a6.861,6.861,0,0,1-.7,3.173,4.915,4.915,0,0,1-2,2.092A6.185,6.185,0,0,1,23.405,37Zm1.688-11.417V35.62h1.775a3.863,3.863,0,0,0,3.037-1.214,5.016,5.016,0,0,0,1.085-3.457V30.2a5.1,5.1,0,0,0-1.024-3.391,3.644,3.644,0,0,0-2.9-1.227ZM37.283,36.06A3.454,3.454,0,0,1,34.5,37.176a2.956,2.956,0,0,1-2.316-.883,3.823,3.823,0,0,1-.8-2.615V27.49H33v6.144Q33,35.8,34.761,35.8a2.434,2.434,0,0,0,2.479-1.389V27.49h1.626V37H37.318Zm8.648-7.11a4.873,4.873,0,0,0-.8-.062,2.143,2.143,0,0,0-2.171,1.362V37H41.335V27.49h1.582l.026,1.1a2.532,2.532,0,0,1,2.268-1.274,1.661,1.661,0,0,1,.721.123ZM52.945,37a3.416,3.416,0,0,1-.229-1,3.628,3.628,0,0,1-2.707,1.178,3.357,3.357,0,0,1-2.307-.8,2.573,2.573,0,0,1-.9-2.017,2.688,2.688,0,0,1,1.129-2.307,5.325,5.325,0,0,1,3.177-.822H52.69v-.747a1.826,1.826,0,0,0-.51-1.358,2.049,2.049,0,0,0-1.5-.505,2.371,2.371,0,0,0-1.459.439,1.3,1.3,0,0,0-.589,1.063H47a2.244,2.244,0,0,1,.505-1.375,3.449,3.449,0,0,1,1.371-1.05,4.613,4.613,0,0,1,1.9-.387,3.759,3.759,0,0,1,2.575.822,2.964,2.964,0,0,1,.967,2.263v4.377a5.351,5.351,0,0,0,.334,2.083V37Zm-2.7-1.239a2.858,2.858,0,0,0,1.45-.4,2.392,2.392,0,0,0,.993-1.028V32.386H51.416q-2.988,0-2.988,1.749a1.48,1.48,0,0,0,.51,1.2A1.959,1.959,0,0,0,50.247,35.761Zm10.433.088a2.342,2.342,0,0,0,1.521-.527A1.855,1.855,0,0,0,62.921,34h1.538a2.949,2.949,0,0,1-.562,1.556,3.7,3.7,0,0,1-1.384,1.178,3.994,3.994,0,0,1-1.833.439,3.918,3.918,0,0,1-3.089-1.3,5.163,5.163,0,0,1-1.147-3.546v-.272a5.725,5.725,0,0,1,.51-2.47,3.883,3.883,0,0,1,1.463-1.679,4.157,4.157,0,0,1,2.254-.6,3.814,3.814,0,0,1,2.659.958,3.424,3.424,0,0,1,1.129,2.487H62.921a2.241,2.241,0,0,0-.7-1.516,2.174,2.174,0,0,0-1.551-.593,2.276,2.276,0,0,0-1.92.892,4.19,4.19,0,0,0-.681,2.58v.308a4.106,4.106,0,0,0,.677,2.531A2.287,2.287,0,0,0,60.68,35.849ZM68.054,37H66.428V27.49h1.626ZM66.3,24.968a.971.971,0,0,1,.242-.668.907.907,0,0,1,.716-.272.922.922,0,0,1,.721.272.96.96,0,0,1,.246.668.929.929,0,0,1-.246.659.938.938,0,0,1-.721.264.924.924,0,0,1-.716-.264A.938.938,0,0,1,66.3,24.968Zm3.929,7.189a5.617,5.617,0,0,1,.549-2.514A4.1,4.1,0,0,1,72.3,27.921a4.163,4.163,0,0,1,2.237-.606,4.01,4.01,0,0,1,3.142,1.345,5.174,5.174,0,0,1,1.2,3.577v.114a5.666,5.666,0,0,1-.532,2.492,4.038,4.038,0,0,1-1.521,1.718,4.211,4.211,0,0,1-2.272.615,4,4,0,0,1-3.133-1.345,5.147,5.147,0,0,1-1.2-3.56Zm1.635.193a4.068,4.068,0,0,0,.734,2.54,2.487,2.487,0,0,0,3.933-.013,4.449,4.449,0,0,0,.729-2.72,4.061,4.061,0,0,0-.743-2.536,2.361,2.361,0,0,0-1.973-.971,2.335,2.335,0,0,0-1.942.958A4.416,4.416,0,0,0,71.859,32.351ZM75.278,23.5h1.969l-2.355,2.584-1.31,0Zm7.181,3.99.053,1.2a3.465,3.465,0,0,1,2.848-1.371q3.015,0,3.041,3.4V37H86.774V30.707a2.189,2.189,0,0,0-.47-1.521,1.884,1.884,0,0,0-1.437-.492,2.347,2.347,0,0,0-1.389.422,2.865,2.865,0,0,0-.932,1.107V37H80.921V27.49Z" transform="translate(-5007 -5947.957)" fill="#7d3a1b"/>
        <text id="Actividad_A_Duración" data-name="Actividad A
Duración" transform="translate(-5367 -5947.957)" fill="#12263f" font-size="18" font-family="Roboto-Regular, Roboto"><tspan x="-45.396" y="17">Actividad A</tspan><tspan fill="#7d3a1b"><tspan x="-35.622" y="37">Duración</tspan></tspan></text>
        <text id="_-" data-name="-" transform="translate(-5394 -6061.957)" fill="#12263f" font-size="18" font-family="Roboto-Regular, Roboto"><tspan x="-2.483" y="17">-</tspan></text>
        <text id="_--2" data-name="-" transform="translate(-5394 -5795.957)" fill="#12263f" font-size="18" font-family="Roboto-Regular, Roboto"><tspan x="-2.483" y="17">-</tspan></text>
        <text id="_--3" data-name="-" transform="translate(-4965 -6061.957)" fill="#12263f" font-size="18" font-family="Roboto-Regular, Roboto"><tspan x="-2.483" y="17">-</tspan></text>
        <text id="_--4" data-name="-" transform="translate(-4965 -5795.957)" fill="#12263f" font-size="18" font-family="Roboto-Regular, Roboto"><tspan x="-2.483" y="17">-</tspan></text>
        <path id="Trazado_908728" data-name="Trazado 908728" d="M11.381,9.846H4.051V8.431h7.33Zm0,3.647H4.051V12.087h7.33Zm14.757-1.951a7.436,7.436,0,0,1-.976,4.245,3.47,3.47,0,0,1-3.05,1.389,3.5,3.5,0,0,1-3.032-1.358,7.058,7.058,0,0,1-1.02-4.056V9.591A7.271,7.271,0,0,1,19.037,5.4,3.5,3.5,0,0,1,22.1,4.027,3.528,3.528,0,0,1,25.136,5.35a7.017,7.017,0,0,1,1,4.083ZM24.512,9.318a5.958,5.958,0,0,0-.58-3.01A2,2,0,0,0,22.1,5.363a1.97,1.97,0,0,0-1.819.94A5.817,5.817,0,0,0,19.687,9.2v2.6a6.053,6.053,0,0,0,.6,3.063,1.993,1.993,0,0,0,1.824.989,1.966,1.966,0,0,0,1.789-.932,5.834,5.834,0,0,0,.611-2.936Zm7.937,2.848a5.571,5.571,0,0,1,1.037-3.52,3.529,3.529,0,0,1,5.361-.189V3.5h1.626V17H38.979L38.9,15.98a3.311,3.311,0,0,1-2.716,1.2,3.248,3.248,0,0,1-2.694-1.354,5.634,5.634,0,0,1-1.042-3.533Zm1.626.185a4.218,4.218,0,0,0,.668,2.531,2.159,2.159,0,0,0,1.846.914,2.372,2.372,0,0,0,2.259-1.389V10.039a2.39,2.39,0,0,0-2.241-1.345,2.17,2.17,0,0,0-1.863.923A4.644,4.644,0,0,0,34.075,12.351ZM44.762,17H43.127V7.49h1.635ZM44.78,3.509h1.969L44.393,6.093l-1.31,0ZM53.314,17a3.416,3.416,0,0,1-.229-1,3.628,3.628,0,0,1-2.707,1.178,3.357,3.357,0,0,1-2.307-.8,2.573,2.573,0,0,1-.9-2.017A2.688,2.688,0,0,1,48.3,12.056a5.325,5.325,0,0,1,3.177-.822h1.582v-.747a1.826,1.826,0,0,0-.51-1.358,2.049,2.049,0,0,0-1.5-.505,2.371,2.371,0,0,0-1.459.439A1.3,1.3,0,0,0,49,10.127H47.364a2.244,2.244,0,0,1,.505-1.375A3.449,3.449,0,0,1,49.24,7.7a4.613,4.613,0,0,1,1.9-.387,3.759,3.759,0,0,1,2.575.822,2.964,2.964,0,0,1,.967,2.263v4.377a5.351,5.351,0,0,0,.334,2.083V17Zm-2.7-1.239a2.858,2.858,0,0,0,1.45-.4,2.392,2.392,0,0,0,.993-1.028V12.386H51.785q-2.988,0-2.988,1.749a1.48,1.48,0,0,0,.51,1.2A1.959,1.959,0,0,0,50.616,15.761Zm12.155-1.283a1.2,1.2,0,0,0-.5-1.024,4.78,4.78,0,0,0-1.731-.628,8.186,8.186,0,0,1-1.96-.633,2.788,2.788,0,0,1-1.072-.879,2.1,2.1,0,0,1-.347-1.213,2.467,2.467,0,0,1,.989-1.978,3.861,3.861,0,0,1,2.527-.809,3.974,3.974,0,0,1,2.624.835,2.652,2.652,0,0,1,1.006,2.136H62.674a1.468,1.468,0,0,0-.567-1.151,2.124,2.124,0,0,0-1.428-.483,2.223,2.223,0,0,0-1.389.387,1.217,1.217,0,0,0-.5,1.011.986.986,0,0,0,.466.888,5.731,5.731,0,0,0,1.683.571,8.77,8.77,0,0,1,1.973.65,2.878,2.878,0,0,1,1.121.91,2.237,2.237,0,0,1,.365,1.3,2.434,2.434,0,0,1-1.02,2.043,4.277,4.277,0,0,1-2.646.769,4.789,4.789,0,0,1-2.021-.4,3.288,3.288,0,0,1-1.375-1.129,2.722,2.722,0,0,1-.5-1.569h1.626a1.683,1.683,0,0,0,.655,1.3,2.54,2.54,0,0,0,1.613.479,2.622,2.622,0,0,0,1.481-.374A1.148,1.148,0,0,0,62.771,14.478Z" transform="translate(-5329 -6061.957)" fill="#12263f"/>
        <text id="_0_días" data-name="= 0 días" transform="translate(-5329 -5795.957)" fill="#12263f" font-size="18" font-family="Roboto-Regular, Roboto"><tspan x="-31.285" y="17">= 0 días</tspan></text>
        <path id="Trazado_908717" data-name="Trazado 908717" d="M11.381,9.846H4.051V8.431h7.33Zm0,3.647H4.051V12.087h7.33ZM26.5,17H18.114V15.831l4.43-4.922A10.524,10.524,0,0,0,23.9,9.094a3.029,3.029,0,0,0,.374-1.446A2.3,2.3,0,0,0,23.668,6a2.12,2.12,0,0,0-1.617-.642,2.511,2.511,0,0,0-1.885.69,2.635,2.635,0,0,0-.672,1.92H17.868a3.774,3.774,0,0,1,1.138-2.856,4.219,4.219,0,0,1,3.045-1.09,4.054,4.054,0,0,1,2.821.936A3.193,3.193,0,0,1,25.91,7.455q0,1.89-2.408,4.5l-3.428,3.718H26.5Zm5.95-4.834a5.571,5.571,0,0,1,1.037-3.52,3.529,3.529,0,0,1,5.361-.189V3.5h1.626V17H38.979L38.9,15.98a3.311,3.311,0,0,1-2.716,1.2,3.248,3.248,0,0,1-2.694-1.354,5.634,5.634,0,0,1-1.042-3.533Zm1.626.185a4.218,4.218,0,0,0,.668,2.531,2.159,2.159,0,0,0,1.846.914,2.372,2.372,0,0,0,2.259-1.389V10.039a2.39,2.39,0,0,0-2.241-1.345,2.17,2.17,0,0,0-1.863.923A4.644,4.644,0,0,0,34.075,12.351ZM44.762,17H43.127V7.49h1.635ZM44.78,3.509h1.969L44.393,6.093l-1.31,0ZM53.314,17a3.416,3.416,0,0,1-.229-1,3.628,3.628,0,0,1-2.707,1.178,3.357,3.357,0,0,1-2.307-.8,2.573,2.573,0,0,1-.9-2.017A2.688,2.688,0,0,1,48.3,12.056a5.325,5.325,0,0,1,3.177-.822h1.582v-.747a1.826,1.826,0,0,0-.51-1.358,2.049,2.049,0,0,0-1.5-.505,2.371,2.371,0,0,0-1.459.439A1.3,1.3,0,0,0,49,10.127H47.364a2.244,2.244,0,0,1,.505-1.375A3.449,3.449,0,0,1,49.24,7.7a4.613,4.613,0,0,1,1.9-.387,3.759,3.759,0,0,1,2.575.822,2.964,2.964,0,0,1,.967,2.263v4.377a5.351,5.351,0,0,0,.334,2.083V17Zm-2.7-1.239a2.858,2.858,0,0,0,1.45-.4,2.392,2.392,0,0,0,.993-1.028V12.386H51.785q-2.988,0-2.988,1.749a1.48,1.48,0,0,0,.51,1.2A1.959,1.959,0,0,0,50.616,15.761Zm12.155-1.283a1.2,1.2,0,0,0-.5-1.024,4.78,4.78,0,0,0-1.731-.628,8.186,8.186,0,0,1-1.96-.633,2.788,2.788,0,0,1-1.072-.879,2.1,2.1,0,0,1-.347-1.213,2.467,2.467,0,0,1,.989-1.978,3.861,3.861,0,0,1,2.527-.809,3.974,3.974,0,0,1,2.624.835,2.652,2.652,0,0,1,1.006,2.136H62.674a1.468,1.468,0,0,0-.567-1.151,2.124,2.124,0,0,0-1.428-.483,2.223,2.223,0,0,0-1.389.387,1.217,1.217,0,0,0-.5,1.011.986.986,0,0,0,.466.888,5.731,5.731,0,0,0,1.683.571,8.77,8.77,0,0,1,1.973.65,2.878,2.878,0,0,1,1.121.91,2.237,2.237,0,0,1,.365,1.3,2.434,2.434,0,0,1-1.02,2.043,4.277,4.277,0,0,1-2.646.769,4.789,4.789,0,0,1-2.021-.4,3.288,3.288,0,0,1-1.375-1.129,2.722,2.722,0,0,1-.5-1.569h1.626a1.683,1.683,0,0,0,.655,1.3,2.54,2.54,0,0,0,1.613.479,2.622,2.622,0,0,0,1.481-.374A1.148,1.148,0,0,0,62.771,14.478Z" transform="translate(-4900 -6061.957)" fill="#12263f"/>
        <path id="Trazado_908708" data-name="Trazado 908708" d="M11.381,9.846H4.051V8.431h7.33Zm0,3.647H4.051V12.087h7.33Zm14.757-1.951a7.436,7.436,0,0,1-.976,4.245,3.47,3.47,0,0,1-3.05,1.389,3.5,3.5,0,0,1-3.032-1.358,7.058,7.058,0,0,1-1.02-4.056V9.591A7.271,7.271,0,0,1,19.037,5.4,3.5,3.5,0,0,1,22.1,4.027,3.528,3.528,0,0,1,25.136,5.35a7.017,7.017,0,0,1,1,4.083ZM24.512,9.318a5.958,5.958,0,0,0-.58-3.01A2,2,0,0,0,22.1,5.363a1.97,1.97,0,0,0-1.819.94A5.817,5.817,0,0,0,19.687,9.2v2.6a6.053,6.053,0,0,0,.6,3.063,1.993,1.993,0,0,0,1.824.989,1.966,1.966,0,0,0,1.789-.932,5.834,5.834,0,0,0,.611-2.936Zm7.937,2.848a5.571,5.571,0,0,1,1.037-3.52,3.529,3.529,0,0,1,5.361-.189V3.5h1.626V17H38.979L38.9,15.98a3.311,3.311,0,0,1-2.716,1.2,3.248,3.248,0,0,1-2.694-1.354,5.634,5.634,0,0,1-1.042-3.533Zm1.626.185a4.218,4.218,0,0,0,.668,2.531,2.159,2.159,0,0,0,1.846.914,2.372,2.372,0,0,0,2.259-1.389V10.039a2.39,2.39,0,0,0-2.241-1.345,2.17,2.17,0,0,0-1.863.923A4.644,4.644,0,0,0,34.075,12.351ZM44.762,17H43.127V7.49h1.635ZM44.78,3.509h1.969L44.393,6.093l-1.31,0ZM53.314,17a3.416,3.416,0,0,1-.229-1,3.628,3.628,0,0,1-2.707,1.178,3.357,3.357,0,0,1-2.307-.8,2.573,2.573,0,0,1-.9-2.017A2.688,2.688,0,0,1,48.3,12.056a5.325,5.325,0,0,1,3.177-.822h1.582v-.747a1.826,1.826,0,0,0-.51-1.358,2.049,2.049,0,0,0-1.5-.505,2.371,2.371,0,0,0-1.459.439A1.3,1.3,0,0,0,49,10.127H47.364a2.244,2.244,0,0,1,.505-1.375A3.449,3.449,0,0,1,49.24,7.7a4.613,4.613,0,0,1,1.9-.387,3.759,3.759,0,0,1,2.575.822,2.964,2.964,0,0,1,.967,2.263v4.377a5.351,5.351,0,0,0,.334,2.083V17Zm-2.7-1.239a2.858,2.858,0,0,0,1.45-.4,2.392,2.392,0,0,0,.993-1.028V12.386H51.785q-2.988,0-2.988,1.749a1.48,1.48,0,0,0,.51,1.2A1.959,1.959,0,0,0,50.616,15.761Zm12.155-1.283a1.2,1.2,0,0,0-.5-1.024,4.78,4.78,0,0,0-1.731-.628,8.186,8.186,0,0,1-1.96-.633,2.788,2.788,0,0,1-1.072-.879,2.1,2.1,0,0,1-.347-1.213,2.467,2.467,0,0,1,.989-1.978,3.861,3.861,0,0,1,2.527-.809,3.974,3.974,0,0,1,2.624.835,2.652,2.652,0,0,1,1.006,2.136H62.674a1.468,1.468,0,0,0-.567-1.151,2.124,2.124,0,0,0-1.428-.483,2.223,2.223,0,0,0-1.389.387,1.217,1.217,0,0,0-.5,1.011.986.986,0,0,0,.466.888,5.731,5.731,0,0,0,1.683.571,8.77,8.77,0,0,1,1.973.65,2.878,2.878,0,0,1,1.121.91,2.237,2.237,0,0,1,.365,1.3,2.434,2.434,0,0,1-1.02,2.043,4.277,4.277,0,0,1-2.646.769,4.789,4.789,0,0,1-2.021-.4,3.288,3.288,0,0,1-1.375-1.129,2.722,2.722,0,0,1-.5-1.569h1.626a1.683,1.683,0,0,0,.655,1.3,2.54,2.54,0,0,0,1.613.479,2.622,2.622,0,0,0,1.481-.374A1.148,1.148,0,0,0,62.771,14.478Z" transform="translate(-4900 -5795.957)" fill="#12263f"/>
        <g id="Rectángulo_408530" data-name="Rectángulo 408530" transform="translate(-5223 -6084.957)" fill="#ffe9df" stroke="#efb499" stroke-width="2">
          <rect width="40" height="24" stroke="none"/>
          <rect x="1" y="1" width="38" height="22" fill="none"/>
        </g>
        <g id="Rectángulo_408537" data-name="Rectángulo 408537" transform="translate(-5223 -5865.957)" fill="#ffe9df" stroke="#efb499" stroke-width="2">
          <rect width="40" height="25" stroke="none"/>
          <rect x="1" y="1" width="38" height="23" fill="none"/>
        </g>
        <g id="Rectángulo_408542" data-name="Rectángulo 408542" transform="translate(-5043 -5975.957)" fill="#ffe9df" stroke="#efb499" stroke-width="2">
          <rect width="40" height="25" stroke="none"/>
          <rect x="1" y="1" width="38" height="23" fill="none"/>
        </g>
        <g id="Rectángulo_408547" data-name="Rectángulo 408547" transform="translate(-5403 -5975.957)" fill="#ffe9df" stroke="#efb499" stroke-width="2">
          <rect width="40" height="25" stroke="none"/>
          <rect x="1" y="1" width="38" height="23" fill="none"/>
        </g>
        <g id="Rectángulo_408531" data-name="Rectángulo 408531" transform="translate(-5083 -6084.957)" fill="#ffe9df" stroke="#efb499" stroke-width="2">
          <rect width="40" height="24" stroke="none"/>
          <rect x="1" y="1" width="38" height="22" fill="none"/>
        </g>
        <g id="Rectángulo_408536" data-name="Rectángulo 408536" transform="translate(-5083 -5865.957)" fill="#ffe9df" stroke="#efb499" stroke-width="2">
          <rect width="40" height="25" stroke="none"/>
          <rect x="1" y="1" width="38" height="23" fill="none"/>
        </g>
        <g id="Rectángulo_408541" data-name="Rectángulo 408541" transform="translate(-4903 -5975.957)" fill="#ffe9df" stroke="#efb499" stroke-width="2">
          <rect width="40" height="25" stroke="none"/>
          <rect x="1" y="1" width="38" height="23" fill="none"/>
        </g>
        <g id="Rectángulo_408546" data-name="Rectángulo 408546" transform="translate(-5263 -5975.957)" fill="#ffe9df" stroke="#efb499" stroke-width="2">
          <rect width="40" height="25" stroke="none"/>
          <rect x="1" y="1" width="38" height="23" fill="none"/>
        </g>
        <path id="Trazado_908724" data-name="Trazado 908724" d="M13.257,10.584l.65-6.381h6.557v1.5H15.287L14.9,9.2a4.13,4.13,0,0,1,2.136-.554A3.531,3.531,0,0,1,19.813,9.8a4.53,4.53,0,0,1,1.028,3.125,4.372,4.372,0,0,1-1.068,3.116,3.892,3.892,0,0,1-2.984,1.138,4.045,4.045,0,0,1-2.769-.94,3.754,3.754,0,0,1-1.222-2.6h1.538a2.582,2.582,0,0,0,.782,1.657,2.432,2.432,0,0,0,1.67.558,2.194,2.194,0,0,0,1.78-.773,3.233,3.233,0,0,0,.646-2.136,2.968,2.968,0,0,0-.7-2.061,2.377,2.377,0,0,0-1.859-.778,2.681,2.681,0,0,0-1.67.466l-.431.352Z" transform="translate(-5219 -6082.957)" fill="#12263f"/>
        <path id="Trazado_908733" data-name="Trazado 908733" d="M13.257,10.584l.65-6.381h6.557v1.5H15.287L14.9,9.2a4.13,4.13,0,0,1,2.136-.554A3.531,3.531,0,0,1,19.813,9.8a4.53,4.53,0,0,1,1.028,3.125,4.372,4.372,0,0,1-1.068,3.116,3.892,3.892,0,0,1-2.984,1.138,4.045,4.045,0,0,1-2.769-.94,3.754,3.754,0,0,1-1.222-2.6h1.538a2.582,2.582,0,0,0,.782,1.657,2.432,2.432,0,0,0,1.67.558,2.194,2.194,0,0,0,1.78-.773,3.233,3.233,0,0,0,.646-2.136,2.968,2.968,0,0,0-.7-2.061,2.377,2.377,0,0,0-1.859-.778,2.681,2.681,0,0,0-1.67.466l-.431.352Z" transform="translate(-5219 -5861.957)" fill="#12263f"/>
        <path id="Trazado_908720" data-name="Trazado 908720" d="M18.741,11.375a3.978,3.978,0,0,1-1.217.976,3.3,3.3,0,0,1-1.551.369,3.41,3.41,0,0,1-1.929-.545,3.543,3.543,0,0,1-1.27-1.534,5.229,5.229,0,0,1-.448-2.184,5.327,5.327,0,0,1,.488-2.312A3.583,3.583,0,0,1,14.2,4.572a3.947,3.947,0,0,1,2.092-.545,3.574,3.574,0,0,1,2.993,1.419,6.191,6.191,0,0,1,1.094,3.872v.475q0,3.735-1.477,5.454a5.673,5.673,0,0,1-4.456,1.762h-.316v-1.38h.343a4.476,4.476,0,0,0,3.094-1.048A4.5,4.5,0,0,0,18.741,11.375Zm-2.5,0a2.511,2.511,0,0,0,1.507-.5A2.953,2.953,0,0,0,18.75,9.635v-.65a4.474,4.474,0,0,0-.694-2.6,2.122,2.122,0,0,0-3.48-.18,3.39,3.39,0,0,0-.65,2.167,3.528,3.528,0,0,0,.628,2.158A1.99,1.99,0,0,0,16.236,11.375Z" transform="translate(-5039 -5971.957)" fill="#12263f"/>
        <path id="Trazado_908730" data-name="Trazado 908730" d="M20.534,11.542a7.436,7.436,0,0,1-.976,4.245,3.47,3.47,0,0,1-3.05,1.389,3.5,3.5,0,0,1-3.032-1.358,7.058,7.058,0,0,1-1.02-4.056V9.591A7.271,7.271,0,0,1,13.433,5.4a3.5,3.5,0,0,1,3.059-1.371A3.528,3.528,0,0,1,19.532,5.35a7.017,7.017,0,0,1,1,4.083ZM18.908,9.318a5.958,5.958,0,0,0-.58-3.01,2,2,0,0,0-1.837-.945,1.97,1.97,0,0,0-1.819.94A5.817,5.817,0,0,0,14.083,9.2v2.6a6.053,6.053,0,0,0,.6,3.063,1.993,1.993,0,0,0,1.824.989,1.966,1.966,0,0,0,1.789-.932,5.834,5.834,0,0,0,.611-2.936Z" transform="translate(-5399 -5971.957)" fill="#12263f"/>
        <path id="Trazado_908723" data-name="Trazado 908723" d="M20.771,5.117,15.472,17H13.767L19.049,5.539H12.123V4.2h8.648Z" transform="translate(-5079 -6082.957)" fill="#12263f"/>
        <path id="Trazado_908734" data-name="Trazado 908734" d="M18.741,11.375a3.978,3.978,0,0,1-1.217.976,3.3,3.3,0,0,1-1.551.369,3.41,3.41,0,0,1-1.929-.545,3.543,3.543,0,0,1-1.27-1.534,5.229,5.229,0,0,1-.448-2.184,5.327,5.327,0,0,1,.488-2.312A3.583,3.583,0,0,1,14.2,4.572a3.947,3.947,0,0,1,2.092-.545,3.574,3.574,0,0,1,2.993,1.419,6.191,6.191,0,0,1,1.094,3.872v.475q0,3.735-1.477,5.454a5.673,5.673,0,0,1-4.456,1.762h-.316v-1.38h.343a4.476,4.476,0,0,0,3.094-1.048A4.5,4.5,0,0,0,18.741,11.375Zm-2.5,0a2.511,2.511,0,0,0,1.507-.5A2.953,2.953,0,0,0,18.75,9.635v-.65a4.474,4.474,0,0,0-.694-2.6,2.122,2.122,0,0,0-3.48-.18,3.39,3.39,0,0,0-.65,2.167,3.528,3.528,0,0,0,.628,2.158A1.99,1.99,0,0,0,16.236,11.375Z" transform="translate(-5079 -5861.957)" fill="#12263f"/>
        <path id="Trazado_908719" data-name="Trazado 908719" d="M12.8,17H11.165V6.163l-3.278,1.2V5.891l4.658-1.749H12.8Zm13.148,0H17.563V15.831l4.43-4.922a10.524,10.524,0,0,0,1.358-1.815,3.029,3.029,0,0,0,.374-1.446A2.3,2.3,0,0,0,23.118,6,2.12,2.12,0,0,0,21.5,5.363a2.511,2.511,0,0,0-1.885.69,2.635,2.635,0,0,0-.672,1.92H17.317a3.774,3.774,0,0,1,1.138-2.856A4.219,4.219,0,0,1,21.5,4.027a4.054,4.054,0,0,1,2.821.936,3.193,3.193,0,0,1,1.037,2.492q0,1.89-2.408,4.5l-3.428,3.718h6.425Z" transform="translate(-4899 -5971.957)" fill="#12263f"/>
        <path id="Trazado_908726" data-name="Trazado 908726" d="M13.257,10.584l.65-6.381h6.557v1.5H15.287L14.9,9.2a4.13,4.13,0,0,1,2.136-.554A3.531,3.531,0,0,1,19.813,9.8a4.53,4.53,0,0,1,1.028,3.125,4.372,4.372,0,0,1-1.068,3.116,3.892,3.892,0,0,1-2.984,1.138,4.045,4.045,0,0,1-2.769-.94,3.754,3.754,0,0,1-1.222-2.6h1.538a2.582,2.582,0,0,0,.782,1.657,2.432,2.432,0,0,0,1.67.558,2.194,2.194,0,0,0,1.78-.773,3.233,3.233,0,0,0,.646-2.136,2.968,2.968,0,0,0-.7-2.061,2.377,2.377,0,0,0-1.859-.778,2.681,2.681,0,0,0-1.67.466l-.431.352Z" transform="translate(-5259 -5971.957)" fill="#12263f"/>
        <g id="Rectángulo_408532" data-name="Rectángulo 408532" transform="translate(-5223 -6020.957)" fill="#ffce73" stroke="#ffb937" stroke-width="2">
          <rect width="40" height="25" stroke="none"/>
          <rect x="1" y="1" width="38" height="23" fill="none"/>
        </g>
        <g id="Rectángulo_408538" data-name="Rectángulo 408538" transform="translate(-5223 -5799.957)" fill="#ffce73" stroke="#ffb937" stroke-width="2">
          <rect width="40" height="25" stroke="none"/>
          <rect x="1" y="1" width="38" height="23" fill="none"/>
        </g>
        <g id="Rectángulo_408543" data-name="Rectángulo 408543" transform="translate(-5043 -5909.957)" fill="#ffce73" stroke="#ffb937" stroke-width="2">
          <rect width="40" height="24" stroke="none"/>
          <rect x="1" y="1" width="38" height="22" fill="none"/>
        </g>
        <g id="Rectángulo_408548" data-name="Rectángulo 408548" transform="translate(-5403 -5909.957)" fill="#ffce73" stroke="#ffb937" stroke-width="2">
          <rect width="40" height="24" stroke="none"/>
          <rect x="1" y="1" width="38" height="22" fill="none"/>
        </g>
        <g id="Rectángulo_408533" data-name="Rectángulo 408533" transform="translate(-5083 -6020.957)" fill="#ffce73" stroke="#ffb937" stroke-width="2">
          <rect width="40" height="25" stroke="none"/>
          <rect x="1" y="1" width="38" height="23" fill="none"/>
        </g>
        <g id="Rectángulo_408535" data-name="Rectángulo 408535" transform="translate(-5083 -5799.957)" fill="#ffce73" stroke="#ffb937" stroke-width="2">
          <rect width="40" height="25" stroke="none"/>
          <rect x="1" y="1" width="38" height="23" fill="none"/>
        </g>
        <g id="Rectángulo_408540" data-name="Rectángulo 408540" transform="translate(-4903 -5909.957)" fill="#ffce73" stroke="#ffb937" stroke-width="2">
          <rect width="40" height="24" stroke="none"/>
          <rect x="1" y="1" width="38" height="22" fill="none"/>
        </g>
        <g id="Rectángulo_408545" data-name="Rectángulo 408545" transform="translate(-5263 -5909.957)" fill="#ffce73" stroke="#ffb937" stroke-width="2">
          <rect width="40" height="24" stroke="none"/>
          <rect x="1" y="1" width="38" height="22" fill="none"/>
        </g>
        <path id="Trazado_908725" data-name="Trazado 908725" d="M20.771,5.117,15.472,17H13.767L19.049,5.539H12.123V4.2h8.648Z" transform="translate(-5219 -6016.957)" fill="#12263f"/>
        <path id="Trazado_908736" data-name="Trazado 908736" d="M13.257,10.584l.65-6.381h6.557v1.5H15.287L14.9,9.2a4.13,4.13,0,0,1,2.136-.554A3.531,3.531,0,0,1,19.813,9.8a4.53,4.53,0,0,1,1.028,3.125,4.372,4.372,0,0,1-1.068,3.116,3.892,3.892,0,0,1-2.984,1.138,4.045,4.045,0,0,1-2.769-.94,3.754,3.754,0,0,1-1.222-2.6h1.538a2.582,2.582,0,0,0,.782,1.657,2.432,2.432,0,0,0,1.67.558,2.194,2.194,0,0,0,1.78-.773,3.233,3.233,0,0,0,.646-2.136,2.968,2.968,0,0,0-.7-2.061,2.377,2.377,0,0,0-1.859-.778,2.681,2.681,0,0,0-1.67.466l-.431.352Z" transform="translate(-5219 -5795.957)" fill="#12263f"/>
        <path id="Trazado_908721" data-name="Trazado 908721" d="M18.741,11.375a3.978,3.978,0,0,1-1.217.976,3.3,3.3,0,0,1-1.551.369,3.41,3.41,0,0,1-1.929-.545,3.543,3.543,0,0,1-1.27-1.534,5.229,5.229,0,0,1-.448-2.184,5.327,5.327,0,0,1,.488-2.312A3.583,3.583,0,0,1,14.2,4.572a3.947,3.947,0,0,1,2.092-.545,3.574,3.574,0,0,1,2.993,1.419,6.191,6.191,0,0,1,1.094,3.872v.475q0,3.735-1.477,5.454a5.673,5.673,0,0,1-4.456,1.762h-.316v-1.38h.343a4.476,4.476,0,0,0,3.094-1.048A4.5,4.5,0,0,0,18.741,11.375Zm-2.5,0a2.511,2.511,0,0,0,1.507-.5A2.953,2.953,0,0,0,18.75,9.635v-.65a4.474,4.474,0,0,0-.694-2.6,2.122,2.122,0,0,0-3.48-.18,3.39,3.39,0,0,0-.65,2.167,3.528,3.528,0,0,0,.628,2.158A1.99,1.99,0,0,0,16.236,11.375Z" transform="translate(-5039 -5906.957)" fill="#12263f"/>
        <path id="Trazado_908731" data-name="Trazado 908731" d="M20.534,11.542a7.436,7.436,0,0,1-.976,4.245,3.47,3.47,0,0,1-3.05,1.389,3.5,3.5,0,0,1-3.032-1.358,7.058,7.058,0,0,1-1.02-4.056V9.591A7.271,7.271,0,0,1,13.433,5.4a3.5,3.5,0,0,1,3.059-1.371A3.528,3.528,0,0,1,19.532,5.35a7.017,7.017,0,0,1,1,4.083ZM18.908,9.318a5.958,5.958,0,0,0-.58-3.01,2,2,0,0,0-1.837-.945,1.97,1.97,0,0,0-1.819.94A5.817,5.817,0,0,0,14.083,9.2v2.6a6.053,6.053,0,0,0,.6,3.063,1.993,1.993,0,0,0,1.824.989,1.966,1.966,0,0,0,1.789-.932,5.834,5.834,0,0,0,.611-2.936Z" transform="translate(-5399 -5906.957)" fill="#12263f"/>
        <path id="Trazado_908722" data-name="Trazado 908722" d="M18.741,11.375a3.978,3.978,0,0,1-1.217.976,3.3,3.3,0,0,1-1.551.369,3.41,3.41,0,0,1-1.929-.545,3.543,3.543,0,0,1-1.27-1.534,5.229,5.229,0,0,1-.448-2.184,5.327,5.327,0,0,1,.488-2.312A3.583,3.583,0,0,1,14.2,4.572a3.947,3.947,0,0,1,2.092-.545,3.574,3.574,0,0,1,2.993,1.419,6.191,6.191,0,0,1,1.094,3.872v.475q0,3.735-1.477,5.454a5.673,5.673,0,0,1-4.456,1.762h-.316v-1.38h.343a4.476,4.476,0,0,0,3.094-1.048A4.5,4.5,0,0,0,18.741,11.375Zm-2.5,0a2.511,2.511,0,0,0,1.507-.5A2.953,2.953,0,0,0,18.75,9.635v-.65a4.474,4.474,0,0,0-.694-2.6,2.122,2.122,0,0,0-3.48-.18,3.39,3.39,0,0,0-.65,2.167,3.528,3.528,0,0,0,.628,2.158A1.99,1.99,0,0,0,16.236,11.375Z" transform="translate(-5079 -6016.957)" fill="#12263f"/>
        <path id="Trazado_908735" data-name="Trazado 908735" d="M18.741,11.375a3.978,3.978,0,0,1-1.217.976,3.3,3.3,0,0,1-1.551.369,3.41,3.41,0,0,1-1.929-.545,3.543,3.543,0,0,1-1.27-1.534,5.229,5.229,0,0,1-.448-2.184,5.327,5.327,0,0,1,.488-2.312A3.583,3.583,0,0,1,14.2,4.572a3.947,3.947,0,0,1,2.092-.545,3.574,3.574,0,0,1,2.993,1.419,6.191,6.191,0,0,1,1.094,3.872v.475q0,3.735-1.477,5.454a5.673,5.673,0,0,1-4.456,1.762h-.316v-1.38h.343a4.476,4.476,0,0,0,3.094-1.048A4.5,4.5,0,0,0,18.741,11.375Zm-2.5,0a2.511,2.511,0,0,0,1.507-.5A2.953,2.953,0,0,0,18.75,9.635v-.65a4.474,4.474,0,0,0-.694-2.6,2.122,2.122,0,0,0-3.48-.18,3.39,3.39,0,0,0-.65,2.167,3.528,3.528,0,0,0,.628,2.158A1.99,1.99,0,0,0,16.236,11.375Z" transform="translate(-5079 -5795.957)" fill="#12263f"/>
        <path id="Trazado_908718" data-name="Trazado 908718" d="M12.8,17H11.165V6.163l-3.278,1.2V5.891l4.658-1.749H12.8Zm13.148,0H17.563V15.831l4.43-4.922a10.524,10.524,0,0,0,1.358-1.815,3.029,3.029,0,0,0,.374-1.446A2.3,2.3,0,0,0,23.118,6,2.12,2.12,0,0,0,21.5,5.363a2.511,2.511,0,0,0-1.885.69,2.635,2.635,0,0,0-.672,1.92H17.317a3.774,3.774,0,0,1,1.138-2.856A4.219,4.219,0,0,1,21.5,4.027a4.054,4.054,0,0,1,2.821.936,3.193,3.193,0,0,1,1.037,2.492q0,1.89-2.408,4.5l-3.428,3.718h6.425Z" transform="translate(-4899 -5906.957)" fill="#12263f"/>
        <path id="Trazado_908732" data-name="Trazado 908732" d="M13.257,10.584l.65-6.381h6.557v1.5H15.287L14.9,9.2a4.13,4.13,0,0,1,2.136-.554A3.531,3.531,0,0,1,19.813,9.8a4.53,4.53,0,0,1,1.028,3.125,4.372,4.372,0,0,1-1.068,3.116,3.892,3.892,0,0,1-2.984,1.138,4.045,4.045,0,0,1-2.769-.94,3.754,3.754,0,0,1-1.222-2.6h1.538a2.582,2.582,0,0,0,.782,1.657,2.432,2.432,0,0,0,1.67.558,2.194,2.194,0,0,0,1.78-.773,3.233,3.233,0,0,0,.646-2.136,2.968,2.968,0,0,0-.7-2.061,2.377,2.377,0,0,0-1.859-.778,2.681,2.681,0,0,0-1.67.466l-.431.352Z" transform="translate(-5259 -5906.957)" fill="#12263f"/>
        <line id="Línea_3276" data-name="Línea 3276" x2="90" y2="65.336" transform="translate(-5042.5 -6040.353)" fill="none" stroke="#7a4f00" stroke-linecap="round" stroke-width="2"/>
        <line id="Línea_3279" data-name="Línea 3279" x2="90" y2="65.336" transform="translate(-5314 -5885.18)" fill="none" stroke="#7a4f00" stroke-linecap="round" stroke-width="2"/>
        <line id="Línea_3277" data-name="Línea 3277" x1="90" y2="65.336" transform="translate(-5316 -6040.353)" fill="none" stroke="#7a4f00" stroke-linecap="round" stroke-width="2"/>
        <line id="Línea_3278" data-name="Línea 3278" x1="90" y2="65.336" transform="translate(-5041 -5885.18)" fill="none" stroke="#7a4f00" stroke-linecap="round" stroke-width="2"/>
        <path id="Polígono_21" data-name="Polígono 21" d="M4.857,0,9.715,8.419H0Z" transform="matrix(0.588, 0.809, -0.809, 0.588, -5225.449, -6046.36)" fill="#7a4f00"/>
        <path id="Polígono_23" data-name="Polígono 23" d="M4.857,0,9.715,8.419H0Z" transform="matrix(-0.588, 0.809, -0.809, -0.588, -5216.739, -5820.412)" fill="#7a4f00"/>
        <path id="Polígono_22" data-name="Polígono 22" d="M4.857,0,9.715,8.419H0Z" transform="translate(-4946.089 -5975.793) rotate(135)" fill="#7a4f00"/>
        <path id="Polígono_24" data-name="Polígono 24" d="M4.857,0,9.715,8.419H0Z" transform="translate(-4949.869 -5893.586) rotate(45)" fill="#7a4f00"/>
      </g>
    </g>
  </g>
</svg>
