<svg xmlns="http://www.w3.org/2000/svg" xmlns:xlink="http://www.w3.org/1999/xlink" width="295" height="250" viewBox="0 0 295 250">
  <defs>
    <clipPath id="clip-path">
      <rect id="Rectángulo_378415" data-name="Rectángulo 378415" width="295" height="250" rx="20" fill="#ffe9df"/>
    </clipPath>
    <clipPath id="clip-path-2">
      <rect id="Rectángulo_377901" data-name="Rectángulo 377901" width="418.4" height="323.115" rx="20" fill="#ffe9df"/>
    </clipPath>
    <clipPath id="clip-path-3">
      <rect id="Rectángulo_377901-2" data-name="Rectángulo 377901" width="419.985" height="339.892" rx="20" transform="translate(0)" fill="#ffe9df"/>
    </clipPath>
    <clipPath id="clip-path-4">
      <rect id="Rectángulo_378459" data-name="Rectángulo 378459" width="295" height="250" rx="20" fill="#d1e1dd"/>
    </clipPath>
  </defs>
  <g id="imgfontarj2" transform="translate(-284.668 -5976)">
    <g id="Enmascarar_grupo_1073331" data-name="Enmascarar grupo 1073331" transform="translate(284.668 5976)" clip-path="url(#clip-path)">
      <g id="Grupo_1074341" data-name="Grupo 1074341" transform="translate(-17.871 -53.04)">
        <rect id="Rectángulo_378306" data-name="Rectángulo 378306" width="463.061" height="327.897" transform="translate(330.36) rotate(90)" fill="none"/>
        <g id="Grupo_1074334" data-name="Grupo 1074334" transform="translate(323.115 35.728) rotate(90)">
          <g id="Enmascarar_grupo_154360" data-name="Enmascarar grupo 154360" transform="translate(0)" clip-path="url(#clip-path-2)">
            <rect id="Rectángulo_378306-2" data-name="Rectángulo 378306" width="367.701" height="341.557" transform="translate(411.269 322.837) rotate(180)" fill="none"/>
            <g id="Grupo_1074332" data-name="Grupo 1074332" transform="translate(-23.571 -26.48)">
              <g id="Grupo_154360" data-name="Grupo 154360" transform="translate(0)" clip-path="url(#clip-path-3)">
                <path id="Trazado_610761" data-name="Trazado 610761" d="M0,0H372.34V421.4H0Z" transform="translate(418.463 0.508) rotate(90)" fill="#ffe9df"/>
                <path id="Trazado_611367" data-name="Trazado 611367" d="M0,0H27.948V433.225H0Z" transform="translate(421.522 -13.561) rotate(90)" fill="#ffe9df"/>
                <rect id="Rectángulo_378306-3" data-name="Rectángulo 378306" width="395.577" height="359.468" transform="translate(393.56 338.287) rotate(180)" fill="none"/>
                <g id="Grupo_1074333" data-name="Grupo 1074333" transform="translate(-11.066 -10.099)">
                  <path id="Trazado_611368" data-name="Trazado 611368" d="M1.139,0,131.8,2.033l6.912,22.573L0,24.745Z" transform="translate(5.597)" fill="#ffe9df"/>
                  <path id="Trazado_611369" data-name="Trazado 611369" d="M1.139,0,145.129,1.813l-6.64,21.845L0,24.745Z" transform="translate(0 331.609)" fill="#ffe9df"/>
                </g>
              </g>
            </g>
          </g>
        </g>
      </g>
      <path id="Trazado_873424" data-name="Trazado 873424" d="M367.034,400.668c0-26.034-37.454-57.905-63.143-57.905s-47.417,5.1-76.663,5.1-71.643-10.6-71.643-62.441c0-13.744,6.475-29.845,6.475-54.583S144.3,181.36,98.349,184.7s-56.19-21.795-56.19-44.572S74.118,56.29,0,0V400.668Z" transform="translate(238.797 -29.566) rotate(90)" fill="#fecab2" opacity="0.58"/>
    </g>
  </g>
</svg>
