<svg xmlns="http://www.w3.org/2000/svg" width="90" height="90" viewBox="0 0 90 90">
  <g id="img10" transform="translate(-579.711 -3735)">
    <circle id="Elipse_11620" data-name="Elipse 11620" cx="45" cy="45" r="45" transform="translate(579.711 3735)" fill="#ffce73"/>
    <g id="Grupo_1117896" data-name="Grupo 1117896" transform="translate(569.156 3750.103)">
      <path id="Trazado_907306" data-name="Trazado 907306" d="M75.546,106.694H41.482a2.92,2.92,0,0,1-2.92-2.92V57.014a2.92,2.92,0,0,1,2.92-2.92H75.546a2.92,2.92,0,0,1,2.92,2.92v46.761A2.92,2.92,0,0,1,75.546,106.694Z" transform="translate(-6.624 -47.777)" fill="#fe9738"/>
      <path id="Trazado_907307" data-name="Trazado 907307" d="M101.69,130.5H70.209a.584.584,0,0,1-.584-.584V85.74a.584.584,0,0,1,.584-.584H101.69a.584.584,0,0,1,.584.584v44.177A.584.584,0,0,1,101.69,130.5Z" transform="translate(-34.059 -75.211)" fill="#eaf9fa"/>
      <path id="Trazado_907308" data-name="Trazado 907308" d="M101.69,85.156H96.832v38.221a4.788,4.788,0,0,1-4.788,4.788H69.625v1.752a.584.584,0,0,0,.584.584H101.69a.584.584,0,0,0,.584-.584V85.74A.584.584,0,0,0,101.69,85.156Z" transform="translate(-34.059 -75.211)" fill="#d4f2f6"/>
      <path id="Trazado_907309" data-name="Trazado 907309" d="M131.272,11.128a.578.578,0,0,1-.577-.492,3.628,3.628,0,0,0-7.189,0,.578.578,0,0,1-.577.492H116.8a.584.584,0,0,0-.584.584v6.671a1.752,1.752,0,0,0,1.752,1.752h18.262a1.752,1.752,0,0,0,1.752-1.752V11.711a.584.584,0,0,0-.584-.584Z" transform="translate(-75.211 -6.624)" fill="#017297"/>
      <path id="Trazado_907310" data-name="Trazado 907310" d="M271.1,38.562h-2.336a.584.584,0,0,1,.584.584v6.671a1.752,1.752,0,0,1-1.752,1.752h2.336a1.752,1.752,0,0,0,1.752-1.752V39.146A.584.584,0,0,0,271.1,38.562Z" transform="translate(-208.909 -34.059)" fill="#025f80"/>
      <g id="Grupo_1117895" data-name="Grupo 1117895" transform="translate(41.007 13.573)">
        <path id="Trazado_907311" data-name="Trazado 907311" d="M121.076,168.253H116.8a.584.584,0,0,1-.584-.584V163.4a.584.584,0,0,1,.584-.584h4.274a.584.584,0,0,1,.584.584v4.274A.584.584,0,0,1,121.076,168.253Z" transform="translate(-116.218 -157.371)" fill="#80d261"/>
        <path id="Trazado_907312" data-name="Trazado 907312" d="M121.076,245.909H116.8a.584.584,0,0,1-.584-.584v-4.274a.584.584,0,0,1,.584-.584h4.274a.584.584,0,0,1,.584.584v4.274A.584.584,0,0,1,121.076,245.909Z" transform="translate(-116.218 -225.958)" fill="#80d261"/>
        <path id="Trazado_907313" data-name="Trazado 907313" d="M341.818,116.219a8.348,8.348,0,0,0-8.16,7.976,8.134,8.134,0,0,0,.84,3.8,1.181,1.181,0,0,1,.091.81l-.7,2.792a.584.584,0,0,0,.708.708l2.792-.7a1.18,1.18,0,0,1,.81.092,8.129,8.129,0,0,0,3.616.842,8.352,8.352,0,0,0,8.158-7.894,8.162,8.162,0,0,0-8.158-8.43Z" transform="translate(-308.263 -116.219)" fill="#80d261"/>
      </g>
      <path id="Trazado_907314" data-name="Trazado 907314" d="M156.043,78.532a.876.876,0,0,0-.876-.876h-14.51a.876.876,0,0,0,0,1.752h14.51A.876.876,0,0,0,156.043,78.532Z" transform="translate(-96.022 -68.587)"/>
      <path id="Trazado_907315" data-name="Trazado 907315" d="M110.179,162.505h4.274a1.461,1.461,0,0,0,1.46-1.46v-4.274a1.461,1.461,0,0,0-1.46-1.46h-4.274a1.461,1.461,0,0,0-1.46,1.46v4.274A1.461,1.461,0,0,0,110.179,162.505Zm.292-5.441h3.69v3.69h-3.69Z" transform="translate(-68.588 -137.174)"/>
      <path id="Trazado_907316" data-name="Trazado 907316" d="M115.911,238.7v-4.274a1.461,1.461,0,0,0-1.46-1.46h-4.274a1.461,1.461,0,0,0-1.46,1.46V238.7a1.461,1.461,0,0,0,1.46,1.46h4.274A1.461,1.461,0,0,0,115.911,238.7Zm-1.752-.292h-3.69v-3.69h3.69Z" transform="translate(-68.587 -205.761)"/>
      <path id="Trazado_907317" data-name="Trazado 907317" d="M199.948,155.312h-12.7a.876.876,0,0,0,0,1.752h12.7a.876.876,0,0,0,0-1.752Z" transform="translate(-137.175 -137.174)"/>
      <path id="Trazado_907318" data-name="Trazado 907318" d="M187.251,188.127h9.069a.876.876,0,1,0,0-1.752h-9.069a.876.876,0,0,0,0,1.752Z" transform="translate(-137.175 -164.609)"/>
      <path id="Trazado_907319" data-name="Trazado 907319" d="M199.948,232.969h-12.7a.876.876,0,0,0,0,1.752h12.7a.876.876,0,1,0,0-1.752Z" transform="translate(-137.175 -205.762)"/>
      <path id="Trazado_907320" data-name="Trazado 907320" d="M196.32,264.031h-9.069a.876.876,0,0,0,0,1.752h9.069a.876.876,0,1,0,0-1.752Z" transform="translate(-137.175 -233.196)"/>
      <path id="Trazado_907321" data-name="Trazado 907321" d="M221.034,327.908a1.847,1.847,0,0,1,1.845,1.845.876.876,0,1,0,1.752,0,3.6,3.6,0,1,0-7.193,0v5.441a3.6,3.6,0,1,0,7.193,0,.876.876,0,1,0-1.752,0,1.845,1.845,0,1,1-3.69,0v-5.441A1.847,1.847,0,0,1,221.034,327.908Z" transform="translate(-164.609 -288.066)"/>
      <path id="Trazado_907322" data-name="Trazado 907322" d="M146.463,337.041a3.574,3.574,0,0,0,.511-1.847v-5.441a3.6,3.6,0,1,0-7.193,0v5.441a3.6,3.6,0,0,0,5.443,3.085l.255.255a.876.876,0,0,0,1.239-1.239Zm-3.085,0a1.847,1.847,0,0,1-1.845-1.845v-5.441a1.845,1.845,0,1,1,3.69,0v5.441a1.836,1.836,0,0,1-.077.529l-.468-.468a.876.876,0,0,0-1.239,1.239l.468.468A1.84,1.84,0,0,1,143.378,337.039Z" transform="translate(-96.022 -288.066)"/>
      <path id="Trazado_907323" data-name="Trazado 907323" d="M373.32,162l-3.583,3.583-2.182-2.182a.876.876,0,1,0-1.239,1.239l2.351,2.351a1.514,1.514,0,0,0,2.141,0l3.751-3.751A.876.876,0,0,0,373.32,162Z" transform="translate(-295.875 -142.859)"/>
      <path id="Trazado_907324" data-name="Trazado 907324" d="M81.055,15.448A8.966,8.966,0,0,0,74.562,12.7a8.57,8.57,0,0,0-1.845.2V9.237a3.8,3.8,0,0,0-3.8-3.8H63.648V5.087a1.461,1.461,0,0,0-1.46-1.46H56.308a4.5,4.5,0,0,0-8.836,0H41.591a1.461,1.461,0,0,0-1.46,1.46v.354H34.857a3.8,3.8,0,0,0-3.8,3.8V56a3.8,3.8,0,0,0,3.8,3.8H68.922a3.8,3.8,0,0,0,3.8-3.8V30.586a9.081,9.081,0,0,0,1.845.187,8.773,8.773,0,0,0,4-.984.876.876,0,0,0-.8-1.557,6.919,6.919,0,0,1-3.2.789,7.215,7.215,0,0,1-3.227-.752,2.058,2.058,0,0,0-1.411-.156l-2.32.58.58-2.32a2.06,2.06,0,0,0-.156-1.412,7.214,7.214,0,0,1-.75-3.394,7.512,7.512,0,0,1,7.284-7.12,7.286,7.286,0,0,1,7.282,7.527,7.067,7.067,0,0,1-1.29,3.8.876.876,0,0,0,1.439,1,8.813,8.813,0,0,0,1.6-4.738,8.972,8.972,0,0,0-2.54-6.583ZM65.527,21.529a9.071,9.071,0,0,0,.931,4.21.307.307,0,0,1,.027.21l-.7,2.792a1.46,1.46,0,0,0,1.552,1.808V54.414h-30.9V47.632a.876.876,0,0,0-1.752,0v7.075a1.461,1.461,0,0,0,1.46,1.46H67.63a1.461,1.461,0,0,0,1.46-1.46V30.127l1.259-.315a.306.306,0,0,1,.209.027q.2.1.408.189V56a2.046,2.046,0,0,1-2.044,2.044H34.857A2.046,2.046,0,0,1,32.814,56V9.237a2.046,2.046,0,0,1,2.044-2.044h5.274V9.069H36.149a1.461,1.461,0,0,0-1.46,1.46V43.544a.876.876,0,1,0,1.752,0V10.821h3.69v.938a2.631,2.631,0,0,0,2.628,2.628H55.074a.876.876,0,1,0,0-1.752H42.759a.877.877,0,0,1-.876-.876V5.379h5.836a1.457,1.457,0,0,0,1.445-1.251,2.752,2.752,0,0,1,5.453,0,1.457,1.457,0,0,0,1.445,1.251H61.9v6.379a.877.877,0,0,1-.876.876h-1.86a.876.876,0,1,0,0,1.752h1.86a2.631,2.631,0,0,0,2.628-2.628v-.938h3.69V16.4a8.875,8.875,0,0,0-1.812,5.131Zm3.563-6.912V10.529a1.461,1.461,0,0,0-1.46-1.46H63.648V7.193h5.274a2.046,2.046,0,0,1,2.044,2.044v4.245a9.3,9.3,0,0,0-1.876,1.135Z" transform="translate(0)"/>
      <circle id="Elipse_11621" data-name="Elipse 11621" cx="0.876" cy="0.876" r="0.876" transform="translate(51.014 3.628)"/>
    </g>
  </g>
</svg>
