<svg xmlns="http://www.w3.org/2000/svg" width="105" height="95" viewBox="0 0 105 95">
  <g id="img13" transform="translate(-495.282 -3638)">
    <rect id="Rectángulo_408736" data-name="Rectángulo 408736" width="105" height="95" transform="translate(495.282 3638)" fill="#fecab2"/>
    <g id="img13-2" data-name="img13" transform="translate(517.282 3655)">
      <path id="Trazado_908084" data-name="Trazado 908084" d="M31.161,6A25.161,25.161,0,0,0,13.369,48.953L31.161,31.161Z" transform="translate(-0.161 -0.161)" fill="#c66b60"/>
      <path id="Trazado_908085" data-name="Trazado 908085" d="M61.032,31.032H32V2A29.032,29.032,0,0,1,61.032,31.032Z" transform="translate(-1 -0.032)" fill="#96cc7f"/>
      <circle id="Elipse_11659" data-name="Elipse 11659" cx="7.742" cy="7.742" r="7.742" transform="translate(34.871 11.645)" fill="#f7d881"/>
      <path id="Trazado_908086" data-name="Trazado 908086" d="M57.161,32a25.083,25.083,0,0,1-7.369,17.792L32,32Z" transform="translate(-1 -1)" fill="#e39854"/>
      <path id="Trazado_908087" data-name="Trazado 908087" d="M49.2,49.792,31.407,32,13.615,49.792a25.161,25.161,0,0,0,35.584,0Z" transform="translate(-0.407 -1)" fill="#f7d881"/>
      <path id="Trazado_908088" data-name="Trazado 908088" d="M36,57.381V48h3.871v8.464A25.054,25.054,0,0,1,36,57.381Z" transform="translate(-1.129 -1.516)" fill="#598744"/>
      <path id="Trazado_908089" data-name="Trazado 908089" d="M35.871,57.252V44H32V57.548A25.276,25.276,0,0,0,35.871,57.252Z" transform="translate(-1 -1.387)" fill="#669e4f"/>
      <path id="Trazado_908090" data-name="Trazado 908090" d="M31.871,57.419a25.276,25.276,0,0,1-3.871-.3V40h3.871Z" transform="translate(-0.871 -1.258)" fill="#78b75b"/>
      <path id="Trazado_908091" data-name="Trazado 908091" d="M27.871,48H24v8.464a25.054,25.054,0,0,0,3.871.917Z" transform="translate(-0.742 -1.516)" fill="#96cc7f"/>
      <path id="Trazado_908092" data-name="Trazado 908092" d="M60.065,32A29.032,29.032,0,0,1,2,32H5.871a25.161,25.161,0,1,0,50.323,0Z" transform="translate(-0.032 -1)" fill="#d5cec2"/>
      <path id="Trazado_908093" data-name="Trazado 908093" d="M44.839,18.839V16.9a.968.968,0,0,1,.968.968h1.935a2.9,2.9,0,0,0-2.9-2.9V14H42.9v.968a2.9,2.9,0,1,0,0,5.806V22.71a.968.968,0,0,1-.968-.968H40a2.9,2.9,0,0,0,2.9,2.9v.968h1.935v-.968a2.9,2.9,0,1,0,0-5.806Zm-2.9-.968A.968.968,0,0,1,42.9,16.9v1.935A.968.968,0,0,1,41.935,17.871Zm2.9,4.839V20.774a.968.968,0,1,1,0,1.935Z" transform="translate(-1.258 -0.419)" fill="#f2c351"/>
      <path id="Trazado_908094" data-name="Trazado 908094" d="M21.839,24.839V22.9a.968.968,0,0,1,.968.968h1.935a2.9,2.9,0,0,0-2.9-2.9V20H19.9v.968a2.9,2.9,0,0,0,0,5.806V28.71a.968.968,0,0,1-.968-.968H17a2.9,2.9,0,0,0,2.9,2.9v.968h1.935v-.968a2.9,2.9,0,1,0,0-5.806Zm-2.9-.968A.968.968,0,0,1,19.9,22.9v1.935A.968.968,0,0,1,18.935,23.871Zm2.9,4.839V26.774a.968.968,0,1,1,0,1.935Z" transform="translate(-0.516 -0.613)" fill="#e7e4dd"/>
      <path id="Trazado_908095" data-name="Trazado 908095" d="M61,31A30.034,30.034,0,0,0,31,1a.968.968,0,0,0-.968.968V4.894A26.155,26.155,0,0,0,4.9,30.032H1.968A.968.968,0,0,0,1,31a30,30,0,1,0,60,0ZM31.968,2.951a28.1,28.1,0,0,1,27.08,27.081H31.968ZM26.161,54.71c-.656-.134-1.3-.3-1.935-.484V47.452h1.935Zm3.871.463c-.652-.026-1.3-.079-1.935-.156V39.71h1.935Zm1.935-11.592H33.9V55.012c-.638.076-1.283.13-1.935.156Zm3.871,3.871h1.935v6.769c-.636.186-1.279.351-1.935.484Zm2.9-1.935h-2.9v-2.9a.968.968,0,0,0-.968-.968h-2.9v-2.9A.968.968,0,0,0,31,37.774H27.129a.968.968,0,0,0-.968.968v6.774h-2.9a.968.968,0,0,0-.968.968v7.08a24.223,24.223,0,0,1-7.689-4.8L31,32.367l16.4,16.4a24.225,24.225,0,0,1-7.688,4.8v-7.08A.968.968,0,0,0,38.742,45.516ZM48.767,47.4,33.338,31.968h21.83a24.1,24.1,0,0,1-6.4,15.43ZM30.032,6.83V30.6l-16.8,16.8A24.173,24.173,0,0,1,30.032,6.83ZM31,59.065a28.1,28.1,0,0,1-28.049-27.1H4.9a26.122,26.122,0,0,0,52.209,0h1.935A28.1,28.1,0,0,1,31,59.065Z"/>
      <path id="Trazado_908096" data-name="Trazado 908096" d="M44.839,16.9a.968.968,0,0,1,.968.968h1.935a2.9,2.9,0,0,0-2.9-2.9V14H42.9v.968a2.9,2.9,0,1,0,0,5.806V22.71a.968.968,0,0,1-.968-.968H40a2.9,2.9,0,0,0,2.9,2.9v.968h1.935v-.968a2.9,2.9,0,1,0,0-5.806Zm0,3.871a.968.968,0,1,1,0,1.935ZM42.9,18.839a.968.968,0,1,1,0-1.935Z" transform="translate(-1.258 -0.419)"/>
      <path id="Trazado_908097" data-name="Trazado 908097" d="M18.935,27.742H17a2.9,2.9,0,0,0,2.9,2.9v.968h1.935v-.968a2.9,2.9,0,1,0,0-5.806V22.9a.968.968,0,0,1,.968.968h1.935a2.9,2.9,0,0,0-2.9-2.9V20H19.9v.968a2.9,2.9,0,0,0,0,5.806V28.71A.968.968,0,0,1,18.935,27.742Zm0-3.871A.968.968,0,0,1,19.9,22.9v1.935A.968.968,0,0,1,18.935,23.871Zm2.9,2.9a.968.968,0,1,1,0,1.935Z" transform="translate(-0.516 -0.613)"/>
      <path id="Trazado_908098" data-name="Trazado 908098" d="M43.71,11a8.71,8.71,0,1,0,8.71,8.71A8.71,8.71,0,0,0,43.71,11Zm0,15.484a6.774,6.774,0,1,1,6.774-6.774A6.774,6.774,0,0,1,43.71,26.484Z" transform="translate(-1.097 -0.323)"/>
    </g>
  </g>
</svg>
