<svg xmlns="http://www.w3.org/2000/svg" xmlns:xlink="http://www.w3.org/1999/xlink" width="1030" height="470" viewBox="0 0 1030 470">
  <defs>
    <clipPath id="clip-path">
      <rect id="Rectángulo_408493" data-name="Rectángulo 408493" width="1030" height="470" rx="10" transform="translate(210.332 -45.675)" fill="#feebcf"/>
    </clipPath>
    <filter id="Línea_3266" x="384" y="183.526" width="108" height="20" filterUnits="userSpaceOnUse">
      <feOffset dy="3" input="SourceAlpha"/>
      <feGaussianBlur stdDeviation="3" result="blur"/>
      <feFlood flood-opacity="0.161"/>
      <feComposite operator="in" in2="blur"/>
      <feComposite in="SourceGraphic"/>
    </filter>
    <filter id="Línea_3266-2" x="171" y="314.526" width="108" height="20" filterUnits="userSpaceOnUse">
      <feOffset dy="3" input="SourceAlpha"/>
      <feGaussianBlur stdDeviation="3" result="blur-2"/>
      <feFlood flood-opacity="0.161"/>
      <feComposite operator="in" in2="blur-2"/>
      <feComposite in="SourceGraphic"/>
    </filter>
  </defs>
  <g id="img11" transform="translate(-284.711 -2924)">
    <rect id="Rectángulo_408491" data-name="Rectángulo 408491" width="1030" height="470" rx="10" transform="translate(284.711 2924)" fill="#fef7eb"/>
    <g id="Enmascarar_grupo_1098768" data-name="Enmascarar grupo 1098768" transform="translate(1525.043 3348.325) rotate(180)" clip-path="url(#clip-path)">
      <rect id="Rectángulo_408492" data-name="Rectángulo 408492" width="1305.641" height="515.882" transform="translate(1270.342 488.216) rotate(180)" fill="none"/>
      <g id="Grupo_1117844" data-name="Grupo 1117844" transform="translate(-23718.061 -8708.063) rotate(180)" opacity="0.4">
        <path id="Trazado_907285" data-name="Trazado 907285" d="M307.265,386.9c0-22.768-30.79-50.641-51.908-50.641s-38.98,4.464-63.023,4.464-58.9-9.274-58.9-54.608c0-12.02,5.323-26.1,5.323-47.735s-14.6-43.275-52.374-40.354-46.192-19.06-46.192-38.98S66.467,85.725,5.536,36.5V386.9Z" transform="translate(-24984.691 -9048.582)" fill="#fecab2"/>
        <path id="Trazado_907286" data-name="Trazado 907286" d="M2.129,39.1l4.04,3.261C56.813,83.272,48.623,126.788,43.732,152.79c-1.065,5.655-1.985,10.538-1.985,14.043,0,24.394,12.5,36.762,37.159,36.762,2.043,0,4.181-.088,6.361-.252,2.344-.183,4.662-.275,6.88-.275,15.708,0,28.484,4.651,36.937,13.455,7.243,7.533,11.229,18.06,11.229,29.644,0,12.608-1.741,22.485-3.28,31.221-1.1,6.224-2.043,11.6-2.043,16.514,0,47.048,39.453,52.126,56.418,52.126a291.226,291.226,0,0,0,33.363-2.329c9.935-1.1,19.316-2.134,29.656-2.134,10.6,0,24.238,6.693,35.582,17.464,11.775,11.18,18.808,24.509,18.808,35.658v2.482H2.129ZM308.237,394.688c0-10.993-6.964-24.165-18.625-35.238-11.245-10.672-24.727-17.3-35.185-17.3-10.305,0-19.675,1.035-29.644,2.134a291.121,291.121,0,0,1-33.375,2.329c-17.14,0-57-5.135-57-52.706,0-4.964.951-10.363,2.054-16.636,1.535-8.69,3.268-18.541,3.268-31.1,0-11.432-3.929-21.817-11.065-29.244-8.347-8.686-20.973-13.276-36.521-13.276-2.2,0-4.505.092-6.835.271-2.2.168-4.349.256-6.407.256-25.04,0-37.735-12.562-37.735-37.342,0-3.559.92-8.469,1.993-14.158C48.031,126.807,56.179,83.505,5.8,42.807l-3.093-2.5V396.59H308.237Z" transform="translate(-24994.293 -9041.258)" fill="#fff"/>
        <path id="Trazado_907287" data-name="Trazado 907287" d="M0,40.379,4.04,43.64c50.648,40.92,42.454,84.432,37.56,110.43-1.061,5.655-1.982,10.542-1.982,14.047,0,24.394,12.5,36.762,37.159,36.762,2.031,0,4.169-.084,6.361-.252,2.348-.183,4.666-.275,6.88-.275,15.708,0,28.48,4.651,36.937,13.455,7.243,7.533,11.229,18.064,11.229,29.644,0,12.627-1.745,22.5-3.284,31.225-1.1,6.224-2.043,11.6-2.043,16.51,0,47.048,39.457,52.13,56.421,52.13a290.983,290.983,0,0,0,33.31-2.329c9.95-1.1,19.347-2.138,29.709-2.138,10.6,0,24.234,6.693,35.582,17.464,11.775,11.183,18.808,24.513,18.808,35.658v2.482H0ZM306.108,395.971c0-10.989-6.964-24.162-18.625-35.238-11.245-10.672-24.727-17.3-35.185-17.3-10.332,0-19.713,1.039-29.656,2.138a292.386,292.386,0,0,1-33.363,2.325c-17.14,0-57-5.135-57-52.706,0-4.96.951-10.359,2.054-16.624,1.535-8.686,3.272-18.537,3.272-31.111,0-11.432-3.929-21.817-11.065-29.243-8.347-8.686-20.973-13.276-36.521-13.276-2.2,0-4.5.092-6.835.271-2.207.168-4.36.256-6.407.256-25.04,0-37.739-12.562-37.739-37.342,0-3.562.924-8.473,1.993-14.154C45.9,128.09,54.054,84.792,3.673,44.09L.58,41.589l0,356.283H306.108Z" transform="translate(-25000.293 -9037.642)" fill="#fff"/>
      </g>
    </g>
    <g id="Grupo_1117871" data-name="Grupo 1117871" transform="translate(0 -568.981)">
      <g id="Grupo_1117868" data-name="Grupo 1117868" transform="translate(20 -20)">
        <rect id="Rectángulo_408497" data-name="Rectángulo 408497" width="100" height="30" rx="10" transform="translate(422.711 3898)" fill="#ffce73"/>
        <path id="Trazado_908554" data-name="Trazado 908554" d="M3.258,3.625l3.719,9.281L10.7,3.625h1.945V15h-1.5V10.57l.141-4.781L7.547,15H6.4L2.672,5.813,2.82,10.57V15H1.32V3.625ZM20.281,15a3.036,3.036,0,0,1-.2-.891,3.225,3.225,0,0,1-2.406,1.047,2.984,2.984,0,0,1-2.051-.707,2.287,2.287,0,0,1-.8-1.793,2.39,2.39,0,0,1,1-2.051,4.733,4.733,0,0,1,2.824-.73h1.406V9.211A1.623,1.623,0,0,0,19.6,8a1.821,1.821,0,0,0-1.336-.449,2.108,2.108,0,0,0-1.3.391,1.151,1.151,0,0,0-.523.945H14.992a2,2,0,0,1,.449-1.223,3.066,3.066,0,0,1,1.219-.934,4.1,4.1,0,0,1,1.691-.344,3.342,3.342,0,0,1,2.289.73A2.635,2.635,0,0,1,21.5,9.133v3.891a4.757,4.757,0,0,0,.3,1.852V15Zm-2.4-1.1a2.54,2.54,0,0,0,1.289-.352,2.127,2.127,0,0,0,.883-.914V10.9H18.922q-2.656,0-2.656,1.555a1.316,1.316,0,0,0,.453,1.063A1.742,1.742,0,0,0,17.883,13.9Zm7.844-9.4V6.547H27.3V7.664H25.727v5.249a1.173,1.173,0,0,0,.211.763.888.888,0,0,0,.719.254,3.5,3.5,0,0,0,.688-.094V15a4.215,4.215,0,0,1-1.109.155,1.8,1.8,0,0,1-1.461-.586,2.517,2.517,0,0,1-.492-1.664V7.664H22.742V6.547h1.539V4.5ZM32.5,15.156a3.693,3.693,0,0,1-2.8-1.129,4.19,4.19,0,0,1-1.078-3.02v-.266a5.073,5.073,0,0,1,.48-2.246,3.748,3.748,0,0,1,1.344-1.547,3.378,3.378,0,0,1,1.871-.559,3.166,3.166,0,0,1,2.563,1.086,4.7,4.7,0,0,1,.914,3.109v.6H30.07a3,3,0,0,0,.73,2.02,2.3,2.3,0,0,0,1.777.77,2.517,2.517,0,0,0,1.3-.312,3.259,3.259,0,0,0,.93-.828l.883.688A3.55,3.55,0,0,1,32.5,15.156Zm-.18-7.578a1.928,1.928,0,0,0-1.469.637A3.1,3.1,0,0,0,30.117,10h4.234V9.891a2.753,2.753,0,0,0-.594-1.707A1.815,1.815,0,0,0,32.32,7.578Zm9.234.266a4.331,4.331,0,0,0-.711-.055A1.9,1.9,0,0,0,38.914,9v6H37.469V6.547h1.406l.023.977a2.251,2.251,0,0,1,2.016-1.133,1.477,1.477,0,0,1,.641.109ZM44.453,15H43.008V6.547h1.445ZM42.891,4.3a.863.863,0,0,1,.215-.594.807.807,0,0,1,.637-.242.819.819,0,0,1,.641.242A.854.854,0,0,1,44.6,4.3a.826.826,0,0,1-.219.586.834.834,0,0,1-.641.234.821.821,0,0,1-.637-.234A.834.834,0,0,1,42.891,4.3ZM51.984,15a3.036,3.036,0,0,1-.2-.891,3.225,3.225,0,0,1-2.406,1.047,2.984,2.984,0,0,1-2.051-.707,2.287,2.287,0,0,1-.8-1.793,2.39,2.39,0,0,1,1-2.051,4.733,4.733,0,0,1,2.824-.73h1.406V9.211A1.623,1.623,0,0,0,51.3,8a1.821,1.821,0,0,0-1.336-.449,2.107,2.107,0,0,0-1.3.391,1.151,1.151,0,0,0-.523.945H46.7a2,2,0,0,1,.449-1.223,3.066,3.066,0,0,1,1.219-.934,4.1,4.1,0,0,1,1.691-.344,3.342,3.342,0,0,1,2.289.73A2.635,2.635,0,0,1,53.2,9.133v3.891a4.757,4.757,0,0,0,.3,1.852V15Zm-2.4-1.1a2.54,2.54,0,0,0,1.289-.352,2.127,2.127,0,0,0,.883-.914V10.9H50.625q-2.656,0-2.656,1.555a1.316,1.316,0,0,0,.453,1.063A1.742,1.742,0,0,0,49.586,13.9ZM57.039,15H55.594V3h1.445Zm5.82.156a3.693,3.693,0,0,1-2.8-1.129,4.19,4.19,0,0,1-1.078-3.02v-.266a5.073,5.073,0,0,1,.48-2.246,3.748,3.748,0,0,1,1.344-1.547,3.378,3.378,0,0,1,1.871-.559,3.166,3.166,0,0,1,2.563,1.086,4.7,4.7,0,0,1,.914,3.109v.6H60.43a3,3,0,0,0,.73,2.02,2.3,2.3,0,0,0,1.777.77,2.517,2.517,0,0,0,1.3-.312,3.259,3.259,0,0,0,.93-.828l.883.688A3.55,3.55,0,0,1,62.859,15.156Zm-.18-7.578a1.928,1.928,0,0,0-1.469.637A3.1,3.1,0,0,0,60.477,10h4.234V9.891a2.753,2.753,0,0,0-.594-1.707A1.815,1.815,0,0,0,62.68,7.578Zm10.07,5.18a1.064,1.064,0,0,0-.441-.91,4.249,4.249,0,0,0-1.539-.559,7.277,7.277,0,0,1-1.742-.562,2.479,2.479,0,0,1-.953-.781,1.869,1.869,0,0,1-.309-1.078,2.193,2.193,0,0,1,.879-1.758,3.432,3.432,0,0,1,2.246-.719,3.532,3.532,0,0,1,2.332.742,2.357,2.357,0,0,1,.895,1.9H72.664a1.3,1.3,0,0,0-.5-1.023,1.888,1.888,0,0,0-1.27-.43,1.976,1.976,0,0,0-1.234.344,1.082,1.082,0,0,0-.445.9.877.877,0,0,0,.414.789,5.1,5.1,0,0,0,1.5.508,7.8,7.8,0,0,1,1.754.578,2.558,2.558,0,0,1,1,.809,1.988,1.988,0,0,1,.324,1.152,2.163,2.163,0,0,1-.906,1.816,3.8,3.8,0,0,1-2.352.684,4.257,4.257,0,0,1-1.8-.359,2.922,2.922,0,0,1-1.223-1,2.42,2.42,0,0,1-.441-1.395h1.445a1.5,1.5,0,0,0,.582,1.152,2.258,2.258,0,0,0,1.434.426,2.331,2.331,0,0,0,1.316-.332A1.02,1.02,0,0,0,72.75,12.758Z" transform="translate(434.711 3904)" fill="#12263f"/>
      </g>
      <g id="Grupo_1117869" data-name="Grupo 1117869" transform="translate(272 -20)">
        <rect id="Rectángulo_408497-2" data-name="Rectángulo 408497" width="180" height="30" rx="10" transform="translate(422.711 3898)" fill="#ffce73"/>
        <path id="Trazado_908553" data-name="Trazado 908553" d="M7.75,9.742H2.82v4.031H8.547V15H1.32V3.625H8.469V4.852H2.82V8.516H7.75Zm1.938.961A4.961,4.961,0,0,1,10.6,7.551a2.962,2.962,0,0,1,2.453-1.16A2.96,2.96,0,0,1,15.422,7.4l.063-.852h1.328v11.7H15.367V14.219a3.033,3.033,0,0,1-2.328.938A2.915,2.915,0,0,1,10.6,13.965a5.072,5.072,0,0,1-.91-3.16Zm1.445.164a3.761,3.761,0,0,0,.613,2.281,1.951,1.951,0,0,0,1.652.828,2.164,2.164,0,0,0,1.969-1.141V8.7a2.171,2.171,0,0,0-1.953-1.117,1.965,1.965,0,0,0-1.664.832A4.094,4.094,0,0,0,11.133,10.867Zm13.219,3.3a3.07,3.07,0,0,1-2.477.992,2.628,2.628,0,0,1-2.059-.785,3.4,3.4,0,0,1-.715-2.324v-5.5h1.445v5.461q0,1.922,1.563,1.922a2.163,2.163,0,0,0,2.2-1.234V6.547h1.445V15H24.383ZM29.523,15H28.078V6.547h1.445ZM27.961,4.3a.863.863,0,0,1,.215-.594.807.807,0,0,1,.637-.242.819.819,0,0,1,.641.242.854.854,0,0,1,.219.594.826.826,0,0,1-.219.586.834.834,0,0,1-.641.234.821.821,0,0,1-.637-.234A.834.834,0,0,1,27.961,4.3Zm11.016,6.563a5.062,5.062,0,0,1-.883,3.109,2.829,2.829,0,0,1-2.391,1.18,3.1,3.1,0,0,1-2.422-.977v4.07H31.836V6.547h1.32l.07.938A2.977,2.977,0,0,1,35.68,6.391a2.882,2.882,0,0,1,2.41,1.148,5.117,5.117,0,0,1,.887,3.2ZM37.531,10.7a3.735,3.735,0,0,0-.609-2.258,1.963,1.963,0,0,0-1.672-.828,2.125,2.125,0,0,0-1.969,1.164V12.82a2.129,2.129,0,0,0,1.984,1.156,1.954,1.954,0,0,0,1.652-.824A4.077,4.077,0,0,0,37.531,10.7Zm2.9-.008a4.993,4.993,0,0,1,.488-2.234A3.643,3.643,0,0,1,42.277,6.93a3.7,3.7,0,0,1,1.988-.539,3.565,3.565,0,0,1,2.793,1.2,4.6,4.6,0,0,1,1.066,3.18v.1a5.036,5.036,0,0,1-.473,2.215A3.589,3.589,0,0,1,46.3,14.609a3.743,3.743,0,0,1-2.02.547,3.556,3.556,0,0,1-2.785-1.2A4.575,4.575,0,0,1,40.43,10.8Zm1.453.172a3.616,3.616,0,0,0,.652,2.258,2.211,2.211,0,0,0,3.5-.012A3.955,3.955,0,0,0,46.68,10.7a3.61,3.61,0,0,0-.66-2.254,2.1,2.1,0,0,0-1.754-.863,2.075,2.075,0,0,0-1.727.852A3.925,3.925,0,0,0,41.883,10.867Zm12.977,1.891a1.064,1.064,0,0,0-.441-.91,4.249,4.249,0,0,0-1.539-.559,7.277,7.277,0,0,1-1.742-.562,2.479,2.479,0,0,1-.953-.781,1.869,1.869,0,0,1-.309-1.078,2.193,2.193,0,0,1,.879-1.758A3.432,3.432,0,0,1,53,6.391a3.532,3.532,0,0,1,2.332.742,2.357,2.357,0,0,1,.895,1.9H54.773a1.3,1.3,0,0,0-.5-1.023A1.888,1.888,0,0,0,53,7.578a1.976,1.976,0,0,0-1.234.344,1.082,1.082,0,0,0-.445.9.877.877,0,0,0,.414.789,5.1,5.1,0,0,0,1.5.508,7.8,7.8,0,0,1,1.754.578,2.558,2.558,0,0,1,1,.809,1.988,1.988,0,0,1,.324,1.152,2.163,2.163,0,0,1-.906,1.816,3.8,3.8,0,0,1-2.352.684,4.257,4.257,0,0,1-1.8-.359,2.922,2.922,0,0,1-1.223-1,2.42,2.42,0,0,1-.441-1.395h1.445a1.5,1.5,0,0,0,.582,1.152,2.258,2.258,0,0,0,1.434.426,2.331,2.331,0,0,0,1.316-.332A1.02,1.02,0,0,0,54.859,12.758Zm7.578,3.219H61.2l4.75-12.352H67.18ZM80.477,4.852H76.82V15H75.328V4.852H71.68V3.625h8.8Zm4.2,10.3a3.693,3.693,0,0,1-2.8-1.129,4.19,4.19,0,0,1-1.078-3.02v-.266a5.073,5.073,0,0,1,.48-2.246,3.748,3.748,0,0,1,1.344-1.547,3.378,3.378,0,0,1,1.871-.559,3.166,3.166,0,0,1,2.563,1.086,4.7,4.7,0,0,1,.914,3.109v.6H82.242a3,3,0,0,0,.73,2.02,2.3,2.3,0,0,0,1.777.77,2.517,2.517,0,0,0,1.3-.312,3.259,3.259,0,0,0,.93-.828l.883.688A3.55,3.55,0,0,1,84.672,15.156Zm-.18-7.578a1.928,1.928,0,0,0-1.469.637A3.1,3.1,0,0,0,82.289,10h4.234V9.891a2.753,2.753,0,0,0-.594-1.707A1.815,1.815,0,0,0,84.492,7.578Zm8.539,6.4a2.082,2.082,0,0,0,1.352-.469,1.649,1.649,0,0,0,.641-1.172h1.367a2.621,2.621,0,0,1-.5,1.383,3.293,3.293,0,0,1-1.23,1.047,3.55,3.55,0,0,1-1.629.391A3.482,3.482,0,0,1,90.285,14a4.59,4.59,0,0,1-1.02-3.152v-.242a5.089,5.089,0,0,1,.453-2.2,3.451,3.451,0,0,1,1.3-1.492,3.7,3.7,0,0,1,2-.531,3.39,3.39,0,0,1,2.363.852,3.043,3.043,0,0,1,1,2.211H95.023A1.992,1.992,0,0,0,94.4,8.105a1.932,1.932,0,0,0-1.379-.527,2.023,2.023,0,0,0-1.707.793,3.724,3.724,0,0,0-.605,2.293v.273a3.65,3.65,0,0,0,.6,2.25A2.033,2.033,0,0,0,93.031,13.977Zm6.352-7.43.047,1.063a3.08,3.08,0,0,1,2.531-1.219q2.68,0,2.7,3.023V15h-1.445V9.406a1.946,1.946,0,0,0-.418-1.352,1.675,1.675,0,0,0-1.277-.437,2.086,2.086,0,0,0-1.234.375,2.546,2.546,0,0,0-.828.984V15H98.016V6.547Zm7.078,4.148a4.993,4.993,0,0,1,.488-2.234,3.643,3.643,0,0,1,1.359-1.531,3.7,3.7,0,0,1,1.988-.539,3.565,3.565,0,0,1,2.793,1.2,4.6,4.6,0,0,1,1.066,3.18v.1a5.036,5.036,0,0,1-.473,2.215,3.589,3.589,0,0,1-1.352,1.527,3.743,3.743,0,0,1-2.02.547,3.556,3.556,0,0,1-2.785-1.2,4.575,4.575,0,0,1-1.066-3.164Zm1.453.172a3.616,3.616,0,0,0,.652,2.258,2.211,2.211,0,0,0,3.5-.012,3.955,3.955,0,0,0,.648-2.418,3.61,3.61,0,0,0-.66-2.254,2.1,2.1,0,0,0-1.754-.863,2.075,2.075,0,0,0-1.727.852A3.925,3.925,0,0,0,107.914,10.867ZM117.539,15h-1.445V3h1.445Zm1.93-4.3a4.993,4.993,0,0,1,.488-2.234,3.643,3.643,0,0,1,1.359-1.531,3.7,3.7,0,0,1,1.988-.539,3.565,3.565,0,0,1,2.793,1.2,4.6,4.6,0,0,1,1.066,3.18v.1a5.036,5.036,0,0,1-.473,2.215,3.589,3.589,0,0,1-1.352,1.527,3.743,3.743,0,0,1-2.02.547,3.556,3.556,0,0,1-2.785-1.2,4.575,4.575,0,0,1-1.066-3.164Zm1.453.172a3.616,3.616,0,0,0,.652,2.258,2.211,2.211,0,0,0,3.5-.012,3.955,3.955,0,0,0,.648-2.418,3.61,3.61,0,0,0-.66-2.254,2.1,2.1,0,0,0-1.754-.863,2.075,2.075,0,0,0-1.727.852A3.925,3.925,0,0,0,120.922,10.867Zm7.711-.164a4.968,4.968,0,0,1,.914-3.145,3.151,3.151,0,0,1,4.836-.074l.07-.937h1.32V14.8a3.439,3.439,0,0,1-.973,2.586,3.589,3.589,0,0,1-2.613.945,4.348,4.348,0,0,1-1.789-.391,3.08,3.08,0,0,1-1.336-1.07l.75-.867a2.826,2.826,0,0,0,2.273,1.148,2.214,2.214,0,0,0,1.645-.594,2.269,2.269,0,0,0,.59-1.672v-.727a2.971,2.971,0,0,1-2.367,1,2.887,2.887,0,0,1-2.4-1.2A5.224,5.224,0,0,1,128.633,10.7Zm1.453.164a3.79,3.79,0,0,0,.586,2.246,1.9,1.9,0,0,0,1.641.816,2.117,2.117,0,0,0,2.008-1.242V8.828a2.142,2.142,0,0,0-1.992-1.211,1.921,1.921,0,0,0-1.648.82A4.128,4.128,0,0,0,130.086,10.867ZM139.523,15H138.07V6.547h1.453Zm.016-11.992h1.75L139.2,5.3l-1.164,0ZM147.125,15a3.036,3.036,0,0,1-.2-.891,3.225,3.225,0,0,1-2.406,1.047,2.984,2.984,0,0,1-2.051-.707,2.287,2.287,0,0,1-.8-1.793,2.39,2.39,0,0,1,1-2.051,4.733,4.733,0,0,1,2.824-.73H146.9V9.211A1.623,1.623,0,0,0,146.445,8a1.821,1.821,0,0,0-1.336-.449,2.107,2.107,0,0,0-1.3.391,1.151,1.151,0,0,0-.523.945h-1.453a2,2,0,0,1,.449-1.223,3.066,3.066,0,0,1,1.219-.934,4.1,4.1,0,0,1,1.691-.344,3.342,3.342,0,0,1,2.289.73,2.635,2.635,0,0,1,.859,2.012v3.891a4.757,4.757,0,0,0,.3,1.852V15Zm-2.4-1.1a2.54,2.54,0,0,0,1.289-.352,2.127,2.127,0,0,0,.883-.914V10.9h-1.133q-2.656,0-2.656,1.555a1.316,1.316,0,0,0,.453,1.063A1.742,1.742,0,0,0,144.727,13.9Z" transform="translate(436.711 3904)" fill="#12263f"/>
      </g>
      <path id="Trazado_908547" data-name="Trazado 908547" d="M292.543,11.211a4.025,4.025,0,0,1-1.355,2.891,4.76,4.76,0,0,1-3.223,1.055,4.28,4.28,0,0,1-3.441-1.473,6.038,6.038,0,0,1-1.254-4.043v-.7a6.819,6.819,0,0,1,.578-2.891A4.332,4.332,0,0,1,285.5,4.137a5.164,5.164,0,0,1,5.668.387,4.326,4.326,0,0,1,1.391,2.961h-2.344a2.376,2.376,0,0,0-.613-1.6,2.271,2.271,0,0,0-1.605-.5,1.991,1.991,0,0,0-1.754.84,4.707,4.707,0,0,0-.6,2.605V9.7a5.037,5.037,0,0,0,.559,2.7,1.954,1.954,0,0,0,1.762.852,2.314,2.314,0,0,0,1.621-.5,2.241,2.241,0,0,0,.613-1.535ZM298.832,15a2.508,2.508,0,0,1-.227-.758,2.732,2.732,0,0,1-2.133.914,3,3,0,0,1-2.059-.719,2.312,2.312,0,0,1-.816-1.812,2.389,2.389,0,0,1,1-2.062,4.915,4.915,0,0,1,2.879-.727h1.039V9.352a1.393,1.393,0,0,0-.3-.937,1.183,1.183,0,0,0-.949-.352,1.345,1.345,0,0,0-.895.273.929.929,0,0,0-.324.75h-2.258a2.268,2.268,0,0,1,.453-1.359,3,3,0,0,1,1.281-.98,4.669,4.669,0,0,1,1.859-.355,3.689,3.689,0,0,1,2.48.785,2.747,2.747,0,0,1,.918,2.207v3.664a4.041,4.041,0,0,0,.336,1.82V15Zm-1.867-1.57a1.945,1.945,0,0,0,.922-.223,1.462,1.462,0,0,0,.625-.6V11.156h-.844q-1.7,0-1.8,1.172l-.008.133a.9.9,0,0,0,.3.7A1.153,1.153,0,0,0,296.965,13.43Zm10.609.711a2.831,2.831,0,0,1-2.312,1.016,2.67,2.67,0,0,1-2.074-.781,3.335,3.335,0,0,1-.73-2.289V6.547h2.258v5.467q0,1.322,1.2,1.322a1.63,1.63,0,0,0,1.578-.8V6.547h2.266V15h-2.125Zm8.469-1.477a.727.727,0,0,0-.41-.652,4.659,4.659,0,0,0-1.316-.426q-3.016-.633-3.016-2.562a2.323,2.323,0,0,1,.934-1.879,3.766,3.766,0,0,1,2.441-.754,4.053,4.053,0,0,1,2.574.758,2.388,2.388,0,0,1,.965,1.969h-2.258a1.092,1.092,0,0,0-.312-.8A1.322,1.322,0,0,0,314.668,8a1.351,1.351,0,0,0-.883.258.814.814,0,0,0-.312.656.7.7,0,0,0,.355.605,3.657,3.657,0,0,0,1.2.4,9.8,9.8,0,0,1,1.422.379,2.336,2.336,0,0,1,1.789,2.273,2.2,2.2,0,0,1-.992,1.871,4.28,4.28,0,0,1-2.562.715,4.47,4.47,0,0,1-1.887-.379,3.166,3.166,0,0,1-1.293-1.039,2.414,2.414,0,0,1-.469-1.426h2.141a1.179,1.179,0,0,0,.445.922,1.766,1.766,0,0,0,1.109.32,1.635,1.635,0,0,0,.98-.246A.766.766,0,0,0,316.043,12.664ZM324.59,15a2.508,2.508,0,0,1-.227-.758,2.732,2.732,0,0,1-2.133.914,3,3,0,0,1-2.059-.719,2.312,2.312,0,0,1-.816-1.812,2.389,2.389,0,0,1,1-2.062,4.915,4.915,0,0,1,2.879-.727h1.039V9.352a1.393,1.393,0,0,0-.3-.937,1.183,1.183,0,0,0-.949-.352,1.345,1.345,0,0,0-.895.273.929.929,0,0,0-.324.75h-2.258A2.268,2.268,0,0,1,320,7.727a3,3,0,0,1,1.281-.98,4.669,4.669,0,0,1,1.859-.355,3.689,3.689,0,0,1,2.48.785,2.747,2.747,0,0,1,.918,2.207v3.664a4.041,4.041,0,0,0,.336,1.82V15Zm-1.867-1.57a1.945,1.945,0,0,0,.922-.223,1.462,1.462,0,0,0,.625-.6V11.156h-.844q-1.7,0-1.8,1.172l-.008.133a.9.9,0,0,0,.3.7A1.153,1.153,0,0,0,322.723,13.43Z" transform="translate(390 3546.981)" fill="#12263f"/>
      <path id="Trazado_908548" data-name="Trazado 908548" d="M90.051,10.07h-4.5v3.047h5.281V15H83.207V3.625h7.609v1.9H85.551V8.234h4.5ZM92.535,15V8.2H91.277V6.547h1.258V5.828a2.918,2.918,0,0,1,.816-2.207,3.162,3.162,0,0,1,2.285-.785,5.278,5.278,0,0,1,1.148.156l-.023,1.75a2.878,2.878,0,0,0-.687-.07q-1.273,0-1.273,1.2v.68h1.68V8.2H94.8V15Zm8.82.156a4.15,4.15,0,0,1-3.027-1.141,4.054,4.054,0,0,1-1.168-3.039v-.219a5.106,5.106,0,0,1,.492-2.277,3.612,3.612,0,0,1,1.395-1.547,3.914,3.914,0,0,1,2.059-.543,3.508,3.508,0,0,1,2.73,1.094,4.444,4.444,0,0,1,1,3.1v.922H99.449a2.1,2.1,0,0,0,.66,1.328,2,2,0,0,0,1.395.5,2.437,2.437,0,0,0,2.039-.945l1.109,1.242a3.389,3.389,0,0,1-1.375,1.121A4.511,4.511,0,0,1,101.355,15.156ZM101.1,8.211a1.411,1.411,0,0,0-1.09.455,2.357,2.357,0,0,0-.535,1.3h3.141V9.788a1.681,1.681,0,0,0-.406-1.165A1.456,1.456,0,0,0,101.1,8.211Zm8.531,5.125a1.481,1.481,0,0,0,1.016-.344,1.2,1.2,0,0,0,.406-.914h2.117a2.9,2.9,0,0,1-.469,1.574,3.093,3.093,0,0,1-1.262,1.109,3.949,3.949,0,0,1-1.77.395A3.67,3.67,0,0,1,106.809,14a4.56,4.56,0,0,1-1.047-3.184v-.148A4.508,4.508,0,0,1,106.8,7.555a3.627,3.627,0,0,1,2.852-1.164,3.555,3.555,0,0,1,2.543.9,3.2,3.2,0,0,1,.973,2.4h-2.117a1.551,1.551,0,0,0-.406-1.072,1.51,1.51,0,0,0-2.223.163,3.333,3.333,0,0,0-.4,1.866v.235a3.375,3.375,0,0,0,.4,1.878A1.377,1.377,0,0,0,109.629,13.336Zm7.531-8.867V6.547h1.445V8.2H117.16v4.219a1.007,1.007,0,0,0,.18.672.9.9,0,0,0,.688.2,3.6,3.6,0,0,0,.664-.055v1.711a4.648,4.648,0,0,1-1.367.2,2.156,2.156,0,0,1-2.422-2.4V8.2h-1.234V6.547H114.9V4.469Zm2.117,6.227a5.013,5.013,0,0,1,.484-2.242,3.546,3.546,0,0,1,1.395-1.523,4.069,4.069,0,0,1,2.113-.539,3.849,3.849,0,0,1,2.793,1.047,4.2,4.2,0,0,1,1.207,2.844l.016.578A4.418,4.418,0,0,1,126.2,13.98a4.209,4.209,0,0,1-5.832,0,4.5,4.5,0,0,1-1.09-3.187Zm2.258.16a3.16,3.16,0,0,0,.453,1.843,1.628,1.628,0,0,0,2.578.008,3.457,3.457,0,0,0,.461-2.015,3.128,3.128,0,0,0-.461-1.831,1.5,1.5,0,0,0-1.3-.649,1.474,1.474,0,0,0-1.281.646A3.516,3.516,0,0,0,121.535,10.856Z" transform="translate(1000 3546.981)" fill="#12263f"/>
      <line id="Línea_3264" data-name="Línea 3264" x2="820" transform="translate(389.711 3581)" fill="none" stroke="#7a4f00" stroke-linecap="round" stroke-width="3"/>
      <line id="Línea_3265" data-name="Línea 3265" y1="313.482" transform="translate(999.711 3595)" fill="none" stroke="#7a4f00" stroke-linecap="round" stroke-width="3"/>
      <circle id="Elipse_11617" data-name="Elipse 11617" cx="70" cy="70" r="70" transform="translate(1032.711 3673.503)" fill="#ffce73"/>
      <path id="Trazado_908552" data-name="Trazado 908552" d="M11.234,11.211A4.025,4.025,0,0,1,9.879,14.1a4.76,4.76,0,0,1-3.223,1.055,4.28,4.28,0,0,1-3.441-1.473A6.038,6.038,0,0,1,1.961,9.641v-.7a6.819,6.819,0,0,1,.578-2.891A4.332,4.332,0,0,1,4.191,4.137a4.629,4.629,0,0,1,2.5-.668A4.637,4.637,0,0,1,9.859,4.523,4.326,4.326,0,0,1,11.25,7.484H8.906a2.376,2.376,0,0,0-.613-1.6,2.271,2.271,0,0,0-1.605-.5,1.991,1.991,0,0,0-1.754.84,4.707,4.707,0,0,0-.6,2.605V9.7a5.038,5.038,0,0,0,.559,2.7,1.954,1.954,0,0,0,1.762.852,2.314,2.314,0,0,0,1.621-.5,2.241,2.241,0,0,0,.613-1.535Zm1.039-.516a5.013,5.013,0,0,1,.484-2.242A3.546,3.546,0,0,1,14.152,6.93a4.069,4.069,0,0,1,2.113-.539,3.849,3.849,0,0,1,2.793,1.047,4.2,4.2,0,0,1,1.207,2.844l.016.578A4.418,4.418,0,0,1,19.2,13.98a3.775,3.775,0,0,1-2.914,1.176,3.793,3.793,0,0,1-2.918-1.172,4.5,4.5,0,0,1-1.09-3.187Zm2.258.16a3.16,3.16,0,0,0,.453,1.843,1.628,1.628,0,0,0,2.578.008,3.457,3.457,0,0,0,.461-2.015,3.128,3.128,0,0,0-.461-1.831,1.5,1.5,0,0,0-1.3-.649,1.474,1.474,0,0,0-1.281.646A3.516,3.516,0,0,0,14.531,10.856ZM23.75,6.547l.07.977a2.951,2.951,0,0,1,2.43-1.133,2.453,2.453,0,0,1,2,.789,3.682,3.682,0,0,1,.672,2.359V15H26.664V9.594a1.465,1.465,0,0,0-.312-1.043,1.4,1.4,0,0,0-1.039-.324,1.553,1.553,0,0,0-1.43.813V15H21.625V6.547Zm11.461,6.117a.727.727,0,0,0-.41-.652,4.659,4.659,0,0,0-1.316-.426q-3.016-.633-3.016-2.562A2.323,2.323,0,0,1,31.4,7.145a3.766,3.766,0,0,1,2.441-.754,4.053,4.053,0,0,1,2.574.758,2.388,2.388,0,0,1,.965,1.969H35.125a1.092,1.092,0,0,0-.312-.8A1.322,1.322,0,0,0,33.836,8a1.351,1.351,0,0,0-.883.258.814.814,0,0,0-.312.656A.7.7,0,0,0,33,9.52a3.657,3.657,0,0,0,1.2.4,9.8,9.8,0,0,1,1.422.379,2.336,2.336,0,0,1,1.789,2.273,2.2,2.2,0,0,1-.992,1.871,4.28,4.28,0,0,1-2.562.715,4.47,4.47,0,0,1-1.887-.379,3.166,3.166,0,0,1-1.293-1.039,2.414,2.414,0,0,1-.469-1.426h2.141a1.179,1.179,0,0,0,.445.922,1.766,1.766,0,0,0,1.109.32,1.635,1.635,0,0,0,.98-.246A.766.766,0,0,0,35.211,12.664Zm7.539,2.492a4.15,4.15,0,0,1-3.027-1.141,4.054,4.054,0,0,1-1.168-3.039v-.219a5.106,5.106,0,0,1,.492-2.277,3.612,3.612,0,0,1,1.395-1.547A3.914,3.914,0,0,1,42.5,6.391a3.508,3.508,0,0,1,2.73,1.094,4.444,4.444,0,0,1,1,3.1v.922H40.844a2.1,2.1,0,0,0,.66,1.328,2,2,0,0,0,1.395.5,2.437,2.437,0,0,0,2.039-.945l1.109,1.242a3.389,3.389,0,0,1-1.375,1.121A4.511,4.511,0,0,1,42.75,15.156Zm-.258-6.945a1.411,1.411,0,0,0-1.09.455,2.357,2.357,0,0,0-.535,1.3h3.141V9.788A1.681,1.681,0,0,0,43.6,8.623,1.456,1.456,0,0,0,42.492,8.211Zm8.531,5.125a1.481,1.481,0,0,0,1.016-.344,1.2,1.2,0,0,0,.406-.914h2.117a2.9,2.9,0,0,1-.469,1.574,3.093,3.093,0,0,1-1.262,1.109,3.949,3.949,0,0,1-1.77.395A3.67,3.67,0,0,1,48.2,14a4.56,4.56,0,0,1-1.047-3.184v-.148A4.508,4.508,0,0,1,48.2,7.555a3.627,3.627,0,0,1,2.852-1.164,3.555,3.555,0,0,1,2.543.9,3.2,3.2,0,0,1,.973,2.4H52.445a1.551,1.551,0,0,0-.406-1.072,1.51,1.51,0,0,0-2.223.163,3.333,3.333,0,0,0-.4,1.866v.235a3.375,3.375,0,0,0,.4,1.878A1.377,1.377,0,0,0,51.023,13.336Zm9.891.8A2.831,2.831,0,0,1,58.6,15.156a2.67,2.67,0,0,1-2.074-.781,3.335,3.335,0,0,1-.73-2.289V6.547h2.258v5.467q0,1.322,1.2,1.322a1.63,1.63,0,0,0,1.578-.8V6.547H63.1V15H60.977ZM68.7,15.156a4.15,4.15,0,0,1-3.027-1.141A4.054,4.054,0,0,1,64.5,10.977v-.219a5.106,5.106,0,0,1,.492-2.277,3.612,3.612,0,0,1,1.395-1.547,3.914,3.914,0,0,1,2.059-.543,3.508,3.508,0,0,1,2.73,1.094,4.444,4.444,0,0,1,1,3.1v.922H66.789a2.1,2.1,0,0,0,.66,1.328,2,2,0,0,0,1.395.5,2.437,2.437,0,0,0,2.039-.945l1.109,1.242a3.389,3.389,0,0,1-1.375,1.121A4.511,4.511,0,0,1,68.7,15.156Zm-.258-6.945a1.411,1.411,0,0,0-1.09.455,2.357,2.357,0,0,0-.535,1.3h3.141V9.788a1.681,1.681,0,0,0-.406-1.165A1.456,1.456,0,0,0,68.438,8.211Zm7.094-1.664.07.977a2.951,2.951,0,0,1,2.43-1.133,2.453,2.453,0,0,1,2,.789A3.682,3.682,0,0,1,80.7,9.539V15H78.445V9.594a1.465,1.465,0,0,0-.312-1.043,1.4,1.4,0,0,0-1.039-.324,1.553,1.553,0,0,0-1.43.813V15H73.406V6.547Zm10.4,6.789a1.481,1.481,0,0,0,1.016-.344,1.2,1.2,0,0,0,.406-.914h2.117A2.9,2.9,0,0,1,89,13.652a3.093,3.093,0,0,1-1.262,1.109,3.949,3.949,0,0,1-1.77.395A3.67,3.67,0,0,1,83.109,14a4.56,4.56,0,0,1-1.047-3.184v-.148A4.508,4.508,0,0,1,83.1,7.555a3.627,3.627,0,0,1,2.852-1.164,3.555,3.555,0,0,1,2.543.9,3.2,3.2,0,0,1,.973,2.4H87.352a1.551,1.551,0,0,0-.406-1.072,1.51,1.51,0,0,0-2.223.163,3.333,3.333,0,0,0-.4,1.866v.235a3.375,3.375,0,0,0,.4,1.878A1.377,1.377,0,0,0,85.93,13.336ZM93.141,15H90.875V6.547h2.266Zm-2.4-10.641a1.112,1.112,0,0,1,.34-.836,1.465,1.465,0,0,1,1.848,0,1.105,1.105,0,0,1,.344.836,1.108,1.108,0,0,1-.348.844,1.448,1.448,0,0,1-1.836,0A1.108,1.108,0,0,1,90.742,4.359ZM99.9,15a2.507,2.507,0,0,1-.227-.758,2.732,2.732,0,0,1-2.133.914,3,3,0,0,1-2.059-.719,2.312,2.312,0,0,1-.816-1.812,2.389,2.389,0,0,1,1-2.062,4.915,4.915,0,0,1,2.879-.727h1.039V9.352a1.393,1.393,0,0,0-.3-.937,1.183,1.183,0,0,0-.949-.352,1.345,1.345,0,0,0-.895.273.929.929,0,0,0-.324.75H94.852A2.268,2.268,0,0,1,95.3,7.727a3,3,0,0,1,1.281-.98,4.669,4.669,0,0,1,1.859-.355,3.689,3.689,0,0,1,2.48.785,2.747,2.747,0,0,1,.918,2.207v3.664a4.041,4.041,0,0,0,.336,1.82V15Zm-1.867-1.57a1.945,1.945,0,0,0,.922-.223,1.462,1.462,0,0,0,.625-.6V11.156h-.844q-1.7,0-1.8,1.172l-.008.133a.9.9,0,0,0,.3.7A1.153,1.153,0,0,0,98.031,13.43Z" transform="translate(1050.711 3734.503)" fill="#12263f"/>
      <path id="Icon_akar-arrow-down-right" data-name="Icon akar-arrow-down-right" d="M-17.93-17.93-121-121M-26.689-17.93h8.76v-8.76" transform="translate(670.176 3738)" fill="none" stroke="#7a4f00" stroke-linecap="round" stroke-linejoin="round" stroke-width="3"/>
      <path id="Icon_akar-arrow-down-right-2" data-name="Icon akar-arrow-down-right" d="M-17.93-121-121-17.93M-26.689-121h8.76v8.76" transform="translate(670.176 3890.775)" fill="none" stroke="#7a4f00" stroke-linecap="round" stroke-linejoin="round" stroke-width="3"/>
      <path id="Icon_akar-arrow-down-right-3" data-name="Icon akar-arrow-down-right" d="M-17.93-121-121-17.93M-26.689-121h8.76v8.76" transform="translate(956.176 3890.775)" fill="none" stroke="#7a4f00" stroke-linecap="round" stroke-linejoin="round" stroke-width="3"/>
      <path id="Icon_akar-arrow-down-right-4" data-name="Icon akar-arrow-down-right" d="M-17.93-17.93-121-121M-26.689-17.93h8.76v-8.76" transform="translate(956.176 3738)" fill="none" stroke="#7a4f00" stroke-linecap="round" stroke-linejoin="round" stroke-width="3"/>
      <g id="Grupo_1117850" data-name="Grupo 1117850" transform="translate(685 3736.07)">
        <line id="Línea_3266-3" data-name="Línea 3266" x2="522.993" transform="translate(-231.789 7.3)" fill="none" stroke="#7a4f00" stroke-linecap="round" stroke-width="3"/>
        <path id="Icon_akar-arrow-down-right-5" data-name="Icon akar-arrow-down-right" d="M13.316,14.527H1.211a1.211,1.211,0,0,1,0-2.421h10.9V1.211a1.211,1.211,0,0,1,2.421,0V13.316A1.211,1.211,0,0,1,13.316,14.527Z" transform="translate(275.084 7.433) rotate(-45)" fill="#7a4f00"/>
      </g>
      <g id="Grupo_1117852" data-name="Grupo 1117852" transform="translate(-81.244 -51.237)">
        <g transform="matrix(1, 0, 0, 1, 365.96, 3544.22)" filter="url(#Línea_3266)">
          <line id="Línea_3266-4" data-name="Línea 3266" x2="88" transform="translate(394 190.53)" fill="none" stroke="#7a4f00" stroke-linecap="round" stroke-width="2"/>
        </g>
        <path id="Icon_akar-arrow-down-right-6" data-name="Icon akar-arrow-down-right" d="M8.9,9.714H.809a.809.809,0,0,1,0-1.619H8.095V.809a.809.809,0,0,1,1.619,0V8.9A.809.809,0,0,1,8.9,9.714Z" transform="translate(836.718 3734.869) rotate(-45)" fill="#7a4f00"/>
      </g>
      <g id="Grupo_1117867" data-name="Grupo 1117867" transform="translate(-294.244 79.763)">
        <g transform="matrix(1, 0, 0, 1, 578.96, 3413.22)" filter="url(#Línea_3266-2)">
          <line id="Línea_3266-5" data-name="Línea 3266" x2="88" transform="translate(181 321.53)" fill="none" stroke="#7a4f00" stroke-linecap="round" stroke-width="2"/>
        </g>
        <path id="Icon_akar-arrow-down-right-7" data-name="Icon akar-arrow-down-right" d="M8.9,9.714H.809a.809.809,0,0,1,0-1.619H8.095V.809a.809.809,0,0,1,1.619,0V8.9A.809.809,0,0,1,8.9,9.714Z" transform="translate(836.718 3734.869) rotate(-45)" fill="#7a4f00"/>
      </g>
      <g id="Grupo_1117863" data-name="Grupo 1117863">
        <rect id="Rectángulo_408494" data-name="Rectángulo 408494" width="100" height="30" rx="10" transform="translate(442.711 3602)" fill="#ffce73"/>
        <path id="Trazado_908549" data-name="Trazado 908549" d="M2.82,10.547V15H1.32V3.625h4.2a4.215,4.215,0,0,1,2.926.953A3.231,3.231,0,0,1,9.5,7.1,3.189,3.189,0,0,1,8.465,9.652a4.4,4.4,0,0,1-2.965.895Zm0-1.227h2.7a2.7,2.7,0,0,0,1.844-.567A2.075,2.075,0,0,0,8,7.113a2.143,2.143,0,0,0-.641-1.628A2.525,2.525,0,0,0,5.6,4.852H2.82Zm11.773,5.836a3.693,3.693,0,0,1-2.8-1.129,4.19,4.19,0,0,1-1.078-3.02v-.266A5.073,5.073,0,0,1,11.2,8.5a3.748,3.748,0,0,1,1.344-1.547,3.378,3.378,0,0,1,1.871-.559,3.166,3.166,0,0,1,2.563,1.086,4.7,4.7,0,0,1,.914,3.109v.6H12.164a3,3,0,0,0,.73,2.02,2.3,2.3,0,0,0,1.777.77,2.517,2.517,0,0,0,1.3-.312,3.259,3.259,0,0,0,.93-.828l.883.688A3.55,3.55,0,0,1,14.594,15.156Zm-.18-7.578a1.928,1.928,0,0,0-1.469.637A3.1,3.1,0,0,0,12.211,10h4.234V9.891a2.753,2.753,0,0,0-.594-1.707A1.815,1.815,0,0,0,14.414,7.578Zm9.234.266a4.331,4.331,0,0,0-.711-.055A1.9,1.9,0,0,0,21.008,9v6H19.563V6.547h1.406l.023.977a2.251,2.251,0,0,1,2.016-1.133,1.477,1.477,0,0,1,.641.109Zm6.25,4.914a1.064,1.064,0,0,0-.441-.91,4.249,4.249,0,0,0-1.539-.559,7.277,7.277,0,0,1-1.742-.562,2.479,2.479,0,0,1-.953-.781,1.869,1.869,0,0,1-.309-1.078,2.193,2.193,0,0,1,.879-1.758,3.432,3.432,0,0,1,2.246-.719,3.532,3.532,0,0,1,2.332.742,2.357,2.357,0,0,1,.895,1.9H29.813a1.3,1.3,0,0,0-.5-1.023,1.888,1.888,0,0,0-1.27-.43,1.976,1.976,0,0,0-1.234.344,1.082,1.082,0,0,0-.445.9.877.877,0,0,0,.414.789,5.1,5.1,0,0,0,1.5.508,7.8,7.8,0,0,1,1.754.578,2.558,2.558,0,0,1,1,.809,1.988,1.988,0,0,1,.324,1.152,2.163,2.163,0,0,1-.906,1.816,3.8,3.8,0,0,1-2.352.684,4.257,4.257,0,0,1-1.8-.359,2.922,2.922,0,0,1-1.223-1,2.42,2.42,0,0,1-.441-1.395H26.07a1.5,1.5,0,0,0,.582,1.152,2.258,2.258,0,0,0,1.434.426,2.331,2.331,0,0,0,1.316-.332A1.02,1.02,0,0,0,29.9,12.758ZM32.844,10.7a4.993,4.993,0,0,1,.488-2.234A3.643,3.643,0,0,1,34.691,6.93a3.7,3.7,0,0,1,1.988-.539,3.565,3.565,0,0,1,2.793,1.2,4.6,4.6,0,0,1,1.066,3.18v.1a5.036,5.036,0,0,1-.473,2.215,3.589,3.589,0,0,1-1.352,1.527,3.743,3.743,0,0,1-2.02.547,3.556,3.556,0,0,1-2.785-1.2A4.575,4.575,0,0,1,32.844,10.8Zm1.453.172a3.616,3.616,0,0,0,.652,2.258,2.211,2.211,0,0,0,3.5-.012,3.955,3.955,0,0,0,.648-2.418,3.61,3.61,0,0,0-.66-2.254,2.1,2.1,0,0,0-1.754-.863,2.075,2.075,0,0,0-1.727.852A3.925,3.925,0,0,0,34.3,10.867Zm9.422-4.32.047,1.063A3.08,3.08,0,0,1,46.3,6.391q2.68,0,2.7,3.023V15H47.555V9.406a1.946,1.946,0,0,0-.418-1.352,1.675,1.675,0,0,0-1.277-.437,2.086,2.086,0,0,0-1.234.375,2.546,2.546,0,0,0-.828.984V15H42.352V6.547ZM56.4,15a3.036,3.036,0,0,1-.2-.891,3.225,3.225,0,0,1-2.406,1.047,2.984,2.984,0,0,1-2.051-.707,2.287,2.287,0,0,1-.8-1.793,2.39,2.39,0,0,1,1-2.051,4.733,4.733,0,0,1,2.824-.73h1.406V9.211A1.623,1.623,0,0,0,55.719,8a1.821,1.821,0,0,0-1.336-.449,2.107,2.107,0,0,0-1.3.391,1.151,1.151,0,0,0-.523.945H51.109a2,2,0,0,1,.449-1.223,3.066,3.066,0,0,1,1.219-.934,4.1,4.1,0,0,1,1.691-.344,3.342,3.342,0,0,1,2.289.73,2.635,2.635,0,0,1,.859,2.012v3.891a4.757,4.757,0,0,0,.3,1.852V15ZM54,13.9a2.54,2.54,0,0,0,1.289-.352,2.127,2.127,0,0,0,.883-.914V10.9H55.039q-2.656,0-2.656,1.555a1.316,1.316,0,0,0,.453,1.063A1.742,1.742,0,0,0,54,13.9Zm10.8-1.141a1.064,1.064,0,0,0-.441-.91,4.249,4.249,0,0,0-1.539-.559,7.277,7.277,0,0,1-1.742-.562,2.479,2.479,0,0,1-.953-.781,1.869,1.869,0,0,1-.309-1.078A2.193,2.193,0,0,1,60.7,7.109a3.432,3.432,0,0,1,2.246-.719,3.532,3.532,0,0,1,2.332.742,2.357,2.357,0,0,1,.895,1.9H64.719a1.3,1.3,0,0,0-.5-1.023,1.888,1.888,0,0,0-1.27-.43,1.976,1.976,0,0,0-1.234.344,1.082,1.082,0,0,0-.445.9.877.877,0,0,0,.414.789,5.1,5.1,0,0,0,1.5.508,7.8,7.8,0,0,1,1.754.578,2.558,2.558,0,0,1,1,.809,1.988,1.988,0,0,1,.324,1.152,2.163,2.163,0,0,1-.906,1.816,3.8,3.8,0,0,1-2.352.684,4.257,4.257,0,0,1-1.8-.359,2.922,2.922,0,0,1-1.223-1,2.42,2.42,0,0,1-.441-1.395h1.445a1.5,1.5,0,0,0,.582,1.152,2.258,2.258,0,0,0,1.434.426,2.331,2.331,0,0,0,1.316-.332A1.02,1.02,0,0,0,64.8,12.758Z" transform="translate(457.711 3608)" fill="#12263f"/>
      </g>
      <g id="Grupo_1117853" data-name="Grupo 1117853" transform="translate(-23 -3)">
        <g id="Elipse_11618" data-name="Elipse 11618" transform="translate(535.711 3650)" fill="#feebcf" stroke="#7d3a1b" stroke-width="3">
          <circle cx="15" cy="15" r="15" stroke="none"/>
          <circle cx="15" cy="15" r="16.5" fill="none"/>
        </g>
        <path id="Trazado_908556" data-name="Trazado 908556" d="M6.668,15H4.41V6.3l-2.7.836V5.3L6.426,3.609h.242Z" transform="translate(545.711 3656)" fill="#12263f"/>
      </g>
      <g id="Grupo_1117865" data-name="Grupo 1117865" transform="translate(93 -15)">
        <rect id="Rectángulo_408495" data-name="Rectángulo 408495" width="100" height="30" rx="15" transform="translate(580.711 3659)" fill="#fecab2"/>
        <path id="Trazado_908551" data-name="Trazado 908551" d="M4.844,10.547V15h-1.5V3.625h4.2a4.215,4.215,0,0,1,2.926.953A3.231,3.231,0,0,1,11.523,7.1a3.189,3.189,0,0,1-1.035,2.551,4.4,4.4,0,0,1-2.965.895Zm0-1.227h2.7a2.7,2.7,0,0,0,1.844-.567,2.075,2.075,0,0,0,.641-1.64,2.143,2.143,0,0,0-.641-1.628,2.525,2.525,0,0,0-1.758-.634H4.844ZM17.3,7.844a4.331,4.331,0,0,0-.711-.055A1.9,1.9,0,0,0,14.656,9v6H13.211V6.547h1.406l.023.977a2.251,2.251,0,0,1,2.016-1.133A1.477,1.477,0,0,1,17.3,6.5Zm.789,2.852a4.993,4.993,0,0,1,.488-2.234A3.643,3.643,0,0,1,19.934,6.93a3.7,3.7,0,0,1,1.988-.539,3.565,3.565,0,0,1,2.793,1.2,4.6,4.6,0,0,1,1.066,3.18v.1a5.036,5.036,0,0,1-.473,2.215,3.589,3.589,0,0,1-1.352,1.527,3.743,3.743,0,0,1-2.02.547,3.556,3.556,0,0,1-2.785-1.2A4.575,4.575,0,0,1,18.086,10.8Zm1.453.172a3.616,3.616,0,0,0,.652,2.258,2.211,2.211,0,0,0,3.5-.012,3.955,3.955,0,0,0,.648-2.418,3.61,3.61,0,0,0-.66-2.254,2.1,2.1,0,0,0-1.754-.863A2.075,2.075,0,0,0,20.2,8.43,3.925,3.925,0,0,0,19.539,10.867Zm11.445,3.109a2.082,2.082,0,0,0,1.352-.469,1.649,1.649,0,0,0,.641-1.172h1.367a2.621,2.621,0,0,1-.5,1.383,3.293,3.293,0,0,1-1.23,1.047,3.55,3.55,0,0,1-1.629.391A3.482,3.482,0,0,1,28.238,14a4.59,4.59,0,0,1-1.02-3.152v-.242a5.089,5.089,0,0,1,.453-2.2,3.451,3.451,0,0,1,1.3-1.492,3.7,3.7,0,0,1,2-.531,3.39,3.39,0,0,1,2.363.852,3.043,3.043,0,0,1,1,2.211H32.977a1.992,1.992,0,0,0-.621-1.348,1.932,1.932,0,0,0-1.379-.527,2.023,2.023,0,0,0-1.707.793,3.724,3.724,0,0,0-.605,2.293v.273a3.65,3.65,0,0,0,.6,2.25A2.033,2.033,0,0,0,30.984,13.977Zm8.492,1.18a3.693,3.693,0,0,1-2.8-1.129,4.19,4.19,0,0,1-1.078-3.02v-.266a5.073,5.073,0,0,1,.48-2.246,3.748,3.748,0,0,1,1.344-1.547A3.378,3.378,0,0,1,39.3,6.391a3.166,3.166,0,0,1,2.563,1.086,4.7,4.7,0,0,1,.914,3.109v.6H37.047a3,3,0,0,0,.73,2.02,2.3,2.3,0,0,0,1.777.77,2.517,2.517,0,0,0,1.3-.312,3.259,3.259,0,0,0,.93-.828l.883.688A3.55,3.55,0,0,1,39.477,15.156ZM39.3,7.578a1.928,1.928,0,0,0-1.469.637A3.1,3.1,0,0,0,37.094,10h4.234V9.891a2.753,2.753,0,0,0-.594-1.707A1.815,1.815,0,0,0,39.3,7.578Zm10.07,5.18a1.064,1.064,0,0,0-.441-.91,4.249,4.249,0,0,0-1.539-.559,7.277,7.277,0,0,1-1.742-.562,2.479,2.479,0,0,1-.953-.781,1.869,1.869,0,0,1-.309-1.078,2.193,2.193,0,0,1,.879-1.758,3.432,3.432,0,0,1,2.246-.719,3.532,3.532,0,0,1,2.332.742,2.357,2.357,0,0,1,.895,1.9H49.281a1.3,1.3,0,0,0-.5-1.023,1.888,1.888,0,0,0-1.27-.43,1.976,1.976,0,0,0-1.234.344,1.082,1.082,0,0,0-.445.9.877.877,0,0,0,.414.789,5.1,5.1,0,0,0,1.5.508,7.8,7.8,0,0,1,1.754.578,2.558,2.558,0,0,1,1,.809,1.988,1.988,0,0,1,.324,1.152,2.163,2.163,0,0,1-.906,1.816,3.8,3.8,0,0,1-2.352.684,4.257,4.257,0,0,1-1.8-.359,2.922,2.922,0,0,1-1.223-1,2.42,2.42,0,0,1-.441-1.395h1.445a1.5,1.5,0,0,0,.582,1.152,2.258,2.258,0,0,0,1.434.426,2.331,2.331,0,0,0,1.316-.332A1.02,1.02,0,0,0,49.367,12.758ZM52.313,10.7A4.993,4.993,0,0,1,52.8,8.461,3.643,3.643,0,0,1,54.16,6.93a3.7,3.7,0,0,1,1.988-.539,3.565,3.565,0,0,1,2.793,1.2,4.6,4.6,0,0,1,1.066,3.18v.1a5.036,5.036,0,0,1-.473,2.215,3.589,3.589,0,0,1-1.352,1.527,3.743,3.743,0,0,1-2.02.547,3.556,3.556,0,0,1-2.785-1.2A4.575,4.575,0,0,1,52.313,10.8Zm1.453.172a3.616,3.616,0,0,0,.652,2.258,2.211,2.211,0,0,0,3.5-.012,3.955,3.955,0,0,0,.648-2.418,3.61,3.61,0,0,0-.66-2.254,2.1,2.1,0,0,0-1.754-.863,2.075,2.075,0,0,0-1.727.852A3.925,3.925,0,0,0,53.766,10.867Zm12.977,1.891a1.064,1.064,0,0,0-.441-.91,4.249,4.249,0,0,0-1.539-.559,7.277,7.277,0,0,1-1.742-.562,2.479,2.479,0,0,1-.953-.781,1.869,1.869,0,0,1-.309-1.078,2.193,2.193,0,0,1,.879-1.758,3.432,3.432,0,0,1,2.246-.719,3.532,3.532,0,0,1,2.332.742,2.357,2.357,0,0,1,.895,1.9H66.656a1.3,1.3,0,0,0-.5-1.023,1.888,1.888,0,0,0-1.27-.43,1.976,1.976,0,0,0-1.234.344,1.082,1.082,0,0,0-.445.9.877.877,0,0,0,.414.789,5.1,5.1,0,0,0,1.5.508,7.8,7.8,0,0,1,1.754.578,2.558,2.558,0,0,1,1,.809,1.988,1.988,0,0,1,.324,1.152,2.163,2.163,0,0,1-.906,1.816,3.8,3.8,0,0,1-2.352.684,4.257,4.257,0,0,1-1.8-.359,2.922,2.922,0,0,1-1.223-1,2.42,2.42,0,0,1-.441-1.395h1.445a1.5,1.5,0,0,0,.582,1.152,2.258,2.258,0,0,0,1.434.426,2.331,2.331,0,0,0,1.316-.332A1.02,1.02,0,0,0,66.742,12.758Z" transform="translate(595.711 3664)" fill="#12263f"/>
      </g>
      <g id="Grupo_1117858" data-name="Grupo 1117858" transform="translate(173 42.485)">
        <g id="Elipse_11618-2" data-name="Elipse 11618" transform="translate(535.711 3650)" fill="#feebcf" stroke="#7d3a1b" stroke-width="3">
          <circle cx="15" cy="15" r="15" stroke="none"/>
          <circle cx="15" cy="15" r="16.5" fill="none"/>
        </g>
        <path id="Trazado_908557" data-name="Trazado 908557" d="M3.48,8.313h1.2a1.7,1.7,0,0,0,1.273-.43,1.574,1.574,0,0,0,.414-1.141,1.392,1.392,0,0,0-.41-1.07,1.59,1.59,0,0,0-1.129-.383,1.666,1.666,0,0,0-1.086.355,1.137,1.137,0,0,0-.437.926H1.051a2.777,2.777,0,0,1,.48-1.6A3.2,3.2,0,0,1,2.875,3.867a4.485,4.485,0,0,1,1.9-.4,4.253,4.253,0,0,1,2.828.863A2.945,2.945,0,0,1,8.629,6.711a2.394,2.394,0,0,1-.477,1.438A3.1,3.1,0,0,1,6.9,9.156a2.826,2.826,0,0,1,1.434,1.031,2.8,2.8,0,0,1,.473,1.625A2.994,2.994,0,0,1,7.7,14.242a4.445,4.445,0,0,1-2.926.914,4.214,4.214,0,0,1-2.785-.9A2.934,2.934,0,0,1,.91,11.883H3.168a1.308,1.308,0,0,0,.48,1.047,1.771,1.771,0,0,0,1.184.406,1.779,1.779,0,0,0,1.262-.426,1.47,1.47,0,0,0,.457-1.129q0-1.7-1.875-1.7H3.48Z" transform="translate(545.711 3656)" fill="#12263f"/>
      </g>
      <g id="Grupo_1117857" data-name="Grupo 1117857" transform="translate(94.535 164.632)">
        <g id="Elipse_11618-3" data-name="Elipse 11618" transform="translate(535.711 3650)" fill="#feebcf" stroke="#7d3a1b" stroke-width="3">
          <circle cx="15" cy="15" r="15" stroke="none"/>
          <circle cx="15" cy="15" r="16.5" fill="none"/>
        </g>
        <path id="Trazado_908560" data-name="Trazado 908560" d="M1.52,9.406l.656-5.781H8.551V5.508H4.027L3.746,7.953a3.58,3.58,0,0,1,1.711-.43A3.279,3.279,0,0,1,8,8.531a4.026,4.026,0,0,1,.922,2.82,4.124,4.124,0,0,1-.465,1.973,3.281,3.281,0,0,1-1.332,1.352,4.158,4.158,0,0,1-2.047.48,4.416,4.416,0,0,1-1.914-.418,3.4,3.4,0,0,1-1.395-1.176,3.2,3.2,0,0,1-.543-1.727H3.465a1.669,1.669,0,0,0,.5,1.105,1.573,1.573,0,0,0,1.113.395,1.388,1.388,0,0,0,1.18-.551,2.551,2.551,0,0,0,.414-1.559,2.11,2.11,0,0,0-.477-1.484A1.749,1.749,0,0,0,4.84,9.227a1.954,1.954,0,0,0-1.3.422l-.219.2Z" transform="translate(545.711 3656)" fill="#12263f"/>
      </g>
      <g id="Grupo_1117870" data-name="Grupo 1117870" transform="translate(368.535 164.632)">
        <g id="Elipse_11618-4" data-name="Elipse 11618" transform="translate(535.711 3650)" fill="#feebcf" stroke="#7d3a1b" stroke-width="3">
          <circle cx="15" cy="15" r="15" stroke="none"/>
          <circle cx="15" cy="15" r="16.5" fill="none"/>
        </g>
        <path id="Trazado_908559" data-name="Trazado 908559" d="M7.309,3.508V5.367H7.09a3.836,3.836,0,0,0-2.465.8A3.238,3.238,0,0,0,3.5,8.313a3.075,3.075,0,0,1,2.289-.922A2.9,2.9,0,0,1,8.152,8.453a4.259,4.259,0,0,1,.875,2.8,4.19,4.19,0,0,1-.48,2.008,3.446,3.446,0,0,1-1.359,1.4,3.949,3.949,0,0,1-1.988.5,3.689,3.689,0,0,1-2.9-1.25A4.852,4.852,0,0,1,1.191,10.57V9.758a7.3,7.3,0,0,1,.7-3.27A5.127,5.127,0,0,1,3.9,4.293a5.884,5.884,0,0,1,3.035-.785Zm-2.2,5.7a1.8,1.8,0,0,0-.992.285,1.715,1.715,0,0,0-.656.753v.686A3.04,3.04,0,0,0,3.9,12.7a1.439,1.439,0,0,0,1.25.635,1.423,1.423,0,0,0,1.176-.573,2.337,2.337,0,0,0,.449-1.485,2.333,2.333,0,0,0-.453-1.5A1.477,1.477,0,0,0,5.105,9.211Z" transform="translate(545.711 3656)" fill="#12263f"/>
      </g>
      <g id="Grupo_1117864" data-name="Grupo 1117864">
        <rect id="Rectángulo_408496" data-name="Rectángulo 408496" width="110" height="30" rx="10" transform="translate(718.711 3602)" fill="#ffce73"/>
        <path id="Trazado_908550" data-name="Trazado 908550" d="M3.258,3.625l3.719,9.281L10.7,3.625h1.945V15h-1.5V10.57l.141-4.781L7.547,15H6.4L2.672,5.813,2.82,10.57V15H1.32V3.625ZM18.57,15.156a3.693,3.693,0,0,1-2.8-1.129,4.19,4.19,0,0,1-1.078-3.02v-.266a5.073,5.073,0,0,1,.48-2.246A3.748,3.748,0,0,1,16.52,6.949a3.378,3.378,0,0,1,1.871-.559,3.166,3.166,0,0,1,2.563,1.086,4.7,4.7,0,0,1,.914,3.109v.6H16.141a3,3,0,0,0,.73,2.02,2.3,2.3,0,0,0,1.777.77,2.517,2.517,0,0,0,1.3-.312,3.259,3.259,0,0,0,.93-.828l.883.688A3.55,3.55,0,0,1,18.57,15.156Zm-.18-7.578a1.928,1.928,0,0,0-1.469.637A3.1,3.1,0,0,0,16.188,10h4.234V9.891a2.753,2.753,0,0,0-.594-1.707A1.815,1.815,0,0,0,18.391,7.578Zm4.8,3.125a4.952,4.952,0,0,1,.922-3.129,3.137,3.137,0,0,1,4.766-.168V3H30.32V15H28.992l-.07-.906a2.943,2.943,0,0,1-2.414,1.063,2.887,2.887,0,0,1-2.395-1.2,5.008,5.008,0,0,1-.926-3.141Zm1.445.164a3.749,3.749,0,0,0,.594,2.25,1.92,1.92,0,0,0,1.641.813A2.108,2.108,0,0,0,28.875,12.7V8.813a2.125,2.125,0,0,0-1.992-1.2,1.929,1.929,0,0,0-1.656.82A4.128,4.128,0,0,0,24.633,10.867ZM34.133,15H32.688V6.547h1.445ZM32.57,4.3a.863.863,0,0,1,.215-.594.807.807,0,0,1,.637-.242.819.819,0,0,1,.641.242.854.854,0,0,1,.219.594.826.826,0,0,1-.219.586.834.834,0,0,1-.641.234.821.821,0,0,1-.637-.234A.834.834,0,0,1,32.57,4.3Zm7.266,9.672a2.082,2.082,0,0,0,1.352-.469,1.649,1.649,0,0,0,.641-1.172H43.2a2.621,2.621,0,0,1-.5,1.383,3.293,3.293,0,0,1-1.23,1.047,3.55,3.55,0,0,1-1.629.391A3.482,3.482,0,0,1,37.09,14a4.59,4.59,0,0,1-1.02-3.152v-.242a5.089,5.089,0,0,1,.453-2.2,3.451,3.451,0,0,1,1.3-1.492,3.7,3.7,0,0,1,2-.531,3.39,3.39,0,0,1,2.363.852,3.043,3.043,0,0,1,1,2.211H41.828a1.992,1.992,0,0,0-.621-1.348,1.932,1.932,0,0,0-1.379-.527,2.023,2.023,0,0,0-1.707.793,3.724,3.724,0,0,0-.605,2.293v.273a3.65,3.65,0,0,0,.6,2.25A2.033,2.033,0,0,0,39.836,13.977ZM46.391,15H44.945V6.547h1.445ZM44.828,4.3a.863.863,0,0,1,.215-.594.807.807,0,0,1,.637-.242.819.819,0,0,1,.641.242.854.854,0,0,1,.219.594.826.826,0,0,1-.219.586.834.834,0,0,1-.641.234.821.821,0,0,1-.637-.234A.834.834,0,0,1,44.828,4.3ZM48.32,10.7a4.993,4.993,0,0,1,.488-2.234A3.643,3.643,0,0,1,50.168,6.93a3.7,3.7,0,0,1,1.988-.539,3.565,3.565,0,0,1,2.793,1.2,4.6,4.6,0,0,1,1.066,3.18v.1a5.036,5.036,0,0,1-.473,2.215,3.589,3.589,0,0,1-1.352,1.527,3.743,3.743,0,0,1-2.02.547,3.556,3.556,0,0,1-2.785-1.2A4.575,4.575,0,0,1,48.32,10.8Zm1.453.172a3.616,3.616,0,0,0,.652,2.258,2.211,2.211,0,0,0,3.5-.012A3.955,3.955,0,0,0,54.57,10.7a3.61,3.61,0,0,0-.66-2.254,2.1,2.1,0,0,0-1.754-.863,2.075,2.075,0,0,0-1.727.852A3.925,3.925,0,0,0,49.773,10.867ZM59.2,6.547l.047,1.063a3.08,3.08,0,0,1,2.531-1.219q2.68,0,2.7,3.023V15H63.031V9.406a1.946,1.946,0,0,0-.418-1.352,1.675,1.675,0,0,0-1.277-.437,2.086,2.086,0,0,0-1.234.375,2.546,2.546,0,0,0-.828.984V15H57.828V6.547Zm10.969,8.609a3.693,3.693,0,0,1-2.8-1.129,4.19,4.19,0,0,1-1.078-3.02v-.266A5.073,5.073,0,0,1,66.77,8.5a3.748,3.748,0,0,1,1.344-1.547,3.378,3.378,0,0,1,1.871-.559,3.166,3.166,0,0,1,2.563,1.086,4.7,4.7,0,0,1,.914,3.109v.6H67.734a3,3,0,0,0,.73,2.02,2.3,2.3,0,0,0,1.777.77,2.517,2.517,0,0,0,1.3-.312,3.259,3.259,0,0,0,.93-.828l.883.688A3.55,3.55,0,0,1,70.164,15.156Zm-.18-7.578a1.928,1.928,0,0,0-1.469.637A3.1,3.1,0,0,0,67.781,10h4.234V9.891a2.753,2.753,0,0,0-.594-1.707A1.815,1.815,0,0,0,69.984,7.578Zm10.07,5.18a1.064,1.064,0,0,0-.441-.91,4.249,4.249,0,0,0-1.539-.559,7.277,7.277,0,0,1-1.742-.562,2.479,2.479,0,0,1-.953-.781,1.869,1.869,0,0,1-.309-1.078,2.193,2.193,0,0,1,.879-1.758A3.432,3.432,0,0,1,78.2,6.391a3.532,3.532,0,0,1,2.332.742,2.357,2.357,0,0,1,.895,1.9H79.969a1.3,1.3,0,0,0-.5-1.023,1.888,1.888,0,0,0-1.27-.43,1.976,1.976,0,0,0-1.234.344,1.082,1.082,0,0,0-.445.9.877.877,0,0,0,.414.789,5.1,5.1,0,0,0,1.5.508,7.8,7.8,0,0,1,1.754.578,2.558,2.558,0,0,1,1,.809,1.988,1.988,0,0,1,.324,1.152,2.163,2.163,0,0,1-.906,1.816,3.8,3.8,0,0,1-2.352.684,4.257,4.257,0,0,1-1.8-.359,2.922,2.922,0,0,1-1.223-1,2.42,2.42,0,0,1-.441-1.395h1.445a1.5,1.5,0,0,0,.582,1.152,2.258,2.258,0,0,0,1.434.426,2.331,2.331,0,0,0,1.316-.332A1.02,1.02,0,0,0,80.055,12.758Z" transform="translate(730.711 3608)" fill="#12263f"/>
      </g>
      <g id="Grupo_1117854" data-name="Grupo 1117854" transform="translate(372 -3)">
        <g id="Elipse_11618-5" data-name="Elipse 11618" transform="translate(535.711 3650)" fill="#feebcf" stroke="#7d3a1b" stroke-width="3">
          <circle cx="15" cy="15" r="15" stroke="none"/>
          <circle cx="15" cy="15" r="16.5" fill="none"/>
        </g>
        <path id="Trazado_908558" data-name="Trazado 908558" d="M8.98,15h-7.8V13.453l3.68-3.922A9.078,9.078,0,0,0,5.984,8.086a2.322,2.322,0,0,0,.363-1.172,1.738,1.738,0,0,0-.383-1.191,1.382,1.382,0,0,0-1.094-.434,1.49,1.49,0,0,0-1.207.527A2.089,2.089,0,0,0,3.223,7.2H.957a3.729,3.729,0,0,1,.5-1.9,3.5,3.5,0,0,1,1.4-1.348A4.262,4.262,0,0,1,4.91,3.469a4.036,4.036,0,0,1,2.73.844A2.985,2.985,0,0,1,8.613,6.7a3.825,3.825,0,0,1-.437,1.719,9.551,9.551,0,0,1-1.5,2.039L4.09,13.18H8.98Z" transform="translate(545.711 3656)" fill="#12263f"/>
      </g>
      <g id="Grupo_1117866" data-name="Grupo 1117866" transform="translate(48 -100)">
        <rect id="Rectángulo_408498" data-name="Rectángulo 408498" width="90" height="30" rx="15" transform="translate(417.711 3876)" fill="#fecab2"/>
        <path id="Trazado_908555" data-name="Trazado 908555" d="M15.508,9.742h-4.93v4.031H16.3V15H9.078V3.625h7.148V4.852H10.578V8.516h4.93Zm3.8-3.2.047,1.063a3.08,3.08,0,0,1,2.531-1.219q2.68,0,2.7,3.023V15H23.148V9.406a1.946,1.946,0,0,0-.418-1.352,1.675,1.675,0,0,0-1.277-.437,2.086,2.086,0,0,0-1.234.375,2.546,2.546,0,0,0-.828.984V15H17.945V6.547ZM28.734,4.5V6.547h1.578V7.664H28.734v5.249a1.173,1.173,0,0,0,.211.763.888.888,0,0,0,.719.254,3.5,3.5,0,0,0,.688-.094V15a4.215,4.215,0,0,1-1.109.155,1.8,1.8,0,0,1-1.461-.586,2.517,2.517,0,0,1-.492-1.664V7.664H25.75V6.547h1.539V4.5Zm2.727,6.2a4.993,4.993,0,0,1,.488-2.234A3.643,3.643,0,0,1,33.309,6.93,3.7,3.7,0,0,1,35.3,6.391a3.565,3.565,0,0,1,2.793,1.2,4.6,4.6,0,0,1,1.066,3.18v.1a5.036,5.036,0,0,1-.473,2.215,3.589,3.589,0,0,1-1.352,1.527,3.743,3.743,0,0,1-2.02.547,3.556,3.556,0,0,1-2.785-1.2A4.575,4.575,0,0,1,31.461,10.8Zm1.453.172a3.616,3.616,0,0,0,.652,2.258,2.211,2.211,0,0,0,3.5-.012,3.955,3.955,0,0,0,.648-2.418,3.61,3.61,0,0,0-.66-2.254A2.1,2.1,0,0,0,35.3,7.578a2.075,2.075,0,0,0-1.727.852A3.925,3.925,0,0,0,32.914,10.867ZM45.055,7.844a4.331,4.331,0,0,0-.711-.055A1.9,1.9,0,0,0,42.414,9v6H40.969V6.547h1.406l.023.977a2.251,2.251,0,0,1,2.016-1.133,1.477,1.477,0,0,1,.641.109Zm2.7-1.3L47.8,7.609a3.08,3.08,0,0,1,2.531-1.219q2.68,0,2.7,3.023V15H51.586V9.406a1.946,1.946,0,0,0-.418-1.352,1.675,1.675,0,0,0-1.277-.437,2.086,2.086,0,0,0-1.234.375,2.546,2.546,0,0,0-.828.984V15H46.383V6.547ZM54.828,10.7a4.993,4.993,0,0,1,.488-2.234A3.643,3.643,0,0,1,56.676,6.93a3.7,3.7,0,0,1,1.988-.539,3.565,3.565,0,0,1,2.793,1.2,4.6,4.6,0,0,1,1.066,3.18v.1a5.036,5.036,0,0,1-.473,2.215A3.589,3.589,0,0,1,60.7,14.609a3.743,3.743,0,0,1-2.02.547,3.556,3.556,0,0,1-2.785-1.2A4.575,4.575,0,0,1,54.828,10.8Zm1.453.172a3.616,3.616,0,0,0,.652,2.258,2.211,2.211,0,0,0,3.5-.012,3.955,3.955,0,0,0,.648-2.418,3.61,3.61,0,0,0-.66-2.254,2.1,2.1,0,0,0-1.754-.863,2.075,2.075,0,0,0-1.727.852A3.925,3.925,0,0,0,56.281,10.867Z" transform="translate(427.711 3882)" fill="#12263f"/>
      </g>
      <g id="Grupo_1117861" data-name="Grupo 1117861" transform="translate(-40 173.263)">
        <g id="Elipse_11618-6" data-name="Elipse 11618" transform="translate(535.711 3650)" fill="#feebcf" stroke="#7d3a1b" stroke-width="3">
          <circle cx="15" cy="15" r="15" stroke="none"/>
          <circle cx="15" cy="15" r="16.5" fill="none"/>
        </g>
        <path id="Trazado_908561" data-name="Trazado 908561" d="M7.863,10.719H9.152v1.82H7.863V15H5.605V12.539H.941l-.1-1.422L5.582,3.625H7.863Zm-4.773,0H5.605V6.7l-.148.258Z" transform="translate(545.711 3656)" fill="#12263f"/>
      </g>
    </g>
  </g>
</svg>
