<svg xmlns="http://www.w3.org/2000/svg" width="105" height="95" viewBox="0 0 105 95">
  <g id="img14" transform="translate(-495.282 -3733)">
    <rect id="Rectángulo_408737" data-name="Rectángulo 408737" width="105" height="95" transform="translate(495.282 3733)" fill="#feebcf"/>
    <g id="img14-2" data-name="img14" transform="translate(518.256 3742)">
      <g id="Grupo_1118742" data-name="Grupo 1118742" transform="translate(0.026 9.835)">
        <g id="Grupo_1118738" data-name="Grupo 1118738" transform="translate(9.593 0)">
          <g id="Grupo_1118737" data-name="Grupo 1118737">
            <path id="Trazado_908114" data-name="Trazado 908114" d="M115.05,16H87.817l-7.371,7.371V60.137a1.2,1.2,0,0,0,1.193,1.193h33.412a1.2,1.2,0,0,0,1.193-1.193V17.193A1.2,1.2,0,0,0,115.05,16Z" transform="translate(-80.446 -16)" fill="#f4f6f8" fill-rule="evenodd"/>
            <path id="Trazado_908115" data-name="Trazado 908115" d="M87.817,16l-7.371,7.371h6.178a1.2,1.2,0,0,0,1.193-1.193V16Z" transform="translate(-80.446 -16)" fill="#e4e8eb" fill-rule="evenodd"/>
          </g>
          <path id="Trazado_908116" data-name="Trazado 908116" d="M214.048,94.252h2.872a.6.6,0,0,1,.6.6v10.81a.6.6,0,0,1-.6.6h-2.872a.6.6,0,0,1-.6-.6V94.849A.6.6,0,0,1,214.048,94.252Z" transform="translate(-197.586 -84.917)" fill="#fdcd56" fill-rule="evenodd"/>
          <path id="Trazado_908117" data-name="Trazado 908117" d="M275.494,63.5h2.872a.6.6,0,0,1,.6.6V78.578a.6.6,0,0,1-.6.6h-2.872a.6.6,0,0,1-.6-.6V64.1a.6.6,0,0,1,.6-.6Z" transform="translate(-251.702 -57.837)" fill="#c6ea94" fill-rule="evenodd"/>
          <path id="Trazado_908118" data-name="Trazado 908118" d="M152.6,125h2.872a.6.6,0,0,1,.6.6v7.142a.6.6,0,0,1-.6.6H152.6a.6.6,0,0,1-.6-.6V125.6A.6.6,0,0,1,152.6,125Z" transform="translate(-143.47 -111.997)" fill="#f76c82" fill-rule="evenodd"/>
        </g>
        <g id="Grupo_1118739" data-name="Grupo 1118739" transform="translate(0 19.194)">
          <circle id="Elipse_11664" data-name="Elipse 11664" cx="7.738" cy="7.738" r="7.738" transform="translate(0 4.488) rotate(-16.858)" fill="#fdcd56"/>
          <circle id="Elipse_11665" data-name="Elipse 11665" cx="6.171" cy="6.171" r="6.171" transform="translate(1.159 11.664) rotate(-58.28)" fill="#f5b945"/>
        </g>
        <g id="Grupo_1118740" data-name="Grupo 1118740" transform="translate(1.906 40.015)">
          <path id="Trazado_908119" data-name="Trazado 908119" d="M17.534,351.446H29.945a1.652,1.652,0,0,1,1.532,1.742v2.264a1.756,1.756,0,0,0,0,3.484V361.2a1.756,1.756,0,0,0,0,3.483v2.264a1.652,1.652,0,0,1-1.532,1.742H17.534A1.652,1.652,0,0,1,16,366.948v-2.264a1.756,1.756,0,0,0,0-3.483v-2.264a1.756,1.756,0,0,0,0-3.484v-2.264A1.652,1.652,0,0,1,17.534,351.446Z" transform="translate(-16.002 -351.446)" fill="#f5b945" fill-rule="evenodd"/>
          <path id="Trazado_908120" data-name="Trazado 908120" d="M17.534,405.379H29.945a1.652,1.652,0,0,0,1.532-1.742v-2.264a1.652,1.652,0,0,0-1.532-1.742H17.534A1.652,1.652,0,0,0,16,401.373v2.264A1.652,1.652,0,0,0,17.534,405.379Z" transform="translate(-16.002 -393.883)" fill="#daa33b" fill-rule="evenodd"/>
        </g>
        <g id="Grupo_1118741" data-name="Grupo 1118741" transform="translate(23.162 21.28)">
          <path id="Trazado_908121" data-name="Trazado 908121" d="M0,0H3.086V5.956H0Z" transform="translate(20.534 22.703) rotate(-45)" fill="#a9b0bb" fill-rule="evenodd"/>
          <circle id="Elipse_11666" data-name="Elipse 11666" cx="11.041" cy="11.041" r="11.041" transform="translate(0 19.896) rotate(-64.332)" fill="#a9b0bb"/>
          <path id="Trazado_908122" data-name="Trazado 908122" d="M394.495,396.162l1.667-1.667a1.42,1.42,0,0,1,2,0l7.662,7.662a1.42,1.42,0,0,1,0,2l-1.667,1.667a1.42,1.42,0,0,1-2,0l-7.662-7.662A1.42,1.42,0,0,1,394.495,396.162Z" transform="translate(-370.237 -370.26)" fill="#636c77" fill-rule="evenodd"/>
          <circle id="Elipse_11667" data-name="Elipse 11667" cx="8.372" cy="8.372" r="8.372" transform="translate(3.821 19.261) rotate(-67.486)" fill="#a4d4ff"/>
        </g>
      </g>
      <path id="Trazado_908123" data-name="Trazado 908123" d="M45.837,53.376a7.537,7.537,0,1,1,7.537-7.536A7.545,7.545,0,0,1,45.837,53.376Zm0-16.745a9.208,9.208,0,1,0,9.208,9.208A9.219,9.219,0,0,0,45.837,36.631ZM66.088,64.424,64.421,66.09a.583.583,0,0,1-.822,0l-7.662-7.66a.586.586,0,0,1,0-.822L57.6,55.94a.583.583,0,0,1,.822,0L66.088,63.6A.582.582,0,0,1,66.088,64.424ZM54.716,53.717l1.375,1.374-1,1-1.375-1.374A12.23,12.23,0,0,0,54.716,53.717ZM35.631,45.84A10.206,10.206,0,1,0,45.837,35.633,10.217,10.217,0,0,0,35.631,45.84ZM26.1,54.33h11.44a11.857,11.857,0,0,1-2.319-13.816H27.814a.835.835,0,1,1,0-1.67h8.431a11.965,11.965,0,0,1,2.369-2.427h-10.8a.835.835,0,1,1,0-1.67H41.591A11.862,11.862,0,0,1,52.483,36V10.67H25.727V17.2a.835.835,0,0,1-.835.835H18.356V30.147a8.572,8.572,0,0,1,0,17.072v1.8h5.42a2.481,2.481,0,0,1,2.367,2.576v2.264a2.8,2.8,0,0,1-.041.474ZM24.473,65.352a.835.835,0,0,1-.7.908H11.365a.835.835,0,0,1-.7-.908V63.087a.834.834,0,0,1,.7-.906H23.776a.834.834,0,0,1,.7.906Zm0-8.012V59.6a.834.834,0,0,1-.7.906H11.365a.834.834,0,0,1-.7-.906V57.34a.834.834,0,0,1,.7-.906H23.776A.834.834,0,0,1,24.473,57.34Zm-13.8-5.748a.834.834,0,0,1,.7-.906H23.776a.834.834,0,0,1,.7.906v2.264a.835.835,0,0,1-.7.908H11.365a.835.835,0,0,1-.7-.908Zm0-12.908a6.9,6.9,0,1,1,6.9,6.9,6.911,6.911,0,0,1-6.9-6.9ZM24.057,11.851V16.37h-4.52ZM67.269,62.421l-7.662-7.662a2.251,2.251,0,0,0-2.089-.6l-1.776-1.776a11.853,11.853,0,0,0-1.59-15.013V9.835A.835.835,0,0,0,53.318,9H24.891a.832.832,0,0,0-.59.245L16.93,16.614a.838.838,0,0,0-.245.59v12.95a8.573,8.573,0,0,0,0,17.055v1.8h-5.32A2.482,2.482,0,0,0,9,51.591v2.264A2.7,2.7,0,0,0,9.623,55.6,2.691,2.691,0,0,0,9,57.34V59.6a2.7,2.7,0,0,0,.625,1.742A2.7,2.7,0,0,0,9,63.087v2.264a2.482,2.482,0,0,0,2.367,2.578H23.776a2.482,2.482,0,0,0,2.367-2.578V63.087a2.7,2.7,0,0,0-.625-1.741,2.7,2.7,0,0,0,.625-1.742V57.34A2.73,2.73,0,0,0,25.8,56h13.9a11.857,11.857,0,0,0,12.685-.255l1.776,1.775a2.284,2.284,0,0,0-.057.5,2.239,2.239,0,0,0,.658,1.593l7.662,7.66a2.253,2.253,0,0,0,3.184,0L67.269,65.6A2.254,2.254,0,0,0,67.269,62.421ZM17.6,44.345a.835.835,0,0,1-.834-.815l-.009-.365a3.419,3.419,0,0,1-1.495-.923A.835.835,0,0,1,16.4,41.026a1.466,1.466,0,0,0,1.167.571,1.043,1.043,0,1,0,0-2.045,2.813,2.813,0,0,1-2.915-2.693,2.732,2.732,0,0,1,2.066-2.575l-.01-.408a.835.835,0,0,1,1.669-.039l.011.463a3.141,3.141,0,0,1,1.722,1.1.835.835,0,0,1-1.4.918,2.092,2.092,0,0,0-1.148-.482,1.042,1.042,0,1,0,0,2.045,2.814,2.814,0,0,1,2.915,2.693,2.735,2.735,0,0,1-2.064,2.576l.008.338a.835.835,0,0,1-.815.854H17.6ZM41.552,16.337h2.394v14H41.552Zm-.835,15.671a.835.835,0,0,1-.835-.835V15.5a.835.835,0,0,1,.835-.835h4.065a.834.834,0,0,1,.835.835V31.173a.835.835,0,0,1-.835.835Zm-11.43-1.67H26.892V23.672h2.395Zm1.67.835a.835.835,0,0,1-.835.835H26.057a.835.835,0,0,1-.835-.835V22.837A.836.836,0,0,1,26.057,22h4.065a.835.835,0,0,1,.835.835ZM34.222,20h2.394V30.338H34.222Zm-.835,12a.835.835,0,0,1-.835-.835v-12a.835.835,0,0,1,.835-.835h4.065a.835.835,0,0,1,.835.835v12a.835.835,0,0,1-.835.835Z" transform="translate(-7.902)" fill-rule="evenodd"/>
    </g>
  </g>
</svg>
