<svg xmlns="http://www.w3.org/2000/svg" width="105" height="95" viewBox="0 0 105 95">
  <g id="img15" transform="translate(-495.282 -3828)">
    <rect id="Rectángulo_408738" data-name="Rectángulo 408738" width="105" height="95" transform="translate(495.282 3828)" fill="#fecab2"/>
    <g id="img15-2" data-name="img15" transform="translate(518.214 3844.998)">
      <g id="Grupo_1118735" data-name="Grupo 1118735" transform="translate(1.002 0.939)">
        <g id="Grupo_1118731" data-name="Grupo 1118731" transform="translate(0 7.173)">
          <path id="Trazado_908099" data-name="Trazado 908099" d="M25.03,78.214l1.383,4.131a57.215,57.215,0,0,1,7.879,10.034c5.267,9.248-2.226,18.641-12.261,18.472C12,111.02,4.5,101.627,9.771,92.378A57.207,57.207,0,0,1,17.65,82.344l1.388-4.126L15.66,74.84a2.12,2.12,0,0,1,2.646-3.282,1.09,1.09,0,0,0,1.654-.685,2.12,2.12,0,0,1,4.143,0,1.09,1.09,0,0,0,1.654.685,2.128,2.128,0,0,1,2.646.284h0a2.126,2.126,0,0,1,0,3Z" transform="translate(-8.037 -69.203)" fill="#ffe177" fill-rule="evenodd"/>
          <path id="Trazado_908100" data-name="Trazado 908100" d="M130.44,78.213l1.383,4.131A57.215,57.215,0,0,1,139.7,92.378c5.267,9.248-2.226,18.641-12.261,18.472V69.2a2.129,2.129,0,0,1,2.072,1.67,1.09,1.09,0,0,0,1.654.685,2.128,2.128,0,0,1,2.646.284h0a2.126,2.126,0,0,1,0,3Z" transform="translate(-113.447 -69.202)" fill="#ffd064" fill-rule="evenodd"/>
          <path id="Trazado_908101" data-name="Trazado 908101" d="M72.637,150.249h9.2a2.063,2.063,0,1,0,0-4.126h-9.2a2.063,2.063,0,1,0,0,4.126Z" transform="translate(-63.245 -137.108)" fill="#837683" fill-rule="evenodd"/>
          <path id="Trazado_908102" data-name="Trazado 908102" d="M127.443,150.249h4.6a2.063,2.063,0,1,0,0-4.126h-4.6Z" transform="translate(-113.448 -137.108)" fill="#685e68" fill-rule="evenodd"/>
        </g>
        <g id="Grupo_1118732" data-name="Grupo 1118732" transform="translate(24.483 33.019)">
          <path id="Trazado_908103" data-name="Trazado 908103" d="M218.1,420.4h2.763a1.174,1.174,0,0,1,1.172,1.172v7.454a1.174,1.174,0,0,1-1.172,1.172H218.1a1.174,1.174,0,0,1-1.172-1.172v-7.454A1.174,1.174,0,0,1,218.1,420.4Z" transform="translate(-216.93 -405.086)" fill="#fe646f" fill-rule="evenodd"/>
          <path id="Trazado_908104" data-name="Trazado 908104" d="M238.718,420.4H240.1a1.174,1.174,0,0,1,1.172,1.172v7.454A1.174,1.174,0,0,1,240.1,430.2h-1.382Z" transform="translate(-236.164 -405.086)" fill="#fd4755" fill-rule="evenodd"/>
          <path id="Trazado_908105" data-name="Trazado 908105" d="M299.014,346.884h2.763a1.174,1.174,0,0,1,1.172,1.172v16.07a1.174,1.174,0,0,1-1.172,1.172h-2.763a1.174,1.174,0,0,1-1.172-1.172v-16.07A1.174,1.174,0,0,1,299.014,346.884Z" transform="translate(-288.359 -340.185)" fill="#ffe177" fill-rule="evenodd"/>
          <path id="Trazado_908106" data-name="Trazado 908106" d="M319.63,346.884h1.382a1.174,1.174,0,0,1,1.172,1.172v16.07a1.174,1.174,0,0,1-1.172,1.172H319.63Z" transform="translate(-307.593 -340.185)" fill="#ffd064" fill-rule="evenodd"/>
          <path id="Trazado_908107" data-name="Trazado 908107" d="M379.927,376.6h2.763a1.174,1.174,0,0,1,1.172,1.172v12.587a1.174,1.174,0,0,1-1.172,1.172h-2.763a1.174,1.174,0,0,1-1.172-1.172V377.775A1.174,1.174,0,0,1,379.927,376.6Z" transform="translate(-359.789 -366.421)" fill="#6cf5c2" fill-rule="evenodd"/>
          <path id="Trazado_908108" data-name="Trazado 908108" d="M400.544,376.6h1.382a1.174,1.174,0,0,1,1.172,1.172v12.587a1.174,1.174,0,0,1-1.172,1.172h-1.382Z" transform="translate(-379.024 -366.421)" fill="#00e499" fill-rule="evenodd"/>
          <path id="Trazado_908109" data-name="Trazado 908109" d="M460.839,289.724H463.6a1.174,1.174,0,0,1,1.172,1.172v22.77a1.174,1.174,0,0,1-1.172,1.172h-2.763a1.174,1.174,0,0,1-1.172-1.172V290.9A1.174,1.174,0,0,1,460.839,289.724Z" transform="translate(-431.218 -289.724)" fill="#8ac9fe" fill-rule="evenodd"/>
          <path id="Trazado_908110" data-name="Trazado 908110" d="M481.455,289.724h1.382a1.174,1.174,0,0,1,1.172,1.172v22.77a1.174,1.174,0,0,1-1.172,1.172h-1.382Z" transform="translate(-450.452 -289.724)" fill="#60b7ff" fill-rule="evenodd"/>
        </g>
        <g id="Grupo_1118733" data-name="Grupo 1118733" transform="translate(24.25 21.364)">
          <circle id="Elipse_11660" data-name="Elipse 11660" cx="2.647" cy="2.647" r="2.647" transform="translate(0 13.768) rotate(-3.151)" fill="#fd4755"/>
          <circle id="Elipse_11661" data-name="Elipse 11661" cx="2.647" cy="2.647" r="2.647" transform="translate(8.52 7.979) rotate(-45)" fill="#ffd064"/>
          <circle id="Elipse_11662" data-name="Elipse 11662" cx="2.647" cy="2.647" r="2.647" transform="translate(18.002 12.657) rotate(-45)" fill="#00e499"/>
          <circle id="Elipse_11663" data-name="Elipse 11663" cx="2.647" cy="2.647" r="2.647" transform="translate(28.469 0.291) rotate(-3.151)" fill="#60b7ff"/>
        </g>
        <g id="Grupo_1118734" data-name="Grupo 1118734" transform="translate(30.895)">
          <path id="Trazado_908111" data-name="Trazado 908111" d="M284.195,9.807a9.1,9.1,0,0,1,3.319,1.376l1.77-.786,1.524,1.524-.786,1.77a9.1,9.1,0,0,1,1.376,3.32l1.806.7V19.86l-1.806.7a9.1,9.1,0,0,1-1.376,3.319l.786,1.77-1.524,1.524-1.77-.786a9.1,9.1,0,0,1-3.32,1.376l-.7,1.806h-2.155l-.7-1.806a9.1,9.1,0,0,1-3.319-1.376l-1.77.786-1.524-1.524.786-1.77a9.1,9.1,0,0,1-1.376-3.32l-1.806-.7V17.705l1.806-.7a9.1,9.1,0,0,1,1.376-3.32l-.786-1.77,1.524-1.524,1.77.786a9.1,9.1,0,0,1,3.32-1.376l.7-1.806H283.5Zm-1.773,4.216a4.76,4.76,0,1,0,4.76,4.76,4.76,4.76,0,0,0-4.76-4.76Z" transform="translate(-271.639 -8)" fill="#eceff1" fill-rule="evenodd"/>
          <path id="Trazado_908112" data-name="Trazado 908112" d="M365.413,9.807a9.1,9.1,0,0,1,3.319,1.376l1.77-.786,1.524,1.524-.786,1.77a9.1,9.1,0,0,1,1.376,3.32l1.806.7v2.155l-1.806.7a9.1,9.1,0,0,1-1.376,3.319l.786,1.77L370.5,27.17l-1.77-.786a9.1,9.1,0,0,1-3.32,1.376l-.7,1.806H363.64V23.544a4.76,4.76,0,0,0,0-9.521V8h1.078Z" transform="translate(-352.857 -8.001)" fill="#d1d1d6" fill-rule="evenodd"/>
        </g>
      </g>
      <path id="Trazado_908113" data-name="Trazado 908113" d="M32.831,12.156l1.205.463a.937.937,0,0,1,.581.694,8.059,8.059,0,0,0,1.239,2.978.94.94,0,0,1,.077.9l-.525,1.181.614.614,1.183-.525a.936.936,0,0,1,.9.079,8.12,8.12,0,0,0,2.975,1.235.933.933,0,0,1,.7.583l.464,1.206h.868l.464-1.205a.936.936,0,0,1,.691-.583,8.1,8.1,0,0,0,2.98-1.234.933.933,0,0,1,.9-.079l1.183.525.614-.614L49.419,17.2a.94.94,0,0,1,.077-.9,8.25,8.25,0,0,0,1.239-2.978.925.925,0,0,1,.581-.694l1.205-.464v-.868l-1.205-.464a.935.935,0,0,1-.581-.695A8.154,8.154,0,0,0,49.5,7.152a.94.94,0,0,1-.077-.9l.525-1.181-.614-.614-1.183.525a.933.933,0,0,1-.9-.078,8.145,8.145,0,0,0-2.98-1.235.935.935,0,0,1-.691-.583L43.11,1.877h-.868l-.464,1.205a.934.934,0,0,1-.7.583A8.12,8.12,0,0,0,38.106,4.9a.936.936,0,0,1-.9.078l-1.183-.525-.614.614.525,1.182a.939.939,0,0,1-.077.9,8.061,8.061,0,0,0-1.239,2.978.936.936,0,0,1-.581.695l-1.205.464Zm-1.874.644V10.645a.937.937,0,0,1,.6-.875l1.338-.515a10.192,10.192,0,0,1,1.122-2.7L33.434,5.24A.928.928,0,0,1,33.627,4.2l1.521-1.524a.941.941,0,0,1,1.045-.194l1.31.583a9.989,9.989,0,0,1,2.7-1.121L40.722.6A.941.941,0,0,1,41.6,0h2.156a.948.948,0,0,1,.879.6l.514,1.338a9.883,9.883,0,0,1,2.7,1.121l1.316-.583a.93.93,0,0,1,1.039.194L51.725,4.2a.928.928,0,0,1,.194,1.043l-.581,1.311a10.194,10.194,0,0,1,1.122,2.7l1.333.515a.934.934,0,0,1,.6.875V12.8a.935.935,0,0,1-.6.875l-1.338.515a10.015,10.015,0,0,1-1.117,2.7l.581,1.311a.929.929,0,0,1-.194,1.044L50.2,20.772a.93.93,0,0,1-1.039.194l-1.31-.583a9.985,9.985,0,0,1-2.7,1.121l-.514,1.338a.949.949,0,0,1-.879.6H41.6a.941.941,0,0,1-.874-.6L40.207,21.5a10,10,0,0,1-2.7-1.121l-1.31.583a.941.941,0,0,1-1.045-.194l-1.521-1.524a.928.928,0,0,1-.194-1.043l.581-1.311a10.2,10.2,0,0,1-1.122-2.7l-1.338-.515A.939.939,0,0,1,30.957,12.8Zm7.9-1.078a3.824,3.824,0,1,1,3.821,3.822A3.826,3.826,0,0,1,38.853,11.722Zm-1.874,0a5.7,5.7,0,1,1,5.7,5.7A5.7,5.7,0,0,1,36.978,11.722ZM48.711,34.959A1.709,1.709,0,1,0,47,36.667,1.712,1.712,0,0,0,48.711,34.959Zm6.066-9.9a1.709,1.709,0,1,0,1.709-1.709A1.708,1.708,0,0,0,54.777,25.062ZM39.229,30.281A1.709,1.709,0,1,0,37.52,31.99,1.712,1.712,0,0,0,39.229,30.281ZM29.746,38.54a1.711,1.711,0,1,0-1.709,1.709A1.712,1.712,0,0,0,29.746,38.54Zm-2.737,3.433c-2.035,4.171-6.784,6.94-12,6.85h-.033A13.06,13.06,0,0,1,3.4,42.754a10.572,10.572,0,0,1,.149-11,54.644,54.644,0,0,1,7.47-9.561h7.946a54.45,54.45,0,0,1,7.476,9.561,12.612,12.612,0,0,1,1.3,3.217,3.582,3.582,0,0,0-.73,7ZM9.265,19.191a1.126,1.126,0,0,0,1.128,1.126h9.2a1.125,1.125,0,1,0,0-2.251h-9.2a1.126,1.126,0,0,0-1.128,1.125Zm.017-6.1,3.108,3.1H17.6l3.1-3.1a1.191,1.191,0,0,0,0-1.672,1.19,1.19,0,0,0-1.476-.158,2.026,2.026,0,0,1-3.074-1.274,1.182,1.182,0,0,0-2.311,0,2.03,2.03,0,0,1-3.08,1.274,1.182,1.182,0,0,0-1.476,1.83ZM50.072,33.11a3.593,3.593,0,1,1-6.585,1.159L40.2,32.652a3.578,3.578,0,0,1-4.678.608l-4.263,3.717a3.585,3.585,0,0,1-2.2,5,13.584,13.584,0,0,1-5.164,6.2A15.654,15.654,0,0,1,15.265,50.7l-.271,0A14.936,14.936,0,0,1,1.784,43.71a12.548,12.548,0,0,1,.133-12.886,53.135,53.135,0,0,1,6.945-9.054A3,3,0,0,1,9.8,16.25L7.96,14.413a3.058,3.058,0,0,1,3.815-4.734.153.153,0,0,0,.232-.1,3.055,3.055,0,0,1,5.972,0,.153.153,0,0,0,.232.1,3.058,3.058,0,0,1,3.815,4.735L20.191,16.25a3,3,0,0,1,.934,5.521,53.151,53.151,0,0,1,6.945,9.053,14.077,14.077,0,0,1,1.67,4.566c.1.053.194.111.287.172L34.3,31.846a3.544,3.544,0,0,1-.365-1.565,3.586,3.586,0,0,1,7.171,0,3.546,3.546,0,0,1-.066.69l3.279,1.618a3.578,3.578,0,0,1,4.4-.776l4.694-4.9a3.586,3.586,0,1,1,3.074,1.736,3.578,3.578,0,0,1-1.72-.438Zm-20.42,17.1H26.417v7.923h3.235Zm1.875-.938a.938.938,0,0,0-.94-.938h-5.1a.938.938,0,0,0-.94.938v9.8a.938.938,0,0,0,.94.938h5.1a.938.938,0,0,0,.94-.938ZM58.1,34.9H54.871V58.134H58.1Zm1.875-.938a.937.937,0,0,0-.934-.937H53.931a.938.938,0,0,0-.94.937V59.072a.938.938,0,0,0,.94.938H59.04a.937.937,0,0,0,.934-.938ZM48.618,45.078H45.383V58.134h3.235Zm1.875-.937a.937.937,0,0,0-.934-.938H44.448a.938.938,0,0,0-.94.938V59.072a.938.938,0,0,0,.94.938h5.109a.937.937,0,0,0,.934-.938ZM39.135,41.595H35.9V58.134h3.235Zm1.875-.938a.938.938,0,0,0-.934-.937H34.966a.939.939,0,0,0-.94.937V59.072a.938.938,0,0,0,.94.938h5.109a.937.937,0,0,0,.934-.938ZM20.921,39.09c-.448-3.686-4.479-4.347-5.8-4.565-3.66-.6-3.743-2.238-3.765-2.776a3,3,0,0,1,2.61-2.947,4.079,4.079,0,0,1,4.772,2.273.938.938,0,0,0,1.731-.726,5.66,5.66,0,0,0-4.578-3.47V25.518a.937.937,0,1,0-1.874,0v1.368c-.155.023-.31.053-.464.087a4.82,4.82,0,0,0-4.07,4.866c.077,1.683,1.073,3.836,5.336,4.536,2.743.45,4.053,1.357,4.241,2.94a2.063,2.063,0,0,1-.481,1.7,4.861,4.861,0,0,1-3.439,1.312c-1.67.038-3.8-.669-4.341-2.8a.937.937,0,0,0-1.819.453,5.711,5.711,0,0,0,5.037,4.16V45.5a.937.937,0,1,0,1.874,0V44.154A6.323,6.323,0,0,0,20,42.243a3.976,3.976,0,0,0,.923-3.153Z" transform="translate(0 0)" fill-rule="evenodd"/>
    </g>
  </g>
</svg>
