<svg xmlns="http://www.w3.org/2000/svg" xmlns:xlink="http://www.w3.org/1999/xlink" width="121" height="121" viewBox="0 0 121 121">
  <defs>
    <clipPath id="clip-path">
      <rect id="Rectángulo_400938" data-name="Rectángulo 400938" width="121" height="121" transform="translate(0 0)" fill="none"/>
    </clipPath>
    <clipPath id="clip-path-2">
      <rect id="Rectángulo_401073" data-name="Rectángulo 401073" width="92.219" height="41.532" fill="#fff"/>
    </clipPath>
  </defs>
  <g id="img2" transform="translate(-582.282 -475)">
    <g id="Grupo_1099379" data-name="Grupo 1099379" transform="translate(194.614 -5538)">
      <rect id="Rectángulo_401103" data-name="Rectángulo 401103" width="121" height="121" transform="translate(387.668 6013)" fill="none"/>
      <g id="Grupo_1099348" data-name="Grupo 1099348" transform="translate(387.668 6013)">
        <g id="Grupo_1099282" data-name="Grupo 1099282">
          <g id="Grupo_1099281" data-name="Grupo 1099281" clip-path="url(#clip-path-2)">
            <path id="Trazado_873375" data-name="Trazado 873375" d="M74.8,9.1c-4.139,0-6.28-2.03-8.17-3.821-1.855-1.756-3.452-3.274-6.792-3.274s-4.937,1.517-6.792,3.274C51.161,7.072,49.023,9.1,44.881,9.1s-6.28-2.03-8.169-3.821C34.857,3.525,33.26,2.007,29.92,2.007s-4.937,1.517-6.789,3.274C21.241,7.072,19.1,9.1,14.962,9.1S8.679,7.072,6.789,5.281C4.937,3.525,3.34,2.007,0,2.007V0C4.139,0,6.28,2.033,8.17,3.821c1.855,1.759,3.452,3.274,6.792,3.274S19.9,5.58,21.75,3.824C23.637,2.033,25.781,0,29.92,0s6.283,2.033,8.17,3.821c1.855,1.759,3.452,3.274,6.792,3.274s4.937-1.514,6.792-3.274C53.56,2.033,55.7,0,59.843,0s6.283,2.033,8.17,3.821C69.867,5.58,71.464,7.094,74.8,7.094S79.742,5.58,81.6,3.821C83.483,2.033,85.624,0,89.766,0V2.007c-3.34,0-4.937,1.517-6.792,3.274C81.084,7.072,78.943,9.1,74.8,9.1" transform="translate(2.453 32.43)" fill="#fff"/>
            <path id="Trazado_873376" data-name="Trazado 873376" d="M74.8,9.1c-4.139,0-6.283-2.03-8.17-3.824-1.855-1.756-3.452-3.27-6.792-3.27s-4.937,1.514-6.792,3.27C51.164,7.072,49.023,9.1,44.881,9.1s-6.283-2.03-8.17-3.824c-1.855-1.756-3.452-3.27-6.792-3.27s-4.937,1.517-6.789,3.27C21.241,7.072,19.1,9.1,14.962,9.1S8.679,7.072,6.789,5.278C4.937,3.522,3.34,2.007,0,2.007V0C4.139,0,6.283,2.03,8.17,3.821c1.855,1.759,3.452,3.274,6.792,3.274S19.9,5.58,21.75,3.821C23.637,2.03,25.781,0,29.92,0S36.2,2.03,38.093,3.821c1.852,1.759,3.449,3.274,6.789,3.274s4.937-1.514,6.792-3.274C53.56,2.03,55.7,0,59.843,0s6.283,2.03,8.17,3.821C69.867,5.58,71.464,7.094,74.8,7.094S79.742,5.58,81.6,3.821C83.486,2.03,85.627,0,89.769,0V2.007c-3.34,0-4.94,1.517-6.8,3.27C81.084,7.072,78.943,9.1,74.8,9.1" transform="translate(1.635 21.62)" fill="#fff"/>
            <path id="Trazado_873377" data-name="Trazado 873377" d="M74.8,9.1c-4.139,0-6.283-2.03-8.169-3.824-1.855-1.756-3.452-3.27-6.792-3.27s-4.937,1.514-6.792,3.27C51.164,7.072,49.02,9.1,44.881,9.1s-6.283-2.03-8.17-3.824c-1.855-1.756-3.452-3.27-6.792-3.27s-4.937,1.517-6.789,3.27C21.241,7.072,19.1,9.1,14.962,9.1S8.678,7.072,6.789,5.278C4.937,3.522,3.34,2.007,0,2.007V0C4.139,0,6.283,2.03,8.169,3.821c1.851,1.759,3.452,3.274,6.792,3.274S19.9,5.58,21.75,3.821C23.637,2.03,25.781,0,29.92,0S36.2,2.03,38.093,3.821c1.852,1.759,3.449,3.274,6.789,3.274s4.937-1.514,6.792-3.274C53.56,2.03,55.7,0,59.843,0s6.283,2.03,8.17,3.821C69.867,5.58,71.464,7.094,74.8,7.094S79.742,5.58,81.6,3.821C83.486,2.03,85.624,0,89.769,0V2.007c-3.34,0-4.941,1.517-6.8,3.27C81.084,7.072,78.943,9.1,74.8,9.1" transform="translate(0.818 10.81)" fill="#fff"/>
            <path id="Trazado_873378" data-name="Trazado 873378" d="M74.8,9.1c-4.139,0-6.28-2.03-8.17-3.821-1.855-1.756-3.452-3.27-6.792-3.27s-4.937,1.514-6.789,3.27C51.164,7.069,49.023,9.1,44.881,9.1s-6.28-2.03-8.169-3.821c-1.855-1.756-3.452-3.27-6.792-3.27s-4.937,1.514-6.789,3.267C21.245,7.069,19.1,9.1,14.962,9.1S8.678,7.069,6.789,5.278C4.937,3.522,3.34,2.007,0,2.007V0C4.139,0,6.283,2.03,8.17,3.821c1.855,1.756,3.452,3.27,6.792,3.27S19.9,5.577,21.75,3.821C23.64,2.03,25.781,0,29.92,0s6.28,2.03,8.173,3.821c1.852,1.756,3.449,3.27,6.789,3.27s4.937-1.514,6.792-3.27C53.563,2.03,55.7,0,59.843,0s6.28,2.03,8.17,3.821c1.855,1.756,3.452,3.27,6.792,3.27s4.937-1.514,6.792-3.27C83.486,2.03,85.627,0,89.769,0V2.007c-3.344,0-4.941,1.514-6.8,3.27C81.084,7.069,78.943,9.1,74.8,9.1" transform="translate(0 0.003)" fill="#fff"/>
          </g>
        </g>
      </g>
      <circle id="Elipse_11504" data-name="Elipse 11504" cx="50.5" cy="50.5" r="50.5" transform="translate(402.668 6031)" fill="#fff"/>
      <circle id="Elipse_11503" data-name="Elipse 11503" cx="52.5" cy="52.5" r="52.5" transform="translate(395.668 6021)" fill="#09614d"/>
    </g>
    <g id="Grupo_1117900" data-name="Grupo 1117900" transform="translate(522.82 341.799)">
      <path id="Trazado_907349" data-name="Trazado 907349" d="M467.1,165.2h-33.54a.758.758,0,0,0-.756.756v12.775a.758.758,0,0,0,.756.756H449.57v7.335H433.556a.758.758,0,0,0-.756.756v12.775a.758.758,0,0,0,.756.756H449.57v7.335H433.556a.758.758,0,0,0-.756.756v12.775a.758.758,0,0,0,.756.756H467.1a.758.758,0,0,0,.756-.756V209.2a.758.758,0,0,0-.756-.756H451.082v-7.335H467.1a.758.758,0,0,0,.756-.756V187.578a.758.758,0,0,0-.756-.756H451.082v-7.33H467.1a.758.758,0,0,0,.756-.756V165.956A.758.758,0,0,0,467.1,165.2Zm-.756,56.023H434.312V209.96H466.34Zm0-21.622H434.312V188.334H466.34Zm0-21.622H434.312V166.712H466.34Z" transform="translate(-329.872)" fill="#fff" stroke="#fff" stroke-width="1"/>
      <path id="Trazado_907350" data-name="Trazado 907350" d="M573.956,274.812h4.239a.756.756,0,0,0,0-1.512h-4.239a.756.756,0,1,0,0,1.512Z" transform="translate(-464.374 -103.559)" fill="#fff" stroke="#fff" stroke-width="1"/>
      <path id="Trazado_907351" data-name="Trazado 907351" d="M750.856,274.812h14.312a.756.756,0,1,0,0-1.512H750.856a.756.756,0,1,0,0,1.512Z" transform="translate(-633.843 -103.559)" fill="#fff" stroke="#fff" stroke-width="1"/>
      <path id="Trazado_907352" data-name="Trazado 907352" d="M573.956,362.812h9.313a.756.756,0,0,0,0-1.512h-9.313a.756.756,0,1,0,0,1.512Z" transform="translate(-464.374 -187.862)" fill="#fff" stroke="#fff" stroke-width="1"/>
      <path id="Trazado_907353" data-name="Trazado 907353" d="M573.956,789.512h4.239a.756.756,0,0,0,0-1.512h-4.239a.756.756,0,0,0,0,1.512Z" transform="translate(-464.374 -596.637)" fill="#fff" stroke="#fff" stroke-width="1"/>
      <path id="Trazado_907354" data-name="Trazado 907354" d="M750.1,788.756a.758.758,0,0,0,.756.756h14.312a.756.756,0,0,0,0-1.512H750.856A.758.758,0,0,0,750.1,788.756Z" transform="translate(-633.843 -596.637)" fill="#fff" stroke="#fff" stroke-width="1"/>
      <path id="Trazado_907355" data-name="Trazado 907355" d="M583.265,876h-9.309a.756.756,0,0,0,0,1.512h9.313a.756.756,0,1,0,0-1.512Z" transform="translate(-464.374 -680.94)" fill="#fff" stroke="#fff" stroke-width="1"/>
      <path id="Trazado_907356" data-name="Trazado 907356" d="M573.956,1304.212h4.239a.756.756,0,1,0,0-1.512h-4.239a.756.756,0,1,0,0,1.512Z" transform="translate(-464.374 -1089.715)" fill="#fff" stroke="#fff" stroke-width="1"/>
      <path id="Trazado_907357" data-name="Trazado 907357" d="M750.1,1303.456a.758.758,0,0,0,.756.756h14.312a.756.756,0,0,0,0-1.512H750.856A.758.758,0,0,0,750.1,1303.456Z" transform="translate(-633.843 -1089.715)" fill="#fff" stroke="#fff" stroke-width="1"/>
      <path id="Trazado_907358" data-name="Trazado 907358" d="M583.265,1390.7h-9.309a.756.756,0,1,0,0,1.512h9.313a.756.756,0,1,0,0-1.512Z" transform="translate(-464.374 -1174.018)" fill="#fff" stroke="#fff" stroke-width="1"/>
      <path id="Trazado_907359" data-name="Trazado 907359" d="M1378.985,425.358a.757.757,0,0,0-1.071,0l-3.058,3.075V416.956a.756.756,0,1,0-1.512,0v11.477l-3.05-3.071a.757.757,0,1,0-1.075,1.067l4.344,4.369c.008.008.021.017.029.025l.025.025c.013.008.021.017.034.025a.18.18,0,0,0,.029.021c.013.008.025.013.038.021a.18.18,0,0,0,.029.017.149.149,0,0,0,.038.017.2.2,0,0,0,.029.013.175.175,0,0,1,.042.017.06.06,0,0,0,.025.008l.046.013c.008,0,.017,0,.025,0s.034,0,.05.008.013,0,.021,0a.409.409,0,0,0,.071,0,.386.386,0,0,0,.071,0c.008,0,.013,0,.021,0a.212.212,0,0,0,.05-.008c.008,0,.017,0,.025,0l.046-.013a.061.061,0,0,1,.029-.008l.042-.013.029-.013c.013,0,.025-.013.038-.017l.029-.017a.232.232,0,0,0,.034-.021c.008-.008.021-.013.029-.021s.021-.017.034-.025l.025-.025c.008-.008.021-.017.029-.025l4.348-4.373A.749.749,0,0,0,1378.985,425.358Z" transform="translate(-1226.744 -240.456)" fill="#fff" stroke="#fff" stroke-width="1"/>
      <path id="Trazado_907360" data-name="Trazado 907360" d="M94.085,931.314l-.029-.029c-.008-.008-.021-.017-.029-.025a.127.127,0,0,0-.029-.021.125.125,0,0,0-.029-.021l-.034-.021-.029-.017c-.013,0-.025-.013-.038-.017l-.029-.013-.038-.013-.029-.013a.124.124,0,0,0-.038-.008c-.008,0-.021,0-.029-.008a.129.129,0,0,0-.042,0c-.013,0-.021,0-.034,0h-.143c-.013,0-.025,0-.038,0s-.021,0-.034,0-.025,0-.038.008-.025,0-.034.008a.289.289,0,0,0-.034.013l-.034.013a.126.126,0,0,0-.034.017.124.124,0,0,0-.034.017.147.147,0,0,0-.034.021.187.187,0,0,0-.029.017c-.013.008-.021.017-.029.021s-.021.013-.029.021-.021.017-.029.025l-.025.025-4.348,4.373a.756.756,0,0,0,.538,1.29.771.771,0,0,0,.538-.223l3.058-3.075v11.477a.756.756,0,1,0,1.512,0V933.679l3.05,3.071a.757.757,0,1,0,1.075-1.067Z" transform="translate(0 -733.726)" fill="#fff" stroke="#fff" stroke-width="1"/>
    </g>
  </g>
</svg>
