<svg xmlns="http://www.w3.org/2000/svg" xmlns:xlink="http://www.w3.org/1999/xlink" width="190" height="144" viewBox="0 0 190 144">
  <defs>
    <clipPath id="clip-path">
      <rect id="Rectángulo_400938" data-name="Rectángulo 400938" width="121" height="121" transform="translate(0.47)" fill="none"/>
    </clipPath>
    <clipPath id="clip-path-2">
      <rect id="Rectángulo_401073" data-name="Rectángulo 401073" width="92.219" height="41.532" fill="#efb499"/>
    </clipPath>
  </defs>
  <g id="img3" transform="translate(-0.47)">
    <rect id="Rectángulo_408808" data-name="Rectángulo 408808" width="190" height="144" transform="translate(0.47)" fill="#ffe2b7"/>
    <g id="Grupo_1120371" data-name="Grupo 1120371" transform="translate(34 11)">
      <g id="Grupo_1118708" data-name="Grupo 1118708">
        <g id="Grupo_1099379" data-name="Grupo 1099379" transform="translate(0 0)">
          <rect id="Rectángulo_401103" data-name="Rectángulo 401103" width="123" height="123" transform="translate(0.47)" fill="none"/>
          <g id="Grupo_1099348" data-name="Grupo 1099348" transform="translate(0 0)">
            <g id="Grupo_1099282" data-name="Grupo 1099282">
              <g id="Grupo_1099281" data-name="Grupo 1099281" clip-path="url(#clip-path-2)">
                <path id="Trazado_873375" data-name="Trazado 873375" d="M74.8,9.1c-4.139,0-6.28-2.03-8.17-3.821-1.855-1.756-3.452-3.274-6.792-3.274s-4.937,1.517-6.792,3.274C51.161,7.072,49.023,9.1,44.881,9.1s-6.28-2.03-8.169-3.821C34.857,3.525,33.26,2.007,29.92,2.007s-4.937,1.517-6.789,3.274C21.241,7.072,19.1,9.1,14.962,9.1S8.679,7.072,6.789,5.281C4.937,3.525,3.34,2.007,0,2.007V0C4.139,0,6.28,2.033,8.17,3.821c1.855,1.759,3.452,3.274,6.792,3.274S19.9,5.58,21.75,3.824C23.637,2.033,25.781,0,29.92,0s6.283,2.033,8.17,3.821c1.855,1.759,3.452,3.274,6.792,3.274s4.937-1.514,6.792-3.274C53.56,2.033,55.7,0,59.843,0s6.283,2.033,8.17,3.821C69.867,5.58,71.464,7.094,74.8,7.094S79.742,5.58,81.6,3.821C83.483,2.033,85.624,0,89.766,0V2.007c-3.34,0-4.937,1.517-6.792,3.274C81.084,7.072,78.943,9.1,74.8,9.1" transform="translate(2.453 32.43)" fill="#efb499"/>
                <path id="Trazado_873376" data-name="Trazado 873376" d="M74.8,9.1c-4.139,0-6.283-2.03-8.17-3.824-1.855-1.756-3.452-3.27-6.792-3.27s-4.937,1.514-6.792,3.27C51.164,7.072,49.023,9.1,44.881,9.1s-6.283-2.03-8.17-3.824c-1.855-1.756-3.452-3.27-6.792-3.27s-4.937,1.517-6.789,3.27C21.241,7.072,19.1,9.1,14.962,9.1S8.679,7.072,6.789,5.278C4.937,3.522,3.34,2.007,0,2.007V0C4.139,0,6.283,2.03,8.17,3.821c1.855,1.759,3.452,3.274,6.792,3.274S19.9,5.58,21.75,3.821C23.637,2.03,25.781,0,29.92,0S36.2,2.03,38.093,3.821c1.852,1.759,3.449,3.274,6.789,3.274s4.937-1.514,6.792-3.274C53.56,2.03,55.7,0,59.843,0s6.283,2.03,8.17,3.821C69.867,5.58,71.464,7.094,74.8,7.094S79.742,5.58,81.6,3.821C83.486,2.03,85.627,0,89.769,0V2.007c-3.34,0-4.94,1.517-6.8,3.27C81.084,7.072,78.943,9.1,74.8,9.1" transform="translate(1.635 21.62)" fill="#efb499"/>
                <path id="Trazado_873377" data-name="Trazado 873377" d="M74.8,9.1c-4.139,0-6.283-2.03-8.169-3.824-1.855-1.756-3.452-3.27-6.792-3.27s-4.937,1.514-6.792,3.27C51.164,7.072,49.02,9.1,44.881,9.1s-6.283-2.03-8.17-3.824c-1.855-1.756-3.452-3.27-6.792-3.27s-4.937,1.517-6.789,3.27C21.241,7.072,19.1,9.1,14.962,9.1S8.678,7.072,6.789,5.278C4.937,3.522,3.34,2.007,0,2.007V0C4.139,0,6.283,2.03,8.169,3.821c1.851,1.759,3.452,3.274,6.792,3.274S19.9,5.58,21.75,3.821C23.637,2.03,25.781,0,29.92,0S36.2,2.03,38.093,3.821c1.852,1.759,3.449,3.274,6.789,3.274s4.937-1.514,6.792-3.274C53.56,2.03,55.7,0,59.843,0s6.283,2.03,8.17,3.821C69.867,5.58,71.464,7.094,74.8,7.094S79.742,5.58,81.6,3.821C83.486,2.03,85.624,0,89.769,0V2.007c-3.34,0-4.941,1.517-6.8,3.27C81.084,7.072,78.943,9.1,74.8,9.1" transform="translate(0.818 10.81)" fill="#efb499"/>
                <path id="Trazado_873378" data-name="Trazado 873378" d="M74.8,9.1c-4.139,0-6.28-2.03-8.17-3.821-1.855-1.756-3.452-3.27-6.792-3.27s-4.937,1.514-6.789,3.27C51.164,7.069,49.023,9.1,44.881,9.1s-6.28-2.03-8.169-3.821c-1.855-1.756-3.452-3.27-6.792-3.27s-4.937,1.514-6.789,3.267C21.245,7.069,19.1,9.1,14.962,9.1S8.678,7.069,6.789,5.278C4.937,3.522,3.34,2.007,0,2.007V0C4.139,0,6.283,2.03,8.17,3.821c1.855,1.756,3.452,3.27,6.792,3.27S19.9,5.577,21.75,3.821C23.64,2.03,25.781,0,29.92,0s6.28,2.03,8.173,3.821c1.852,1.756,3.449,3.27,6.789,3.27s4.937-1.514,6.792-3.27C53.563,2.03,55.7,0,59.843,0s6.28,2.03,8.17,3.821c1.855,1.756,3.452,3.27,6.792,3.27s4.937-1.514,6.792-3.27C83.486,2.03,85.627,0,89.769,0V2.007c-3.344,0-4.941,1.514-6.8,3.27C81.084,7.069,78.943,9.1,74.8,9.1" transform="translate(0 0.003)" fill="#efb499"/>
              </g>
            </g>
          </g>
          <circle id="Elipse_11504" data-name="Elipse 11504" cx="51.5" cy="51.5" r="51.5" transform="translate(15.47 18)" fill="#ffce73"/>
          <circle id="Elipse_11503" data-name="Elipse 11503" cx="53.5" cy="53.5" r="53.5" transform="translate(8.47 8)" fill="#f3f9ff"/>
        </g>
        <g id="Handshake-Project-Collaborate-Sign-Contract" transform="translate(31.331 31.5)">
          <path id="Trazado_908000" data-name="Trazado 908000" d="M46,57a3,3,0,0,1-3,3H7a3,3,0,0,1-3-3V7A3,3,0,0,1,7,4H38V9a3,3,0,0,0,3,3h5V33h2V11a1,1,0,0,0-.293-.707l-8-8A1,1,0,0,0,39,2H7A5.006,5.006,0,0,0,2,7V57a5.006,5.006,0,0,0,5,5H43a5.006,5.006,0,0,0,5-5V53H46ZM40,9V5.414L44.586,10H41A1,1,0,0,1,40,9Z" transform="translate(-2 -2)" fill="#7d3a1b"/>
          <path id="Trazado_908001" data-name="Trazado 908001" d="M8,8h2v2H8Z" transform="translate(-2 -2)" fill="#7d3a1b"/>
          <path id="Trazado_908002" data-name="Trazado 908002" d="M12,8h6v2H12Z" transform="translate(-2 -2)" fill="#7d3a1b"/>
          <path id="Trazado_908003" data-name="Trazado 908003" d="M8,12H18v2H8Z" transform="translate(-2 -2)" fill="#7d3a1b"/>
          <path id="Trazado_908004" data-name="Trazado 908004" d="M60.87,29.13a5.006,5.006,0,0,0-7.071,0L36.121,46.808a1,1,0,0,0-.273.51L35.2,50.557l-1.907,1.907a3,3,0,1,0,4.242,4.243L39.443,54.8l3.239-.648a1,1,0,0,0,.51-.274L60.87,36.2a5.006,5.006,0,0,0,0-7.07ZM37.207,50.722l.471-2.358,3.957,3.957-2.357.472Zm1.742-3.914L50.97,34.786,52.385,36.2,40.364,48.222Zm2.829,2.828L53.8,37.615l1.414,1.415L43.192,51.05ZM52.385,33.372l.707-.707,4.243,4.243-.708.708ZM36.12,55.293a1.023,1.023,0,0,1-1.413,0,1,1,0,0,1,0-1.415l1.414-1.414,1.415,1.415ZM59.456,34.787l-.707.707-4.243-4.243.707-.707a3,3,0,1,1,4.243,4.243Z" transform="translate(-2 -2)" fill="#7d3a1b"/>
          <path id="Trazado_908005" data-name="Trazado 908005" d="M43.09,30.61a1.008,1.008,0,0,0,0-1.42l-9.9-9.9a1.034,1.034,0,0,0-1.41,0l-2.62,2.62-1.53.3-2.92-2.92A1.033,1.033,0,0,0,24,19H20.17l-2.53-2.54a1.008,1.008,0,0,0-1.42,0l-9.9,9.9a1.008,1.008,0,0,0,0,1.42l7.2,7.2a2.973,2.973,0,0,0,2.55,4.27,2.906,2.906,0,0,0,.86,1.96,2.964,2.964,0,0,0,1.96.87,2.983,2.983,0,0,0,2.83,2.83,3,3,0,0,0,5.11,1.96l1.06,1.06a2.994,2.994,0,0,0,4.24,0,2.91,2.91,0,0,0,.86-1.97,2.944,2.944,0,0,0,2.83-2.82,2.963,2.963,0,0,0,2.83-2.83,2.993,2.993,0,0,0,1.97-5.11l-1.06-1.06ZM8.44,27.07l8.49-8.48L18.34,20,9.86,28.49Zm2.83,2.83,8.9-8.9h3.42l7.83,7.84a.978.978,0,0,1,0,1.41,1.014,1.014,0,0,1-1.41,0l-4.24-4.24a1.037,1.037,0,0,0-1.42,0,3.066,3.066,0,0,1-4.24,0L18.7,27.42a5.076,5.076,0,0,0,1.23.89l-5.12,5.13Zm15.2,12.37a3.008,3.008,0,0,0-.76,2.89l-.3.29a.972.972,0,0,1-.71.29.951.951,0,0,1-.7-.29.993.993,0,0,1-.01-1.4.01.01,0,0,0,.01-.01l2.83-2.82v-.01L25.41,39.8l-2.83,2.83c-.01,0-.01,0-.01.01a1.032,1.032,0,0,1-1.4-.01,1.014,1.014,0,0,1,0-1.42L24,38.38l-1.41-1.41L19.76,39.8a1,1,0,1,1-1.42-1.42l2.83-2.82-1.41-1.42-2.83,2.83a1.027,1.027,0,0,1-1.42,0,1,1,0,0,1,0-1.41l6.67-6.68c.02,0,.03.01.05.01a4.949,4.949,0,0,0,2.76-.83l3.61,3.61a3.075,3.075,0,0,0,4.24,0,3,3,0,0,0,.06-4.18l5.25,5.24-.3.29a3.007,3.007,0,0,0-2.89.77,2.906,2.906,0,0,0-.86,1.96,2.961,2.961,0,0,0-2.83,2.86,2.907,2.907,0,0,0-2.83,2.8,3.046,3.046,0,0,0-1.97.86Zm4.25,4.25a1.037,1.037,0,0,1-1.42,0L27.89,45.1a1,1,0,1,1,1.41-1.41l1.42,1.41a1.008,1.008,0,0,1,0,1.42Zm2.83-2.83a1.008,1.008,0,0,1-1.42,0l-1.41-1.42a1,1,0,1,1,1.41-1.41l1.42,1.41A1.014,1.014,0,0,1,33.55,43.69Zm2.82-2.83a1.014,1.014,0,0,1-1.41,0l-1.41-1.42a.96.96,0,0,1-.3-.7,1.007,1.007,0,0,1,1-1,1.024,1.024,0,0,1,.71.29l1.41,1.42A1,1,0,0,1,36.37,40.86Zm2.83-2.83a1,1,0,0,1-1.41,0l-1.42-1.41a1.008,1.008,0,0,1,0-1.42,1.042,1.042,0,0,1,.71-.29,1.024,1.024,0,0,1,.71.29l1.41,1.42a.978.978,0,0,1,0,1.41Zm-8.13-15.2,1.42-1.42,8.48,8.49-1.41,1.41Z" transform="translate(-2 -2)" fill="#7d3a1b"/>
          <path id="Trazado_908006" data-name="Trazado 908006" d="M21,54H31v2H21Z" transform="translate(-2 -2)" fill="#7d3a1b"/>
          <path id="Trazado_908007" data-name="Trazado 908007" d="M8,44h8v2H8Z" transform="translate(-2 -2)" fill="#7d3a1b"/>
          <path id="Trazado_908008" data-name="Trazado 908008" d="M8,48H18v2H8Z" transform="translate(-2 -2)" fill="#7d3a1b"/>
          <path id="Trazado_908009" data-name="Trazado 908009" d="M8,40h6v2H8Z" transform="translate(-2 -2)" fill="#7d3a1b"/>
        </g>
      </g>
    </g>
  </g>
</svg>
