<svg xmlns="http://www.w3.org/2000/svg" xmlns:xlink="http://www.w3.org/1999/xlink" width="295" height="250" viewBox="0 0 295 250">
  <defs>
    <clipPath id="clip-path">
      <rect id="Rectángulo_378415" data-name="Rectángulo 378415" width="295" height="250" rx="20" fill="#ffe9df"/>
    </clipPath>
    <clipPath id="clip-path-2">
      <rect id="Rectángulo_377901" data-name="Rectángulo 377901" width="418.4" height="323.115" rx="20" fill="#ffe9df"/>
    </clipPath>
    <clipPath id="clip-path-3">
      <rect id="Rectángulo_377901-2" data-name="Rectángulo 377901" width="419.985" height="339.892" rx="20" transform="translate(0)" fill="#ffe9df"/>
    </clipPath>
    <clipPath id="clip-path-4">
      <rect id="Rectángulo_378459" data-name="Rectángulo 378459" width="295" height="250" rx="20" fill="#d1e1dd"/>
    </clipPath>
    <clipPath id="clip-path-5">
      <rect id="Rectángulo_400938" data-name="Rectángulo 400938" width="121" height="121" transform="translate(0 0)" fill="none"/>
    </clipPath>
    <clipPath id="clip-path-6">
      <rect id="Rectángulo_401073" data-name="Rectángulo 401073" width="92.219" height="41.532" fill="#efb499"/>
    </clipPath>
  </defs>
  <g id="img3_1" transform="translate(4651 11136)">
    <g id="Grupo_1117714" data-name="Grupo 1117714" transform="translate(-4935.668 -17112)">
      <g id="Enmascarar_grupo_1073331" data-name="Enmascarar grupo 1073331" transform="translate(284.668 5976)" clip-path="url(#clip-path)">
        <g id="Grupo_1074341" data-name="Grupo 1074341" transform="translate(-17.871 -53.04)">
          <rect id="Rectángulo_378306" data-name="Rectángulo 378306" width="463.061" height="327.897" transform="translate(330.36) rotate(90)" fill="none"/>
          <g id="Grupo_1074334" data-name="Grupo 1074334" transform="translate(323.115 35.728) rotate(90)">
            <g id="Enmascarar_grupo_154360" data-name="Enmascarar grupo 154360" transform="translate(0)" clip-path="url(#clip-path-2)">
              <rect id="Rectángulo_378306-2" data-name="Rectángulo 378306" width="367.701" height="341.557" transform="translate(411.269 322.837) rotate(180)" fill="none"/>
              <g id="Grupo_1074332" data-name="Grupo 1074332" transform="translate(-23.571 -26.48)">
                <g id="Grupo_154360" data-name="Grupo 154360" transform="translate(0)" clip-path="url(#clip-path-3)">
                  <path id="Trazado_610761" data-name="Trazado 610761" d="M0,0H372.34V421.4H0Z" transform="translate(418.463 0.508) rotate(90)" fill="#ffe9df"/>
                  <path id="Trazado_611367" data-name="Trazado 611367" d="M0,0H27.948V433.225H0Z" transform="translate(421.522 -13.561) rotate(90)" fill="#ffe9df"/>
                  <rect id="Rectángulo_378306-3" data-name="Rectángulo 378306" width="395.577" height="359.468" transform="translate(393.56 338.287) rotate(180)" fill="none"/>
                  <g id="Grupo_1074333" data-name="Grupo 1074333" transform="translate(-11.066 -10.099)">
                    <path id="Trazado_611368" data-name="Trazado 611368" d="M1.139,0,131.8,2.033l6.912,22.573L0,24.745Z" transform="translate(5.597)" fill="#ffe9df"/>
                    <path id="Trazado_611369" data-name="Trazado 611369" d="M1.139,0,145.129,1.813l-6.64,21.845L0,24.745Z" transform="translate(0 331.609)" fill="#ffe9df"/>
                  </g>
                </g>
              </g>
            </g>
          </g>
        </g>
        <path id="Trazado_873424" data-name="Trazado 873424" d="M367.034,400.668c0-26.034-37.454-57.905-63.143-57.905s-47.417,5.1-76.663,5.1-71.643-10.6-71.643-62.441c0-13.744,6.475-29.845,6.475-54.583S144.3,181.36,98.349,184.7s-56.19-21.795-56.19-44.572S74.118,56.29,0,0V400.668Z" transform="translate(238.797 -29.566) rotate(90)" fill="#fecab2" opacity="0.58"/>
      </g>
    </g>
    <g id="img17">
      <g id="Grupo_1099376" data-name="Grupo 1099376" transform="translate(-4951.668 -17118)">
        <rect id="Rectángulo_401103" data-name="Rectángulo 401103" width="121" height="121" transform="translate(387.668 6013)" fill="none"/>
        <g id="Grupo_1099348" data-name="Grupo 1099348" transform="translate(387.668 6013)">
          <g id="Grupo_1099282" data-name="Grupo 1099282">
            <g id="Grupo_1099281" data-name="Grupo 1099281" clip-path="url(#clip-path-6)">
              <path id="Trazado_873375" data-name="Trazado 873375" d="M74.8,9.1c-4.139,0-6.28-2.03-8.17-3.821-1.855-1.756-3.452-3.274-6.792-3.274s-4.937,1.517-6.792,3.274C51.161,7.072,49.023,9.1,44.881,9.1s-6.28-2.03-8.169-3.821C34.857,3.525,33.26,2.007,29.92,2.007s-4.937,1.517-6.789,3.274C21.241,7.072,19.1,9.1,14.962,9.1S8.679,7.072,6.789,5.281C4.937,3.525,3.34,2.007,0,2.007V0C4.139,0,6.28,2.033,8.17,3.821c1.855,1.759,3.452,3.274,6.792,3.274S19.9,5.58,21.75,3.824C23.637,2.033,25.781,0,29.92,0s6.283,2.033,8.17,3.821c1.855,1.759,3.452,3.274,6.792,3.274s4.937-1.514,6.792-3.274C53.56,2.033,55.7,0,59.843,0s6.283,2.033,8.17,3.821C69.867,5.58,71.464,7.094,74.8,7.094S79.742,5.58,81.6,3.821C83.483,2.033,85.624,0,89.766,0V2.007c-3.34,0-4.937,1.517-6.792,3.274C81.084,7.072,78.943,9.1,74.8,9.1" transform="translate(2.453 32.43)" fill="#efb499"/>
              <path id="Trazado_873376" data-name="Trazado 873376" d="M74.8,9.1c-4.139,0-6.283-2.03-8.17-3.824-1.855-1.756-3.452-3.27-6.792-3.27s-4.937,1.514-6.792,3.27C51.164,7.072,49.023,9.1,44.881,9.1s-6.283-2.03-8.17-3.824c-1.855-1.756-3.452-3.27-6.792-3.27s-4.937,1.517-6.789,3.27C21.241,7.072,19.1,9.1,14.962,9.1S8.679,7.072,6.789,5.278C4.937,3.522,3.34,2.007,0,2.007V0C4.139,0,6.283,2.03,8.17,3.821c1.855,1.759,3.452,3.274,6.792,3.274S19.9,5.58,21.75,3.821C23.637,2.03,25.781,0,29.92,0S36.2,2.03,38.093,3.821c1.852,1.759,3.449,3.274,6.789,3.274s4.937-1.514,6.792-3.274C53.56,2.03,55.7,0,59.843,0s6.283,2.03,8.17,3.821C69.867,5.58,71.464,7.094,74.8,7.094S79.742,5.58,81.6,3.821C83.486,2.03,85.627,0,89.769,0V2.007c-3.34,0-4.94,1.517-6.8,3.27C81.084,7.072,78.943,9.1,74.8,9.1" transform="translate(1.635 21.62)" fill="#efb499"/>
              <path id="Trazado_873377" data-name="Trazado 873377" d="M74.8,9.1c-4.139,0-6.283-2.03-8.169-3.824-1.855-1.756-3.452-3.27-6.792-3.27s-4.937,1.514-6.792,3.27C51.164,7.072,49.02,9.1,44.881,9.1s-6.283-2.03-8.17-3.824c-1.855-1.756-3.452-3.27-6.792-3.27s-4.937,1.517-6.789,3.27C21.241,7.072,19.1,9.1,14.962,9.1S8.678,7.072,6.789,5.278C4.937,3.522,3.34,2.007,0,2.007V0C4.139,0,6.283,2.03,8.169,3.821c1.851,1.759,3.452,3.274,6.792,3.274S19.9,5.58,21.75,3.821C23.637,2.03,25.781,0,29.92,0S36.2,2.03,38.093,3.821c1.852,1.759,3.449,3.274,6.789,3.274s4.937-1.514,6.792-3.274C53.56,2.03,55.7,0,59.843,0s6.283,2.03,8.17,3.821C69.867,5.58,71.464,7.094,74.8,7.094S79.742,5.58,81.6,3.821C83.486,2.03,85.624,0,89.769,0V2.007c-3.34,0-4.941,1.517-6.8,3.27C81.084,7.072,78.943,9.1,74.8,9.1" transform="translate(0.818 10.81)" fill="#efb499"/>
              <path id="Trazado_873378" data-name="Trazado 873378" d="M74.8,9.1c-4.139,0-6.28-2.03-8.17-3.821-1.855-1.756-3.452-3.27-6.792-3.27s-4.937,1.514-6.789,3.27C51.164,7.069,49.023,9.1,44.881,9.1s-6.28-2.03-8.169-3.821c-1.855-1.756-3.452-3.27-6.792-3.27s-4.937,1.514-6.789,3.267C21.245,7.069,19.1,9.1,14.962,9.1S8.678,7.069,6.789,5.278C4.937,3.522,3.34,2.007,0,2.007V0C4.139,0,6.283,2.03,8.17,3.821c1.855,1.756,3.452,3.27,6.792,3.27S19.9,5.577,21.75,3.821C23.64,2.03,25.781,0,29.92,0s6.28,2.03,8.173,3.821c1.852,1.756,3.449,3.27,6.789,3.27s4.937-1.514,6.792-3.27C53.563,2.03,55.7,0,59.843,0s6.28,2.03,8.17,3.821c1.855,1.756,3.452,3.27,6.792,3.27s4.937-1.514,6.792-3.27C83.486,2.03,85.627,0,89.769,0V2.007c-3.344,0-4.941,1.514-6.8,3.27C81.084,7.069,78.943,9.1,74.8,9.1" transform="translate(0 0.003)" fill="#efb499"/>
            </g>
          </g>
        </g>
        <circle id="Elipse_11504" data-name="Elipse 11504" cx="50.5" cy="50.5" r="50.5" transform="translate(402.668 6031)" fill="#ffce73"/>
        <circle id="Elipse_11503" data-name="Elipse 11503" cx="52.5" cy="52.5" r="52.5" transform="translate(395.668 6021)" fill="#f3f9ff"/>
      </g>
      <g id="Grupo_1117961" data-name="Grupo 1117961" transform="translate(-4541.5 -11083.46)">
        <g id="Grupo_1117930" data-name="Grupo 1117930" transform="translate(6 1)">
          <g id="Grupo_1117905" data-name="Grupo 1117905" transform="translate(0.119 52.076)">
            <g id="Grupo_1117902" data-name="Grupo 1117902" transform="translate(7.163 1.173)">
              <path id="Trazado_907361" data-name="Trazado 907361" d="M37.716,68.559a16.21,16.21,0,0,1-2.254-.237L20.278,64.408a12.14,12.14,0,0,0-6.524.119,1.238,1.238,0,0,1-.712-2.372,14.153,14.153,0,0,1,7.711-.119l15.3,3.915a6.937,6.937,0,0,0,4.864-.593L65.237,52.664A2.175,2.175,0,0,0,66.3,49.817a2.442,2.442,0,0,0-2.966-1.423L45.9,54.68a1.2,1.2,0,1,1-.83-2.254l17.438-6.287a4.859,4.859,0,0,1,6.05,2.847A4.513,4.513,0,0,1,66.3,54.68L42.1,67.492a9.586,9.586,0,0,1-4.389,1.068Z" transform="translate(-12.138 -45.889)" fill="#7d3a1b"/>
            </g>
            <g id="Grupo_1117903" data-name="Grupo 1117903" transform="translate(7.218 0.076)">
              <path id="Trazado_907362" data-name="Trazado 907362" d="M45.18,55.564l-14.116-.237a1.189,1.189,0,0,1-1.186-1.186,1.276,1.276,0,0,1,1.186-1.186l12.811.237a3.481,3.481,0,0,0-.356-1.186A6.773,6.773,0,0,0,37.47,47.5l-6.524-.119a10.084,10.084,0,0,0-4.033.474L13.626,50.108a1.21,1.21,0,1,1-.474-2.372l13.167-2.254a13.457,13.457,0,0,1,4.745-.474l6.524.119a8.927,8.927,0,0,1,8.185,6.05,8.12,8.12,0,0,1,.593,3.2,1.216,1.216,0,0,1-1.186,1.186Z" transform="translate(-12.185 -44.964)" fill="#7d3a1b"/>
            </g>
            <g id="Grupo_1117904" data-name="Grupo 1117904">
              <path id="Trazado_907363" data-name="Trazado 907363" d="M14.522,67.557H7.286A1.121,1.121,0,0,1,6.1,66.371V46.086A1.121,1.121,0,0,1,7.286,44.9h7.236a1.121,1.121,0,0,1,1.186,1.186V66.371A1.121,1.121,0,0,1,14.522,67.557Zm-6.05-2.372h4.864V47.273H8.472Z" transform="translate(-6.1 -44.9)" fill="#7d3a1b"/>
            </g>
          </g>
          <g id="Grupo_1117929" data-name="Grupo 1117929">
            <g id="Grupo_1117908" data-name="Grupo 1117908" transform="translate(38.167 22.983)">
              <g id="Grupo_1117906" data-name="Grupo 1117906">
                <path id="Trazado_907364" data-name="Trazado 907364" d="M51.135,46.028a23.035,23.035,0,0,1-2.847-.237,1.175,1.175,0,0,1-.949-1.3c.119-.949,0-1.542-.356-1.661-.237-.119-.83.119-1.423.949a1.277,1.277,0,0,1-1.661.356,12.281,12.281,0,0,1-3.915-3.915,1.155,1.155,0,0,1,.356-1.542,2.493,2.493,0,0,0,1.068-1.423,1.747,1.747,0,0,0-1.661-.237,1.175,1.175,0,0,1-1.3-.949,14.688,14.688,0,0,1,0-5.575,1.175,1.175,0,0,1,1.3-.949c.949.119,1.542,0,1.661-.356.119-.237-.119-.83-.949-1.423A1.277,1.277,0,0,1,40.1,26.1a12.281,12.281,0,0,1,3.915-3.915,1.155,1.155,0,0,1,1.542.356,2.493,2.493,0,0,0,1.423,1.068,1.747,1.747,0,0,0,.237-1.661,1.175,1.175,0,0,1,.949-1.3,14.688,14.688,0,0,1,5.575,0,1.175,1.175,0,0,1,.949,1.3c-.119.949,0,1.542.356,1.661.237.119.83-.119,1.424-.949a1.277,1.277,0,0,1,1.661-.356,12.282,12.282,0,0,1,3.915,3.915,1.155,1.155,0,0,1-.356,1.542,2.493,2.493,0,0,0-1.068,1.423,1.747,1.747,0,0,0,1.661.237,1.175,1.175,0,0,1,1.3.949,14.688,14.688,0,0,1,0,5.575,1.175,1.175,0,0,1-1.3.949c-.949-.119-1.542.119-1.661.356s.237.83,1.068,1.423a1.125,1.125,0,0,1,.237,1.542,12.282,12.282,0,0,1-3.915,3.915,1.155,1.155,0,0,1-1.542-.356,2.493,2.493,0,0,0-1.423-1.068,1.747,1.747,0,0,0-.237,1.661,1.175,1.175,0,0,1-.949,1.3,10.77,10.77,0,0,1-2.728.356Zm-1.3-2.372a9.613,9.613,0,0,0,2.61,0,3.274,3.274,0,0,1,1.779-3.084,3.344,3.344,0,0,1,3.559.949,12.582,12.582,0,0,0,1.779-1.779,3.117,3.117,0,0,1-.949-3.44,3.365,3.365,0,0,1,3.084-1.9,9.6,9.6,0,0,0,0-2.61,3.274,3.274,0,0,1-3.084-1.779,3.344,3.344,0,0,1,.949-3.559,12.582,12.582,0,0,0-1.779-1.779,3.058,3.058,0,0,1-5.457-2.135,9.613,9.613,0,0,0-2.61,0,3.274,3.274,0,0,1-1.779,3.084,3.344,3.344,0,0,1-3.559-.949,12.582,12.582,0,0,0-1.779,1.779,3.058,3.058,0,0,1-2.135,5.457,9.614,9.614,0,0,0,0,2.61A3.274,3.274,0,0,1,43.543,36.3a3.3,3.3,0,0,1-.949,3.559,12.582,12.582,0,0,0,1.779,1.779,3.251,3.251,0,0,1,3.559-.949C49,40.927,49.711,42.113,49.83,43.655Z" transform="translate(-38.175 -20.375)" fill="#7d3a1b"/>
              </g>
              <g id="Grupo_1117907" data-name="Grupo 1117907" transform="translate(6.554 6.673)">
                <path id="Trazado_907365" data-name="Trazado 907365" d="M49.987,38.456A6.228,6.228,0,0,1,49.869,26a6.154,6.154,0,0,1,6.287,6.168A6.384,6.384,0,0,1,49.987,38.456Zm-.119-10.083a4.1,4.1,0,0,0-3.8,3.915,3.856,3.856,0,1,0,7.711-.119A3.776,3.776,0,0,0,49.869,28.372Z" transform="translate(-43.7 -26)" fill="#7d3a1b"/>
              </g>
            </g>
            <g id="Grupo_1117912" data-name="Grupo 1117912" transform="translate(0 22.776)">
              <g id="Grupo_1117909" data-name="Grupo 1117909">
                <path id="Trazado_907366" data-name="Trazado 907366" d="M19.049,46.3A13.049,13.049,0,1,1,32.1,33.249,13.011,13.011,0,0,1,19.049,46.3Zm0-23.725A10.676,10.676,0,1,0,29.725,33.249,10.632,10.632,0,0,0,19.049,22.573Z" transform="translate(-6 -20.2)" fill="#7d3a1b"/>
              </g>
              <g id="Grupo_1117910" data-name="Grupo 1117910" transform="translate(8.778 5.694)">
                <path id="Trazado_907367" data-name="Trazado 907367" d="M17.67,33.66a4.253,4.253,0,0,1-4.27-4.27A4.435,4.435,0,0,1,17.67,25a4.253,4.253,0,0,1,4.27,4.27,1.186,1.186,0,0,1-2.372,0,1.874,1.874,0,0,0-1.9-1.9,2.062,2.062,0,0,0-1.9,2.017,1.874,1.874,0,0,0,1.9,1.9,1.186,1.186,0,1,1,0,2.372Z" transform="translate(-13.4 -25)" fill="#7d3a1b"/>
              </g>
              <g id="Grupo_1117911" data-name="Grupo 1117911" transform="translate(8.778 11.981)">
                <path id="Trazado_907368" data-name="Trazado 907368" d="M17.67,38.841a4.253,4.253,0,0,1-4.27-4.27,1.186,1.186,0,1,1,2.372,0,1.9,1.9,0,1,0,1.9-1.9,1.186,1.186,0,1,1,0-2.372,4.27,4.27,0,1,1,0,8.541Z" transform="translate(-13.4 -30.3)" fill="#7d3a1b"/>
              </g>
            </g>
            <g id="Grupo_1117913" data-name="Grupo 1117913" transform="translate(11.862 27.284)">
              <path id="Trazado_907369" data-name="Trazado 907369" d="M17.186,27.559A1.121,1.121,0,0,1,16,26.372V25.186a1.186,1.186,0,0,1,2.372,0v1.186A1.121,1.121,0,0,1,17.186,27.559Z" transform="translate(-16 -24)" fill="#7d3a1b"/>
            </g>
            <g id="Grupo_1117914" data-name="Grupo 1117914" transform="translate(11.862 40.925)">
              <path id="Trazado_907370" data-name="Trazado 907370" d="M17.186,39.059A1.121,1.121,0,0,1,16,37.872V36.686a1.186,1.186,0,0,1,2.372,0v1.186A1.121,1.121,0,0,1,17.186,39.059Z" transform="translate(-16 -35.5)" fill="#7d3a1b"/>
            </g>
            <g id="Grupo_1117928" data-name="Grupo 1117928" transform="translate(18.98)">
              <g id="Grupo_1117927" data-name="Grupo 1117927">
                <g id="Grupo_1117920" data-name="Grupo 1117920">
                  <g id="Grupo_1117915" data-name="Grupo 1117915">
                    <path id="Trazado_907371" data-name="Trazado 907371" d="M35.049,27.1A13.049,13.049,0,1,1,48.1,14.049,13.011,13.011,0,0,1,35.049,27.1Zm0-23.725A10.676,10.676,0,1,0,45.725,14.049,10.632,10.632,0,0,0,35.049,3.372Z" transform="translate(-22 -1)" fill="#7d3a1b"/>
                  </g>
                  <g id="Grupo_1117919" data-name="Grupo 1117919" transform="translate(4.934 5.575)">
                    <g id="Grupo_1117916" data-name="Grupo 1117916" transform="translate(2.065)">
                      <path id="Trazado_907372" data-name="Trazado 907372" d="M33.95,18.867c-3.321,0-6.05-3.915-6.05-7.117A6.075,6.075,0,0,1,33.95,5.7,5.928,5.928,0,0,1,40,11.75C40,15.071,37.39,18.867,33.95,18.867Zm0-10.795a3.7,3.7,0,0,0-3.677,3.677c0,2.017,1.779,4.745,3.677,4.745s3.677-2.61,3.677-4.745A3.7,3.7,0,0,0,33.95,8.072Z" transform="translate(-27.9 -5.7)" fill="#7d3a1b"/>
                    </g>
                    <g id="Grupo_1117917" data-name="Grupo 1117917" transform="translate(9.301 9.964)">
                      <path id="Trazado_907373" data-name="Trazado 907373" d="M39.694,22.285a1.069,1.069,0,0,1-.593-.119l-3.2-1.779A3.786,3.786,0,0,1,34,17.066V15.286a1.186,1.186,0,1,1,2.372,0v1.779a1.3,1.3,0,0,0,.712,1.186l3.2,1.779a1.2,1.2,0,0,1,.474,1.661A1.246,1.246,0,0,1,39.694,22.285Z" transform="translate(-34 -14.1)" fill="#7d3a1b"/>
                    </g>
                    <g id="Grupo_1117918" data-name="Grupo 1117918" transform="translate(0 9.846)">
                      <path id="Trazado_907374" data-name="Trazado 907374" d="M27.394,22.185a1.246,1.246,0,0,1-1.068-.593,1.2,1.2,0,0,1,.474-1.661l3.321-1.779a1.46,1.46,0,0,0,.593-1.186V15.186a1.186,1.186,0,0,1,2.372,0v1.779a3.786,3.786,0,0,1-1.9,3.321L30,20.88l-2.135,1.186C27.75,22.185,27.631,22.185,27.394,22.185Z" transform="translate(-26.159 -14)" fill="#7d3a1b"/>
                    </g>
                  </g>
                </g>
                <g id="Grupo_1117926" data-name="Grupo 1117926">
                  <g id="Grupo_1117921" data-name="Grupo 1117921">
                    <path id="Trazado_907375" data-name="Trazado 907375" d="M35.049,27.1A13.049,13.049,0,1,1,48.1,14.049,13.011,13.011,0,0,1,35.049,27.1Zm0-23.725A10.676,10.676,0,1,0,45.725,14.049,10.632,10.632,0,0,0,35.049,3.372Z" transform="translate(-22 -1)" fill="#7d3a1b"/>
                  </g>
                  <g id="Grupo_1117925" data-name="Grupo 1117925" transform="translate(4.934 5.575)">
                    <g id="Grupo_1117922" data-name="Grupo 1117922" transform="translate(2.065)">
                      <path id="Trazado_907376" data-name="Trazado 907376" d="M33.95,18.867c-3.321,0-6.05-3.915-6.05-7.117A6.075,6.075,0,0,1,33.95,5.7,5.928,5.928,0,0,1,40,11.75C40,15.071,37.39,18.867,33.95,18.867Zm0-10.795a3.7,3.7,0,0,0-3.677,3.677c0,2.017,1.779,4.745,3.677,4.745s3.677-2.61,3.677-4.745A3.7,3.7,0,0,0,33.95,8.072Z" transform="translate(-27.9 -5.7)" fill="#7d3a1b"/>
                    </g>
                    <g id="Grupo_1117923" data-name="Grupo 1117923" transform="translate(9.301 9.964)">
                      <path id="Trazado_907377" data-name="Trazado 907377" d="M39.694,22.285a1.069,1.069,0,0,1-.593-.119l-3.2-1.779A3.786,3.786,0,0,1,34,17.066V15.286a1.186,1.186,0,1,1,2.372,0v1.779a1.3,1.3,0,0,0,.712,1.186l3.2,1.779a1.2,1.2,0,0,1,.474,1.661A1.246,1.246,0,0,1,39.694,22.285Z" transform="translate(-34 -14.1)" fill="#7d3a1b"/>
                    </g>
                    <g id="Grupo_1117924" data-name="Grupo 1117924" transform="translate(0 9.846)">
                      <path id="Trazado_907378" data-name="Trazado 907378" d="M27.394,22.185a1.246,1.246,0,0,1-1.068-.593,1.2,1.2,0,0,1,.474-1.661l3.321-1.779a1.46,1.46,0,0,0,.593-1.186V15.186a1.186,1.186,0,0,1,2.372,0v1.779a3.786,3.786,0,0,1-1.9,3.321L30,20.88l-2.135,1.186C27.75,22.185,27.631,22.185,27.394,22.185Z" transform="translate(-26.159 -14)" fill="#7d3a1b"/>
                    </g>
                  </g>
                </g>
              </g>
            </g>
          </g>
        </g>
        <g id="Grupo_1117959" data-name="Grupo 1117959" transform="translate(6 1)">
          <g id="Grupo_1117934" data-name="Grupo 1117934" transform="translate(0.119 52.076)">
            <g id="Grupo_1117931" data-name="Grupo 1117931" transform="translate(7.163 1.173)">
              <path id="Trazado_907379" data-name="Trazado 907379" d="M37.716,68.559a16.21,16.21,0,0,1-2.254-.237L20.278,64.408a12.14,12.14,0,0,0-6.524.119,1.238,1.238,0,0,1-.712-2.372,14.153,14.153,0,0,1,7.711-.119l15.3,3.915a6.937,6.937,0,0,0,4.864-.593L65.237,52.664A2.175,2.175,0,0,0,66.3,49.817a2.442,2.442,0,0,0-2.966-1.423L45.9,54.68a1.2,1.2,0,1,1-.83-2.254l17.438-6.287a4.859,4.859,0,0,1,6.05,2.847A4.513,4.513,0,0,1,66.3,54.68L42.1,67.492a9.586,9.586,0,0,1-4.389,1.068Z" transform="translate(-12.138 -45.889)" fill="#7d3a1b"/>
            </g>
            <g id="Grupo_1117932" data-name="Grupo 1117932" transform="translate(7.218 0.076)">
              <path id="Trazado_907380" data-name="Trazado 907380" d="M45.18,55.564l-14.116-.237a1.189,1.189,0,0,1-1.186-1.186,1.276,1.276,0,0,1,1.186-1.186l12.811.237a3.481,3.481,0,0,0-.356-1.186A6.773,6.773,0,0,0,37.47,47.5l-6.524-.119a10.084,10.084,0,0,0-4.033.474L13.626,50.108a1.21,1.21,0,1,1-.474-2.372l13.167-2.254a13.457,13.457,0,0,1,4.745-.474l6.524.119a8.927,8.927,0,0,1,8.185,6.05,8.12,8.12,0,0,1,.593,3.2,1.216,1.216,0,0,1-1.186,1.186Z" transform="translate(-12.185 -44.964)" fill="#7d3a1b"/>
            </g>
            <g id="Grupo_1117933" data-name="Grupo 1117933">
              <path id="Trazado_907381" data-name="Trazado 907381" d="M14.522,67.557H7.286A1.121,1.121,0,0,1,6.1,66.371V46.086A1.121,1.121,0,0,1,7.286,44.9h7.236a1.121,1.121,0,0,1,1.186,1.186V66.371A1.121,1.121,0,0,1,14.522,67.557Zm-6.05-2.372h4.864V47.273H8.472Z" transform="translate(-6.1 -44.9)" fill="#7d3a1b"/>
            </g>
          </g>
          <g id="Grupo_1117958" data-name="Grupo 1117958">
            <g id="Grupo_1117937" data-name="Grupo 1117937" transform="translate(38.167 22.983)">
              <g id="Grupo_1117935" data-name="Grupo 1117935">
                <path id="Trazado_907382" data-name="Trazado 907382" d="M51.135,46.028a23.035,23.035,0,0,1-2.847-.237,1.175,1.175,0,0,1-.949-1.3c.119-.949,0-1.542-.356-1.661-.237-.119-.83.119-1.423.949a1.277,1.277,0,0,1-1.661.356,12.281,12.281,0,0,1-3.915-3.915,1.155,1.155,0,0,1,.356-1.542,2.493,2.493,0,0,0,1.068-1.423,1.747,1.747,0,0,0-1.661-.237,1.175,1.175,0,0,1-1.3-.949,14.688,14.688,0,0,1,0-5.575,1.175,1.175,0,0,1,1.3-.949c.949.119,1.542,0,1.661-.356.119-.237-.119-.83-.949-1.423A1.277,1.277,0,0,1,40.1,26.1a12.281,12.281,0,0,1,3.915-3.915,1.155,1.155,0,0,1,1.542.356,2.493,2.493,0,0,0,1.423,1.068,1.747,1.747,0,0,0,.237-1.661,1.175,1.175,0,0,1,.949-1.3,14.688,14.688,0,0,1,5.575,0,1.175,1.175,0,0,1,.949,1.3c-.119.949,0,1.542.356,1.661.237.119.83-.119,1.424-.949a1.277,1.277,0,0,1,1.661-.356,12.282,12.282,0,0,1,3.915,3.915,1.155,1.155,0,0,1-.356,1.542,2.493,2.493,0,0,0-1.068,1.423,1.747,1.747,0,0,0,1.661.237,1.175,1.175,0,0,1,1.3.949,14.688,14.688,0,0,1,0,5.575,1.175,1.175,0,0,1-1.3.949c-.949-.119-1.542.119-1.661.356s.237.83,1.068,1.423a1.125,1.125,0,0,1,.237,1.542,12.282,12.282,0,0,1-3.915,3.915,1.155,1.155,0,0,1-1.542-.356,2.493,2.493,0,0,0-1.423-1.068,1.747,1.747,0,0,0-.237,1.661,1.175,1.175,0,0,1-.949,1.3,10.77,10.77,0,0,1-2.728.356Zm-1.3-2.372a9.613,9.613,0,0,0,2.61,0,3.274,3.274,0,0,1,1.779-3.084,3.344,3.344,0,0,1,3.559.949,12.582,12.582,0,0,0,1.779-1.779,3.117,3.117,0,0,1-.949-3.44,3.365,3.365,0,0,1,3.084-1.9,9.6,9.6,0,0,0,0-2.61,3.274,3.274,0,0,1-3.084-1.779,3.344,3.344,0,0,1,.949-3.559,12.582,12.582,0,0,0-1.779-1.779,3.058,3.058,0,0,1-5.457-2.135,9.613,9.613,0,0,0-2.61,0,3.274,3.274,0,0,1-1.779,3.084,3.344,3.344,0,0,1-3.559-.949,12.582,12.582,0,0,0-1.779,1.779,3.058,3.058,0,0,1-2.135,5.457,9.614,9.614,0,0,0,0,2.61A3.274,3.274,0,0,1,43.543,36.3a3.3,3.3,0,0,1-.949,3.559,12.582,12.582,0,0,0,1.779,1.779,3.251,3.251,0,0,1,3.559-.949C49,40.927,49.711,42.113,49.83,43.655Z" transform="translate(-38.175 -20.375)" fill="#7d3a1b"/>
              </g>
              <g id="Grupo_1117936" data-name="Grupo 1117936" transform="translate(6.554 6.673)">
                <path id="Trazado_907383" data-name="Trazado 907383" d="M49.987,38.456A6.228,6.228,0,0,1,49.869,26a6.154,6.154,0,0,1,6.287,6.168A6.384,6.384,0,0,1,49.987,38.456Zm-.119-10.083a4.1,4.1,0,0,0-3.8,3.915,3.856,3.856,0,1,0,7.711-.119A3.776,3.776,0,0,0,49.869,28.372Z" transform="translate(-43.7 -26)" fill="#7d3a1b"/>
              </g>
            </g>
            <g id="Grupo_1117941" data-name="Grupo 1117941" transform="translate(0 22.776)">
              <g id="Grupo_1117938" data-name="Grupo 1117938">
                <path id="Trazado_907384" data-name="Trazado 907384" d="M19.049,46.3A13.049,13.049,0,1,1,32.1,33.249,13.011,13.011,0,0,1,19.049,46.3Zm0-23.725A10.676,10.676,0,1,0,29.725,33.249,10.632,10.632,0,0,0,19.049,22.573Z" transform="translate(-6 -20.2)" fill="#7d3a1b"/>
              </g>
              <g id="Grupo_1117939" data-name="Grupo 1117939" transform="translate(8.778 5.694)">
                <path id="Trazado_907385" data-name="Trazado 907385" d="M17.67,33.66a4.253,4.253,0,0,1-4.27-4.27A4.435,4.435,0,0,1,17.67,25a4.253,4.253,0,0,1,4.27,4.27,1.186,1.186,0,0,1-2.372,0,1.874,1.874,0,0,0-1.9-1.9,2.062,2.062,0,0,0-1.9,2.017,1.874,1.874,0,0,0,1.9,1.9,1.186,1.186,0,1,1,0,2.372Z" transform="translate(-13.4 -25)" fill="#7d3a1b"/>
              </g>
              <g id="Grupo_1117940" data-name="Grupo 1117940" transform="translate(8.778 11.981)">
                <path id="Trazado_907386" data-name="Trazado 907386" d="M17.67,38.841a4.253,4.253,0,0,1-4.27-4.27,1.186,1.186,0,1,1,2.372,0,1.9,1.9,0,1,0,1.9-1.9,1.186,1.186,0,1,1,0-2.372,4.27,4.27,0,1,1,0,8.541Z" transform="translate(-13.4 -30.3)" fill="#7d3a1b"/>
              </g>
            </g>
            <g id="Grupo_1117942" data-name="Grupo 1117942" transform="translate(11.862 27.284)">
              <path id="Trazado_907387" data-name="Trazado 907387" d="M17.186,27.559A1.121,1.121,0,0,1,16,26.372V25.186a1.186,1.186,0,0,1,2.372,0v1.186A1.121,1.121,0,0,1,17.186,27.559Z" transform="translate(-16 -24)" fill="#7d3a1b"/>
            </g>
            <g id="Grupo_1117943" data-name="Grupo 1117943" transform="translate(11.862 40.925)">
              <path id="Trazado_907388" data-name="Trazado 907388" d="M17.186,39.059A1.121,1.121,0,0,1,16,37.872V36.686a1.186,1.186,0,0,1,2.372,0v1.186A1.121,1.121,0,0,1,17.186,39.059Z" transform="translate(-16 -35.5)" fill="#7d3a1b"/>
            </g>
            <g id="Grupo_1117957" data-name="Grupo 1117957" transform="translate(18.98)">
              <g id="Grupo_1117956" data-name="Grupo 1117956">
                <g id="Grupo_1117949" data-name="Grupo 1117949">
                  <g id="Grupo_1117944" data-name="Grupo 1117944">
                    <path id="Trazado_907389" data-name="Trazado 907389" d="M35.049,27.1A13.049,13.049,0,1,1,48.1,14.049,13.011,13.011,0,0,1,35.049,27.1Zm0-23.725A10.676,10.676,0,1,0,45.725,14.049,10.632,10.632,0,0,0,35.049,3.372Z" transform="translate(-22 -1)" fill="#7d3a1b"/>
                  </g>
                  <g id="Grupo_1117948" data-name="Grupo 1117948" transform="translate(4.934 5.575)">
                    <g id="Grupo_1117945" data-name="Grupo 1117945" transform="translate(2.065)">
                      <path id="Trazado_907390" data-name="Trazado 907390" d="M33.95,18.867c-3.321,0-6.05-3.915-6.05-7.117A6.075,6.075,0,0,1,33.95,5.7,5.928,5.928,0,0,1,40,11.75C40,15.071,37.39,18.867,33.95,18.867Zm0-10.795a3.7,3.7,0,0,0-3.677,3.677c0,2.017,1.779,4.745,3.677,4.745s3.677-2.61,3.677-4.745A3.7,3.7,0,0,0,33.95,8.072Z" transform="translate(-27.9 -5.7)" fill="#7d3a1b"/>
                    </g>
                    <g id="Grupo_1117946" data-name="Grupo 1117946" transform="translate(9.301 9.964)">
                      <path id="Trazado_907391" data-name="Trazado 907391" d="M39.694,22.285a1.069,1.069,0,0,1-.593-.119l-3.2-1.779A3.786,3.786,0,0,1,34,17.066V15.286a1.186,1.186,0,1,1,2.372,0v1.779a1.3,1.3,0,0,0,.712,1.186l3.2,1.779a1.2,1.2,0,0,1,.474,1.661A1.246,1.246,0,0,1,39.694,22.285Z" transform="translate(-34 -14.1)" fill="#7d3a1b"/>
                    </g>
                    <g id="Grupo_1117947" data-name="Grupo 1117947" transform="translate(0 9.846)">
                      <path id="Trazado_907392" data-name="Trazado 907392" d="M27.394,22.185a1.246,1.246,0,0,1-1.068-.593,1.2,1.2,0,0,1,.474-1.661l3.321-1.779a1.46,1.46,0,0,0,.593-1.186V15.186a1.186,1.186,0,0,1,2.372,0v1.779a3.786,3.786,0,0,1-1.9,3.321L30,20.88l-2.135,1.186C27.75,22.185,27.631,22.185,27.394,22.185Z" transform="translate(-26.159 -14)" fill="#7d3a1b"/>
                    </g>
                  </g>
                </g>
                <g id="Grupo_1117955" data-name="Grupo 1117955">
                  <g id="Grupo_1117950" data-name="Grupo 1117950">
                    <path id="Trazado_907393" data-name="Trazado 907393" d="M35.049,27.1A13.049,13.049,0,1,1,48.1,14.049,13.011,13.011,0,0,1,35.049,27.1Zm0-23.725A10.676,10.676,0,1,0,45.725,14.049,10.632,10.632,0,0,0,35.049,3.372Z" transform="translate(-22 -1)" fill="#7d3a1b"/>
                  </g>
                  <g id="Grupo_1117954" data-name="Grupo 1117954" transform="translate(4.934 5.575)">
                    <g id="Grupo_1117951" data-name="Grupo 1117951" transform="translate(2.065)">
                      <path id="Trazado_907394" data-name="Trazado 907394" d="M33.95,18.867c-3.321,0-6.05-3.915-6.05-7.117A6.075,6.075,0,0,1,33.95,5.7,5.928,5.928,0,0,1,40,11.75C40,15.071,37.39,18.867,33.95,18.867Zm0-10.795a3.7,3.7,0,0,0-3.677,3.677c0,2.017,1.779,4.745,3.677,4.745s3.677-2.61,3.677-4.745A3.7,3.7,0,0,0,33.95,8.072Z" transform="translate(-27.9 -5.7)" fill="#7d3a1b"/>
                    </g>
                    <g id="Grupo_1117952" data-name="Grupo 1117952" transform="translate(9.301 9.964)">
                      <path id="Trazado_907395" data-name="Trazado 907395" d="M39.694,22.285a1.069,1.069,0,0,1-.593-.119l-3.2-1.779A3.786,3.786,0,0,1,34,17.066V15.286a1.186,1.186,0,1,1,2.372,0v1.779a1.3,1.3,0,0,0,.712,1.186l3.2,1.779a1.2,1.2,0,0,1,.474,1.661A1.246,1.246,0,0,1,39.694,22.285Z" transform="translate(-34 -14.1)" fill="#7d3a1b"/>
                    </g>
                    <g id="Grupo_1117953" data-name="Grupo 1117953" transform="translate(0 9.846)">
                      <path id="Trazado_907396" data-name="Trazado 907396" d="M27.394,22.185a1.246,1.246,0,0,1-1.068-.593,1.2,1.2,0,0,1,.474-1.661l3.321-1.779a1.46,1.46,0,0,0,.593-1.186V15.186a1.186,1.186,0,0,1,2.372,0v1.779a3.786,3.786,0,0,1-1.9,3.321L30,20.88l-2.135,1.186C27.75,22.185,27.631,22.185,27.394,22.185Z" transform="translate(-26.159 -14)" fill="#7d3a1b"/>
                    </g>
                  </g>
                </g>
              </g>
            </g>
          </g>
        </g>
      </g>
    </g>
  </g>
</svg>
