<svg xmlns="http://www.w3.org/2000/svg" xmlns:xlink="http://www.w3.org/1999/xlink" width="190" height="144" viewBox="0 0 190 144">
  <defs>
    <clipPath id="clip-path">
      <rect id="Rectángulo_400938" data-name="Rectángulo 400938" width="123" height="123" transform="translate(0.095)" fill="none"/>
    </clipPath>
    <clipPath id="clip-path-2">
      <rect id="Rectángulo_401073" data-name="Rectángulo 401073" width="92.219" height="41.532" fill="#efb499"/>
    </clipPath>
  </defs>
  <g id="img4" transform="translate(-0.095)">
    <rect id="Rectángulo_408809" data-name="Rectángulo 408809" width="190" height="144" transform="translate(0.095)" fill="#ffe2b7"/>
    <g id="Grupo_1120374" data-name="Grupo 1120374" transform="translate(34 11)">
      <g id="Grupo_1118709" data-name="Grupo 1118709">
        <g id="Grupo_1099376" data-name="Grupo 1099376" transform="translate(0 0)">
          <rect id="Rectángulo_401103" data-name="Rectángulo 401103" width="123" height="123" transform="translate(0.095)" fill="none"/>
          <g id="Grupo_1099348" data-name="Grupo 1099348">
            <g id="Grupo_1099282" data-name="Grupo 1099282">
              <g id="Grupo_1099281" data-name="Grupo 1099281" clip-path="url(#clip-path-2)">
                <path id="Trazado_873375" data-name="Trazado 873375" d="M74.8,9.1c-4.139,0-6.28-2.03-8.17-3.821-1.855-1.756-3.452-3.274-6.792-3.274s-4.937,1.517-6.792,3.274C51.161,7.072,49.023,9.1,44.881,9.1s-6.28-2.03-8.169-3.821C34.857,3.525,33.26,2.007,29.92,2.007s-4.937,1.517-6.789,3.274C21.241,7.072,19.1,9.1,14.962,9.1S8.679,7.072,6.789,5.281C4.937,3.525,3.34,2.007,0,2.007V0C4.139,0,6.28,2.033,8.17,3.821c1.855,1.759,3.452,3.274,6.792,3.274S19.9,5.58,21.75,3.824C23.637,2.033,25.781,0,29.92,0s6.283,2.033,8.17,3.821c1.855,1.759,3.452,3.274,6.792,3.274s4.937-1.514,6.792-3.274C53.56,2.033,55.7,0,59.843,0s6.283,2.033,8.17,3.821C69.867,5.58,71.464,7.094,74.8,7.094S79.742,5.58,81.6,3.821C83.483,2.033,85.624,0,89.766,0V2.007c-3.34,0-4.937,1.517-6.792,3.274C81.084,7.072,78.943,9.1,74.8,9.1" transform="translate(2.453 32.43)" fill="#efb499"/>
                <path id="Trazado_873376" data-name="Trazado 873376" d="M74.8,9.1c-4.139,0-6.283-2.03-8.17-3.824-1.855-1.756-3.452-3.27-6.792-3.27s-4.937,1.514-6.792,3.27C51.164,7.072,49.023,9.1,44.881,9.1s-6.283-2.03-8.17-3.824c-1.855-1.756-3.452-3.27-6.792-3.27s-4.937,1.517-6.789,3.27C21.241,7.072,19.1,9.1,14.962,9.1S8.679,7.072,6.789,5.278C4.937,3.522,3.34,2.007,0,2.007V0C4.139,0,6.283,2.03,8.17,3.821c1.855,1.759,3.452,3.274,6.792,3.274S19.9,5.58,21.75,3.821C23.637,2.03,25.781,0,29.92,0S36.2,2.03,38.093,3.821c1.852,1.759,3.449,3.274,6.789,3.274s4.937-1.514,6.792-3.274C53.56,2.03,55.7,0,59.843,0s6.283,2.03,8.17,3.821C69.867,5.58,71.464,7.094,74.8,7.094S79.742,5.58,81.6,3.821C83.486,2.03,85.627,0,89.769,0V2.007c-3.34,0-4.94,1.517-6.8,3.27C81.084,7.072,78.943,9.1,74.8,9.1" transform="translate(1.635 21.62)" fill="#efb499"/>
                <path id="Trazado_873377" data-name="Trazado 873377" d="M74.8,9.1c-4.139,0-6.283-2.03-8.169-3.824-1.855-1.756-3.452-3.27-6.792-3.27s-4.937,1.514-6.792,3.27C51.164,7.072,49.02,9.1,44.881,9.1s-6.283-2.03-8.17-3.824c-1.855-1.756-3.452-3.27-6.792-3.27s-4.937,1.517-6.789,3.27C21.241,7.072,19.1,9.1,14.962,9.1S8.678,7.072,6.789,5.278C4.937,3.522,3.34,2.007,0,2.007V0C4.139,0,6.283,2.03,8.169,3.821c1.851,1.759,3.452,3.274,6.792,3.274S19.9,5.58,21.75,3.821C23.637,2.03,25.781,0,29.92,0S36.2,2.03,38.093,3.821c1.852,1.759,3.449,3.274,6.789,3.274s4.937-1.514,6.792-3.274C53.56,2.03,55.7,0,59.843,0s6.283,2.03,8.17,3.821C69.867,5.58,71.464,7.094,74.8,7.094S79.742,5.58,81.6,3.821C83.486,2.03,85.624,0,89.769,0V2.007c-3.34,0-4.941,1.517-6.8,3.27C81.084,7.072,78.943,9.1,74.8,9.1" transform="translate(0.818 10.81)" fill="#efb499"/>
                <path id="Trazado_873378" data-name="Trazado 873378" d="M74.8,9.1c-4.139,0-6.28-2.03-8.17-3.821-1.855-1.756-3.452-3.27-6.792-3.27s-4.937,1.514-6.789,3.27C51.164,7.069,49.023,9.1,44.881,9.1s-6.28-2.03-8.169-3.821c-1.855-1.756-3.452-3.27-6.792-3.27s-4.937,1.514-6.789,3.267C21.245,7.069,19.1,9.1,14.962,9.1S8.678,7.069,6.789,5.278C4.937,3.522,3.34,2.007,0,2.007V0C4.139,0,6.283,2.03,8.17,3.821c1.855,1.756,3.452,3.27,6.792,3.27S19.9,5.577,21.75,3.821C23.64,2.03,25.781,0,29.92,0s6.28,2.03,8.173,3.821c1.852,1.756,3.449,3.27,6.789,3.27s4.937-1.514,6.792-3.27C53.563,2.03,55.7,0,59.843,0s6.28,2.03,8.17,3.821c1.855,1.756,3.452,3.27,6.792,3.27s4.937-1.514,6.792-3.27C83.486,2.03,85.627,0,89.769,0V2.007c-3.344,0-4.941,1.514-6.8,3.27C81.084,7.069,78.943,9.1,74.8,9.1" transform="translate(0 0.003)" fill="#efb499"/>
              </g>
            </g>
          </g>
          <circle id="Elipse_11504" data-name="Elipse 11504" cx="51.5" cy="51.5" r="51.5" transform="translate(15.095 18)" fill="#ffce73"/>
          <circle id="Elipse_11503" data-name="Elipse 11503" cx="53.5" cy="53.5" r="53.5" transform="translate(8.095 8)" fill="#f3f9ff"/>
        </g>
        <g id="Grupo_1118710" data-name="Grupo 1118710" transform="translate(31.512 35.136)">
          <path id="Trazado_908010" data-name="Trazado 908010" d="M439.116,144h-6.1A1.017,1.017,0,0,0,432,145.017v38.628a1.017,1.017,0,0,0,1.017,1.017h6.1a1.017,1.017,0,0,0,1.017-1.017V145.017A1.017,1.017,0,0,0,439.116,144ZM438.1,182.628h-4.066v-36.6H438.1Z" transform="translate(-379.141 -131.802)" fill="#7d3a1b"/>
          <path id="Trazado_908011" data-name="Trazado 908011" d="M359.116,240.529a1.017,1.017,0,0,0,1.017-1.017v-30.5A1.017,1.017,0,0,0,359.116,208h-6.1A1.017,1.017,0,0,0,352,209.017v30.5a1.017,1.017,0,0,0,1.017,1.017Zm-5.083-30.5H358.1V238.5h-4.066Z" transform="translate(-309.306 -187.669)" fill="#7d3a1b"/>
          <path id="Trazado_908012" data-name="Trazado 908012" d="M279.116,289.413a1.017,1.017,0,0,0,1.017-1.017v-23.38A1.017,1.017,0,0,0,279.116,264h-6.1A1.017,1.017,0,0,0,272,265.017V288.4a1.017,1.017,0,0,0,1.017,1.017Zm-5.083-23.38H278.1V287.38h-4.066Z" transform="translate(-239.471 -236.554)" fill="#7d3a1b"/>
          <path id="Trazado_908013" data-name="Trazado 908013" d="M199.116,345.281a1.016,1.016,0,0,0,1.017-1.017V329.017A1.017,1.017,0,0,0,199.116,328h-6.1A1.017,1.017,0,0,0,192,329.017v15.248a1.017,1.017,0,0,0,1.017,1.017Zm-5.083-15.248H198.1v13.215h-4.066Z" transform="translate(-169.636 -292.422)" fill="#7d3a1b"/>
          <path id="Trazado_908014" data-name="Trazado 908014" d="M119.116,373.215a1.017,1.017,0,0,0,1.017-1.017V361.017A1.017,1.017,0,0,0,119.116,360h-6.1A1.017,1.017,0,0,0,112,361.017V372.2a1.017,1.017,0,0,0,1.017,1.017Zm-5.083-11.182H118.1v9.149h-4.066Z" transform="translate(-99.802 -320.355)" fill="#7d3a1b"/>
          <path id="Trazado_908015" data-name="Trazado 908015" d="M39.116,408.132a1.016,1.016,0,0,0,1.017-1.017v-6.1A1.017,1.017,0,0,0,39.116,400h-6.1A1.017,1.017,0,0,0,32,401.017v6.1a1.017,1.017,0,0,0,1.017,1.017Zm-5.083-6.1H38.1V406.1H34.033Z" transform="translate(-29.967 -355.273)" fill="#7d3a1b"/>
          <path id="Trazado_908016" data-name="Trazado 908016" d="M195.05,116.066h2.033a1.017,1.017,0,0,0,0-2.033h-1.017v-1.017a1.017,1.017,0,1,0-2.033,0v1.191a3.05,3.05,0,0,0,1.017,5.924,1.017,1.017,0,0,1,0,2.033h-2.033a1.017,1.017,0,1,0,0,2.033h1.017v1.017a1.017,1.017,0,1,0,2.033,0v-1.191a3.05,3.05,0,0,0-1.017-5.924,1.017,1.017,0,0,1,0-2.033Z" transform="translate(-169.636 -103.868)" fill="#7d3a1b"/>
          <path id="Trazado_908017" data-name="Trazado 908017" d="M75.975,48h-6.1a1.017,1.017,0,0,0,0,2.033h3.645L59.289,64.264H53.569c.028-.335.043-.674.043-1.017a12.2,12.2,0,1,0-14.444,11.99l-4.274,4.274H27.182a1.017,1.017,0,0,0-.719.3L16.3,89.975a1.017,1.017,0,0,0,1.438,1.438L27.6,81.545h7.711a1.017,1.017,0,0,0,.719-.3l5.81-5.81A12.222,12.222,0,0,0,53.225,66.3h6.485a1.017,1.017,0,0,0,.719-.3L74.958,51.471v3.645a1.017,1.017,0,1,0,2.033,0v-6.1A1.017,1.017,0,0,0,75.975,48ZM41.413,73.413A10.165,10.165,0,1,1,51.578,63.248,10.165,10.165,0,0,1,41.413,73.413Z" transform="translate(-16 -48)" fill="#7d3a1b"/>
        </g>
      </g>
    </g>
  </g>
</svg>
