<svg xmlns="http://www.w3.org/2000/svg" xmlns:xlink="http://www.w3.org/1999/xlink" width="190" height="144" viewBox="0 0 190 144">
  <defs>
    <clipPath id="clip-path">
      <rect id="Rectángulo_400938" data-name="Rectángulo 400938" width="121" height="121" transform="translate(0.095)" fill="none"/>
    </clipPath>
    <clipPath id="clip-path-2">
      <rect id="Rectángulo_401073" data-name="Rectángulo 401073" width="92.219" height="41.532" fill="#efb499"/>
    </clipPath>
  </defs>
  <g id="img6" transform="translate(-0.095 0)">
    <rect id="Rectángulo_408810" data-name="Rectángulo 408810" width="190" height="144" transform="translate(0.095 0)" fill="#ffe2b7"/>
    <g id="Grupo_1120372" data-name="Grupo 1120372" transform="translate(34 11)">
      <g id="Grupo_1118702" data-name="Grupo 1118702">
        <g id="Grupo_1099379" data-name="Grupo 1099379" transform="translate(0 0)">
          <rect id="Rectángulo_401103" data-name="Rectángulo 401103" width="123" height="123" transform="translate(0.095)" fill="none"/>
          <g id="Grupo_1099348" data-name="Grupo 1099348" transform="translate(0 0)">
            <g id="Grupo_1099282" data-name="Grupo 1099282">
              <g id="Grupo_1099281" data-name="Grupo 1099281" clip-path="url(#clip-path-2)">
                <path id="Trazado_873375" data-name="Trazado 873375" d="M74.8,9.1c-4.139,0-6.28-2.03-8.17-3.821-1.855-1.756-3.452-3.274-6.792-3.274s-4.937,1.517-6.792,3.274C51.161,7.072,49.023,9.1,44.881,9.1s-6.28-2.03-8.169-3.821C34.857,3.525,33.26,2.007,29.92,2.007s-4.937,1.517-6.789,3.274C21.241,7.072,19.1,9.1,14.962,9.1S8.679,7.072,6.789,5.281C4.937,3.525,3.34,2.007,0,2.007V0C4.139,0,6.28,2.033,8.17,3.821c1.855,1.759,3.452,3.274,6.792,3.274S19.9,5.58,21.75,3.824C23.637,2.033,25.781,0,29.92,0s6.283,2.033,8.17,3.821c1.855,1.759,3.452,3.274,6.792,3.274s4.937-1.514,6.792-3.274C53.56,2.033,55.7,0,59.843,0s6.283,2.033,8.17,3.821C69.867,5.58,71.464,7.094,74.8,7.094S79.742,5.58,81.6,3.821C83.483,2.033,85.624,0,89.766,0V2.007c-3.34,0-4.937,1.517-6.792,3.274C81.084,7.072,78.943,9.1,74.8,9.1" transform="translate(2.453 32.43)" fill="#efb499"/>
                <path id="Trazado_873376" data-name="Trazado 873376" d="M74.8,9.1c-4.139,0-6.283-2.03-8.17-3.824-1.855-1.756-3.452-3.27-6.792-3.27s-4.937,1.514-6.792,3.27C51.164,7.072,49.023,9.1,44.881,9.1s-6.283-2.03-8.17-3.824c-1.855-1.756-3.452-3.27-6.792-3.27s-4.937,1.517-6.789,3.27C21.241,7.072,19.1,9.1,14.962,9.1S8.679,7.072,6.789,5.278C4.937,3.522,3.34,2.007,0,2.007V0C4.139,0,6.283,2.03,8.17,3.821c1.855,1.759,3.452,3.274,6.792,3.274S19.9,5.58,21.75,3.821C23.637,2.03,25.781,0,29.92,0S36.2,2.03,38.093,3.821c1.852,1.759,3.449,3.274,6.789,3.274s4.937-1.514,6.792-3.274C53.56,2.03,55.7,0,59.843,0s6.283,2.03,8.17,3.821C69.867,5.58,71.464,7.094,74.8,7.094S79.742,5.58,81.6,3.821C83.486,2.03,85.627,0,89.769,0V2.007c-3.34,0-4.94,1.517-6.8,3.27C81.084,7.072,78.943,9.1,74.8,9.1" transform="translate(1.635 21.62)" fill="#efb499"/>
                <path id="Trazado_873377" data-name="Trazado 873377" d="M74.8,9.1c-4.139,0-6.283-2.03-8.169-3.824-1.855-1.756-3.452-3.27-6.792-3.27s-4.937,1.514-6.792,3.27C51.164,7.072,49.02,9.1,44.881,9.1s-6.283-2.03-8.17-3.824c-1.855-1.756-3.452-3.27-6.792-3.27s-4.937,1.517-6.789,3.27C21.241,7.072,19.1,9.1,14.962,9.1S8.678,7.072,6.789,5.278C4.937,3.522,3.34,2.007,0,2.007V0C4.139,0,6.283,2.03,8.169,3.821c1.851,1.759,3.452,3.274,6.792,3.274S19.9,5.58,21.75,3.821C23.637,2.03,25.781,0,29.92,0S36.2,2.03,38.093,3.821c1.852,1.759,3.449,3.274,6.789,3.274s4.937-1.514,6.792-3.274C53.56,2.03,55.7,0,59.843,0s6.283,2.03,8.17,3.821C69.867,5.58,71.464,7.094,74.8,7.094S79.742,5.58,81.6,3.821C83.486,2.03,85.624,0,89.769,0V2.007c-3.34,0-4.941,1.517-6.8,3.27C81.084,7.072,78.943,9.1,74.8,9.1" transform="translate(0.818 10.81)" fill="#efb499"/>
                <path id="Trazado_873378" data-name="Trazado 873378" d="M74.8,9.1c-4.139,0-6.28-2.03-8.17-3.821-1.855-1.756-3.452-3.27-6.792-3.27s-4.937,1.514-6.789,3.27C51.164,7.069,49.023,9.1,44.881,9.1s-6.28-2.03-8.169-3.821c-1.855-1.756-3.452-3.27-6.792-3.27s-4.937,1.514-6.789,3.267C21.245,7.069,19.1,9.1,14.962,9.1S8.678,7.069,6.789,5.278C4.937,3.522,3.34,2.007,0,2.007V0C4.139,0,6.283,2.03,8.17,3.821c1.855,1.756,3.452,3.27,6.792,3.27S19.9,5.577,21.75,3.821C23.64,2.03,25.781,0,29.92,0s6.28,2.03,8.173,3.821c1.852,1.756,3.449,3.27,6.789,3.27s4.937-1.514,6.792-3.27C53.563,2.03,55.7,0,59.843,0s6.28,2.03,8.17,3.821c1.855,1.756,3.452,3.27,6.792,3.27s4.937-1.514,6.792-3.27C83.486,2.03,85.627,0,89.769,0V2.007c-3.344,0-4.941,1.514-6.8,3.27C81.084,7.069,78.943,9.1,74.8,9.1" transform="translate(0 0.003)" fill="#efb499"/>
              </g>
            </g>
          </g>
          <circle id="Elipse_11504" data-name="Elipse 11504" cx="51.5" cy="51.5" r="51.5" transform="translate(15.095 18)" fill="#ffce73"/>
          <circle id="Elipse_11503" data-name="Elipse 11503" cx="53.5" cy="53.5" r="53.5" transform="translate(8.095 8)" fill="#f3f9ff"/>
        </g>
        <g id="Grupo_1118711" data-name="Grupo 1118711" transform="translate(30.833 31.161)">
          <path id="Trazado_908019" data-name="Trazado 908019" d="M17.789,5A12.789,12.789,0,1,0,30.577,17.789,12.8,12.8,0,0,0,17.789,5Zm0,23.61A10.821,10.821,0,1,1,28.457,16.054L21.7,23.261l-4.488-4.489H10.9V20.74h5.5l5.35,5.35,6.81-7.265A10.834,10.834,0,0,1,17.789,28.61Z" transform="translate(-1.065 -1.065)" fill="#7d3a1b"/>
          <path id="Trazado_908020" data-name="Trazado 908020" d="M17,49h1.967v1.967H17Z" transform="translate(-1.26 -1.781)" fill="#7d3a1b"/>
          <path id="Trazado_908021" data-name="Trazado 908021" d="M17,53h1.967v1.967H17Z" transform="translate(-1.26 -1.846)" fill="#7d3a1b"/>
          <path id="Trazado_908022" data-name="Trazado 908022" d="M17,57h1.967v1.967H17Z" transform="translate(-1.26 -1.911)" fill="#7d3a1b"/>
          <path id="Trazado_908023" data-name="Trazado 908023" d="M54.512,60.447H52.545V32.9h-7.87V60.447H42.707V36.837h-7.87v23.61H32.87V40.772H25V62.415H62.382V27h-7.87Zm-23.61,0H26.967V42.74H30.9ZM46.642,34.87h3.935V60.447H46.642ZM36.8,38.8H40.74V60.447H36.8ZM56.48,28.967h3.935v31.48H56.48Z" transform="translate(-1.39 -1.423)" fill="#7d3a1b"/>
          <path id="Trazado_908024" data-name="Trazado 908024" d="M9,15h1.967v1.967H9Z" transform="translate(-1.13 -1.228)" fill="#7d3a1b"/>
          <path id="Trazado_908025" data-name="Trazado 908025" d="M17,15h1.967v1.967H17Z" transform="translate(-1.26 -1.228)" fill="#7d3a1b"/>
          <path id="Trazado_908026" data-name="Trazado 908026" d="M13,15h1.967v1.967H13Z" transform="translate(-1.195 -1.228)" fill="#7d3a1b"/>
          <path id="Trazado_908027" data-name="Trazado 908027" d="M25,15h1.967v1.967H25Z" transform="translate(-1.39 -1.228)" fill="#7d3a1b"/>
          <path id="Trazado_908028" data-name="Trazado 908028" d="M21,15h1.967v1.967H21Z" transform="translate(-1.325 -1.228)" fill="#7d3a1b"/>
          <path id="Trazado_908029" data-name="Trazado 908029" d="M60.024,16.74v-5.9H58.057v5.9H56.089V14.772H54.122V16.74H52.154v-5.9H50.187v5.9H48.219V12.8H46.252V16.74H44.726L36.433,7.411l-3.394,3.62A16.716,16.716,0,1,0,13.789,33.96v5.189a2.934,2.934,0,0,0-.984,2.184v15.74a4.919,4.919,0,1,0,9.837,0V41.333a2.936,2.936,0,0,0-.984-2.184V33.96A16.658,16.658,0,0,0,33.786,13.112l2.61-2.783,7.447,8.378H61.992V16.74ZM20.675,57.073a2.951,2.951,0,1,1-5.9,0V41.333a.984.984,0,0,1,.984-.984h3.935a.984.984,0,0,1,.984.984Zm-.984-18.691H15.756V34.321a16.86,16.86,0,0,0,1.967.126,16.86,16.86,0,0,0,1.967-.126Zm-1.967-5.9A14.756,14.756,0,1,1,32.48,17.724,14.773,14.773,0,0,1,17.724,32.48Z" transform="translate(-1 -1)" fill="#7d3a1b"/>
        </g>
      </g>
    </g>
  </g>
</svg>
