<svg xmlns="http://www.w3.org/2000/svg" width="780" height="370" viewBox="0 0 780 370">
  <g id="img6" transform="translate(4842 10169)">
    <path id="Trazado_908601" data-name="Trazado 908601" d="M10,0H770a10,10,0,0,1,10,10V360a10,10,0,0,1-10,10H10A10,10,0,0,1,0,360V10A10,10,0,0,1,10,0Z" transform="translate(-4842 -10169)" fill="#fef7eb"/>
    <g id="Grupo_1118017" data-name="Grupo 1118017" transform="translate(430 -588.925)">
      <g id="Grupo_1117972" data-name="Grupo 1117972" transform="translate(-6142.249 -11136.539)">
        <rect id="Rectángulo_408520" data-name="Rectángulo 408520" width="120" height="50" rx="10" transform="translate(905.249 1716.539)" fill="#ffce73"/>
        <path id="Trazado_908600" data-name="Trazado 908600" d="M27.728,17H25.091V4.2h2.637Zm4.614-9.51.079,1.1a3.32,3.32,0,0,1,2.733-1.274A2.759,2.759,0,0,1,37.4,8.2a4.142,4.142,0,0,1,.756,2.654V17H35.62V10.918a1.648,1.648,0,0,0-.352-1.173A1.574,1.574,0,0,0,34.1,9.38a1.747,1.747,0,0,0-1.608.914V17h-2.54V7.49ZM42.766,17H40.217V7.49h2.549Zm-2.7-11.971a1.251,1.251,0,0,1,.382-.94,1.648,1.648,0,0,1,2.079,0,1.244,1.244,0,0,1,.387.94,1.247,1.247,0,0,1-.391.949,1.629,1.629,0,0,1-2.065,0A1.247,1.247,0,0,1,40.067,5.029Zm8.745,10.1a1.666,1.666,0,0,0,1.143-.387,1.355,1.355,0,0,0,.457-1.028h2.382a3.258,3.258,0,0,1-.527,1.771,3.48,3.48,0,0,1-1.419,1.248,4.442,4.442,0,0,1-1.991.444,4.129,4.129,0,0,1-3.217-1.3A5.13,5.13,0,0,1,44.462,12.3v-.167a5.071,5.071,0,0,1,1.169-3.507,4.08,4.08,0,0,1,3.208-1.31A4,4,0,0,1,51.7,8.33a3.594,3.594,0,0,1,1.094,2.7H50.412a1.745,1.745,0,0,0-.457-1.206,1.7,1.7,0,0,0-2.5.183,3.749,3.749,0,0,0-.453,2.1v.264a3.8,3.8,0,0,0,.448,2.113A1.549,1.549,0,0,0,48.813,15.128ZM56.925,17H54.376V7.49h2.549Zm-2.7-11.971a1.251,1.251,0,0,1,.382-.94,1.648,1.648,0,0,1,2.079,0,1.244,1.244,0,0,1,.387.94,1.247,1.247,0,0,1-.391.949,1.629,1.629,0,0,1-2.065,0A1.247,1.247,0,0,1,54.227,5.029Zm4.395,7.128a5.64,5.64,0,0,1,.545-2.522,3.989,3.989,0,0,1,1.569-1.714,4.577,4.577,0,0,1,2.377-.606,4.33,4.33,0,0,1,3.142,1.178,4.727,4.727,0,0,1,1.358,3.2l.018.65a4.97,4.97,0,0,1-1.222,3.511,4.735,4.735,0,0,1-6.561,0,5.058,5.058,0,0,1-1.226-3.586Zm2.54.18a3.555,3.555,0,0,0,.51,2.073,1.831,1.831,0,0,0,2.9.009,3.89,3.89,0,0,0,.519-2.267,3.519,3.519,0,0,0-.519-2.06,1.686,1.686,0,0,0-1.459-.731,1.658,1.658,0,0,0-1.441.726A3.955,3.955,0,0,0,61.161,12.338Z" transform="translate(919.249 1730.539)" fill="#12263f"/>
      </g>
      <g id="Grupo_1118005" data-name="Grupo 1118005" transform="translate(-5532.249 -11135.539)">
        <rect id="Rectángulo_408520-2" data-name="Rectángulo 408520" width="100" height="50" rx="10" transform="translate(905.249 1716.539)" fill="#ffce73"/>
        <path id="Trazado_908609" data-name="Trazado 908609" d="M32.484,11.771H27.422V17H24.785V4.2h8.332V6.339h-5.7v3.3h5.063ZM37.16,17H34.611V7.49H37.16Zm-2.7-11.971a1.251,1.251,0,0,1,.382-.94,1.648,1.648,0,0,1,2.079,0,1.244,1.244,0,0,1,.387.94,1.247,1.247,0,0,1-.391.949,1.629,1.629,0,0,1-2.065,0A1.247,1.247,0,0,1,34.462,5.029ZM41.59,7.49l.079,1.1A3.32,3.32,0,0,1,44.4,7.314a2.759,2.759,0,0,1,2.25.888,4.142,4.142,0,0,1,.756,2.654V17h-2.54V10.918a1.648,1.648,0,0,0-.352-1.173,1.574,1.574,0,0,0-1.169-.365,1.747,1.747,0,0,0-1.608.914V17H39.2V7.49Z" transform="translate(919.249 1730.539)" fill="#12263f"/>
      </g>
      <g id="Grupo_1117998" data-name="Grupo 1117998" transform="translate(-5116.71 -9490)">
        <rect id="Rectángulo_408520-3" data-name="Rectángulo 408520" width="120" height="40" rx="10" transform="translate(-0.29)" fill="#fecab2"/>
        <path id="Trazado_908602" data-name="Trazado 908602" d="M13.814,13.651H8.452L7.248,17H5.508L10.395,4.2h1.477l4.9,12.8H15.035Zm-4.852-1.38h4.351l-2.18-5.985Zm13.087,3.577a2.342,2.342,0,0,0,1.521-.527A1.855,1.855,0,0,0,24.29,14h1.538a2.949,2.949,0,0,1-.562,1.556,3.7,3.7,0,0,1-1.384,1.178,3.994,3.994,0,0,1-1.833.439,3.918,3.918,0,0,1-3.089-1.3,5.163,5.163,0,0,1-1.147-3.546v-.272a5.725,5.725,0,0,1,.51-2.47,3.883,3.883,0,0,1,1.463-1.679,4.157,4.157,0,0,1,2.254-.6,3.814,3.814,0,0,1,2.659.958,3.424,3.424,0,0,1,1.129,2.487H24.29a2.241,2.241,0,0,0-.7-1.516A2.174,2.174,0,0,0,22.04,8.65a2.276,2.276,0,0,0-1.92.892,4.19,4.19,0,0,0-.681,2.58v.308a4.106,4.106,0,0,0,.677,2.531A2.287,2.287,0,0,0,22.049,15.849ZM29.862,5.188v2.3h1.775V8.747H29.862v5.9a1.32,1.32,0,0,0,.237.858,1,1,0,0,0,.809.286,3.937,3.937,0,0,0,.773-.105V17a4.742,4.742,0,0,1-1.248.175,2.025,2.025,0,0,1-1.644-.659,2.832,2.832,0,0,1-.554-1.872v-5.9H26.5V7.49h1.731v-2.3ZM35.3,17H33.677V7.49H35.3ZM33.545,4.968a.971.971,0,0,1,.242-.668.907.907,0,0,1,.716-.272.922.922,0,0,1,.721.272.96.96,0,0,1,.246.668.929.929,0,0,1-.246.659.938.938,0,0,1-.721.264.924.924,0,0,1-.716-.264A.938.938,0,0,1,33.545,4.968Zm7.5,9.826L43.4,7.49h1.661L41.648,17H40.409L36.964,7.49h1.661ZM48.39,17H46.764V7.49H48.39ZM46.632,4.968a.971.971,0,0,1,.242-.668.907.907,0,0,1,.716-.272.922.922,0,0,1,.721.272.96.96,0,0,1,.246.668.929.929,0,0,1-.246.659.938.938,0,0,1-.721.264.924.924,0,0,1-.716-.264A.938.938,0,0,1,46.632,4.968Zm3.964,7.2a5.571,5.571,0,0,1,1.037-3.52,3.529,3.529,0,0,1,5.361-.189V3.5H58.62V17H57.126l-.079-1.02a3.311,3.311,0,0,1-2.716,1.2,3.248,3.248,0,0,1-2.694-1.354A5.634,5.634,0,0,1,50.6,12.289Zm1.626.185a4.218,4.218,0,0,0,.668,2.531,2.159,2.159,0,0,0,1.846.914,2.372,2.372,0,0,0,2.259-1.389V10.039a2.39,2.39,0,0,0-2.241-1.345,2.17,2.17,0,0,0-1.863.923A4.644,4.644,0,0,0,52.222,12.351ZM67.014,17a3.415,3.415,0,0,1-.229-1,3.628,3.628,0,0,1-2.707,1.178,3.357,3.357,0,0,1-2.307-.8,2.573,2.573,0,0,1-.9-2.017A2.688,2.688,0,0,1,62,12.056a5.325,5.325,0,0,1,3.177-.822h1.582v-.747a1.826,1.826,0,0,0-.51-1.358,2.049,2.049,0,0,0-1.5-.505,2.371,2.371,0,0,0-1.459.439,1.3,1.3,0,0,0-.589,1.063H61.064a2.244,2.244,0,0,1,.505-1.375A3.449,3.449,0,0,1,62.94,7.7a4.613,4.613,0,0,1,1.9-.387,3.76,3.76,0,0,1,2.575.822,2.964,2.964,0,0,1,.967,2.263v4.377a5.351,5.351,0,0,0,.334,2.083V17Zm-2.7-1.239a2.858,2.858,0,0,0,1.45-.4,2.392,2.392,0,0,0,.993-1.028V12.386H65.484q-2.988,0-2.988,1.749a1.48,1.48,0,0,0,.51,1.2A1.959,1.959,0,0,0,64.315,15.761Zm6.223-3.595a5.571,5.571,0,0,1,1.037-3.52,3.529,3.529,0,0,1,5.361-.189V3.5h1.626V17H77.068l-.079-1.02a3.311,3.311,0,0,1-2.716,1.2,3.248,3.248,0,0,1-2.694-1.354,5.634,5.634,0,0,1-1.042-3.533Zm1.626.185a4.218,4.218,0,0,0,.668,2.531,2.159,2.159,0,0,0,1.846.914,2.372,2.372,0,0,0,2.259-1.389V10.039A2.39,2.39,0,0,0,74.7,8.694a2.17,2.17,0,0,0-1.863.923A4.644,4.644,0,0,0,72.164,12.351ZM90.718,17H89.083V6.163L85.8,7.367V5.891l4.658-1.749h.255Z" transform="translate(9.641 9)" fill="#12263f"/>
      </g>
      <g id="Grupo_1118001" data-name="Grupo 1118001" transform="translate(-4956.71 -9490)">
        <rect id="Rectángulo_408520-4" data-name="Rectángulo 408520" width="120" height="40" rx="10" transform="translate(-0.29)" fill="#fecab2"/>
        <path id="Trazado_908603" data-name="Trazado 908603" d="M13.814,13.651H8.452L7.248,17H5.508L10.395,4.2h1.477l4.9,12.8H15.035Zm-4.852-1.38h4.351l-2.18-5.985Zm13.087,3.577a2.342,2.342,0,0,0,1.521-.527A1.855,1.855,0,0,0,24.29,14h1.538a2.949,2.949,0,0,1-.562,1.556,3.7,3.7,0,0,1-1.384,1.178,3.994,3.994,0,0,1-1.833.439,3.918,3.918,0,0,1-3.089-1.3,5.163,5.163,0,0,1-1.147-3.546v-.272a5.725,5.725,0,0,1,.51-2.47,3.883,3.883,0,0,1,1.463-1.679,4.157,4.157,0,0,1,2.254-.6,3.814,3.814,0,0,1,2.659.958,3.424,3.424,0,0,1,1.129,2.487H24.29a2.241,2.241,0,0,0-.7-1.516A2.174,2.174,0,0,0,22.04,8.65a2.276,2.276,0,0,0-1.92.892,4.19,4.19,0,0,0-.681,2.58v.308a4.106,4.106,0,0,0,.677,2.531A2.287,2.287,0,0,0,22.049,15.849ZM29.862,5.188v2.3h1.775V8.747H29.862v5.9a1.32,1.32,0,0,0,.237.858,1,1,0,0,0,.809.286,3.937,3.937,0,0,0,.773-.105V17a4.742,4.742,0,0,1-1.248.175,2.025,2.025,0,0,1-1.644-.659,2.832,2.832,0,0,1-.554-1.872v-5.9H26.5V7.49h1.731v-2.3ZM35.3,17H33.677V7.49H35.3ZM33.545,4.968a.971.971,0,0,1,.242-.668.907.907,0,0,1,.716-.272.922.922,0,0,1,.721.272.96.96,0,0,1,.246.668.929.929,0,0,1-.246.659.938.938,0,0,1-.721.264.924.924,0,0,1-.716-.264A.938.938,0,0,1,33.545,4.968Zm7.5,9.826L43.4,7.49h1.661L41.648,17H40.409L36.964,7.49h1.661ZM48.39,17H46.764V7.49H48.39ZM46.632,4.968a.971.971,0,0,1,.242-.668.907.907,0,0,1,.716-.272.922.922,0,0,1,.721.272.96.96,0,0,1,.246.668.929.929,0,0,1-.246.659.938.938,0,0,1-.721.264.924.924,0,0,1-.716-.264A.938.938,0,0,1,46.632,4.968Zm3.964,7.2a5.571,5.571,0,0,1,1.037-3.52,3.529,3.529,0,0,1,5.361-.189V3.5H58.62V17H57.126l-.079-1.02a3.311,3.311,0,0,1-2.716,1.2,3.248,3.248,0,0,1-2.694-1.354A5.634,5.634,0,0,1,50.6,12.289Zm1.626.185a4.218,4.218,0,0,0,.668,2.531,2.159,2.159,0,0,0,1.846.914,2.372,2.372,0,0,0,2.259-1.389V10.039a2.39,2.39,0,0,0-2.241-1.345,2.17,2.17,0,0,0-1.863.923A4.644,4.644,0,0,0,52.222,12.351ZM67.014,17a3.415,3.415,0,0,1-.229-1,3.628,3.628,0,0,1-2.707,1.178,3.357,3.357,0,0,1-2.307-.8,2.573,2.573,0,0,1-.9-2.017A2.688,2.688,0,0,1,62,12.056a5.325,5.325,0,0,1,3.177-.822h1.582v-.747a1.826,1.826,0,0,0-.51-1.358,2.049,2.049,0,0,0-1.5-.505,2.371,2.371,0,0,0-1.459.439,1.3,1.3,0,0,0-.589,1.063H61.064a2.244,2.244,0,0,1,.505-1.375A3.449,3.449,0,0,1,62.94,7.7a4.613,4.613,0,0,1,1.9-.387,3.76,3.76,0,0,1,2.575.822,2.964,2.964,0,0,1,.967,2.263v4.377a5.351,5.351,0,0,0,.334,2.083V17Zm-2.7-1.239a2.858,2.858,0,0,0,1.45-.4,2.392,2.392,0,0,0,.993-1.028V12.386H65.484q-2.988,0-2.988,1.749a1.48,1.48,0,0,0,.51,1.2A1.959,1.959,0,0,0,64.315,15.761Zm6.223-3.595a5.571,5.571,0,0,1,1.037-3.52,3.529,3.529,0,0,1,5.361-.189V3.5h1.626V17H77.068l-.079-1.02a3.311,3.311,0,0,1-2.716,1.2,3.248,3.248,0,0,1-2.694-1.354,5.634,5.634,0,0,1-1.042-3.533Zm1.626.185a4.218,4.218,0,0,0,.668,2.531,2.159,2.159,0,0,0,1.846.914,2.372,2.372,0,0,0,2.259-1.389V10.039A2.39,2.39,0,0,0,74.7,8.694a2.17,2.17,0,0,0-1.863.923A4.644,4.644,0,0,0,72.164,12.351Zm15.574-2.54H88.96A2.685,2.685,0,0,0,90.771,9.2a2.026,2.026,0,0,0,.659-1.591,1.985,1.985,0,0,0-2.241-2.25,2.331,2.331,0,0,0-1.683.6,2.107,2.107,0,0,0-.628,1.6H85.251a3.264,3.264,0,0,1,1.112-2.527,4.05,4.05,0,0,1,2.826-1.006,4,4,0,0,1,2.839.958,3.461,3.461,0,0,1,1.028,2.663,2.809,2.809,0,0,1-.541,1.617,3.264,3.264,0,0,1-1.472,1.169,3.145,3.145,0,0,1,1.63,1.107,3.076,3.076,0,0,1,.576,1.89,3.491,3.491,0,0,1-1.125,2.733A4.213,4.213,0,0,1,89.2,17.176a4.324,4.324,0,0,1-2.931-.976,3.236,3.236,0,0,1-1.129-2.575h1.635a2.092,2.092,0,0,0,.659,1.617,2.507,2.507,0,0,0,1.767.606,2.46,2.46,0,0,0,1.8-.615,2.371,2.371,0,0,0,.624-1.767,2.151,2.151,0,0,0-.686-1.714,2.987,2.987,0,0,0-1.978-.615H87.738Z" transform="translate(9.641 9)" fill="#12263f"/>
      </g>
      <g id="Grupo_1118002" data-name="Grupo 1118002" transform="translate(-4796.71 -9490)">
        <rect id="Rectángulo_408520-5" data-name="Rectángulo 408520" width="120" height="40" rx="10" transform="translate(-0.29)" fill="#fecab2"/>
        <path id="Trazado_908604" data-name="Trazado 908604" d="M13.814,13.651H8.452L7.248,17H5.508L10.395,4.2h1.477l4.9,12.8H15.035Zm-4.852-1.38h4.351l-2.18-5.985Zm13.087,3.577a2.342,2.342,0,0,0,1.521-.527A1.855,1.855,0,0,0,24.29,14h1.538a2.949,2.949,0,0,1-.562,1.556,3.7,3.7,0,0,1-1.384,1.178,3.994,3.994,0,0,1-1.833.439,3.918,3.918,0,0,1-3.089-1.3,5.163,5.163,0,0,1-1.147-3.546v-.272a5.725,5.725,0,0,1,.51-2.47,3.883,3.883,0,0,1,1.463-1.679,4.157,4.157,0,0,1,2.254-.6,3.814,3.814,0,0,1,2.659.958,3.424,3.424,0,0,1,1.129,2.487H24.29a2.241,2.241,0,0,0-.7-1.516A2.174,2.174,0,0,0,22.04,8.65a2.276,2.276,0,0,0-1.92.892,4.19,4.19,0,0,0-.681,2.58v.308a4.106,4.106,0,0,0,.677,2.531A2.287,2.287,0,0,0,22.049,15.849ZM29.862,5.188v2.3h1.775V8.747H29.862v5.9a1.32,1.32,0,0,0,.237.858,1,1,0,0,0,.809.286,3.937,3.937,0,0,0,.773-.105V17a4.742,4.742,0,0,1-1.248.175,2.025,2.025,0,0,1-1.644-.659,2.832,2.832,0,0,1-.554-1.872v-5.9H26.5V7.49h1.731v-2.3ZM35.3,17H33.677V7.49H35.3ZM33.545,4.968a.971.971,0,0,1,.242-.668.907.907,0,0,1,.716-.272.922.922,0,0,1,.721.272.96.96,0,0,1,.246.668.929.929,0,0,1-.246.659.938.938,0,0,1-.721.264.924.924,0,0,1-.716-.264A.938.938,0,0,1,33.545,4.968Zm7.5,9.826L43.4,7.49h1.661L41.648,17H40.409L36.964,7.49h1.661ZM48.39,17H46.764V7.49H48.39ZM46.632,4.968a.971.971,0,0,1,.242-.668.907.907,0,0,1,.716-.272.922.922,0,0,1,.721.272.96.96,0,0,1,.246.668.929.929,0,0,1-.246.659.938.938,0,0,1-.721.264.924.924,0,0,1-.716-.264A.938.938,0,0,1,46.632,4.968Zm3.964,7.2a5.571,5.571,0,0,1,1.037-3.52,3.529,3.529,0,0,1,5.361-.189V3.5H58.62V17H57.126l-.079-1.02a3.311,3.311,0,0,1-2.716,1.2,3.248,3.248,0,0,1-2.694-1.354A5.634,5.634,0,0,1,50.6,12.289Zm1.626.185a4.218,4.218,0,0,0,.668,2.531,2.159,2.159,0,0,0,1.846.914,2.372,2.372,0,0,0,2.259-1.389V10.039a2.39,2.39,0,0,0-2.241-1.345,2.17,2.17,0,0,0-1.863.923A4.644,4.644,0,0,0,52.222,12.351ZM67.014,17a3.415,3.415,0,0,1-.229-1,3.628,3.628,0,0,1-2.707,1.178,3.357,3.357,0,0,1-2.307-.8,2.573,2.573,0,0,1-.9-2.017A2.688,2.688,0,0,1,62,12.056a5.325,5.325,0,0,1,3.177-.822h1.582v-.747a1.826,1.826,0,0,0-.51-1.358,2.049,2.049,0,0,0-1.5-.505,2.371,2.371,0,0,0-1.459.439,1.3,1.3,0,0,0-.589,1.063H61.064a2.244,2.244,0,0,1,.505-1.375A3.449,3.449,0,0,1,62.94,7.7a4.613,4.613,0,0,1,1.9-.387,3.76,3.76,0,0,1,2.575.822,2.964,2.964,0,0,1,.967,2.263v4.377a5.351,5.351,0,0,0,.334,2.083V17Zm-2.7-1.239a2.858,2.858,0,0,0,1.45-.4,2.392,2.392,0,0,0,.993-1.028V12.386H65.484q-2.988,0-2.988,1.749a1.48,1.48,0,0,0,.51,1.2A1.959,1.959,0,0,0,64.315,15.761Zm6.223-3.595a5.571,5.571,0,0,1,1.037-3.52,3.529,3.529,0,0,1,5.361-.189V3.5h1.626V17H77.068l-.079-1.02a3.311,3.311,0,0,1-2.716,1.2,3.248,3.248,0,0,1-2.694-1.354,5.634,5.634,0,0,1-1.042-3.533Zm1.626.185a4.218,4.218,0,0,0,.668,2.531,2.159,2.159,0,0,0,1.846.914,2.372,2.372,0,0,0,2.259-1.389V10.039A2.39,2.39,0,0,0,74.7,8.694a2.17,2.17,0,0,0-1.863.923A4.644,4.644,0,0,0,72.164,12.351Zm13.957-1.767.65-6.381h6.557v1.5H88.151L87.765,9.2A4.13,4.13,0,0,1,89.9,8.642,3.531,3.531,0,0,1,92.678,9.8a4.53,4.53,0,0,1,1.028,3.125,4.372,4.372,0,0,1-1.068,3.116,3.892,3.892,0,0,1-2.984,1.138,4.045,4.045,0,0,1-2.769-.94,3.754,3.754,0,0,1-1.222-2.6H87.2a2.582,2.582,0,0,0,.782,1.657,2.432,2.432,0,0,0,1.67.558,2.194,2.194,0,0,0,1.78-.773,3.233,3.233,0,0,0,.646-2.136,2.968,2.968,0,0,0-.7-2.061,2.377,2.377,0,0,0-1.859-.778,2.681,2.681,0,0,0-1.67.466l-.431.352Z" transform="translate(9.641 9)" fill="#12263f"/>
      </g>
      <g id="Grupo_1118003" data-name="Grupo 1118003" transform="translate(-4796.71 -9414)">
        <rect id="Rectángulo_408520-6" data-name="Rectángulo 408520" width="120" height="40" rx="10" transform="translate(-0.29)" fill="#fecab2"/>
        <path id="Trazado_908605" data-name="Trazado 908605" d="M13.814,13.651H8.452L7.248,17H5.508L10.395,4.2h1.477l4.9,12.8H15.035Zm-4.852-1.38h4.351l-2.18-5.985Zm13.087,3.577a2.342,2.342,0,0,0,1.521-.527A1.855,1.855,0,0,0,24.29,14h1.538a2.949,2.949,0,0,1-.562,1.556,3.7,3.7,0,0,1-1.384,1.178,3.994,3.994,0,0,1-1.833.439,3.918,3.918,0,0,1-3.089-1.3,5.163,5.163,0,0,1-1.147-3.546v-.272a5.725,5.725,0,0,1,.51-2.47,3.883,3.883,0,0,1,1.463-1.679,4.157,4.157,0,0,1,2.254-.6,3.814,3.814,0,0,1,2.659.958,3.424,3.424,0,0,1,1.129,2.487H24.29a2.241,2.241,0,0,0-.7-1.516A2.174,2.174,0,0,0,22.04,8.65a2.276,2.276,0,0,0-1.92.892,4.19,4.19,0,0,0-.681,2.58v.308a4.106,4.106,0,0,0,.677,2.531A2.287,2.287,0,0,0,22.049,15.849ZM29.862,5.188v2.3h1.775V8.747H29.862v5.9a1.32,1.32,0,0,0,.237.858,1,1,0,0,0,.809.286,3.937,3.937,0,0,0,.773-.105V17a4.742,4.742,0,0,1-1.248.175,2.025,2.025,0,0,1-1.644-.659,2.832,2.832,0,0,1-.554-1.872v-5.9H26.5V7.49h1.731v-2.3ZM35.3,17H33.677V7.49H35.3ZM33.545,4.968a.971.971,0,0,1,.242-.668.907.907,0,0,1,.716-.272.922.922,0,0,1,.721.272.96.96,0,0,1,.246.668.929.929,0,0,1-.246.659.938.938,0,0,1-.721.264.924.924,0,0,1-.716-.264A.938.938,0,0,1,33.545,4.968Zm7.5,9.826L43.4,7.49h1.661L41.648,17H40.409L36.964,7.49h1.661ZM48.39,17H46.764V7.49H48.39ZM46.632,4.968a.971.971,0,0,1,.242-.668.907.907,0,0,1,.716-.272.922.922,0,0,1,.721.272.96.96,0,0,1,.246.668.929.929,0,0,1-.246.659.938.938,0,0,1-.721.264.924.924,0,0,1-.716-.264A.938.938,0,0,1,46.632,4.968Zm3.964,7.2a5.571,5.571,0,0,1,1.037-3.52,3.529,3.529,0,0,1,5.361-.189V3.5H58.62V17H57.126l-.079-1.02a3.311,3.311,0,0,1-2.716,1.2,3.248,3.248,0,0,1-2.694-1.354A5.634,5.634,0,0,1,50.6,12.289Zm1.626.185a4.218,4.218,0,0,0,.668,2.531,2.159,2.159,0,0,0,1.846.914,2.372,2.372,0,0,0,2.259-1.389V10.039a2.39,2.39,0,0,0-2.241-1.345,2.17,2.17,0,0,0-1.863.923A4.644,4.644,0,0,0,52.222,12.351ZM67.014,17a3.415,3.415,0,0,1-.229-1,3.628,3.628,0,0,1-2.707,1.178,3.357,3.357,0,0,1-2.307-.8,2.573,2.573,0,0,1-.9-2.017A2.688,2.688,0,0,1,62,12.056a5.325,5.325,0,0,1,3.177-.822h1.582v-.747a1.826,1.826,0,0,0-.51-1.358,2.049,2.049,0,0,0-1.5-.505,2.371,2.371,0,0,0-1.459.439,1.3,1.3,0,0,0-.589,1.063H61.064a2.244,2.244,0,0,1,.505-1.375A3.449,3.449,0,0,1,62.94,7.7a4.613,4.613,0,0,1,1.9-.387,3.76,3.76,0,0,1,2.575.822,2.964,2.964,0,0,1,.967,2.263v4.377a5.351,5.351,0,0,0,.334,2.083V17Zm-2.7-1.239a2.858,2.858,0,0,0,1.45-.4,2.392,2.392,0,0,0,.993-1.028V12.386H65.484q-2.988,0-2.988,1.749a1.48,1.48,0,0,0,.51,1.2A1.959,1.959,0,0,0,64.315,15.761Zm6.223-3.595a5.571,5.571,0,0,1,1.037-3.52,3.529,3.529,0,0,1,5.361-.189V3.5h1.626V17H77.068l-.079-1.02a3.311,3.311,0,0,1-2.716,1.2,3.248,3.248,0,0,1-2.694-1.354,5.634,5.634,0,0,1-1.042-3.533Zm1.626.185a4.218,4.218,0,0,0,.668,2.531,2.159,2.159,0,0,0,1.846.914,2.372,2.372,0,0,0,2.259-1.389V10.039A2.39,2.39,0,0,0,74.7,8.694a2.17,2.17,0,0,0-1.863.923A4.644,4.644,0,0,0,72.164,12.351ZM91.755,4.194v1.38h-.3A4.281,4.281,0,0,0,88.433,6.7a4.681,4.681,0,0,0-1.3,3.067,3.471,3.471,0,0,1,2.76-1.16,3.319,3.319,0,0,1,2.667,1.178,4.543,4.543,0,0,1,1,3.041,4.528,4.528,0,0,1-1.077,3.164,3.707,3.707,0,0,1-2.887,1.187,3.653,3.653,0,0,1-2.979-1.411,5.591,5.591,0,0,1-1.143-3.634v-.624a8.424,8.424,0,0,1,1.507-5.4,5.536,5.536,0,0,1,4.487-1.912ZM89.619,9.96a2.733,2.733,0,0,0-2.514,1.758v.6a4.2,4.2,0,0,0,.712,2.549,2.133,2.133,0,0,0,1.775.967,2.067,2.067,0,0,0,1.727-.809,3.355,3.355,0,0,0,.628-2.118,3.356,3.356,0,0,0-.637-2.131A2.042,2.042,0,0,0,89.619,9.96Z" transform="translate(9.641 9)" fill="#12263f"/>
      </g>
      <g id="Grupo_1118004" data-name="Grupo 1118004" transform="translate(-4796.71 -9340)">
        <rect id="Rectángulo_408520-7" data-name="Rectángulo 408520" width="120" height="40" rx="10" transform="translate(-0.29)" fill="#fecab2"/>
        <path id="Trazado_908606" data-name="Trazado 908606" d="M13.814,13.651H8.452L7.248,17H5.508L10.395,4.2h1.477l4.9,12.8H15.035Zm-4.852-1.38h4.351l-2.18-5.985Zm13.087,3.577a2.342,2.342,0,0,0,1.521-.527A1.855,1.855,0,0,0,24.29,14h1.538a2.949,2.949,0,0,1-.562,1.556,3.7,3.7,0,0,1-1.384,1.178,3.994,3.994,0,0,1-1.833.439,3.918,3.918,0,0,1-3.089-1.3,5.163,5.163,0,0,1-1.147-3.546v-.272a5.725,5.725,0,0,1,.51-2.47,3.883,3.883,0,0,1,1.463-1.679,4.157,4.157,0,0,1,2.254-.6,3.814,3.814,0,0,1,2.659.958,3.424,3.424,0,0,1,1.129,2.487H24.29a2.241,2.241,0,0,0-.7-1.516A2.174,2.174,0,0,0,22.04,8.65a2.276,2.276,0,0,0-1.92.892,4.19,4.19,0,0,0-.681,2.58v.308a4.106,4.106,0,0,0,.677,2.531A2.287,2.287,0,0,0,22.049,15.849ZM29.862,5.188v2.3h1.775V8.747H29.862v5.9a1.32,1.32,0,0,0,.237.858,1,1,0,0,0,.809.286,3.937,3.937,0,0,0,.773-.105V17a4.742,4.742,0,0,1-1.248.175,2.025,2.025,0,0,1-1.644-.659,2.832,2.832,0,0,1-.554-1.872v-5.9H26.5V7.49h1.731v-2.3ZM35.3,17H33.677V7.49H35.3ZM33.545,4.968a.971.971,0,0,1,.242-.668.907.907,0,0,1,.716-.272.922.922,0,0,1,.721.272.96.96,0,0,1,.246.668.929.929,0,0,1-.246.659.938.938,0,0,1-.721.264.924.924,0,0,1-.716-.264A.938.938,0,0,1,33.545,4.968Zm7.5,9.826L43.4,7.49h1.661L41.648,17H40.409L36.964,7.49h1.661ZM48.39,17H46.764V7.49H48.39ZM46.632,4.968a.971.971,0,0,1,.242-.668.907.907,0,0,1,.716-.272.922.922,0,0,1,.721.272.96.96,0,0,1,.246.668.929.929,0,0,1-.246.659.938.938,0,0,1-.721.264.924.924,0,0,1-.716-.264A.938.938,0,0,1,46.632,4.968Zm3.964,7.2a5.571,5.571,0,0,1,1.037-3.52,3.529,3.529,0,0,1,5.361-.189V3.5H58.62V17H57.126l-.079-1.02a3.311,3.311,0,0,1-2.716,1.2,3.248,3.248,0,0,1-2.694-1.354A5.634,5.634,0,0,1,50.6,12.289Zm1.626.185a4.218,4.218,0,0,0,.668,2.531,2.159,2.159,0,0,0,1.846.914,2.372,2.372,0,0,0,2.259-1.389V10.039a2.39,2.39,0,0,0-2.241-1.345,2.17,2.17,0,0,0-1.863.923A4.644,4.644,0,0,0,52.222,12.351ZM67.014,17a3.415,3.415,0,0,1-.229-1,3.628,3.628,0,0,1-2.707,1.178,3.357,3.357,0,0,1-2.307-.8,2.573,2.573,0,0,1-.9-2.017A2.688,2.688,0,0,1,62,12.056a5.325,5.325,0,0,1,3.177-.822h1.582v-.747a1.826,1.826,0,0,0-.51-1.358,2.049,2.049,0,0,0-1.5-.505,2.371,2.371,0,0,0-1.459.439,1.3,1.3,0,0,0-.589,1.063H61.064a2.244,2.244,0,0,1,.505-1.375A3.449,3.449,0,0,1,62.94,7.7a4.613,4.613,0,0,1,1.9-.387,3.76,3.76,0,0,1,2.575.822,2.964,2.964,0,0,1,.967,2.263v4.377a5.351,5.351,0,0,0,.334,2.083V17Zm-2.7-1.239a2.858,2.858,0,0,0,1.45-.4,2.392,2.392,0,0,0,.993-1.028V12.386H65.484q-2.988,0-2.988,1.749a1.48,1.48,0,0,0,.51,1.2A1.959,1.959,0,0,0,64.315,15.761Zm6.223-3.595a5.571,5.571,0,0,1,1.037-3.52,3.529,3.529,0,0,1,5.361-.189V3.5h1.626V17H77.068l-.079-1.02a3.311,3.311,0,0,1-2.716,1.2,3.248,3.248,0,0,1-2.694-1.354,5.634,5.634,0,0,1-1.042-3.533Zm1.626.185a4.218,4.218,0,0,0,.668,2.531,2.159,2.159,0,0,0,1.846.914,2.372,2.372,0,0,0,2.259-1.389V10.039A2.39,2.39,0,0,0,74.7,8.694a2.17,2.17,0,0,0-1.863.923A4.644,4.644,0,0,0,72.164,12.351ZM93.636,5.117,88.336,17H86.631L91.913,5.539H84.987V4.2h8.648Z" transform="translate(9.641 9)" fill="#12263f"/>
      </g>
      <g id="Grupo_1117999" data-name="Grupo 1117999" transform="translate(-5116.71 -9340)">
        <rect id="Rectángulo_408520-8" data-name="Rectángulo 408520" width="120" height="40" rx="10" transform="translate(-0.29)" fill="#fecab2"/>
        <path id="Trazado_908608" data-name="Trazado 908608" d="M13.814,13.651H8.452L7.248,17H5.508L10.395,4.2h1.477l4.9,12.8H15.035Zm-4.852-1.38h4.351l-2.18-5.985Zm13.087,3.577a2.342,2.342,0,0,0,1.521-.527A1.855,1.855,0,0,0,24.29,14h1.538a2.949,2.949,0,0,1-.562,1.556,3.7,3.7,0,0,1-1.384,1.178,3.994,3.994,0,0,1-1.833.439,3.918,3.918,0,0,1-3.089-1.3,5.163,5.163,0,0,1-1.147-3.546v-.272a5.725,5.725,0,0,1,.51-2.47,3.883,3.883,0,0,1,1.463-1.679,4.157,4.157,0,0,1,2.254-.6,3.814,3.814,0,0,1,2.659.958,3.424,3.424,0,0,1,1.129,2.487H24.29a2.241,2.241,0,0,0-.7-1.516A2.174,2.174,0,0,0,22.04,8.65a2.276,2.276,0,0,0-1.92.892,4.19,4.19,0,0,0-.681,2.58v.308a4.106,4.106,0,0,0,.677,2.531A2.287,2.287,0,0,0,22.049,15.849ZM29.862,5.188v2.3h1.775V8.747H29.862v5.9a1.32,1.32,0,0,0,.237.858,1,1,0,0,0,.809.286,3.937,3.937,0,0,0,.773-.105V17a4.742,4.742,0,0,1-1.248.175,2.025,2.025,0,0,1-1.644-.659,2.832,2.832,0,0,1-.554-1.872v-5.9H26.5V7.49h1.731v-2.3ZM35.3,17H33.677V7.49H35.3ZM33.545,4.968a.971.971,0,0,1,.242-.668.907.907,0,0,1,.716-.272.922.922,0,0,1,.721.272.96.96,0,0,1,.246.668.929.929,0,0,1-.246.659.938.938,0,0,1-.721.264.924.924,0,0,1-.716-.264A.938.938,0,0,1,33.545,4.968Zm7.5,9.826L43.4,7.49h1.661L41.648,17H40.409L36.964,7.49h1.661ZM48.39,17H46.764V7.49H48.39ZM46.632,4.968a.971.971,0,0,1,.242-.668.907.907,0,0,1,.716-.272.922.922,0,0,1,.721.272.96.96,0,0,1,.246.668.929.929,0,0,1-.246.659.938.938,0,0,1-.721.264.924.924,0,0,1-.716-.264A.938.938,0,0,1,46.632,4.968Zm3.964,7.2a5.571,5.571,0,0,1,1.037-3.52,3.529,3.529,0,0,1,5.361-.189V3.5H58.62V17H57.126l-.079-1.02a3.311,3.311,0,0,1-2.716,1.2,3.248,3.248,0,0,1-2.694-1.354A5.634,5.634,0,0,1,50.6,12.289Zm1.626.185a4.218,4.218,0,0,0,.668,2.531,2.159,2.159,0,0,0,1.846.914,2.372,2.372,0,0,0,2.259-1.389V10.039a2.39,2.39,0,0,0-2.241-1.345,2.17,2.17,0,0,0-1.863.923A4.644,4.644,0,0,0,52.222,12.351ZM67.014,17a3.415,3.415,0,0,1-.229-1,3.628,3.628,0,0,1-2.707,1.178,3.357,3.357,0,0,1-2.307-.8,2.573,2.573,0,0,1-.9-2.017A2.688,2.688,0,0,1,62,12.056a5.325,5.325,0,0,1,3.177-.822h1.582v-.747a1.826,1.826,0,0,0-.51-1.358,2.049,2.049,0,0,0-1.5-.505,2.371,2.371,0,0,0-1.459.439,1.3,1.3,0,0,0-.589,1.063H61.064a2.244,2.244,0,0,1,.505-1.375A3.449,3.449,0,0,1,62.94,7.7a4.613,4.613,0,0,1,1.9-.387,3.76,3.76,0,0,1,2.575.822,2.964,2.964,0,0,1,.967,2.263v4.377a5.351,5.351,0,0,0,.334,2.083V17Zm-2.7-1.239a2.858,2.858,0,0,0,1.45-.4,2.392,2.392,0,0,0,.993-1.028V12.386H65.484q-2.988,0-2.988,1.749a1.48,1.48,0,0,0,.51,1.2A1.959,1.959,0,0,0,64.315,15.761Zm6.223-3.595a5.571,5.571,0,0,1,1.037-3.52,3.529,3.529,0,0,1,5.361-.189V3.5h1.626V17H77.068l-.079-1.02a3.311,3.311,0,0,1-2.716,1.2,3.248,3.248,0,0,1-2.694-1.354,5.634,5.634,0,0,1-1.042-3.533Zm1.626.185a4.218,4.218,0,0,0,.668,2.531,2.159,2.159,0,0,0,1.846.914,2.372,2.372,0,0,0,2.259-1.389V10.039A2.39,2.39,0,0,0,74.7,8.694a2.17,2.17,0,0,0-1.863.923A4.644,4.644,0,0,0,72.164,12.351ZM93.759,17H85.374V15.831l4.43-4.922a10.524,10.524,0,0,0,1.358-1.815,3.029,3.029,0,0,0,.374-1.446A2.3,2.3,0,0,0,90.929,6a2.12,2.12,0,0,0-1.617-.642,2.511,2.511,0,0,0-1.885.69,2.635,2.635,0,0,0-.672,1.92H85.128a3.774,3.774,0,0,1,1.138-2.856,4.219,4.219,0,0,1,3.045-1.09,4.054,4.054,0,0,1,2.821.936A3.193,3.193,0,0,1,93.17,7.455q0,1.89-2.408,4.5l-3.428,3.718h6.425Z" transform="translate(9.641 9)" fill="#12263f"/>
      </g>
      <g id="Grupo_1118000" data-name="Grupo 1118000" transform="translate(-4956.71 -9340)">
        <rect id="Rectángulo_408520-9" data-name="Rectángulo 408520" width="120" height="40" rx="10" transform="translate(-0.29)" fill="#fecab2"/>
        <path id="Trazado_908607" data-name="Trazado 908607" d="M13.814,13.651H8.452L7.248,17H5.508L10.395,4.2h1.477l4.9,12.8H15.035Zm-4.852-1.38h4.351l-2.18-5.985Zm13.087,3.577a2.342,2.342,0,0,0,1.521-.527A1.855,1.855,0,0,0,24.29,14h1.538a2.949,2.949,0,0,1-.562,1.556,3.7,3.7,0,0,1-1.384,1.178,3.994,3.994,0,0,1-1.833.439,3.918,3.918,0,0,1-3.089-1.3,5.163,5.163,0,0,1-1.147-3.546v-.272a5.725,5.725,0,0,1,.51-2.47,3.883,3.883,0,0,1,1.463-1.679,4.157,4.157,0,0,1,2.254-.6,3.814,3.814,0,0,1,2.659.958,3.424,3.424,0,0,1,1.129,2.487H24.29a2.241,2.241,0,0,0-.7-1.516A2.174,2.174,0,0,0,22.04,8.65a2.276,2.276,0,0,0-1.92.892,4.19,4.19,0,0,0-.681,2.58v.308a4.106,4.106,0,0,0,.677,2.531A2.287,2.287,0,0,0,22.049,15.849ZM29.862,5.188v2.3h1.775V8.747H29.862v5.9a1.32,1.32,0,0,0,.237.858,1,1,0,0,0,.809.286,3.937,3.937,0,0,0,.773-.105V17a4.742,4.742,0,0,1-1.248.175,2.025,2.025,0,0,1-1.644-.659,2.832,2.832,0,0,1-.554-1.872v-5.9H26.5V7.49h1.731v-2.3ZM35.3,17H33.677V7.49H35.3ZM33.545,4.968a.971.971,0,0,1,.242-.668.907.907,0,0,1,.716-.272.922.922,0,0,1,.721.272.96.96,0,0,1,.246.668.929.929,0,0,1-.246.659.938.938,0,0,1-.721.264.924.924,0,0,1-.716-.264A.938.938,0,0,1,33.545,4.968Zm7.5,9.826L43.4,7.49h1.661L41.648,17H40.409L36.964,7.49h1.661ZM48.39,17H46.764V7.49H48.39ZM46.632,4.968a.971.971,0,0,1,.242-.668.907.907,0,0,1,.716-.272.922.922,0,0,1,.721.272.96.96,0,0,1,.246.668.929.929,0,0,1-.246.659.938.938,0,0,1-.721.264.924.924,0,0,1-.716-.264A.938.938,0,0,1,46.632,4.968Zm3.964,7.2a5.571,5.571,0,0,1,1.037-3.52,3.529,3.529,0,0,1,5.361-.189V3.5H58.62V17H57.126l-.079-1.02a3.311,3.311,0,0,1-2.716,1.2,3.248,3.248,0,0,1-2.694-1.354A5.634,5.634,0,0,1,50.6,12.289Zm1.626.185a4.218,4.218,0,0,0,.668,2.531,2.159,2.159,0,0,0,1.846.914,2.372,2.372,0,0,0,2.259-1.389V10.039a2.39,2.39,0,0,0-2.241-1.345,2.17,2.17,0,0,0-1.863.923A4.644,4.644,0,0,0,52.222,12.351ZM67.014,17a3.415,3.415,0,0,1-.229-1,3.628,3.628,0,0,1-2.707,1.178,3.357,3.357,0,0,1-2.307-.8,2.573,2.573,0,0,1-.9-2.017A2.688,2.688,0,0,1,62,12.056a5.325,5.325,0,0,1,3.177-.822h1.582v-.747a1.826,1.826,0,0,0-.51-1.358,2.049,2.049,0,0,0-1.5-.505,2.371,2.371,0,0,0-1.459.439,1.3,1.3,0,0,0-.589,1.063H61.064a2.244,2.244,0,0,1,.505-1.375A3.449,3.449,0,0,1,62.94,7.7a4.613,4.613,0,0,1,1.9-.387,3.76,3.76,0,0,1,2.575.822,2.964,2.964,0,0,1,.967,2.263v4.377a5.351,5.351,0,0,0,.334,2.083V17Zm-2.7-1.239a2.858,2.858,0,0,0,1.45-.4,2.392,2.392,0,0,0,.993-1.028V12.386H65.484q-2.988,0-2.988,1.749a1.48,1.48,0,0,0,.51,1.2A1.959,1.959,0,0,0,64.315,15.761Zm6.223-3.595a5.571,5.571,0,0,1,1.037-3.52,3.529,3.529,0,0,1,5.361-.189V3.5h1.626V17H77.068l-.079-1.02a3.311,3.311,0,0,1-2.716,1.2,3.248,3.248,0,0,1-2.694-1.354,5.634,5.634,0,0,1-1.042-3.533Zm1.626.185a4.218,4.218,0,0,0,.668,2.531,2.159,2.159,0,0,0,1.846.914,2.372,2.372,0,0,0,2.259-1.389V10.039A2.39,2.39,0,0,0,74.7,8.694a2.17,2.17,0,0,0-1.863.923A4.644,4.644,0,0,0,72.164,12.351Zm20.074.352h1.775v1.327H92.238V17H90.6V14.029H84.776v-.958L90.507,4.2h1.731Zm-5.616,0H90.6V6.427l-.193.352Z" transform="translate(9.641 9)" fill="#12263f"/>
      </g>
      <g id="Grupo_1118006" data-name="Grupo 1118006">
        <path id="Trazado_907432" data-name="Trazado 907432" d="M-6069-9960v75.824" transform="translate(-7814.736 1885.598) rotate(45)" fill="none" stroke="#7a4f00" stroke-linecap="round" stroke-width="2"/>
        <path id="Polígono_5" data-name="Polígono 5" d="M3,0,6,5H0Z" transform="translate(-5063.738 -9452.504) rotate(45)" fill="#7a4f00"/>
      </g>
      <g id="Grupo_1118011" data-name="Grupo 1118011" transform="translate(-14231.999 -4353) rotate(90)">
        <path id="Trazado_907432-2" data-name="Trazado 907432" d="M-6069-9960v75.824" transform="translate(-7814.736 1885.598) rotate(45)" fill="none" stroke="#7a4f00" stroke-linecap="round" stroke-width="2"/>
        <path id="Polígono_5-2" data-name="Polígono 5" d="M3,0,6,5H0Z" transform="translate(-5063.738 -9452.504) rotate(45)" fill="#7a4f00"/>
      </g>
      <g id="Grupo_1118015" data-name="Grupo 1118015" transform="translate(-14071.999 -4353) rotate(90)">
        <path id="Trazado_907432-3" data-name="Trazado 907432" d="M-6069-9960v75.824" transform="translate(-7814.736 1885.598) rotate(45)" fill="none" stroke="#7a4f00" stroke-linecap="round" stroke-width="2"/>
        <path id="Polígono_5-3" data-name="Polígono 5" d="M3,0,6,5H0Z" transform="translate(-5063.738 -9452.504) rotate(45)" fill="#7a4f00"/>
      </g>
      <g id="Grupo_1118012" data-name="Grupo 1118012" transform="translate(-4837 -9320.001) rotate(-90)">
        <path id="Trazado_907432-4" data-name="Trazado 907432" d="M0,75.824V0" transform="translate(0 0) rotate(-45)" fill="none" stroke="#7a4f00" stroke-linecap="round" stroke-width="2"/>
        <path id="Polígono_5-4" data-name="Polígono 5" d="M3,0,6,5H0Z" transform="translate(57.505 53.262) rotate(135)" fill="#7a4f00"/>
      </g>
      <g id="Grupo_1118010" data-name="Grupo 1118010" transform="translate(-15110.521 -12457.742) rotate(135)">
        <path id="Trazado_907432-5" data-name="Trazado 907432" d="M0,0V108.008" transform="translate(-5040.626 -9446.965) rotate(45)" fill="none" stroke="#7a4f00" stroke-linecap="round" stroke-width="2"/>
        <path id="Polígono_5-5" data-name="Polígono 5" d="M3.273,0,6.547,5.122H0Z" transform="translate(-5041.13 -9451.09) rotate(45)" fill="#7a4f00"/>
      </g>
      <g id="Grupo_1118009" data-name="Grupo 1118009" transform="translate(-8042.549 813.557) rotate(45)">
        <path id="Trazado_907432-6" data-name="Trazado 907432" d="M0,0V37.081" transform="translate(-5090.78 -9450.603) rotate(45)" fill="none" stroke="#7a4f00" stroke-linecap="round" stroke-width="2"/>
        <path id="Polígono_5-6" data-name="Polígono 5" d="M3.036,0,6.073,5.06H0Z" transform="translate(-5091.138 -9454.538) rotate(45)" fill="#7a4f00"/>
      </g>
      <g id="Grupo_1118016" data-name="Grupo 1118016" transform="translate(-7717 883.632) rotate(45)">
        <path id="Trazado_907432-7" data-name="Trazado 907432" d="M0,0V46.559" transform="translate(-5084.078 -9449.597) rotate(45)" fill="none" stroke="#7a4f00" stroke-linecap="round" stroke-width="2"/>
        <path id="Polígono_5-7" data-name="Polígono 5" d="M3.812,0,7.625,6.354H0Z" transform="translate(-5084.527 -9454.538) rotate(45)" fill="#7a4f00"/>
      </g>
      <g id="Grupo_1118013" data-name="Grupo 1118013" transform="translate(5548.058 -6366.472) rotate(-45)">
        <path id="Trazado_907432-8" data-name="Trazado 907432" d="M0,0V32.3" transform="translate(-5094.159 -9451.11) rotate(45)" fill="none" stroke="#7a4f00" stroke-linecap="round" stroke-width="2"/>
        <path id="Polígono_5-8" data-name="Polígono 5" d="M2.645,0,5.29,4.408H0Z" transform="translate(-5094.471 -9454.538) rotate(45)" fill="#7a4f00"/>
      </g>
      <g id="Grupo_1118014" data-name="Grupo 1118014" transform="translate(5548.058 -6291.828) rotate(-45)">
        <path id="Trazado_907432-9" data-name="Trazado 907432" d="M0,0V32.3" transform="translate(-5094.159 -9451.11) rotate(45)" fill="none" stroke="#7a4f00" stroke-linecap="round" stroke-width="2"/>
        <path id="Polígono_5-9" data-name="Polígono 5" d="M2.645,0,5.29,4.408H0Z" transform="translate(-5094.471 -9454.538) rotate(45)" fill="#7a4f00"/>
      </g>
      <g id="Grupo_1118008" data-name="Grupo 1118008" transform="translate(120 -4.597)">
        <path id="Trazado_907432-10" data-name="Trazado 907432" d="M0,0V180.91" transform="translate(-4989.078 -9443.327) rotate(45)" fill="none" stroke="#7a4f00" stroke-linecap="round" stroke-width="2"/>
        <path id="Polígono_5-10" data-name="Polígono 5" d="M3.076,0,6.153,5.807H0Z" transform="translate(-4989.2 -9447.554) rotate(45)" fill="#7a4f00"/>
      </g>
      <g id="Grupo_1118007" data-name="Grupo 1118007" transform="translate(-5117 -9395)">
        <path id="Trazado_907432-11" data-name="Trazado 907432" d="M0,75.824V0" transform="translate(0 0) rotate(-45)" fill="none" stroke="#7a4f00" stroke-linecap="round" stroke-width="2"/>
        <path id="Polígono_5-11" data-name="Polígono 5" d="M3,0,6,5H0Z" transform="translate(57.505 53.262) rotate(135)" fill="#7a4f00"/>
      </g>
    </g>
  </g>
</svg>
