<svg xmlns="http://www.w3.org/2000/svg" width="400" height="660" viewBox="0 0 400 660">
  <g id="img6_1" transform="translate(4988 5397)">
    <rect id="Rectángulo_408797" data-name="Rectángulo 408797" width="400" height="660" transform="translate(-4988 -5397)" fill="#fef7eb"/>
    <g id="Grupo_1120346" data-name="Grupo 1120346" transform="translate(442 4283.917)">
      <g id="Grupo_1117972" data-name="Grupo 1117972" transform="translate(-5285.448 -9526.918)">
        <rect id="Rectángulo_408520" data-name="Rectángulo 408520" width="111.844" height="46.602" rx="10" transform="translate(0 0)" fill="#ffce73"/>
        <path id="Trazado_908610" data-name="Trazado 908610" d="M24.6,17H21.964V4.2H24.6Zm4.614-9.51.079,1.1a3.32,3.32,0,0,1,2.733-1.274,2.759,2.759,0,0,1,2.25.888,4.142,4.142,0,0,1,.756,2.654V17h-2.54V10.918a1.648,1.648,0,0,0-.352-1.173,1.574,1.574,0,0,0-1.169-.365,1.747,1.747,0,0,0-1.608.914V17h-2.54V7.49ZM39.639,17H37.09V7.49h2.549Zm-2.7-11.971a1.251,1.251,0,0,1,.382-.94,1.648,1.648,0,0,1,2.079,0,1.244,1.244,0,0,1,.387.94,1.247,1.247,0,0,1-.391.949,1.629,1.629,0,0,1-2.065,0A1.247,1.247,0,0,1,36.941,5.029Zm8.745,10.1a1.666,1.666,0,0,0,1.143-.387,1.355,1.355,0,0,0,.457-1.028h2.382a3.258,3.258,0,0,1-.527,1.771,3.48,3.48,0,0,1-1.419,1.248,4.442,4.442,0,0,1-1.991.444,4.129,4.129,0,0,1-3.217-1.3A5.13,5.13,0,0,1,41.335,12.3v-.167A5.071,5.071,0,0,1,42.5,8.624a4.08,4.08,0,0,1,3.208-1.31A4,4,0,0,1,48.573,8.33a3.594,3.594,0,0,1,1.094,2.7H47.286a1.745,1.745,0,0,0-.457-1.206,1.7,1.7,0,0,0-2.5.183,3.749,3.749,0,0,0-.453,2.1v.264a3.8,3.8,0,0,0,.448,2.113A1.549,1.549,0,0,0,45.686,15.128ZM53.8,17H51.249V7.49H53.8ZM51.1,5.029a1.251,1.251,0,0,1,.382-.94,1.648,1.648,0,0,1,2.079,0,1.244,1.244,0,0,1,.387.94,1.247,1.247,0,0,1-.391.949,1.629,1.629,0,0,1-2.065,0A1.247,1.247,0,0,1,51.1,5.029Zm4.395,7.128a5.64,5.64,0,0,1,.545-2.522,3.989,3.989,0,0,1,1.569-1.714,4.577,4.577,0,0,1,2.377-.606,4.33,4.33,0,0,1,3.142,1.178,4.727,4.727,0,0,1,1.358,3.2l.018.65a4.97,4.97,0,0,1-1.222,3.511,4.735,4.735,0,0,1-6.561,0,5.058,5.058,0,0,1-1.226-3.586Zm2.54.18a3.555,3.555,0,0,0,.51,2.073,1.831,1.831,0,0,0,2.9.009,3.89,3.89,0,0,0,.519-2.267,3.519,3.519,0,0,0-.519-2.06,1.686,1.686,0,0,0-1.459-.731,1.658,1.658,0,0,0-1.441.726A3.955,3.955,0,0,0,58.035,12.338Z" transform="translate(13.048 13.048)" fill="#12263f"/>
      </g>
      <g id="Grupo_1118005" data-name="Grupo 1118005" transform="translate(-5276.127 -9222.151)">
        <rect id="Rectángulo_408520-2" data-name="Rectángulo 408520" width="93.203" height="46.602" rx="10" transform="translate(0 0)" fill="#ffce73"/>
        <path id="Trazado_908618" data-name="Trazado 908618" d="M30.037,11.771H24.975V17H22.338V4.2H30.67V6.339h-5.7v3.3h5.063ZM34.713,17H32.164V7.49h2.549Zm-2.7-11.971a1.251,1.251,0,0,1,.382-.94,1.648,1.648,0,0,1,2.079,0,1.244,1.244,0,0,1,.387.94,1.247,1.247,0,0,1-.391.949,1.629,1.629,0,0,1-2.065,0A1.247,1.247,0,0,1,32.015,5.029ZM39.143,7.49l.079,1.1a3.32,3.32,0,0,1,2.733-1.274,2.759,2.759,0,0,1,2.25.888,4.142,4.142,0,0,1,.756,2.654V17h-2.54V10.918a1.648,1.648,0,0,0-.352-1.173A1.574,1.574,0,0,0,40.9,9.38a1.747,1.747,0,0,0-1.608.914V17h-2.54V7.49Z" transform="translate(13.048 13.048)" fill="#12263f"/>
      </g>
      <g id="Grupo_1117998" data-name="Grupo 1117998" transform="translate(-5391.699 -9440.246)">
        <rect id="Rectángulo_408520-3" data-name="Rectángulo 408520" width="111.844" height="37.281" rx="10" transform="translate(0)" fill="#fecab2"/>
        <path id="Trazado_908611" data-name="Trazado 908611" d="M10.575,13.651H5.214L4.01,17H2.27L7.156,4.2H8.633l4.9,12.8H11.8Zm-4.852-1.38h4.351L7.895,6.286Zm13.087,3.577a2.342,2.342,0,0,0,1.521-.527A1.855,1.855,0,0,0,21.052,14H22.59a2.949,2.949,0,0,1-.562,1.556,3.7,3.7,0,0,1-1.384,1.178,3.994,3.994,0,0,1-1.833.439,3.918,3.918,0,0,1-3.089-1.3,5.163,5.163,0,0,1-1.147-3.546v-.272a5.725,5.725,0,0,1,.51-2.47,3.883,3.883,0,0,1,1.463-1.679,4.157,4.157,0,0,1,2.254-.6,3.814,3.814,0,0,1,2.659.958A3.424,3.424,0,0,1,22.59,10.76H21.052a2.241,2.241,0,0,0-.7-1.516A2.174,2.174,0,0,0,18.8,8.65a2.276,2.276,0,0,0-1.92.892,4.19,4.19,0,0,0-.681,2.58v.308a4.106,4.106,0,0,0,.677,2.531A2.287,2.287,0,0,0,18.811,15.849ZM26.624,5.188v2.3H28.4V8.747H26.624v5.9a1.32,1.32,0,0,0,.237.858,1,1,0,0,0,.809.286,3.937,3.937,0,0,0,.773-.105V17a4.742,4.742,0,0,1-1.248.175,2.025,2.025,0,0,1-1.644-.659A2.832,2.832,0,0,1,25,14.645v-5.9H23.267V7.49H25v-2.3ZM32.064,17H30.438V7.49h1.626ZM30.307,4.968a.971.971,0,0,1,.242-.668.907.907,0,0,1,.716-.272.922.922,0,0,1,.721.272.96.96,0,0,1,.246.668.929.929,0,0,1-.246.659.938.938,0,0,1-.721.264.924.924,0,0,1-.716-.264A.938.938,0,0,1,30.307,4.968Zm7.5,9.826,2.355-7.3H41.82L38.41,17H37.171L33.726,7.49h1.661ZM45.151,17H43.525V7.49h1.626ZM43.394,4.968a.971.971,0,0,1,.242-.668.907.907,0,0,1,.716-.272.922.922,0,0,1,.721.272.96.96,0,0,1,.246.668.929.929,0,0,1-.246.659.938.938,0,0,1-.721.264.924.924,0,0,1-.716-.264A.938.938,0,0,1,43.394,4.968Zm3.964,7.2a5.571,5.571,0,0,1,1.037-3.52,3.529,3.529,0,0,1,5.361-.189V3.5h1.626V17H53.888l-.079-1.02a3.311,3.311,0,0,1-2.716,1.2A3.248,3.248,0,0,1,48.4,15.822a5.634,5.634,0,0,1-1.042-3.533Zm1.626.185a4.218,4.218,0,0,0,.668,2.531A2.159,2.159,0,0,0,51.5,15.8a2.372,2.372,0,0,0,2.259-1.389V10.039a2.39,2.39,0,0,0-2.241-1.345,2.17,2.17,0,0,0-1.863.923A4.644,4.644,0,0,0,48.983,12.351ZM63.775,17a3.416,3.416,0,0,1-.229-1,3.628,3.628,0,0,1-2.707,1.178,3.357,3.357,0,0,1-2.307-.8,2.573,2.573,0,0,1-.9-2.017,2.688,2.688,0,0,1,1.129-2.307,5.325,5.325,0,0,1,3.177-.822H63.52v-.747a1.826,1.826,0,0,0-.51-1.358,2.049,2.049,0,0,0-1.5-.505,2.371,2.371,0,0,0-1.459.439,1.3,1.3,0,0,0-.589,1.063H57.825a2.244,2.244,0,0,1,.505-1.375A3.449,3.449,0,0,1,59.7,7.7a4.613,4.613,0,0,1,1.9-.387,3.759,3.759,0,0,1,2.575.822,2.964,2.964,0,0,1,.967,2.263v4.377a5.351,5.351,0,0,0,.334,2.083V17Zm-2.7-1.239a2.858,2.858,0,0,0,1.45-.4,2.392,2.392,0,0,0,.993-1.028V12.386H62.246q-2.988,0-2.988,1.749a1.48,1.48,0,0,0,.51,1.2A1.959,1.959,0,0,0,61.077,15.761ZM67.3,12.166a5.571,5.571,0,0,1,1.037-3.52A3.529,3.529,0,0,1,73.7,8.457V3.5h1.626V17H73.83l-.079-1.02a3.311,3.311,0,0,1-2.716,1.2,3.248,3.248,0,0,1-2.694-1.354A5.634,5.634,0,0,1,67.3,12.289Zm1.626.185a4.218,4.218,0,0,0,.668,2.531,2.159,2.159,0,0,0,1.846.914A2.372,2.372,0,0,0,73.7,14.407V10.039a2.39,2.39,0,0,0-2.241-1.345,2.17,2.17,0,0,0-1.863.923A4.644,4.644,0,0,0,68.926,12.351ZM87.479,17H85.845V6.163l-3.278,1.2V5.891l4.658-1.749h.255Z" transform="translate(9.256 8.388)" fill="#12263f"/>
      </g>
      <g id="Grupo_1118001" data-name="Grupo 1118001" transform="translate(-5391.699 -9365.684)">
        <rect id="Rectángulo_408520-4" data-name="Rectángulo 408520" width="111.844" height="37.281" rx="10" transform="translate(0)" fill="#fecab2"/>
        <path id="Trazado_908614" data-name="Trazado 908614" d="M10.575,13.651H5.214L4.01,17H2.27L7.156,4.2H8.633l4.9,12.8H11.8Zm-4.852-1.38h4.351L7.895,6.286Zm13.087,3.577a2.342,2.342,0,0,0,1.521-.527A1.855,1.855,0,0,0,21.052,14H22.59a2.949,2.949,0,0,1-.562,1.556,3.7,3.7,0,0,1-1.384,1.178,3.994,3.994,0,0,1-1.833.439,3.918,3.918,0,0,1-3.089-1.3,5.163,5.163,0,0,1-1.147-3.546v-.272a5.725,5.725,0,0,1,.51-2.47,3.883,3.883,0,0,1,1.463-1.679,4.157,4.157,0,0,1,2.254-.6,3.814,3.814,0,0,1,2.659.958A3.424,3.424,0,0,1,22.59,10.76H21.052a2.241,2.241,0,0,0-.7-1.516A2.174,2.174,0,0,0,18.8,8.65a2.276,2.276,0,0,0-1.92.892,4.19,4.19,0,0,0-.681,2.58v.308a4.106,4.106,0,0,0,.677,2.531A2.287,2.287,0,0,0,18.811,15.849ZM26.624,5.188v2.3H28.4V8.747H26.624v5.9a1.32,1.32,0,0,0,.237.858,1,1,0,0,0,.809.286,3.937,3.937,0,0,0,.773-.105V17a4.742,4.742,0,0,1-1.248.175,2.025,2.025,0,0,1-1.644-.659A2.832,2.832,0,0,1,25,14.645v-5.9H23.267V7.49H25v-2.3ZM32.064,17H30.438V7.49h1.626ZM30.307,4.968a.971.971,0,0,1,.242-.668.907.907,0,0,1,.716-.272.922.922,0,0,1,.721.272.96.96,0,0,1,.246.668.929.929,0,0,1-.246.659.938.938,0,0,1-.721.264.924.924,0,0,1-.716-.264A.938.938,0,0,1,30.307,4.968Zm7.5,9.826,2.355-7.3H41.82L38.41,17H37.171L33.726,7.49h1.661ZM45.151,17H43.525V7.49h1.626ZM43.394,4.968a.971.971,0,0,1,.242-.668.907.907,0,0,1,.716-.272.922.922,0,0,1,.721.272.96.96,0,0,1,.246.668.929.929,0,0,1-.246.659.938.938,0,0,1-.721.264.924.924,0,0,1-.716-.264A.938.938,0,0,1,43.394,4.968Zm3.964,7.2a5.571,5.571,0,0,1,1.037-3.52,3.529,3.529,0,0,1,5.361-.189V3.5h1.626V17H53.888l-.079-1.02a3.311,3.311,0,0,1-2.716,1.2A3.248,3.248,0,0,1,48.4,15.822a5.634,5.634,0,0,1-1.042-3.533Zm1.626.185a4.218,4.218,0,0,0,.668,2.531A2.159,2.159,0,0,0,51.5,15.8a2.372,2.372,0,0,0,2.259-1.389V10.039a2.39,2.39,0,0,0-2.241-1.345,2.17,2.17,0,0,0-1.863.923A4.644,4.644,0,0,0,48.983,12.351ZM63.775,17a3.416,3.416,0,0,1-.229-1,3.628,3.628,0,0,1-2.707,1.178,3.357,3.357,0,0,1-2.307-.8,2.573,2.573,0,0,1-.9-2.017,2.688,2.688,0,0,1,1.129-2.307,5.325,5.325,0,0,1,3.177-.822H63.52v-.747a1.826,1.826,0,0,0-.51-1.358,2.049,2.049,0,0,0-1.5-.505,2.371,2.371,0,0,0-1.459.439,1.3,1.3,0,0,0-.589,1.063H57.825a2.244,2.244,0,0,1,.505-1.375A3.449,3.449,0,0,1,59.7,7.7a4.613,4.613,0,0,1,1.9-.387,3.759,3.759,0,0,1,2.575.822,2.964,2.964,0,0,1,.967,2.263v4.377a5.351,5.351,0,0,0,.334,2.083V17Zm-2.7-1.239a2.858,2.858,0,0,0,1.45-.4,2.392,2.392,0,0,0,.993-1.028V12.386H62.246q-2.988,0-2.988,1.749a1.48,1.48,0,0,0,.51,1.2A1.959,1.959,0,0,0,61.077,15.761ZM67.3,12.166a5.571,5.571,0,0,1,1.037-3.52A3.529,3.529,0,0,1,73.7,8.457V3.5h1.626V17H73.83l-.079-1.02a3.311,3.311,0,0,1-2.716,1.2,3.248,3.248,0,0,1-2.694-1.354A5.634,5.634,0,0,1,67.3,12.289Zm1.626.185a4.218,4.218,0,0,0,.668,2.531,2.159,2.159,0,0,0,1.846.914A2.372,2.372,0,0,0,73.7,14.407V10.039a2.39,2.39,0,0,0-2.241-1.345,2.17,2.17,0,0,0-1.863.923A4.644,4.644,0,0,0,68.926,12.351ZM84.5,9.811h1.222A2.685,2.685,0,0,0,87.532,9.2a2.026,2.026,0,0,0,.659-1.591,1.985,1.985,0,0,0-2.241-2.25,2.331,2.331,0,0,0-1.683.6,2.107,2.107,0,0,0-.628,1.6H82.013a3.264,3.264,0,0,1,1.112-2.527A4.05,4.05,0,0,1,85.95,4.027a4,4,0,0,1,2.839.958,3.461,3.461,0,0,1,1.028,2.663,2.809,2.809,0,0,1-.541,1.617A3.264,3.264,0,0,1,87.8,10.435a3.145,3.145,0,0,1,1.63,1.107,3.076,3.076,0,0,1,.576,1.89,3.491,3.491,0,0,1-1.125,2.733,4.213,4.213,0,0,1-2.927,1.011,4.324,4.324,0,0,1-2.931-.976A3.236,3.236,0,0,1,81.9,13.625h1.635a2.092,2.092,0,0,0,.659,1.617,2.507,2.507,0,0,0,1.767.606,2.46,2.46,0,0,0,1.8-.615,2.371,2.371,0,0,0,.624-1.767,2.151,2.151,0,0,0-.686-1.714,2.987,2.987,0,0,0-1.978-.615H84.5Z" transform="translate(9.256 8.388)" fill="#12263f"/>
      </g>
      <g id="Grupo_1118002" data-name="Grupo 1118002" transform="translate(-5415 -9291.121)">
        <rect id="Rectángulo_408520-5" data-name="Rectángulo 408520" width="111.844" height="37.281" rx="10" transform="translate(0)" fill="#fecab2"/>
        <path id="Trazado_908615" data-name="Trazado 908615" d="M10.575,13.651H5.214L4.01,17H2.27L7.156,4.2H8.633l4.9,12.8H11.8Zm-4.852-1.38h4.351L7.895,6.286Zm13.087,3.577a2.342,2.342,0,0,0,1.521-.527A1.855,1.855,0,0,0,21.052,14H22.59a2.949,2.949,0,0,1-.562,1.556,3.7,3.7,0,0,1-1.384,1.178,3.994,3.994,0,0,1-1.833.439,3.918,3.918,0,0,1-3.089-1.3,5.163,5.163,0,0,1-1.147-3.546v-.272a5.725,5.725,0,0,1,.51-2.47,3.883,3.883,0,0,1,1.463-1.679,4.157,4.157,0,0,1,2.254-.6,3.814,3.814,0,0,1,2.659.958A3.424,3.424,0,0,1,22.59,10.76H21.052a2.241,2.241,0,0,0-.7-1.516A2.174,2.174,0,0,0,18.8,8.65a2.276,2.276,0,0,0-1.92.892,4.19,4.19,0,0,0-.681,2.58v.308a4.106,4.106,0,0,0,.677,2.531A2.287,2.287,0,0,0,18.811,15.849ZM26.624,5.188v2.3H28.4V8.747H26.624v5.9a1.32,1.32,0,0,0,.237.858,1,1,0,0,0,.809.286,3.937,3.937,0,0,0,.773-.105V17a4.742,4.742,0,0,1-1.248.175,2.025,2.025,0,0,1-1.644-.659A2.832,2.832,0,0,1,25,14.645v-5.9H23.267V7.49H25v-2.3ZM32.064,17H30.438V7.49h1.626ZM30.307,4.968a.971.971,0,0,1,.242-.668.907.907,0,0,1,.716-.272.922.922,0,0,1,.721.272.96.96,0,0,1,.246.668.929.929,0,0,1-.246.659.938.938,0,0,1-.721.264.924.924,0,0,1-.716-.264A.938.938,0,0,1,30.307,4.968Zm7.5,9.826,2.355-7.3H41.82L38.41,17H37.171L33.726,7.49h1.661ZM45.151,17H43.525V7.49h1.626ZM43.394,4.968a.971.971,0,0,1,.242-.668.907.907,0,0,1,.716-.272.922.922,0,0,1,.721.272.96.96,0,0,1,.246.668.929.929,0,0,1-.246.659.938.938,0,0,1-.721.264.924.924,0,0,1-.716-.264A.938.938,0,0,1,43.394,4.968Zm3.964,7.2a5.571,5.571,0,0,1,1.037-3.52,3.529,3.529,0,0,1,5.361-.189V3.5h1.626V17H53.888l-.079-1.02a3.311,3.311,0,0,1-2.716,1.2A3.248,3.248,0,0,1,48.4,15.822a5.634,5.634,0,0,1-1.042-3.533Zm1.626.185a4.218,4.218,0,0,0,.668,2.531A2.159,2.159,0,0,0,51.5,15.8a2.372,2.372,0,0,0,2.259-1.389V10.039a2.39,2.39,0,0,0-2.241-1.345,2.17,2.17,0,0,0-1.863.923A4.644,4.644,0,0,0,48.983,12.351ZM63.775,17a3.416,3.416,0,0,1-.229-1,3.628,3.628,0,0,1-2.707,1.178,3.357,3.357,0,0,1-2.307-.8,2.573,2.573,0,0,1-.9-2.017,2.688,2.688,0,0,1,1.129-2.307,5.325,5.325,0,0,1,3.177-.822H63.52v-.747a1.826,1.826,0,0,0-.51-1.358,2.049,2.049,0,0,0-1.5-.505,2.371,2.371,0,0,0-1.459.439,1.3,1.3,0,0,0-.589,1.063H57.825a2.244,2.244,0,0,1,.505-1.375A3.449,3.449,0,0,1,59.7,7.7a4.613,4.613,0,0,1,1.9-.387,3.759,3.759,0,0,1,2.575.822,2.964,2.964,0,0,1,.967,2.263v4.377a5.351,5.351,0,0,0,.334,2.083V17Zm-2.7-1.239a2.858,2.858,0,0,0,1.45-.4,2.392,2.392,0,0,0,.993-1.028V12.386H62.246q-2.988,0-2.988,1.749a1.48,1.48,0,0,0,.51,1.2A1.959,1.959,0,0,0,61.077,15.761ZM67.3,12.166a5.571,5.571,0,0,1,1.037-3.52A3.529,3.529,0,0,1,73.7,8.457V3.5h1.626V17H73.83l-.079-1.02a3.311,3.311,0,0,1-2.716,1.2,3.248,3.248,0,0,1-2.694-1.354A5.634,5.634,0,0,1,67.3,12.289Zm1.626.185a4.218,4.218,0,0,0,.668,2.531,2.159,2.159,0,0,0,1.846.914A2.372,2.372,0,0,0,73.7,14.407V10.039a2.39,2.39,0,0,0-2.241-1.345,2.17,2.17,0,0,0-1.863.923A4.644,4.644,0,0,0,68.926,12.351Zm13.957-1.767.65-6.381H90.09v1.5H84.913L84.526,9.2a4.13,4.13,0,0,1,2.136-.554A3.531,3.531,0,0,1,89.439,9.8a4.53,4.53,0,0,1,1.028,3.125A4.372,4.372,0,0,1,89.4,16.038a3.892,3.892,0,0,1-2.984,1.138,4.045,4.045,0,0,1-2.769-.94,3.754,3.754,0,0,1-1.222-2.6h1.538a2.582,2.582,0,0,0,.782,1.657,2.432,2.432,0,0,0,1.67.558,2.194,2.194,0,0,0,1.78-.773,3.233,3.233,0,0,0,.646-2.136,2.968,2.968,0,0,0-.7-2.061,2.377,2.377,0,0,0-1.859-.778,2.681,2.681,0,0,0-1.67.466l-.431.352Z" transform="translate(9.256 8.388)" fill="#12263f"/>
      </g>
      <g id="Grupo_1118003" data-name="Grupo 1118003" transform="translate(-5285.448 -9291.121)">
        <rect id="Rectángulo_408520-6" data-name="Rectángulo 408520" width="111.844" height="37.281" rx="10" transform="translate(0)" fill="#fecab2"/>
        <path id="Trazado_908616" data-name="Trazado 908616" d="M10.575,13.651H5.214L4.01,17H2.27L7.156,4.2H8.633l4.9,12.8H11.8Zm-4.852-1.38h4.351L7.895,6.286Zm13.087,3.577a2.342,2.342,0,0,0,1.521-.527A1.855,1.855,0,0,0,21.052,14H22.59a2.949,2.949,0,0,1-.562,1.556,3.7,3.7,0,0,1-1.384,1.178,3.994,3.994,0,0,1-1.833.439,3.918,3.918,0,0,1-3.089-1.3,5.163,5.163,0,0,1-1.147-3.546v-.272a5.725,5.725,0,0,1,.51-2.47,3.883,3.883,0,0,1,1.463-1.679,4.157,4.157,0,0,1,2.254-.6,3.814,3.814,0,0,1,2.659.958A3.424,3.424,0,0,1,22.59,10.76H21.052a2.241,2.241,0,0,0-.7-1.516A2.174,2.174,0,0,0,18.8,8.65a2.276,2.276,0,0,0-1.92.892,4.19,4.19,0,0,0-.681,2.58v.308a4.106,4.106,0,0,0,.677,2.531A2.287,2.287,0,0,0,18.811,15.849ZM26.624,5.188v2.3H28.4V8.747H26.624v5.9a1.32,1.32,0,0,0,.237.858,1,1,0,0,0,.809.286,3.937,3.937,0,0,0,.773-.105V17a4.742,4.742,0,0,1-1.248.175,2.025,2.025,0,0,1-1.644-.659A2.832,2.832,0,0,1,25,14.645v-5.9H23.267V7.49H25v-2.3ZM32.064,17H30.438V7.49h1.626ZM30.307,4.968a.971.971,0,0,1,.242-.668.907.907,0,0,1,.716-.272.922.922,0,0,1,.721.272.96.96,0,0,1,.246.668.929.929,0,0,1-.246.659.938.938,0,0,1-.721.264.924.924,0,0,1-.716-.264A.938.938,0,0,1,30.307,4.968Zm7.5,9.826,2.355-7.3H41.82L38.41,17H37.171L33.726,7.49h1.661ZM45.151,17H43.525V7.49h1.626ZM43.394,4.968a.971.971,0,0,1,.242-.668.907.907,0,0,1,.716-.272.922.922,0,0,1,.721.272.96.96,0,0,1,.246.668.929.929,0,0,1-.246.659.938.938,0,0,1-.721.264.924.924,0,0,1-.716-.264A.938.938,0,0,1,43.394,4.968Zm3.964,7.2a5.571,5.571,0,0,1,1.037-3.52,3.529,3.529,0,0,1,5.361-.189V3.5h1.626V17H53.888l-.079-1.02a3.311,3.311,0,0,1-2.716,1.2A3.248,3.248,0,0,1,48.4,15.822a5.634,5.634,0,0,1-1.042-3.533Zm1.626.185a4.218,4.218,0,0,0,.668,2.531A2.159,2.159,0,0,0,51.5,15.8a2.372,2.372,0,0,0,2.259-1.389V10.039a2.39,2.39,0,0,0-2.241-1.345,2.17,2.17,0,0,0-1.863.923A4.644,4.644,0,0,0,48.983,12.351ZM63.775,17a3.416,3.416,0,0,1-.229-1,3.628,3.628,0,0,1-2.707,1.178,3.357,3.357,0,0,1-2.307-.8,2.573,2.573,0,0,1-.9-2.017,2.688,2.688,0,0,1,1.129-2.307,5.325,5.325,0,0,1,3.177-.822H63.52v-.747a1.826,1.826,0,0,0-.51-1.358,2.049,2.049,0,0,0-1.5-.505,2.371,2.371,0,0,0-1.459.439,1.3,1.3,0,0,0-.589,1.063H57.825a2.244,2.244,0,0,1,.505-1.375A3.449,3.449,0,0,1,59.7,7.7a4.613,4.613,0,0,1,1.9-.387,3.759,3.759,0,0,1,2.575.822,2.964,2.964,0,0,1,.967,2.263v4.377a5.351,5.351,0,0,0,.334,2.083V17Zm-2.7-1.239a2.858,2.858,0,0,0,1.45-.4,2.392,2.392,0,0,0,.993-1.028V12.386H62.246q-2.988,0-2.988,1.749a1.48,1.48,0,0,0,.51,1.2A1.959,1.959,0,0,0,61.077,15.761ZM67.3,12.166a5.571,5.571,0,0,1,1.037-3.52A3.529,3.529,0,0,1,73.7,8.457V3.5h1.626V17H73.83l-.079-1.02a3.311,3.311,0,0,1-2.716,1.2,3.248,3.248,0,0,1-2.694-1.354A5.634,5.634,0,0,1,67.3,12.289Zm1.626.185a4.218,4.218,0,0,0,.668,2.531,2.159,2.159,0,0,0,1.846.914A2.372,2.372,0,0,0,73.7,14.407V10.039a2.39,2.39,0,0,0-2.241-1.345,2.17,2.17,0,0,0-1.863.923A4.644,4.644,0,0,0,68.926,12.351ZM88.517,4.194v1.38h-.3A4.281,4.281,0,0,0,85.194,6.7a4.681,4.681,0,0,0-1.3,3.067,3.471,3.471,0,0,1,2.76-1.16,3.319,3.319,0,0,1,2.667,1.178,4.543,4.543,0,0,1,1,3.041,4.528,4.528,0,0,1-1.077,3.164,3.707,3.707,0,0,1-2.887,1.187,3.653,3.653,0,0,1-2.979-1.411,5.591,5.591,0,0,1-1.143-3.634v-.624a8.424,8.424,0,0,1,1.507-5.4,5.536,5.536,0,0,1,4.487-1.912ZM86.381,9.96a2.733,2.733,0,0,0-2.514,1.758v.6a4.2,4.2,0,0,0,.712,2.549,2.133,2.133,0,0,0,1.775.967,2.067,2.067,0,0,0,1.727-.809A3.355,3.355,0,0,0,88.71,12.9a3.356,3.356,0,0,0-.637-2.131A2.042,2.042,0,0,0,86.381,9.96Z" transform="translate(9.256 8.388)" fill="#12263f"/>
      </g>
      <g id="Grupo_1118004" data-name="Grupo 1118004" transform="translate(-5155.896 -9291.121)">
        <rect id="Rectángulo_408520-7" data-name="Rectángulo 408520" width="111.844" height="37.281" rx="10" transform="translate(0)" fill="#fecab2"/>
        <path id="Trazado_908617" data-name="Trazado 908617" d="M10.575,13.651H5.214L4.01,17H2.27L7.156,4.2H8.633l4.9,12.8H11.8Zm-4.852-1.38h4.351L7.895,6.286Zm13.087,3.577a2.342,2.342,0,0,0,1.521-.527A1.855,1.855,0,0,0,21.052,14H22.59a2.949,2.949,0,0,1-.562,1.556,3.7,3.7,0,0,1-1.384,1.178,3.994,3.994,0,0,1-1.833.439,3.918,3.918,0,0,1-3.089-1.3,5.163,5.163,0,0,1-1.147-3.546v-.272a5.725,5.725,0,0,1,.51-2.47,3.883,3.883,0,0,1,1.463-1.679,4.157,4.157,0,0,1,2.254-.6,3.814,3.814,0,0,1,2.659.958A3.424,3.424,0,0,1,22.59,10.76H21.052a2.241,2.241,0,0,0-.7-1.516A2.174,2.174,0,0,0,18.8,8.65a2.276,2.276,0,0,0-1.92.892,4.19,4.19,0,0,0-.681,2.58v.308a4.106,4.106,0,0,0,.677,2.531A2.287,2.287,0,0,0,18.811,15.849ZM26.624,5.188v2.3H28.4V8.747H26.624v5.9a1.32,1.32,0,0,0,.237.858,1,1,0,0,0,.809.286,3.937,3.937,0,0,0,.773-.105V17a4.742,4.742,0,0,1-1.248.175,2.025,2.025,0,0,1-1.644-.659A2.832,2.832,0,0,1,25,14.645v-5.9H23.267V7.49H25v-2.3ZM32.064,17H30.438V7.49h1.626ZM30.307,4.968a.971.971,0,0,1,.242-.668.907.907,0,0,1,.716-.272.922.922,0,0,1,.721.272.96.96,0,0,1,.246.668.929.929,0,0,1-.246.659.938.938,0,0,1-.721.264.924.924,0,0,1-.716-.264A.938.938,0,0,1,30.307,4.968Zm7.5,9.826,2.355-7.3H41.82L38.41,17H37.171L33.726,7.49h1.661ZM45.151,17H43.525V7.49h1.626ZM43.394,4.968a.971.971,0,0,1,.242-.668.907.907,0,0,1,.716-.272.922.922,0,0,1,.721.272.96.96,0,0,1,.246.668.929.929,0,0,1-.246.659.938.938,0,0,1-.721.264.924.924,0,0,1-.716-.264A.938.938,0,0,1,43.394,4.968Zm3.964,7.2a5.571,5.571,0,0,1,1.037-3.52,3.529,3.529,0,0,1,5.361-.189V3.5h1.626V17H53.888l-.079-1.02a3.311,3.311,0,0,1-2.716,1.2A3.248,3.248,0,0,1,48.4,15.822a5.634,5.634,0,0,1-1.042-3.533Zm1.626.185a4.218,4.218,0,0,0,.668,2.531A2.159,2.159,0,0,0,51.5,15.8a2.372,2.372,0,0,0,2.259-1.389V10.039a2.39,2.39,0,0,0-2.241-1.345,2.17,2.17,0,0,0-1.863.923A4.644,4.644,0,0,0,48.983,12.351ZM63.775,17a3.416,3.416,0,0,1-.229-1,3.628,3.628,0,0,1-2.707,1.178,3.357,3.357,0,0,1-2.307-.8,2.573,2.573,0,0,1-.9-2.017,2.688,2.688,0,0,1,1.129-2.307,5.325,5.325,0,0,1,3.177-.822H63.52v-.747a1.826,1.826,0,0,0-.51-1.358,2.049,2.049,0,0,0-1.5-.505,2.371,2.371,0,0,0-1.459.439,1.3,1.3,0,0,0-.589,1.063H57.825a2.244,2.244,0,0,1,.505-1.375A3.449,3.449,0,0,1,59.7,7.7a4.613,4.613,0,0,1,1.9-.387,3.759,3.759,0,0,1,2.575.822,2.964,2.964,0,0,1,.967,2.263v4.377a5.351,5.351,0,0,0,.334,2.083V17Zm-2.7-1.239a2.858,2.858,0,0,0,1.45-.4,2.392,2.392,0,0,0,.993-1.028V12.386H62.246q-2.988,0-2.988,1.749a1.48,1.48,0,0,0,.51,1.2A1.959,1.959,0,0,0,61.077,15.761ZM67.3,12.166a5.571,5.571,0,0,1,1.037-3.52A3.529,3.529,0,0,1,73.7,8.457V3.5h1.626V17H73.83l-.079-1.02a3.311,3.311,0,0,1-2.716,1.2,3.248,3.248,0,0,1-2.694-1.354A5.634,5.634,0,0,1,67.3,12.289Zm1.626.185a4.218,4.218,0,0,0,.668,2.531,2.159,2.159,0,0,0,1.846.914A2.372,2.372,0,0,0,73.7,14.407V10.039a2.39,2.39,0,0,0-2.241-1.345,2.17,2.17,0,0,0-1.863.923A4.644,4.644,0,0,0,68.926,12.351ZM90.4,5.117,85.1,17H83.393L88.675,5.539H81.749V4.2H90.4Z" transform="translate(9.256 8.388)" fill="#12263f"/>
      </g>
      <g id="Grupo_1117999" data-name="Grupo 1117999" transform="translate(-5178.944 -9440.246)">
        <rect id="Rectángulo_408520-8" data-name="Rectángulo 408520" width="111.844" height="37.281" rx="10" transform="translate(0)" fill="#fecab2"/>
        <path id="Trazado_908612" data-name="Trazado 908612" d="M10.575,13.651H5.214L4.01,17H2.27L7.156,4.2H8.633l4.9,12.8H11.8Zm-4.852-1.38h4.351L7.895,6.286Zm13.087,3.577a2.342,2.342,0,0,0,1.521-.527A1.855,1.855,0,0,0,21.052,14H22.59a2.949,2.949,0,0,1-.562,1.556,3.7,3.7,0,0,1-1.384,1.178,3.994,3.994,0,0,1-1.833.439,3.918,3.918,0,0,1-3.089-1.3,5.163,5.163,0,0,1-1.147-3.546v-.272a5.725,5.725,0,0,1,.51-2.47,3.883,3.883,0,0,1,1.463-1.679,4.157,4.157,0,0,1,2.254-.6,3.814,3.814,0,0,1,2.659.958A3.424,3.424,0,0,1,22.59,10.76H21.052a2.241,2.241,0,0,0-.7-1.516A2.174,2.174,0,0,0,18.8,8.65a2.276,2.276,0,0,0-1.92.892,4.19,4.19,0,0,0-.681,2.58v.308a4.106,4.106,0,0,0,.677,2.531A2.287,2.287,0,0,0,18.811,15.849ZM26.624,5.188v2.3H28.4V8.747H26.624v5.9a1.32,1.32,0,0,0,.237.858,1,1,0,0,0,.809.286,3.937,3.937,0,0,0,.773-.105V17a4.742,4.742,0,0,1-1.248.175,2.025,2.025,0,0,1-1.644-.659A2.832,2.832,0,0,1,25,14.645v-5.9H23.267V7.49H25v-2.3ZM32.064,17H30.438V7.49h1.626ZM30.307,4.968a.971.971,0,0,1,.242-.668.907.907,0,0,1,.716-.272.922.922,0,0,1,.721.272.96.96,0,0,1,.246.668.929.929,0,0,1-.246.659.938.938,0,0,1-.721.264.924.924,0,0,1-.716-.264A.938.938,0,0,1,30.307,4.968Zm7.5,9.826,2.355-7.3H41.82L38.41,17H37.171L33.726,7.49h1.661ZM45.151,17H43.525V7.49h1.626ZM43.394,4.968a.971.971,0,0,1,.242-.668.907.907,0,0,1,.716-.272.922.922,0,0,1,.721.272.96.96,0,0,1,.246.668.929.929,0,0,1-.246.659.938.938,0,0,1-.721.264.924.924,0,0,1-.716-.264A.938.938,0,0,1,43.394,4.968Zm3.964,7.2a5.571,5.571,0,0,1,1.037-3.52,3.529,3.529,0,0,1,5.361-.189V3.5h1.626V17H53.888l-.079-1.02a3.311,3.311,0,0,1-2.716,1.2A3.248,3.248,0,0,1,48.4,15.822a5.634,5.634,0,0,1-1.042-3.533Zm1.626.185a4.218,4.218,0,0,0,.668,2.531A2.159,2.159,0,0,0,51.5,15.8a2.372,2.372,0,0,0,2.259-1.389V10.039a2.39,2.39,0,0,0-2.241-1.345,2.17,2.17,0,0,0-1.863.923A4.644,4.644,0,0,0,48.983,12.351ZM63.775,17a3.416,3.416,0,0,1-.229-1,3.628,3.628,0,0,1-2.707,1.178,3.357,3.357,0,0,1-2.307-.8,2.573,2.573,0,0,1-.9-2.017,2.688,2.688,0,0,1,1.129-2.307,5.325,5.325,0,0,1,3.177-.822H63.52v-.747a1.826,1.826,0,0,0-.51-1.358,2.049,2.049,0,0,0-1.5-.505,2.371,2.371,0,0,0-1.459.439,1.3,1.3,0,0,0-.589,1.063H57.825a2.244,2.244,0,0,1,.505-1.375A3.449,3.449,0,0,1,59.7,7.7a4.613,4.613,0,0,1,1.9-.387,3.759,3.759,0,0,1,2.575.822,2.964,2.964,0,0,1,.967,2.263v4.377a5.351,5.351,0,0,0,.334,2.083V17Zm-2.7-1.239a2.858,2.858,0,0,0,1.45-.4,2.392,2.392,0,0,0,.993-1.028V12.386H62.246q-2.988,0-2.988,1.749a1.48,1.48,0,0,0,.51,1.2A1.959,1.959,0,0,0,61.077,15.761ZM67.3,12.166a5.571,5.571,0,0,1,1.037-3.52A3.529,3.529,0,0,1,73.7,8.457V3.5h1.626V17H73.83l-.079-1.02a3.311,3.311,0,0,1-2.716,1.2,3.248,3.248,0,0,1-2.694-1.354A5.634,5.634,0,0,1,67.3,12.289Zm1.626.185a4.218,4.218,0,0,0,.668,2.531,2.159,2.159,0,0,0,1.846.914A2.372,2.372,0,0,0,73.7,14.407V10.039a2.39,2.39,0,0,0-2.241-1.345,2.17,2.17,0,0,0-1.863.923A4.644,4.644,0,0,0,68.926,12.351ZM90.52,17H82.136V15.831l4.43-4.922a10.524,10.524,0,0,0,1.358-1.815A3.029,3.029,0,0,0,88.3,7.648,2.3,2.3,0,0,0,87.69,6a2.12,2.12,0,0,0-1.617-.642,2.511,2.511,0,0,0-1.885.69,2.635,2.635,0,0,0-.672,1.92H81.89a3.774,3.774,0,0,1,1.138-2.856,4.219,4.219,0,0,1,3.045-1.09,4.054,4.054,0,0,1,2.821.936,3.193,3.193,0,0,1,1.037,2.492q0,1.89-2.408,4.5L84.1,15.673H90.52Z" transform="translate(9.256 8.388)" fill="#12263f"/>
      </g>
      <g id="Grupo_1118000" data-name="Grupo 1118000" transform="translate(-5178.944 -9365.684)">
        <rect id="Rectángulo_408520-9" data-name="Rectángulo 408520" width="111.844" height="37.281" rx="10" transform="translate(0)" fill="#fecab2"/>
        <path id="Trazado_908613" data-name="Trazado 908613" d="M10.575,13.651H5.214L4.01,17H2.27L7.156,4.2H8.633l4.9,12.8H11.8Zm-4.852-1.38h4.351L7.895,6.286Zm13.087,3.577a2.342,2.342,0,0,0,1.521-.527A1.855,1.855,0,0,0,21.052,14H22.59a2.949,2.949,0,0,1-.562,1.556,3.7,3.7,0,0,1-1.384,1.178,3.994,3.994,0,0,1-1.833.439,3.918,3.918,0,0,1-3.089-1.3,5.163,5.163,0,0,1-1.147-3.546v-.272a5.725,5.725,0,0,1,.51-2.47,3.883,3.883,0,0,1,1.463-1.679,4.157,4.157,0,0,1,2.254-.6,3.814,3.814,0,0,1,2.659.958A3.424,3.424,0,0,1,22.59,10.76H21.052a2.241,2.241,0,0,0-.7-1.516A2.174,2.174,0,0,0,18.8,8.65a2.276,2.276,0,0,0-1.92.892,4.19,4.19,0,0,0-.681,2.58v.308a4.106,4.106,0,0,0,.677,2.531A2.287,2.287,0,0,0,18.811,15.849ZM26.624,5.188v2.3H28.4V8.747H26.624v5.9a1.32,1.32,0,0,0,.237.858,1,1,0,0,0,.809.286,3.937,3.937,0,0,0,.773-.105V17a4.742,4.742,0,0,1-1.248.175,2.025,2.025,0,0,1-1.644-.659A2.832,2.832,0,0,1,25,14.645v-5.9H23.267V7.49H25v-2.3ZM32.064,17H30.438V7.49h1.626ZM30.307,4.968a.971.971,0,0,1,.242-.668.907.907,0,0,1,.716-.272.922.922,0,0,1,.721.272.96.96,0,0,1,.246.668.929.929,0,0,1-.246.659.938.938,0,0,1-.721.264.924.924,0,0,1-.716-.264A.938.938,0,0,1,30.307,4.968Zm7.5,9.826,2.355-7.3H41.82L38.41,17H37.171L33.726,7.49h1.661ZM45.151,17H43.525V7.49h1.626ZM43.394,4.968a.971.971,0,0,1,.242-.668.907.907,0,0,1,.716-.272.922.922,0,0,1,.721.272.96.96,0,0,1,.246.668.929.929,0,0,1-.246.659.938.938,0,0,1-.721.264.924.924,0,0,1-.716-.264A.938.938,0,0,1,43.394,4.968Zm3.964,7.2a5.571,5.571,0,0,1,1.037-3.52,3.529,3.529,0,0,1,5.361-.189V3.5h1.626V17H53.888l-.079-1.02a3.311,3.311,0,0,1-2.716,1.2A3.248,3.248,0,0,1,48.4,15.822a5.634,5.634,0,0,1-1.042-3.533Zm1.626.185a4.218,4.218,0,0,0,.668,2.531A2.159,2.159,0,0,0,51.5,15.8a2.372,2.372,0,0,0,2.259-1.389V10.039a2.39,2.39,0,0,0-2.241-1.345,2.17,2.17,0,0,0-1.863.923A4.644,4.644,0,0,0,48.983,12.351ZM63.775,17a3.416,3.416,0,0,1-.229-1,3.628,3.628,0,0,1-2.707,1.178,3.357,3.357,0,0,1-2.307-.8,2.573,2.573,0,0,1-.9-2.017,2.688,2.688,0,0,1,1.129-2.307,5.325,5.325,0,0,1,3.177-.822H63.52v-.747a1.826,1.826,0,0,0-.51-1.358,2.049,2.049,0,0,0-1.5-.505,2.371,2.371,0,0,0-1.459.439,1.3,1.3,0,0,0-.589,1.063H57.825a2.244,2.244,0,0,1,.505-1.375A3.449,3.449,0,0,1,59.7,7.7a4.613,4.613,0,0,1,1.9-.387,3.759,3.759,0,0,1,2.575.822,2.964,2.964,0,0,1,.967,2.263v4.377a5.351,5.351,0,0,0,.334,2.083V17Zm-2.7-1.239a2.858,2.858,0,0,0,1.45-.4,2.392,2.392,0,0,0,.993-1.028V12.386H62.246q-2.988,0-2.988,1.749a1.48,1.48,0,0,0,.51,1.2A1.959,1.959,0,0,0,61.077,15.761ZM67.3,12.166a5.571,5.571,0,0,1,1.037-3.52A3.529,3.529,0,0,1,73.7,8.457V3.5h1.626V17H73.83l-.079-1.02a3.311,3.311,0,0,1-2.716,1.2,3.248,3.248,0,0,1-2.694-1.354A5.634,5.634,0,0,1,67.3,12.289Zm1.626.185a4.218,4.218,0,0,0,.668,2.531,2.159,2.159,0,0,0,1.846.914A2.372,2.372,0,0,0,73.7,14.407V10.039a2.39,2.39,0,0,0-2.241-1.345,2.17,2.17,0,0,0-1.863.923A4.644,4.644,0,0,0,68.926,12.351ZM89,12.7h1.775v1.327H89V17H87.365V14.029H81.538v-.958L87.269,4.2H89Zm-5.616,0h3.981V6.427l-.193.352Z" transform="translate(9.256 8.388)" fill="#12263f"/>
      </g>
      <g id="Grupo_1118015" data-name="Grupo 1118015" transform="translate(-5274.263 -9253.841) rotate(90)">
        <path id="Trazado_907432" data-name="Trazado 907432" d="M0,0V70.671" transform="translate(49.972 3.624) rotate(45)" fill="none" stroke="#7a4f00" stroke-linecap="round" stroke-width="2"/>
        <path id="Polígono_5" data-name="Polígono 5" d="M2.8,0l2.8,4.66H0Z" transform="translate(49.642 0) rotate(45)" fill="#7a4f00"/>
      </g>
      <g id="Grupo_1118012" data-name="Grupo 1118012" transform="translate(-5293.836 -9336.008)">
        <path id="Trazado_907432-2" data-name="Trazado 907432" d="M10.757,59.914,0,0" transform="translate(0 7.606) rotate(-45)" fill="none" stroke="#7a4f00" stroke-linecap="round" stroke-width="2"/>
        <path id="Polígono_7" data-name="Polígono 7" d="M2.8,0l2.8,4.66H0Z" transform="translate(54.42 43.32) rotate(135)" fill="#7a4f00"/>
      </g>
      <g id="Grupo_1118021" data-name="Grupo 1118021" transform="translate(-5216.478 -9336.008)">
        <path id="Trazado_907432-3" data-name="Trazado 907432" d="M10.756,0,0,59.914" transform="translate(12.055 49.972) rotate(-135)" fill="none" stroke="#7a4f00" stroke-linecap="round" stroke-width="2"/>
        <path id="Polígono_7-2" data-name="Polígono 7" d="M2.8,0l2.8,4.66H0Z" transform="translate(3.954 47.274) rotate(-135)" fill="#7a4f00"/>
      </g>
      <g id="Grupo_1118010" data-name="Grupo 1118010" transform="translate(-5227.588 -9390.548) rotate(45)">
        <path id="Trazado_907432-4" data-name="Trazado 907432" d="M0,0V100.667" transform="translate(71.182 3.845) rotate(45)" fill="none" stroke="#7a4f00" stroke-linecap="round" stroke-width="2"/>
        <path id="Polígono_5-2" data-name="Polígono 5" d="M3.051,0,6.1,4.774H0Z" transform="translate(70.712 0) rotate(45)" fill="#7a4f00"/>
      </g>
      <g id="Grupo_1118009" data-name="Grupo 1118009" transform="translate(-5315.602 -9383.092) rotate(135)">
        <path id="Trazado_907432-5" data-name="Trazado 907432" d="M0,0V34.561" transform="translate(24.438 3.668) rotate(45)" fill="none" stroke="#7a4f00" stroke-linecap="round" stroke-width="2"/>
        <path id="Polígono_5-3" data-name="Polígono 5" d="M2.83,0,5.66,4.716H0Z" transform="translate(24.104 0) rotate(45)" fill="#7a4f00"/>
      </g>
      <g id="Grupo_1118016" data-name="Grupo 1118016" transform="translate(-5167.899 -9259.545) rotate(-135)">
        <path id="Trazado_907432-6" data-name="Trazado 907432" d="M0,0V18.221" transform="translate(12.884 4.092) rotate(45)" fill="none" stroke="#7a4f00" stroke-linecap="round" stroke-width="2"/>
        <path id="Polígono_5-4" data-name="Polígono 5" d="M3.072,0,6.144,5.431H0Z" transform="translate(12.631 0) rotate(45)" fill="#7a4f00"/>
      </g>
      <g id="Grupo_1118022" data-name="Grupo 1118022" transform="translate(-5297.451 -9259.545) rotate(-135)">
        <path id="Trazado_907432-7" data-name="Trazado 907432" d="M0,0V18.221" transform="translate(12.884 4.092) rotate(45)" fill="none" stroke="#7a4f00" stroke-linecap="round" stroke-width="2"/>
        <path id="Polígono_5-5" data-name="Polígono 5" d="M3.072,0,6.144,5.431H0Z" transform="translate(12.631 0) rotate(45)" fill="#7a4f00"/>
      </g>
      <g id="Grupo_1118013" data-name="Grupo 1118013" transform="translate(-5212.213 -9236.527) rotate(135)">
        <path id="Trazado_907432-8" data-name="Trazado 907432" d="M0,0V30.107" transform="translate(21.289 3.195) rotate(45)" fill="none" stroke="#7a4f00" stroke-linecap="round" stroke-width="2"/>
        <path id="Polígono_5-6" data-name="Polígono 5" d="M2.465,0,4.93,4.109H0Z" transform="translate(20.998) rotate(45)" fill="#7a4f00"/>
      </g>
      <g id="Grupo_1118008" data-name="Grupo 1118008" transform="translate(-5284.033 -9427.34)">
        <path id="Trazado_907432-9" data-name="Trazado 907432" d="M28.141,0,0,119" transform="translate(23.495 104.045) rotate(-135)" fill="none" stroke="#7a4f00" stroke-linecap="round" stroke-width="2"/>
        <path id="Polígono_6" data-name="Polígono 6" d="M2.33,0,4.66,3.728H0Z" transform="translate(2.33 87.875) rotate(-120)" fill="#7a4f00"/>
      </g>
      <g id="Grupo_1118020" data-name="Grupo 1118020" transform="translate(-5176.392 -9480.316) rotate(90)">
        <g id="Grupo_1118006" data-name="Grupo 1118006" transform="translate(0 0)">
          <path id="Trazado_907432-10" data-name="Trazado 907432" d="M0,0V70.671" transform="translate(49.972 3.624) rotate(45)" fill="none" stroke="#7a4f00" stroke-linecap="round" stroke-width="2"/>
          <path id="Polígono_5-7" data-name="Polígono 5" d="M2.8,0l2.8,4.66H0Z" transform="translate(49.642 0) rotate(45)" fill="#7a4f00"/>
        </g>
        <g id="Grupo_1118007" data-name="Grupo 1118007" transform="translate(0 53.596)">
          <path id="Trazado_907432-11" data-name="Trazado 907432" d="M0,70.671V0" transform="translate(0 0) rotate(-45)" fill="none" stroke="#7a4f00" stroke-linecap="round" stroke-width="2"/>
          <path id="Polígono_5-8" data-name="Polígono 5" d="M2.8,0l2.8,4.66H0Z" transform="translate(53.596 49.642) rotate(135)" fill="#7a4f00"/>
        </g>
      </g>
    </g>
  </g>
</svg>
