<svg xmlns="http://www.w3.org/2000/svg" xmlns:xlink="http://www.w3.org/1999/xlink" width="190" height="144" viewBox="0 0 190 144">
  <defs>
    <clipPath id="clip-path">
      <rect id="Rectángulo_400938" data-name="Rectángulo 400938" width="123" height="123" transform="translate(0.47)" fill="none"/>
    </clipPath>
    <clipPath id="clip-path-2">
      <rect id="Rectángulo_401073" data-name="Rectángulo 401073" width="92.219" height="41.532" fill="#efb499"/>
    </clipPath>
  </defs>
  <g id="img7" transform="translate(-0.47)">
    <rect id="Rectángulo_408811" data-name="Rectángulo 408811" width="190" height="144" transform="translate(0.47)" fill="#ffe2b7"/>
    <g id="Grupo_1120373" data-name="Grupo 1120373" transform="translate(34 11)">
      <g id="Grupo_1118703" data-name="Grupo 1118703" transform="translate(0 0)">
        <g id="Grupo_1099376" data-name="Grupo 1099376" transform="translate(0 0)">
          <rect id="Rectángulo_401103" data-name="Rectángulo 401103" width="123" height="123" transform="translate(0.47)" fill="none"/>
          <g id="Grupo_1099348" data-name="Grupo 1099348">
            <g id="Grupo_1099282" data-name="Grupo 1099282">
              <g id="Grupo_1099281" data-name="Grupo 1099281" clip-path="url(#clip-path-2)">
                <path id="Trazado_873375" data-name="Trazado 873375" d="M74.8,9.1c-4.139,0-6.28-2.03-8.17-3.821-1.855-1.756-3.452-3.274-6.792-3.274s-4.937,1.517-6.792,3.274C51.161,7.072,49.023,9.1,44.881,9.1s-6.28-2.03-8.169-3.821C34.857,3.525,33.26,2.007,29.92,2.007s-4.937,1.517-6.789,3.274C21.241,7.072,19.1,9.1,14.962,9.1S8.679,7.072,6.789,5.281C4.937,3.525,3.34,2.007,0,2.007V0C4.139,0,6.28,2.033,8.17,3.821c1.855,1.759,3.452,3.274,6.792,3.274S19.9,5.58,21.75,3.824C23.637,2.033,25.781,0,29.92,0s6.283,2.033,8.17,3.821c1.855,1.759,3.452,3.274,6.792,3.274s4.937-1.514,6.792-3.274C53.56,2.033,55.7,0,59.843,0s6.283,2.033,8.17,3.821C69.867,5.58,71.464,7.094,74.8,7.094S79.742,5.58,81.6,3.821C83.483,2.033,85.624,0,89.766,0V2.007c-3.34,0-4.937,1.517-6.792,3.274C81.084,7.072,78.943,9.1,74.8,9.1" transform="translate(2.453 32.43)" fill="#efb499"/>
                <path id="Trazado_873376" data-name="Trazado 873376" d="M74.8,9.1c-4.139,0-6.283-2.03-8.17-3.824-1.855-1.756-3.452-3.27-6.792-3.27s-4.937,1.514-6.792,3.27C51.164,7.072,49.023,9.1,44.881,9.1s-6.283-2.03-8.17-3.824c-1.855-1.756-3.452-3.27-6.792-3.27s-4.937,1.517-6.789,3.27C21.241,7.072,19.1,9.1,14.962,9.1S8.679,7.072,6.789,5.278C4.937,3.522,3.34,2.007,0,2.007V0C4.139,0,6.283,2.03,8.17,3.821c1.855,1.759,3.452,3.274,6.792,3.274S19.9,5.58,21.75,3.821C23.637,2.03,25.781,0,29.92,0S36.2,2.03,38.093,3.821c1.852,1.759,3.449,3.274,6.789,3.274s4.937-1.514,6.792-3.274C53.56,2.03,55.7,0,59.843,0s6.283,2.03,8.17,3.821C69.867,5.58,71.464,7.094,74.8,7.094S79.742,5.58,81.6,3.821C83.486,2.03,85.627,0,89.769,0V2.007c-3.34,0-4.94,1.517-6.8,3.27C81.084,7.072,78.943,9.1,74.8,9.1" transform="translate(1.635 21.62)" fill="#efb499"/>
                <path id="Trazado_873377" data-name="Trazado 873377" d="M74.8,9.1c-4.139,0-6.283-2.03-8.169-3.824-1.855-1.756-3.452-3.27-6.792-3.27s-4.937,1.514-6.792,3.27C51.164,7.072,49.02,9.1,44.881,9.1s-6.283-2.03-8.17-3.824c-1.855-1.756-3.452-3.27-6.792-3.27s-4.937,1.517-6.789,3.27C21.241,7.072,19.1,9.1,14.962,9.1S8.678,7.072,6.789,5.278C4.937,3.522,3.34,2.007,0,2.007V0C4.139,0,6.283,2.03,8.169,3.821c1.851,1.759,3.452,3.274,6.792,3.274S19.9,5.58,21.75,3.821C23.637,2.03,25.781,0,29.92,0S36.2,2.03,38.093,3.821c1.852,1.759,3.449,3.274,6.789,3.274s4.937-1.514,6.792-3.274C53.56,2.03,55.7,0,59.843,0s6.283,2.03,8.17,3.821C69.867,5.58,71.464,7.094,74.8,7.094S79.742,5.58,81.6,3.821C83.486,2.03,85.624,0,89.769,0V2.007c-3.34,0-4.941,1.517-6.8,3.27C81.084,7.072,78.943,9.1,74.8,9.1" transform="translate(0.818 10.81)" fill="#efb499"/>
                <path id="Trazado_873378" data-name="Trazado 873378" d="M74.8,9.1c-4.139,0-6.28-2.03-8.17-3.821-1.855-1.756-3.452-3.27-6.792-3.27s-4.937,1.514-6.789,3.27C51.164,7.069,49.023,9.1,44.881,9.1s-6.28-2.03-8.169-3.821c-1.855-1.756-3.452-3.27-6.792-3.27s-4.937,1.514-6.789,3.267C21.245,7.069,19.1,9.1,14.962,9.1S8.678,7.069,6.789,5.278C4.937,3.522,3.34,2.007,0,2.007V0C4.139,0,6.283,2.03,8.17,3.821c1.855,1.756,3.452,3.27,6.792,3.27S19.9,5.577,21.75,3.821C23.64,2.03,25.781,0,29.92,0s6.28,2.03,8.173,3.821c1.852,1.756,3.449,3.27,6.789,3.27s4.937-1.514,6.792-3.27C53.563,2.03,55.7,0,59.843,0s6.28,2.03,8.17,3.821c1.855,1.756,3.452,3.27,6.792,3.27s4.937-1.514,6.792-3.27C83.486,2.03,85.627,0,89.769,0V2.007c-3.344,0-4.941,1.514-6.8,3.27C81.084,7.069,78.943,9.1,74.8,9.1" transform="translate(0 0.003)" fill="#efb499"/>
              </g>
            </g>
          </g>
          <circle id="Elipse_11504" data-name="Elipse 11504" cx="51.5" cy="51.5" r="51.5" transform="translate(15.47 18)" fill="#ffce73"/>
          <circle id="Elipse_11503" data-name="Elipse 11503" cx="53.5" cy="53.5" r="53.5" transform="translate(8.47 8)" fill="#f3f9ff"/>
        </g>
        <g id="Grupo_1118712" data-name="Grupo 1118712" transform="translate(31.512 24.97)">
          <path id="Trazado_908030" data-name="Trazado 908030" d="M165.1,61.345a1.23,1.23,0,0,0,1.369-1.073,16.3,16.3,0,1,0-2.788,7.317,1.23,1.23,0,1,0-2.02-1.4,13.837,13.837,0,1,1,2.366-6.208A1.23,1.23,0,0,0,165.1,61.345Z" transform="translate(-119.798 -35.543)" fill="#7d3a1b"/>
          <path id="Trazado_908031" data-name="Trazado 908031" d="M122.194,56.576h-.262V44.352a22.768,22.768,0,1,0-7.857,1.148,1.23,1.23,0,1,0,.072-2.459,20.275,20.275,0,1,1,6.216-.777,1.23,1.23,0,0,0-.891,1.182V57.806a1.23,1.23,0,0,0,1.23,1.23h1.492a.7.7,0,0,1,.578,1.1l-7.444,10.9a.7.7,0,0,1-1.157,0l-7.444-10.9a.7.7,0,0,1,.578-1.1H108.8a1.23,1.23,0,0,0,1.23-1.23V50.147a1.23,1.23,0,0,0-2.46,0v6.429h-.262a3.162,3.162,0,0,0-2.61,4.942l7.444,10.9a3.161,3.161,0,0,0,5.22,0l7.444-10.9a3.162,3.162,0,0,0-2.61-4.942Z" transform="translate(-84.254 0)" fill="#7d3a1b"/>
          <path id="Trazado_908032" data-name="Trazado 908032" d="M55.341,220.43v-7.508a1.23,1.23,0,1,0-2.46,0v8.624a1.23,1.23,0,0,0,1.23,1.23h.395a.615.615,0,0,1,.508.962l-4.89,7.163a.614.614,0,0,1-1.016,0l-4.89-7.163a.615.615,0,0,1,.508-.962h.395a1.23,1.23,0,0,0,1.23-1.23V201.23a1.23,1.23,0,1,0-2.46,0v19.2a3.077,3.077,0,0,0-1.7,4.694l4.89,7.163a3.076,3.076,0,0,0,5.079,0l4.89-7.163a3.077,3.077,0,0,0-1.7-4.694Z" transform="translate(-41.648 -169.25)" fill="#7d3a1b"/>
          <path id="Trazado_908033" data-name="Trazado 908033" d="M348.4,220.43v-19.2a1.23,1.23,0,1,0-2.46,0v20.315a1.23,1.23,0,0,0,1.23,1.23h.395a.615.615,0,0,1,.508.962l-4.89,7.163a.614.614,0,0,1-1.016,0l-4.89-7.163a.615.615,0,0,1,.508-.962h.395a1.23,1.23,0,0,0,1.23-1.23v-8.624a1.23,1.23,0,1,0-2.46,0v7.508a3.076,3.076,0,0,0-1.7,4.694l4.89,7.163a3.076,3.076,0,0,0,5.079,0l4.89-7.163A3.077,3.077,0,0,0,348.4,220.43Z" transform="translate(-289.648 -169.25)" fill="#7d3a1b"/>
          <path id="Trazado_908034" data-name="Trazado 908034" d="M206.992,99.6a1.23,1.23,0,0,0,1.23-1.23V96.725c2.712-.465,4.754-2.429,4.754-4.775,0-3.69-3.321-4.363-5.746-4.855-2.878-.584-3.775-1-3.775-2.444,0-1.311,1.617-2.42,3.53-2.42a3.963,3.963,0,0,1,3.131,1.321,1.23,1.23,0,1,0,1.952-1.5,6.069,6.069,0,0,0-3.847-2.181V78.23a1.23,1.23,0,0,0-2.46,0v1.644C203.044,80.336,201,82.3,201,84.651c0,3.69,3.321,4.363,5.746,4.855,2.879.584,3.775,1,3.775,2.444,0,1.311-1.617,2.42-3.53,2.42a3.963,3.963,0,0,1-3.131-1.321,1.23,1.23,0,0,0-1.952,1.5,6.073,6.073,0,0,0,3.859,2.183v1.643A1.23,1.23,0,0,0,206.992,99.6Z" transform="translate(-176.496 -65.161)" fill="#7d3a1b"/>
        </g>
      </g>
    </g>
  </g>
</svg>
