<svg xmlns="http://www.w3.org/2000/svg" width="90" height="90" viewBox="0 0 90 90">
  <g id="img8" transform="translate(-579.711 -3735)">
    <circle id="Elipse_11620" data-name="Elipse 11620" cx="45" cy="45" r="45" transform="translate(579.711 3735)" fill="#ffce73"/>
    <g id="Grupo_1117898" data-name="Grupo 1117898" transform="translate(592.422 3746.868)">
      <path id="Trazado_907325" data-name="Trazado 907325" d="M318.921,309.2a8.808,8.808,0,1,0,8.809,8.809A8.819,8.819,0,0,0,318.921,309.2Z" transform="translate(-272.523 -270.862)" fill="#6cf5c2"/>
      <path id="Trazado_907326" data-name="Trazado 907326" d="M22,139.751v26.6a1.494,1.494,0,0,0,1.491,1.494H49.207a10.153,10.153,0,0,1-.361-2.688q0-.384.028-.761H46.392a.686.686,0,0,1-.686-.686v-3.728a.686.686,0,0,1,.686-.686H50.12a.682.682,0,0,1,.462.18,10.26,10.26,0,0,1,3.346-3.129h-.9a.686.686,0,0,1-.686-.686v-3.728a.686.686,0,0,1,.686-.686h3.728a.686.686,0,0,1,.686.686V155.1a10.221,10.221,0,0,1,4.112.2V139.751Z" transform="translate(-12.629 -118.004)" fill="#eceff1"/>
      <path id="Trazado_907327" data-name="Trazado 907327" d="M50.3,37.751V15.545a2.865,2.865,0,0,0-2.862-2.862H43.763v-1.4a2.353,2.353,0,0,0-4.705,0v1.4H35.59v-1.4a2.353,2.353,0,0,0-4.705,0v1.4H27.417v-1.4a2.353,2.353,0,0,0-4.705,0v1.4H19.243v-1.4a2.353,2.353,0,0,0-4.705,0v1.4H10.862A2.865,2.865,0,0,0,8,15.545V51.067a2.867,2.867,0,0,0,2.862,2.865h27.95A10.177,10.177,0,1,0,50.3,37.751ZM40.429,11.286a.982.982,0,0,1,1.963,0v1.4H40.429Zm-8.173,0a.982.982,0,0,1,1.963,0v1.4H32.256Zm-8.173,0a.982.982,0,0,1,1.963,0v1.4H24.082Zm-8.173,0a.982.982,0,0,1,1.963,0v1.4H15.909Zm-5.047,2.768h3.676v.753a2.355,2.355,0,0,0,2.354,2.351.686.686,0,1,0,0-1.371.983.983,0,0,1-.983-.98v-.753h6.8v.753a2.355,2.355,0,0,0,2.354,2.351.686.686,0,1,0,0-1.371.983.983,0,0,1-.983-.98v-.753h6.8v.753a2.355,2.355,0,0,0,2.354,2.351.686.686,0,0,0,0-1.371.983.983,0,0,1-.983-.98v-.753h6.8v.753a2.355,2.355,0,0,0,2.354,2.351.686.686,0,0,0,0-1.371.983.983,0,0,1-.983-.98v-.753h7.01a1.493,1.493,0,0,1,1.491,1.491v4.831H9.371V15.545a1.493,1.493,0,0,1,1.491-1.491ZM9.371,21.747H48.93V37.291a10.221,10.221,0,0,0-4.112-.2V33.929a.686.686,0,0,0-.686-.686H40.4a.686.686,0,0,0-.686.686v3.728a.686.686,0,0,0,.686.686h.9a10.26,10.26,0,0,0-3.346,3.129.682.682,0,0,0-.462-.18H33.763a.686.686,0,0,0-.686.686v3.728a.686.686,0,0,0,.686.686h2.483q-.028.377-.028.761a10.15,10.15,0,0,0,.361,2.688H10.862a1.494,1.494,0,0,1-1.491-1.494ZM43.447,36.972H41.09V34.615h2.357Zm-6.641,6.769a10.094,10.094,0,0,0-.363,1.279H34.449V42.663h2.357ZM10.862,52.561a1.494,1.494,0,0,1-1.491-1.494v-.276a2.843,2.843,0,0,0,1.491.42h26.2a10.167,10.167,0,0,0,.715,1.35H10.862Zm35.536,3.4a8.808,8.808,0,1,1,8.809-8.806A8.818,8.818,0,0,1,46.4,55.959ZM13.841,30.292h3.728a.686.686,0,0,0,.686-.686V25.878a.686.686,0,0,0-.686-.686H13.841a.686.686,0,0,0-.686.686v3.728A.686.686,0,0,0,13.841,30.292Zm.686-3.728h2.357v2.357H14.527Zm-.686,19.828h3.728a.686.686,0,0,0,.686-.686V41.978a.686.686,0,0,0-.686-.686H13.841a.686.686,0,0,0-.686.686v3.728A.686.686,0,0,0,13.841,46.392Zm.686-3.728h2.357v2.357H14.527Zm5.955-12.371H24.21a.686.686,0,0,0,.686-.686V25.878a.686.686,0,0,0-.686-.686H20.482a.686.686,0,0,0-.686.686v3.728A.686.686,0,0,0,20.482,30.292Zm.686-3.728h2.357v2.357H21.167Zm-.686,19.828H24.21a.686.686,0,0,0,.686-.686V41.978a.686.686,0,0,0-.686-.686H20.482a.686.686,0,0,0-.686.686v3.728A.686.686,0,0,0,20.482,46.392Zm.686-3.728h2.357v2.357H21.167Zm5.955-12.371h3.728a.686.686,0,0,0,.686-.686V25.878a.686.686,0,0,0-.686-.686H27.123a.686.686,0,0,0-.686.686v3.728A.686.686,0,0,0,27.123,30.292Zm.686-3.728h2.357v2.357H27.808Zm-.686,19.828h3.728a.686.686,0,0,0,.686-.686V41.978a.686.686,0,0,0-.686-.686H27.123a.686.686,0,0,0-.686.686v3.728A.686.686,0,0,0,27.123,46.392Zm.686-3.728h2.357v2.357H27.808Zm5.955-12.371h3.728a.686.686,0,0,0,.686-.686V25.879a.686.686,0,0,0-.686-.686H33.763a.686.686,0,0,0-.686.686v3.728A.686.686,0,0,0,33.763,30.293Zm.686-3.728h2.357v2.357H34.449ZM40.4,30.293h3.728a.686.686,0,0,0,.686-.686V25.879a.686.686,0,0,0-.686-.686H40.4a.686.686,0,0,0-.686.686v3.728A.686.686,0,0,0,40.4,30.293Zm.686-3.728h2.357v2.357H41.09ZM13.841,38.344H17.57a.686.686,0,0,0,.686-.686V33.93a.686.686,0,0,0-.686-.686H13.841a.686.686,0,0,0-.686.686v3.728A.686.686,0,0,0,13.841,38.344Zm.686-3.728h2.357v2.357H14.527Zm5.955,3.728H24.21a.686.686,0,0,0,.686-.686V33.93a.686.686,0,0,0-.686-.686H20.482a.686.686,0,0,0-.686.686v3.728A.686.686,0,0,0,20.482,38.344Zm.686-3.728h2.357v2.357H21.168Zm5.955,3.728h3.728a.686.686,0,0,0,.686-.686V33.93a.686.686,0,0,0-.686-.686H27.123a.686.686,0,0,0-.686.686v3.728A.686.686,0,0,0,27.123,38.344Zm.686-3.728h2.357v2.357H27.808Zm5.955,3.728h3.728a.686.686,0,0,0,.686-.686V33.93a.686.686,0,0,0-.686-.686H33.763a.686.686,0,0,0-.686.686v3.728A.686.686,0,0,0,33.763,38.344Zm.686-3.728h2.357v2.357H34.449Zm14.13,8.8-3.528,3.562-.851-.827a1.855,1.855,0,0,0-2.587,2.658h0l2.163,2.1a1.861,1.861,0,0,0,2.6-.02L51.2,46.039a1.855,1.855,0,0,0-2.621-2.625Zm1.65,1.656-4.821,4.849a.484.484,0,0,1-.676,0l-2.162-2.1a.482.482,0,0,1-.145-.34.483.483,0,0,1,.819-.354l1.338,1.3a.686.686,0,0,0,.965-.009l4-4.041a.483.483,0,1,1,.68.688Z"/>
      <g id="Grupo_1117897" data-name="Grupo 1117897" transform="translate(14.527 26.564)">
        <path id="Trazado_907328" data-name="Trazado 907328" d="M142.443,353.311H144.8v2.357h-2.357Z" transform="translate(-135.802 -337.212)" fill="#8ac9fe"/>
        <path id="Trazado_907329" data-name="Trazado 907329" d="M142.443,188.932H144.8v2.357h-2.357Z" transform="translate(-135.802 -188.932)" fill="#8ac9fe"/>
        <path id="Trazado_907330" data-name="Trazado 907330" d="M142.443,271.135H144.8v2.357h-2.357Z" transform="translate(-135.802 -263.084)" fill="#8ac9fe"/>
        <path id="Trazado_907331" data-name="Trazado 907331" d="M210.248,188.932h2.357v2.357h-2.357Z" transform="translate(-196.967 -188.932)" fill="#8ac9fe"/>
        <path id="Trazado_907332" data-name="Trazado 907332" d="M210.248,271.135h2.357v2.357h-2.357Z" transform="translate(-196.967 -263.084)" fill="#8ac9fe"/>
        <path id="Trazado_907333" data-name="Trazado 907333" d="M210.248,353.311h2.357v2.357h-2.357Z" transform="translate(-196.967 -337.212)" fill="#8ac9fe"/>
        <path id="Trazado_907334" data-name="Trazado 907334" d="M74.64,188.932H77v2.357H74.64Z" transform="translate(-74.64 -188.932)" fill="#8ac9fe"/>
      </g>
      <path id="Trazado_907335" data-name="Trazado 907335" d="M366.615,369.577l-4,4.041a.686.686,0,0,1-.965.009l-1.338-1.3a.484.484,0,0,0-.673.694l2.162,2.1a.484.484,0,0,0,.676,0l4.821-4.849a.483.483,0,1,0-.68-.688Z" transform="translate(-317.066 -325.195)" fill="#fff"/>
      <path id="Trazado_907336" data-name="Trazado 907336" d="M345.856,271.135h2.357v2.357h-2.357Z" transform="translate(-304.766 -236.52)" fill="#8ac9fe"/>
      <path id="Trazado_907337" data-name="Trazado 907337" d="M74.64,271.135H77v2.357H74.64Z" transform="translate(-60.113 -236.52)" fill="#8ac9fe"/>
      <path id="Trazado_907338" data-name="Trazado 907338" d="M74.64,353.311H77v2.357H74.64Z" transform="translate(-60.113 -310.648)" fill="#8ac9fe"/>
      <path id="Trazado_907339" data-name="Trazado 907339" d="M280.046,355.668a10.089,10.089,0,0,1,.363-1.279v-1.078h-2.357v2.357Z" transform="translate(-243.603 -310.648)" fill="#8ac9fe"/>
      <path id="Trazado_907340" data-name="Trazado 907340" d="M23.491,436.716A2.843,2.843,0,0,1,22,436.3v.276a1.494,1.494,0,0,0,1.491,1.494H50.407a10.168,10.168,0,0,1-.715-1.35h-26.2Z" transform="translate(-12.629 -385.505)" fill="#d2d9db"/>
      <path id="Trazado_907341" data-name="Trazado 907341" d="M61.559,62.694A1.493,1.493,0,0,0,60.068,61.2h-7.01v.753a.983.983,0,0,0,.983.98.686.686,0,1,1,0,1.371,2.355,2.355,0,0,1-2.354-2.351V61.2h-6.8v.753a.983.983,0,0,0,.983.98.686.686,0,1,1,0,1.371,2.355,2.355,0,0,1-2.354-2.351V61.2h-6.8v.753a.983.983,0,0,0,.983.98.686.686,0,0,1,0,1.371,2.355,2.355,0,0,1-2.354-2.351V61.2h-6.8v.753a.983.983,0,0,0,.983.98.686.686,0,1,1,0,1.371,2.355,2.355,0,0,1-2.354-2.351V61.2H23.491A1.493,1.493,0,0,0,22,62.694v4.831H61.559Z" transform="translate(-12.629 -47.149)" fill="#fe646f"/>
      <path id="Trazado_907342" data-name="Trazado 907342" d="M278.052,188.932h2.357v2.357h-2.357Z" transform="translate(-243.603 -162.368)" fill="#8ac9fe"/>
      <path id="Trazado_907343" data-name="Trazado 907343" d="M345.856,188.932h2.357v2.357h-2.357Z" transform="translate(-304.766 -162.368)" fill="#8ac9fe"/>
      <path id="Trazado_907344" data-name="Trazado 907344" d="M278.052,271.135h2.357v2.357h-2.357Z" transform="translate(-243.603 -236.52)" fill="#8ac9fe"/>
    </g>
  </g>
</svg>
