<svg xmlns="http://www.w3.org/2000/svg" width="400" height="660" viewBox="0 0 400 660">
  <g id="img8_1" transform="translate(4063 4748)">
    <rect id="Rectángulo_408794" data-name="Rectángulo 408794" width="400" height="660" transform="translate(-4063 -4748)" fill="#fef7eb"/>
    <g id="Grupo_1120344" data-name="Grupo 1120344" transform="translate(1253 2690)">
      <path id="Trazado_907451" data-name="Trazado 907451" d="M237.168,174.749,0,250.394" transform="translate(-4822.605 -7383.718) rotate(90)" fill="none" stroke="#7a4f00" stroke-linecap="round" stroke-width="2"/>
      <path id="Trazado_907455" data-name="Trazado 907455" d="M252.5,70.646,0,0" transform="translate(-5068 -6822.5) rotate(-90)" fill="none" stroke="#7a4f00" stroke-linecap="round" stroke-width="2"/>
      <g id="Grupo_1118049" data-name="Grupo 1118049" transform="translate(-5162.879 -7429)">
        <g id="Rectángulo_408520" data-name="Rectángulo 408520" transform="translate(-0.121)" fill="#ffce73" stroke="#ffb937" stroke-width="2">
          <rect width="90" height="25" stroke="none"/>
          <rect x="1" y="1" width="88" height="23" fill="none"/>
        </g>
        <g id="Rectángulo_408523" data-name="Rectángulo 408523" transform="translate(-0.121 23)" fill="#ffe7ba" stroke="#ffb937" stroke-width="2">
          <rect width="90" height="25" stroke="none"/>
          <rect x="1" y="1" width="88" height="23" fill="none"/>
        </g>
        <g id="Rectángulo_408524" data-name="Rectángulo 408524" transform="translate(-0.121 46)" fill="#ffe7ba" stroke="#ffb937" stroke-width="2">
          <rect width="90" height="25" stroke="none"/>
          <rect x="1" y="1" width="88" height="23" fill="none"/>
        </g>
        <path id="Trazado_908673" data-name="Trazado 908673" d="M17.17,17H15.483V4.2H17.17Zm4.368-9.51.053,1.2a3.465,3.465,0,0,1,2.848-1.371q3.015,0,3.041,3.4V17H25.854V10.707a2.189,2.189,0,0,0-.47-1.521,1.884,1.884,0,0,0-1.437-.492,2.347,2.347,0,0,0-1.389.422,2.865,2.865,0,0,0-.932,1.107V17H20V7.49ZM31.7,17H30.073V7.49H31.7ZM29.941,4.968a.971.971,0,0,1,.242-.668.907.907,0,0,1,.716-.272.922.922,0,0,1,.721.272.96.96,0,0,1,.246.668.929.929,0,0,1-.246.659.938.938,0,0,1-.721.264.924.924,0,0,1-.716-.264A.938.938,0,0,1,29.941,4.968Zm8.174,10.881a2.342,2.342,0,0,0,1.521-.527A1.855,1.855,0,0,0,40.356,14h1.538a2.949,2.949,0,0,1-.562,1.556,3.7,3.7,0,0,1-1.384,1.178,3.994,3.994,0,0,1-1.833.439,3.918,3.918,0,0,1-3.089-1.3,5.163,5.163,0,0,1-1.147-3.546v-.272a5.725,5.725,0,0,1,.51-2.47,3.883,3.883,0,0,1,1.463-1.679,4.157,4.157,0,0,1,2.254-.6,3.814,3.814,0,0,1,2.659.958,3.424,3.424,0,0,1,1.129,2.487H40.356a2.241,2.241,0,0,0-.7-1.516,2.174,2.174,0,0,0-1.551-.593,2.276,2.276,0,0,0-1.92.892,4.19,4.19,0,0,0-.681,2.58v.308a4.106,4.106,0,0,0,.677,2.531A2.287,2.287,0,0,0,38.115,15.849ZM45.489,17H43.863V7.49h1.626ZM43.731,4.968a.971.971,0,0,1,.242-.668.907.907,0,0,1,.716-.272.922.922,0,0,1,.721.272.96.96,0,0,1,.246.668.929.929,0,0,1-.246.659.938.938,0,0,1-.721.264.924.924,0,0,1-.716-.264A.938.938,0,0,1,43.731,4.968Zm3.929,7.189a5.617,5.617,0,0,1,.549-2.514,4.1,4.1,0,0,1,1.529-1.723,4.163,4.163,0,0,1,2.237-.606,4.01,4.01,0,0,1,3.142,1.345,5.174,5.174,0,0,1,1.2,3.577v.114a5.666,5.666,0,0,1-.532,2.492,4.038,4.038,0,0,1-1.521,1.718,4.211,4.211,0,0,1-2.272.615,4,4,0,0,1-3.133-1.345,5.147,5.147,0,0,1-1.2-3.56Zm1.635.193a4.068,4.068,0,0,0,.734,2.54,2.487,2.487,0,0,0,3.933-.013,4.449,4.449,0,0,0,.729-2.72,4.061,4.061,0,0,0-.743-2.536,2.361,2.361,0,0,0-1.973-.971,2.335,2.335,0,0,0-1.942.958A4.416,4.416,0,0,0,49.294,12.351Z" transform="translate(9.879 1)" fill="#12263f"/>
        <path id="Trazado_908674" data-name="Trazado 908674" d="M18.534,11.542a7.436,7.436,0,0,1-.976,4.245,3.47,3.47,0,0,1-3.05,1.389,3.5,3.5,0,0,1-3.032-1.358,7.058,7.058,0,0,1-1.02-4.056V9.591A7.271,7.271,0,0,1,11.433,5.4a3.5,3.5,0,0,1,3.059-1.371A3.528,3.528,0,0,1,17.532,5.35a7.017,7.017,0,0,1,1,4.083ZM16.908,9.318a5.958,5.958,0,0,0-.58-3.01,2,2,0,0,0-1.837-.945,1.97,1.97,0,0,0-1.819.94A5.817,5.817,0,0,0,12.083,9.2v2.6a6.053,6.053,0,0,0,.6,3.063,1.993,1.993,0,0,0,1.824.989,1.966,1.966,0,0,0,1.789-.932,5.834,5.834,0,0,0,.611-2.936Z" transform="translate(9.879 48)" fill="#12263f"/>
        <path id="Trazado_908675" data-name="Trazado 908675" d="M18.534,11.542a7.436,7.436,0,0,1-.976,4.245,3.47,3.47,0,0,1-3.05,1.389,3.5,3.5,0,0,1-3.032-1.358,7.058,7.058,0,0,1-1.02-4.056V9.591A7.271,7.271,0,0,1,11.433,5.4a3.5,3.5,0,0,1,3.059-1.371A3.528,3.528,0,0,1,17.532,5.35a7.017,7.017,0,0,1,1,4.083ZM16.908,9.318a5.958,5.958,0,0,0-.58-3.01,2,2,0,0,0-1.837-.945,1.97,1.97,0,0,0-1.819.94A5.817,5.817,0,0,0,12.083,9.2v2.6a6.053,6.053,0,0,0,.6,3.063,1.993,1.993,0,0,0,1.824.989,1.966,1.966,0,0,0,1.789-.932,5.834,5.834,0,0,0,.611-2.936Z" transform="translate(50.879 48)" fill="#12263f"/>
        <line id="Línea_3269" data-name="Línea 3269" y2="24.5" transform="translate(45.522 46.5)" fill="none" stroke="#ffb937" stroke-width="2"/>
      </g>
      <g id="Grupo_1118057" data-name="Grupo 1118057" transform="translate(-5167.444 -6858)">
        <g id="Rectángulo_408520-2" data-name="Rectángulo 408520" transform="translate(0.444)" fill="#ffce73" stroke="#ffb937" stroke-width="2">
          <rect width="99" height="25" stroke="none"/>
          <rect x="1" y="1" width="97" height="23" fill="none"/>
        </g>
        <g id="Rectángulo_408523-2" data-name="Rectángulo 408523" transform="translate(0.444 23)" fill="#ffe7ba" stroke="#ffb937" stroke-width="2">
          <rect width="99" height="25" stroke="none"/>
          <rect x="1" y="1" width="97" height="23" fill="none"/>
        </g>
        <g id="Rectángulo_408524-2" data-name="Rectángulo 408524" transform="translate(0.444 46)" fill="#ffe7ba" stroke="#ffb937" stroke-width="2">
          <rect width="99" height="25" stroke="none"/>
          <rect x="1" y="1" width="97" height="23" fill="none"/>
        </g>
        <path id="Trazado_908704" data-name="Trazado 908704" d="M35.918,11.349h-5.37V17H28.861V4.2h7.928v1.38h-6.24V9.969h5.37ZM40.322,17H38.7V7.49h1.626ZM38.564,4.968a.971.971,0,0,1,.242-.668.907.907,0,0,1,.716-.272.922.922,0,0,1,.721.272.96.96,0,0,1,.246.668.929.929,0,0,1-.246.659.938.938,0,0,1-.721.264.924.924,0,0,1-.716-.264A.938.938,0,0,1,38.564,4.968Zm5.9,2.522.053,1.2a3.465,3.465,0,0,1,2.848-1.371q3.015,0,3.041,3.4V17H48.777V10.707a2.189,2.189,0,0,0-.47-1.521,1.884,1.884,0,0,0-1.437-.492,2.347,2.347,0,0,0-1.389.422,2.865,2.865,0,0,0-.932,1.107V17H42.923V7.49Z" transform="translate(9.444 1)" fill="#12263f"/>
        <path id="Trazado_908705" data-name="Trazado 908705" d="M12.3,17H10.665V6.163l-3.278,1.2V5.891l4.658-1.749H12.3Zm10.107,0H20.772V6.163l-3.278,1.2V5.891l4.658-1.749h.255Z" transform="translate(9.444 48)" fill="#12263f"/>
        <path id="Trazado_908706" data-name="Trazado 908706" d="M12.3,17H10.665V6.163l-3.278,1.2V5.891l4.658-1.749H12.3Zm10.107,0H20.772V6.163l-3.278,1.2V5.891l4.658-1.749h.255Z" transform="translate(57.444 48)" fill="#12263f"/>
        <line id="Línea_3269-2" data-name="Línea 3269" y2="24.5" transform="translate(50.166 46.5)" fill="none" stroke="#ffb937" stroke-width="2"/>
      </g>
      <g id="Grupo_1118050" data-name="Grupo 1118050" transform="translate(-5281.574 -7338)">
        <g id="Rectángulo_408520-3" data-name="Rectángulo 408520" transform="translate(-0.426)" fill="#fecab2" stroke="#efb499" stroke-width="2">
          <rect width="99" height="25" stroke="none"/>
          <rect x="1" y="1" width="97" height="23" fill="none"/>
        </g>
        <g id="Rectángulo_408523-3" data-name="Rectángulo 408523" transform="translate(-0.426 23)" fill="#ffe9df" stroke="#efb499" stroke-width="2">
          <rect width="99" height="25" stroke="none"/>
          <rect x="1" y="1" width="97" height="23" fill="none"/>
        </g>
        <g id="Rectángulo_408524-3" data-name="Rectángulo 408524" transform="translate(-0.426 46)" fill="#ffe9df" stroke="#efb499" stroke-width="2">
          <rect width="99" height="25" stroke="none"/>
          <rect x="1" y="1" width="97" height="23" fill="none"/>
        </g>
        <path id="Trazado_908676" data-name="Trazado 908676" d="M18.3,4.852H14.645V15H13.152V4.852H9.5V3.625h8.8ZM24.1,15a3.036,3.036,0,0,1-.2-.891,3.225,3.225,0,0,1-2.406,1.047,2.984,2.984,0,0,1-2.051-.707,2.287,2.287,0,0,1-.8-1.793,2.39,2.39,0,0,1,1-2.051,4.733,4.733,0,0,1,2.824-.73h1.406V9.211A1.623,1.623,0,0,0,23.418,8a1.821,1.821,0,0,0-1.336-.449,2.108,2.108,0,0,0-1.3.391,1.151,1.151,0,0,0-.523.945H18.809a2,2,0,0,1,.449-1.223,3.066,3.066,0,0,1,1.219-.934,4.1,4.1,0,0,1,1.691-.344,3.342,3.342,0,0,1,2.289.73,2.635,2.635,0,0,1,.859,2.012v3.891a4.757,4.757,0,0,0,.3,1.852V15Zm-2.4-1.1a2.54,2.54,0,0,0,1.289-.352,2.127,2.127,0,0,0,.883-.914V10.9H22.738q-2.656,0-2.656,1.555a1.316,1.316,0,0,0,.453,1.063A1.742,1.742,0,0,0,21.7,13.9Zm9.969-6.055a4.331,4.331,0,0,0-.711-.055A1.9,1.9,0,0,0,29.027,9v6H27.582V6.547h1.406l.023.977a2.251,2.251,0,0,1,2.016-1.133,1.477,1.477,0,0,1,.641.109Zm4.688,7.313a3.693,3.693,0,0,1-2.8-1.129,4.19,4.19,0,0,1-1.078-3.02v-.266a5.073,5.073,0,0,1,.48-2.246A3.748,3.748,0,0,1,34.3,6.949a3.378,3.378,0,0,1,1.871-.559,3.166,3.166,0,0,1,2.563,1.086,4.7,4.7,0,0,1,.914,3.109v.6H33.926a3,3,0,0,0,.73,2.02,2.3,2.3,0,0,0,1.777.77,2.517,2.517,0,0,0,1.3-.312,3.259,3.259,0,0,0,.93-.828l.883.688A3.55,3.55,0,0,1,36.355,15.156Zm-.18-7.578a1.928,1.928,0,0,0-1.469.637A3.1,3.1,0,0,0,33.973,10h4.234V9.891a2.753,2.753,0,0,0-.594-1.707A1.815,1.815,0,0,0,36.176,7.578ZM46.543,15a3.036,3.036,0,0,1-.2-.891,3.225,3.225,0,0,1-2.406,1.047,2.984,2.984,0,0,1-2.051-.707,2.287,2.287,0,0,1-.8-1.793,2.39,2.39,0,0,1,1-2.051,4.733,4.733,0,0,1,2.824-.73h1.406V9.211A1.623,1.623,0,0,0,45.863,8a1.821,1.821,0,0,0-1.336-.449,2.107,2.107,0,0,0-1.3.391,1.151,1.151,0,0,0-.523.945H41.254A2,2,0,0,1,41.7,7.668a3.066,3.066,0,0,1,1.219-.934,4.1,4.1,0,0,1,1.691-.344,3.342,3.342,0,0,1,2.289.73,2.635,2.635,0,0,1,.859,2.012v3.891a4.757,4.757,0,0,0,.3,1.852V15Zm-2.4-1.1a2.54,2.54,0,0,0,1.289-.352,2.127,2.127,0,0,0,.883-.914V10.9H45.184q-2.656,0-2.656,1.555a1.316,1.316,0,0,0,.453,1.063A1.742,1.742,0,0,0,44.145,13.9ZM58.59,15H57.137V5.367l-2.914,1.07V5.125L58.363,3.57h.227Z" transform="translate(12.574 2)" fill="#12263f"/>
        <path id="Trazado_908677" data-name="Trazado 908677" d="M5.746,15V3.625H8.957a5.169,5.169,0,0,1,2.625.656,4.438,4.438,0,0,1,1.762,1.867,6.078,6.078,0,0,1,.629,2.781v.727a6.1,6.1,0,0,1-.621,2.82,4.369,4.369,0,0,1-1.773,1.859A5.5,5.5,0,0,1,8.895,15Zm1.5-10.148v8.922H8.824a3.434,3.434,0,0,0,2.7-1.079,4.458,4.458,0,0,0,.965-3.073V8.957a4.529,4.529,0,0,0-.91-3.014A3.239,3.239,0,0,0,9,4.852ZM21.23,14.164a3.07,3.07,0,0,1-2.477.992,2.628,2.628,0,0,1-2.059-.785,3.4,3.4,0,0,1-.715-2.324v-5.5h1.445v5.461q0,1.922,1.563,1.922a2.163,2.163,0,0,0,2.2-1.234V6.547h1.445V15H21.262Zm7.688-6.32a4.331,4.331,0,0,0-.711-.055A1.9,1.9,0,0,0,26.277,9v6H24.832V6.547h1.406l.023.977a2.251,2.251,0,0,1,2.016-1.133,1.477,1.477,0,0,1,.641.109ZM35.152,15a3.036,3.036,0,0,1-.2-.891,3.225,3.225,0,0,1-2.406,1.047,2.984,2.984,0,0,1-2.051-.707,2.287,2.287,0,0,1-.8-1.793,2.39,2.39,0,0,1,1-2.051,4.733,4.733,0,0,1,2.824-.73h1.406V9.211A1.623,1.623,0,0,0,34.473,8a1.821,1.821,0,0,0-1.336-.449,2.107,2.107,0,0,0-1.3.391,1.151,1.151,0,0,0-.523.945H29.863a2,2,0,0,1,.449-1.223,3.066,3.066,0,0,1,1.219-.934,4.1,4.1,0,0,1,1.691-.344,3.342,3.342,0,0,1,2.289.73,2.635,2.635,0,0,1,.859,2.012v3.891a4.757,4.757,0,0,0,.3,1.852V15Zm-2.4-1.1a2.54,2.54,0,0,0,1.289-.352,2.127,2.127,0,0,0,.883-.914V10.9H33.793q-2.656,0-2.656,1.555a1.316,1.316,0,0,0,.453,1.063A1.742,1.742,0,0,0,32.754,13.9Zm9.273.078a2.082,2.082,0,0,0,1.352-.469,1.649,1.649,0,0,0,.641-1.172h1.367a2.621,2.621,0,0,1-.5,1.383,3.293,3.293,0,0,1-1.23,1.047,3.55,3.55,0,0,1-1.629.391A3.482,3.482,0,0,1,39.281,14a4.59,4.59,0,0,1-1.02-3.152v-.242a5.089,5.089,0,0,1,.453-2.2,3.451,3.451,0,0,1,1.3-1.492,3.7,3.7,0,0,1,2-.531,3.39,3.39,0,0,1,2.363.852,3.043,3.043,0,0,1,1,2.211H44.02A1.992,1.992,0,0,0,43.4,8.105a1.932,1.932,0,0,0-1.379-.527,2.023,2.023,0,0,0-1.707.793,3.724,3.724,0,0,0-.605,2.293v.273a3.65,3.65,0,0,0,.6,2.25A2.033,2.033,0,0,0,42.027,13.977ZM48.582,15H47.137V6.547h1.445ZM47.02,4.3a.863.863,0,0,1,.215-.594.807.807,0,0,1,.637-.242.819.819,0,0,1,.641.242.854.854,0,0,1,.219.594.826.826,0,0,1-.219.586.834.834,0,0,1-.641.234.821.821,0,0,1-.637-.234A.834.834,0,0,1,47.02,4.3ZM50.512,10.7A4.993,4.993,0,0,1,51,8.461,3.643,3.643,0,0,1,52.359,6.93a3.7,3.7,0,0,1,1.988-.539,3.565,3.565,0,0,1,2.793,1.2,4.6,4.6,0,0,1,1.066,3.18v.1a5.036,5.036,0,0,1-.473,2.215,3.589,3.589,0,0,1-1.352,1.527,3.743,3.743,0,0,1-2.02.547,3.556,3.556,0,0,1-2.785-1.2A4.575,4.575,0,0,1,50.512,10.8Zm1.453.172a3.616,3.616,0,0,0,.652,2.258,2.211,2.211,0,0,0,3.5-.012,3.955,3.955,0,0,0,.648-2.418,3.61,3.61,0,0,0-.66-2.254,2.1,2.1,0,0,0-1.754-.863,2.075,2.075,0,0,0-1.727.852A3.925,3.925,0,0,0,51.965,10.867ZM55,3h1.75L54.66,5.3l-1.164,0Zm6.383,3.547.047,1.063a3.08,3.08,0,0,1,2.531-1.219q2.68,0,2.7,3.023V15H65.223V9.406A1.946,1.946,0,0,0,64.8,8.055a1.675,1.675,0,0,0-1.277-.437,2.086,2.086,0,0,0-1.234.375,2.546,2.546,0,0,0-.828.984V15H60.02V6.547Zm7.414,7.7a.905.905,0,0,1,.223-.625.848.848,0,0,1,.668-.25.874.874,0,0,1,.676.25.887.887,0,0,1,.23.625.839.839,0,0,1-.23.6.89.89,0,0,1-.676.242.8.8,0,0,1-.891-.844Zm.008-6.9a.905.905,0,0,1,.223-.625.848.848,0,0,1,.668-.25.874.874,0,0,1,.676.25.887.887,0,0,1,.23.625.839.839,0,0,1-.23.6.89.89,0,0,1-.676.242.8.8,0,0,1-.891-.844ZM83.988,15H76.535V13.961l3.938-4.375A9.354,9.354,0,0,0,81.68,7.973a2.693,2.693,0,0,0,.332-1.285,2.041,2.041,0,0,0-.539-1.461,1.885,1.885,0,0,0-1.437-.57,2.232,2.232,0,0,0-1.676.613,2.343,2.343,0,0,0-.6,1.707H76.316a3.355,3.355,0,0,1,1.012-2.539,3.751,3.751,0,0,1,2.707-.969,3.6,3.6,0,0,1,2.508.832,2.838,2.838,0,0,1,.922,2.215q0,1.68-2.141,4l-3.047,3.3h5.711Z" transform="translate(3.574 25)" fill="#12263f"/>
        <path id="Trazado_908678" data-name="Trazado 908678" d="M18.534,11.542a7.436,7.436,0,0,1-.976,4.245,3.47,3.47,0,0,1-3.05,1.389,3.5,3.5,0,0,1-3.032-1.358,7.058,7.058,0,0,1-1.02-4.056V9.591A7.271,7.271,0,0,1,11.433,5.4a3.5,3.5,0,0,1,3.059-1.371A3.528,3.528,0,0,1,17.532,5.35a7.017,7.017,0,0,1,1,4.083ZM16.908,9.318a5.958,5.958,0,0,0-.58-3.01,2,2,0,0,0-1.837-.945,1.97,1.97,0,0,0-1.819.94A5.817,5.817,0,0,0,12.083,9.2v2.6a6.053,6.053,0,0,0,.6,3.063,1.993,1.993,0,0,0,1.824.989,1.966,1.966,0,0,0,1.789-.932,5.834,5.834,0,0,0,.611-2.936Z" transform="translate(10.574 48)" fill="#12263f"/>
        <path id="Trazado_908679" data-name="Trazado 908679" d="M18.534,11.542a7.436,7.436,0,0,1-.976,4.245,3.47,3.47,0,0,1-3.05,1.389,3.5,3.5,0,0,1-3.032-1.358,7.058,7.058,0,0,1-1.02-4.056V9.591A7.271,7.271,0,0,1,11.433,5.4a3.5,3.5,0,0,1,3.059-1.371A3.528,3.528,0,0,1,17.532,5.35a7.017,7.017,0,0,1,1,4.083ZM16.908,9.318a5.958,5.958,0,0,0-.58-3.01,2,2,0,0,0-1.837-.945,1.97,1.97,0,0,0-1.819.94A5.817,5.817,0,0,0,12.083,9.2v2.6a6.053,6.053,0,0,0,.6,3.063,1.993,1.993,0,0,0,1.824.989,1.966,1.966,0,0,0,1.789-.932,5.834,5.834,0,0,0,.611-2.936Z" transform="translate(57.574 48)" fill="#12263f"/>
        <line id="Línea_3269-3" data-name="Línea 3269" y2="24.5" transform="translate(48.885 46.5)" fill="none" stroke="#efb499" stroke-width="2"/>
      </g>
      <g id="Grupo_1118051" data-name="Grupo 1118051" transform="translate(-5281.896 -7242)">
        <g id="Rectángulo_408520-4" data-name="Rectángulo 408520" transform="translate(-0.104)" fill="#fecab2" stroke="#efb499" stroke-width="2">
          <rect width="98" height="25" stroke="none"/>
          <rect x="1" y="1" width="96" height="23" fill="none"/>
        </g>
        <g id="Rectángulo_408523-4" data-name="Rectángulo 408523" transform="translate(-0.104 23)" fill="#ffe9df" stroke="#efb499" stroke-width="2">
          <rect width="98" height="25" stroke="none"/>
          <rect x="1" y="1" width="96" height="23" fill="none"/>
        </g>
        <g id="Rectángulo_408524-4" data-name="Rectángulo 408524" transform="translate(-0.104 46)" fill="#ffe9df" stroke="#efb499" stroke-width="2">
          <rect width="98" height="25" stroke="none"/>
          <rect x="1" y="1" width="96" height="23" fill="none"/>
        </g>
        <path id="Trazado_908680" data-name="Trazado 908680" d="M18.3,4.852H14.645V15H13.152V4.852H9.5V3.625h8.8ZM24.1,15a3.036,3.036,0,0,1-.2-.891,3.225,3.225,0,0,1-2.406,1.047,2.984,2.984,0,0,1-2.051-.707,2.287,2.287,0,0,1-.8-1.793,2.39,2.39,0,0,1,1-2.051,4.733,4.733,0,0,1,2.824-.73h1.406V9.211A1.623,1.623,0,0,0,23.418,8a1.821,1.821,0,0,0-1.336-.449,2.108,2.108,0,0,0-1.3.391,1.151,1.151,0,0,0-.523.945H18.809a2,2,0,0,1,.449-1.223,3.066,3.066,0,0,1,1.219-.934,4.1,4.1,0,0,1,1.691-.344,3.342,3.342,0,0,1,2.289.73,2.635,2.635,0,0,1,.859,2.012v3.891a4.757,4.757,0,0,0,.3,1.852V15Zm-2.4-1.1a2.54,2.54,0,0,0,1.289-.352,2.127,2.127,0,0,0,.883-.914V10.9H22.738q-2.656,0-2.656,1.555a1.316,1.316,0,0,0,.453,1.063A1.742,1.742,0,0,0,21.7,13.9Zm9.969-6.055a4.331,4.331,0,0,0-.711-.055A1.9,1.9,0,0,0,29.027,9v6H27.582V6.547h1.406l.023.977a2.251,2.251,0,0,1,2.016-1.133,1.477,1.477,0,0,1,.641.109Zm4.688,7.313a3.693,3.693,0,0,1-2.8-1.129,4.19,4.19,0,0,1-1.078-3.02v-.266a5.073,5.073,0,0,1,.48-2.246A3.748,3.748,0,0,1,34.3,6.949a3.378,3.378,0,0,1,1.871-.559,3.166,3.166,0,0,1,2.563,1.086,4.7,4.7,0,0,1,.914,3.109v.6H33.926a3,3,0,0,0,.73,2.02,2.3,2.3,0,0,0,1.777.77,2.517,2.517,0,0,0,1.3-.312,3.259,3.259,0,0,0,.93-.828l.883.688A3.55,3.55,0,0,1,36.355,15.156Zm-.18-7.578a1.928,1.928,0,0,0-1.469.637A3.1,3.1,0,0,0,33.973,10h4.234V9.891a2.753,2.753,0,0,0-.594-1.707A1.815,1.815,0,0,0,36.176,7.578ZM46.543,15a3.036,3.036,0,0,1-.2-.891,3.225,3.225,0,0,1-2.406,1.047,2.984,2.984,0,0,1-2.051-.707,2.287,2.287,0,0,1-.8-1.793,2.39,2.39,0,0,1,1-2.051,4.733,4.733,0,0,1,2.824-.73h1.406V9.211A1.623,1.623,0,0,0,45.863,8a1.821,1.821,0,0,0-1.336-.449,2.107,2.107,0,0,0-1.3.391,1.151,1.151,0,0,0-.523.945H41.254A2,2,0,0,1,41.7,7.668a3.066,3.066,0,0,1,1.219-.934,4.1,4.1,0,0,1,1.691-.344,3.342,3.342,0,0,1,2.289.73,2.635,2.635,0,0,1,.859,2.012v3.891a4.757,4.757,0,0,0,.3,1.852V15Zm-2.4-1.1a2.54,2.54,0,0,0,1.289-.352,2.127,2.127,0,0,0,.883-.914V10.9H45.184q-2.656,0-2.656,1.555a1.316,1.316,0,0,0,.453,1.063A1.742,1.742,0,0,0,44.145,13.9ZM61.293,15H53.84V13.961l3.938-4.375a9.355,9.355,0,0,0,1.207-1.613,2.693,2.693,0,0,0,.332-1.285,2.041,2.041,0,0,0-.539-1.461,1.885,1.885,0,0,0-1.437-.57,2.232,2.232,0,0,0-1.676.613,2.343,2.343,0,0,0-.6,1.707H53.621a3.355,3.355,0,0,1,1.012-2.539,3.751,3.751,0,0,1,2.707-.969,3.6,3.6,0,0,1,2.508.832,2.838,2.838,0,0,1,.922,2.215q0,1.68-2.141,4l-3.047,3.3h5.711Z" transform="translate(14.896 2)" fill="#12263f"/>
        <path id="Trazado_908681" data-name="Trazado 908681" d="M5.746,15V3.625H8.957a5.169,5.169,0,0,1,2.625.656,4.438,4.438,0,0,1,1.762,1.867,6.078,6.078,0,0,1,.629,2.781v.727a6.1,6.1,0,0,1-.621,2.82,4.369,4.369,0,0,1-1.773,1.859A5.5,5.5,0,0,1,8.895,15Zm1.5-10.148v8.922H8.824a3.434,3.434,0,0,0,2.7-1.079,4.458,4.458,0,0,0,.965-3.073V8.957a4.529,4.529,0,0,0-.91-3.014A3.239,3.239,0,0,0,9,4.852ZM21.23,14.164a3.07,3.07,0,0,1-2.477.992,2.628,2.628,0,0,1-2.059-.785,3.4,3.4,0,0,1-.715-2.324v-5.5h1.445v5.461q0,1.922,1.563,1.922a2.163,2.163,0,0,0,2.2-1.234V6.547h1.445V15H21.262Zm7.688-6.32a4.331,4.331,0,0,0-.711-.055A1.9,1.9,0,0,0,26.277,9v6H24.832V6.547h1.406l.023.977a2.251,2.251,0,0,1,2.016-1.133,1.477,1.477,0,0,1,.641.109ZM35.152,15a3.036,3.036,0,0,1-.2-.891,3.225,3.225,0,0,1-2.406,1.047,2.984,2.984,0,0,1-2.051-.707,2.287,2.287,0,0,1-.8-1.793,2.39,2.39,0,0,1,1-2.051,4.733,4.733,0,0,1,2.824-.73h1.406V9.211A1.623,1.623,0,0,0,34.473,8a1.821,1.821,0,0,0-1.336-.449,2.107,2.107,0,0,0-1.3.391,1.151,1.151,0,0,0-.523.945H29.863a2,2,0,0,1,.449-1.223,3.066,3.066,0,0,1,1.219-.934,4.1,4.1,0,0,1,1.691-.344,3.342,3.342,0,0,1,2.289.73,2.635,2.635,0,0,1,.859,2.012v3.891a4.757,4.757,0,0,0,.3,1.852V15Zm-2.4-1.1a2.54,2.54,0,0,0,1.289-.352,2.127,2.127,0,0,0,.883-.914V10.9H33.793q-2.656,0-2.656,1.555a1.316,1.316,0,0,0,.453,1.063A1.742,1.742,0,0,0,32.754,13.9Zm9.273.078a2.082,2.082,0,0,0,1.352-.469,1.649,1.649,0,0,0,.641-1.172h1.367a2.621,2.621,0,0,1-.5,1.383,3.293,3.293,0,0,1-1.23,1.047,3.55,3.55,0,0,1-1.629.391A3.482,3.482,0,0,1,39.281,14a4.59,4.59,0,0,1-1.02-3.152v-.242a5.089,5.089,0,0,1,.453-2.2,3.451,3.451,0,0,1,1.3-1.492,3.7,3.7,0,0,1,2-.531,3.39,3.39,0,0,1,2.363.852,3.043,3.043,0,0,1,1,2.211H44.02A1.992,1.992,0,0,0,43.4,8.105a1.932,1.932,0,0,0-1.379-.527,2.023,2.023,0,0,0-1.707.793,3.724,3.724,0,0,0-.605,2.293v.273a3.65,3.65,0,0,0,.6,2.25A2.033,2.033,0,0,0,42.027,13.977ZM48.582,15H47.137V6.547h1.445ZM47.02,4.3a.863.863,0,0,1,.215-.594.807.807,0,0,1,.637-.242.819.819,0,0,1,.641.242.854.854,0,0,1,.219.594.826.826,0,0,1-.219.586.834.834,0,0,1-.641.234.821.821,0,0,1-.637-.234A.834.834,0,0,1,47.02,4.3ZM50.512,10.7A4.993,4.993,0,0,1,51,8.461,3.643,3.643,0,0,1,52.359,6.93a3.7,3.7,0,0,1,1.988-.539,3.565,3.565,0,0,1,2.793,1.2,4.6,4.6,0,0,1,1.066,3.18v.1a5.036,5.036,0,0,1-.473,2.215,3.589,3.589,0,0,1-1.352,1.527,3.743,3.743,0,0,1-2.02.547,3.556,3.556,0,0,1-2.785-1.2A4.575,4.575,0,0,1,50.512,10.8Zm1.453.172a3.616,3.616,0,0,0,.652,2.258,2.211,2.211,0,0,0,3.5-.012,3.955,3.955,0,0,0,.648-2.418,3.61,3.61,0,0,0-.66-2.254,2.1,2.1,0,0,0-1.754-.863,2.075,2.075,0,0,0-1.727.852A3.925,3.925,0,0,0,51.965,10.867ZM55,3h1.75L54.66,5.3l-1.164,0Zm6.383,3.547.047,1.063a3.08,3.08,0,0,1,2.531-1.219q2.68,0,2.7,3.023V15H65.223V9.406A1.946,1.946,0,0,0,64.8,8.055a1.675,1.675,0,0,0-1.277-.437,2.086,2.086,0,0,0-1.234.375,2.546,2.546,0,0,0-.828.984V15H60.02V6.547Zm7.414,7.7a.905.905,0,0,1,.223-.625.848.848,0,0,1,.668-.25.874.874,0,0,1,.676.25.887.887,0,0,1,.23.625.839.839,0,0,1-.23.6.89.89,0,0,1-.676.242.8.8,0,0,1-.891-.844Zm.008-6.9a.905.905,0,0,1,.223-.625.848.848,0,0,1,.668-.25.874.874,0,0,1,.676.25.887.887,0,0,1,.23.625.839.839,0,0,1-.23.6.89.89,0,0,1-.676.242.8.8,0,0,1-.891-.844ZM81.285,15H79.832V5.367l-2.914,1.07V5.125L81.059,3.57h.227Z" transform="translate(4.896 25)" fill="#12263f"/>
        <path id="Trazado_908682" data-name="Trazado 908682" d="M18.895,17H10.51V15.831l4.43-4.922A10.524,10.524,0,0,0,16.3,9.094a3.029,3.029,0,0,0,.374-1.446A2.3,2.3,0,0,0,16.064,6a2.12,2.12,0,0,0-1.617-.642,2.511,2.511,0,0,0-1.885.69,2.635,2.635,0,0,0-.672,1.92H10.264A3.774,3.774,0,0,1,11.4,5.117a4.219,4.219,0,0,1,3.045-1.09,4.054,4.054,0,0,1,2.821.936,3.193,3.193,0,0,1,1.037,2.492q0,1.89-2.408,4.5L12.47,15.673h6.425Z" transform="translate(12.896 48)" fill="#12263f"/>
        <path id="Trazado_908683" data-name="Trazado 908683" d="M18.895,17H10.51V15.831l4.43-4.922A10.524,10.524,0,0,0,16.3,9.094a3.029,3.029,0,0,0,.374-1.446A2.3,2.3,0,0,0,16.064,6a2.12,2.12,0,0,0-1.617-.642,2.511,2.511,0,0,0-1.885.69,2.635,2.635,0,0,0-.672,1.92H10.264A3.774,3.774,0,0,1,11.4,5.117a4.219,4.219,0,0,1,3.045-1.09,4.054,4.054,0,0,1,2.821.936,3.193,3.193,0,0,1,1.037,2.492q0,1.89-2.408,4.5L12.47,15.673h6.425Z" transform="translate(60.896 48)" fill="#12263f"/>
        <line id="Línea_3269-4" data-name="Línea 3269" y2="24.5" transform="translate(50.097 46.5)" fill="none" stroke="#efb499" stroke-width="2"/>
      </g>
      <g id="Grupo_1118052" data-name="Grupo 1118052" transform="translate(-5282.235 -7146)">
        <g id="Rectángulo_408520-5" data-name="Rectángulo 408520" transform="translate(0.235)" fill="#fecab2" stroke="#efb499" stroke-width="2">
          <rect width="98" height="25" stroke="none"/>
          <rect x="1" y="1" width="96" height="23" fill="none"/>
        </g>
        <g id="Rectángulo_408523-5" data-name="Rectángulo 408523" transform="translate(0.235 23)" fill="#ffe9df" stroke="#efb499" stroke-width="2">
          <rect width="98" height="25" stroke="none"/>
          <rect x="1" y="1" width="96" height="23" fill="none"/>
        </g>
        <g id="Rectángulo_408524-5" data-name="Rectángulo 408524" transform="translate(0.235 46)" fill="#ffe9df" stroke="#efb499" stroke-width="2">
          <rect width="98" height="25" stroke="none"/>
          <rect x="1" y="1" width="96" height="23" fill="none"/>
        </g>
        <path id="Trazado_908684" data-name="Trazado 908684" d="M18.3,4.852H14.645V15H13.152V4.852H9.5V3.625h8.8ZM24.1,15a3.036,3.036,0,0,1-.2-.891,3.225,3.225,0,0,1-2.406,1.047,2.984,2.984,0,0,1-2.051-.707,2.287,2.287,0,0,1-.8-1.793,2.39,2.39,0,0,1,1-2.051,4.733,4.733,0,0,1,2.824-.73h1.406V9.211A1.623,1.623,0,0,0,23.418,8a1.821,1.821,0,0,0-1.336-.449,2.108,2.108,0,0,0-1.3.391,1.151,1.151,0,0,0-.523.945H18.809a2,2,0,0,1,.449-1.223,3.066,3.066,0,0,1,1.219-.934,4.1,4.1,0,0,1,1.691-.344,3.342,3.342,0,0,1,2.289.73,2.635,2.635,0,0,1,.859,2.012v3.891a4.757,4.757,0,0,0,.3,1.852V15Zm-2.4-1.1a2.54,2.54,0,0,0,1.289-.352,2.127,2.127,0,0,0,.883-.914V10.9H22.738q-2.656,0-2.656,1.555a1.316,1.316,0,0,0,.453,1.063A1.742,1.742,0,0,0,21.7,13.9Zm9.969-6.055a4.331,4.331,0,0,0-.711-.055A1.9,1.9,0,0,0,29.027,9v6H27.582V6.547h1.406l.023.977a2.251,2.251,0,0,1,2.016-1.133,1.477,1.477,0,0,1,.641.109Zm4.688,7.313a3.693,3.693,0,0,1-2.8-1.129,4.19,4.19,0,0,1-1.078-3.02v-.266a5.073,5.073,0,0,1,.48-2.246A3.748,3.748,0,0,1,34.3,6.949a3.378,3.378,0,0,1,1.871-.559,3.166,3.166,0,0,1,2.563,1.086,4.7,4.7,0,0,1,.914,3.109v.6H33.926a3,3,0,0,0,.73,2.02,2.3,2.3,0,0,0,1.777.77,2.517,2.517,0,0,0,1.3-.312,3.259,3.259,0,0,0,.93-.828l.883.688A3.55,3.55,0,0,1,36.355,15.156Zm-.18-7.578a1.928,1.928,0,0,0-1.469.637A3.1,3.1,0,0,0,33.973,10h4.234V9.891a2.753,2.753,0,0,0-.594-1.707A1.815,1.815,0,0,0,36.176,7.578ZM46.543,15a3.036,3.036,0,0,1-.2-.891,3.225,3.225,0,0,1-2.406,1.047,2.984,2.984,0,0,1-2.051-.707,2.287,2.287,0,0,1-.8-1.793,2.39,2.39,0,0,1,1-2.051,4.733,4.733,0,0,1,2.824-.73h1.406V9.211A1.623,1.623,0,0,0,45.863,8a1.821,1.821,0,0,0-1.336-.449,2.107,2.107,0,0,0-1.3.391,1.151,1.151,0,0,0-.523.945H41.254A2,2,0,0,1,41.7,7.668a3.066,3.066,0,0,1,1.219-.934,4.1,4.1,0,0,1,1.691-.344,3.342,3.342,0,0,1,2.289.73,2.635,2.635,0,0,1,.859,2.012v3.891a4.757,4.757,0,0,0,.3,1.852V15Zm-2.4-1.1a2.54,2.54,0,0,0,1.289-.352,2.127,2.127,0,0,0,.883-.914V10.9H45.184q-2.656,0-2.656,1.555a1.316,1.316,0,0,0,.453,1.063A1.742,1.742,0,0,0,44.145,13.9Zm11.8-5.289h1.086a2.387,2.387,0,0,0,1.609-.539,1.8,1.8,0,0,0,.586-1.414,1.764,1.764,0,0,0-1.992-2,2.072,2.072,0,0,0-1.5.535,1.873,1.873,0,0,0-.559,1.418H53.73a2.9,2.9,0,0,1,.988-2.246,3.6,3.6,0,0,1,2.512-.895,3.558,3.558,0,0,1,2.523.852,3.076,3.076,0,0,1,.914,2.367,2.5,2.5,0,0,1-.48,1.438,2.9,2.9,0,0,1-1.309,1.039,2.8,2.8,0,0,1,1.449.984,2.734,2.734,0,0,1,.512,1.68,3.1,3.1,0,0,1-1,2.43,3.745,3.745,0,0,1-2.6.9,3.844,3.844,0,0,1-2.605-.867,2.877,2.877,0,0,1-1-2.289h1.453a1.859,1.859,0,0,0,.586,1.438,2.229,2.229,0,0,0,1.57.539,2.187,2.187,0,0,0,1.6-.547,2.108,2.108,0,0,0,.555-1.57,1.912,1.912,0,0,0-.609-1.523,2.655,2.655,0,0,0-1.758-.547H55.941Z" transform="translate(14.235 2)" fill="#12263f"/>
        <path id="Trazado_908685" data-name="Trazado 908685" d="M5.746,15V3.625H8.957a5.169,5.169,0,0,1,2.625.656,4.438,4.438,0,0,1,1.762,1.867,6.078,6.078,0,0,1,.629,2.781v.727a6.1,6.1,0,0,1-.621,2.82,4.369,4.369,0,0,1-1.773,1.859A5.5,5.5,0,0,1,8.895,15Zm1.5-10.148v8.922H8.824a3.434,3.434,0,0,0,2.7-1.079,4.458,4.458,0,0,0,.965-3.073V8.957a4.529,4.529,0,0,0-.91-3.014A3.239,3.239,0,0,0,9,4.852ZM21.23,14.164a3.07,3.07,0,0,1-2.477.992,2.628,2.628,0,0,1-2.059-.785,3.4,3.4,0,0,1-.715-2.324v-5.5h1.445v5.461q0,1.922,1.563,1.922a2.163,2.163,0,0,0,2.2-1.234V6.547h1.445V15H21.262Zm7.688-6.32a4.331,4.331,0,0,0-.711-.055A1.9,1.9,0,0,0,26.277,9v6H24.832V6.547h1.406l.023.977a2.251,2.251,0,0,1,2.016-1.133,1.477,1.477,0,0,1,.641.109ZM35.152,15a3.036,3.036,0,0,1-.2-.891,3.225,3.225,0,0,1-2.406,1.047,2.984,2.984,0,0,1-2.051-.707,2.287,2.287,0,0,1-.8-1.793,2.39,2.39,0,0,1,1-2.051,4.733,4.733,0,0,1,2.824-.73h1.406V9.211A1.623,1.623,0,0,0,34.473,8a1.821,1.821,0,0,0-1.336-.449,2.107,2.107,0,0,0-1.3.391,1.151,1.151,0,0,0-.523.945H29.863a2,2,0,0,1,.449-1.223,3.066,3.066,0,0,1,1.219-.934,4.1,4.1,0,0,1,1.691-.344,3.342,3.342,0,0,1,2.289.73,2.635,2.635,0,0,1,.859,2.012v3.891a4.757,4.757,0,0,0,.3,1.852V15Zm-2.4-1.1a2.54,2.54,0,0,0,1.289-.352,2.127,2.127,0,0,0,.883-.914V10.9H33.793q-2.656,0-2.656,1.555a1.316,1.316,0,0,0,.453,1.063A1.742,1.742,0,0,0,32.754,13.9Zm9.273.078a2.082,2.082,0,0,0,1.352-.469,1.649,1.649,0,0,0,.641-1.172h1.367a2.621,2.621,0,0,1-.5,1.383,3.293,3.293,0,0,1-1.23,1.047,3.55,3.55,0,0,1-1.629.391A3.482,3.482,0,0,1,39.281,14a4.59,4.59,0,0,1-1.02-3.152v-.242a5.089,5.089,0,0,1,.453-2.2,3.451,3.451,0,0,1,1.3-1.492,3.7,3.7,0,0,1,2-.531,3.39,3.39,0,0,1,2.363.852,3.043,3.043,0,0,1,1,2.211H44.02A1.992,1.992,0,0,0,43.4,8.105a1.932,1.932,0,0,0-1.379-.527,2.023,2.023,0,0,0-1.707.793,3.724,3.724,0,0,0-.605,2.293v.273a3.65,3.65,0,0,0,.6,2.25A2.033,2.033,0,0,0,42.027,13.977ZM48.582,15H47.137V6.547h1.445ZM47.02,4.3a.863.863,0,0,1,.215-.594.807.807,0,0,1,.637-.242.819.819,0,0,1,.641.242.854.854,0,0,1,.219.594.826.826,0,0,1-.219.586.834.834,0,0,1-.641.234.821.821,0,0,1-.637-.234A.834.834,0,0,1,47.02,4.3ZM50.512,10.7A4.993,4.993,0,0,1,51,8.461,3.643,3.643,0,0,1,52.359,6.93a3.7,3.7,0,0,1,1.988-.539,3.565,3.565,0,0,1,2.793,1.2,4.6,4.6,0,0,1,1.066,3.18v.1a5.036,5.036,0,0,1-.473,2.215,3.589,3.589,0,0,1-1.352,1.527,3.743,3.743,0,0,1-2.02.547,3.556,3.556,0,0,1-2.785-1.2A4.575,4.575,0,0,1,50.512,10.8Zm1.453.172a3.616,3.616,0,0,0,.652,2.258,2.211,2.211,0,0,0,3.5-.012,3.955,3.955,0,0,0,.648-2.418,3.61,3.61,0,0,0-.66-2.254,2.1,2.1,0,0,0-1.754-.863,2.075,2.075,0,0,0-1.727.852A3.925,3.925,0,0,0,51.965,10.867ZM55,3h1.75L54.66,5.3l-1.164,0Zm6.383,3.547.047,1.063a3.08,3.08,0,0,1,2.531-1.219q2.68,0,2.7,3.023V15H65.223V9.406A1.946,1.946,0,0,0,64.8,8.055a1.675,1.675,0,0,0-1.277-.437,2.086,2.086,0,0,0-1.234.375,2.546,2.546,0,0,0-.828.984V15H60.02V6.547Zm7.414,7.7a.905.905,0,0,1,.223-.625.848.848,0,0,1,.668-.25.874.874,0,0,1,.676.25.887.887,0,0,1,.23.625.839.839,0,0,1-.23.6.89.89,0,0,1-.676.242.8.8,0,0,1-.891-.844Zm.008-6.9a.905.905,0,0,1,.223-.625.848.848,0,0,1,.668-.25.874.874,0,0,1,.676.25.887.887,0,0,1,.23.625.839.839,0,0,1-.23.6.89.89,0,0,1-.676.242.8.8,0,0,1-.891-.844Zm9.828,1.266h1.086a2.387,2.387,0,0,0,1.609-.539,1.8,1.8,0,0,0,.586-1.414,1.764,1.764,0,0,0-1.992-2,2.072,2.072,0,0,0-1.5.535,1.873,1.873,0,0,0-.559,1.418H76.426a2.9,2.9,0,0,1,.988-2.246,3.6,3.6,0,0,1,2.512-.895,3.558,3.558,0,0,1,2.523.852,3.076,3.076,0,0,1,.914,2.367,2.5,2.5,0,0,1-.48,1.438,2.9,2.9,0,0,1-1.309,1.039,2.8,2.8,0,0,1,1.449.984,2.734,2.734,0,0,1,.512,1.68,3.1,3.1,0,0,1-1,2.43,3.745,3.745,0,0,1-2.6.9,3.844,3.844,0,0,1-2.605-.867,2.877,2.877,0,0,1-1-2.289h1.453a1.859,1.859,0,0,0,.586,1.438,2.229,2.229,0,0,0,1.57.539,2.187,2.187,0,0,0,1.6-.547,2.108,2.108,0,0,0,.555-1.57,1.912,1.912,0,0,0-.609-1.523,2.655,2.655,0,0,0-1.758-.547H78.637Z" transform="translate(5.235 25)" fill="#12263f"/>
        <path id="Trazado_908686" data-name="Trazado 908686" d="M12.874,9.811H14.1A2.685,2.685,0,0,0,15.906,9.2a2.026,2.026,0,0,0,.659-1.591,1.985,1.985,0,0,0-2.241-2.25,2.331,2.331,0,0,0-1.683.6,2.107,2.107,0,0,0-.628,1.6H10.387A3.264,3.264,0,0,1,11.5,5.034a4.05,4.05,0,0,1,2.826-1.006,4,4,0,0,1,2.839.958,3.461,3.461,0,0,1,1.028,2.663,2.809,2.809,0,0,1-.541,1.617,3.264,3.264,0,0,1-1.472,1.169,3.145,3.145,0,0,1,1.63,1.107,3.076,3.076,0,0,1,.576,1.89,3.491,3.491,0,0,1-1.125,2.733,4.213,4.213,0,0,1-2.927,1.011A4.324,4.324,0,0,1,11.4,16.2a3.236,3.236,0,0,1-1.129-2.575h1.635a2.092,2.092,0,0,0,.659,1.617,2.507,2.507,0,0,0,1.767.606,2.46,2.46,0,0,0,1.8-.615,2.371,2.371,0,0,0,.624-1.767,2.151,2.151,0,0,0-.686-1.714,2.987,2.987,0,0,0-1.978-.615H12.874Z" transform="translate(13.235 48)" fill="#12263f"/>
        <path id="Trazado_908687" data-name="Trazado 908687" d="M12.874,9.811H14.1A2.685,2.685,0,0,0,15.906,9.2a2.026,2.026,0,0,0,.659-1.591,1.985,1.985,0,0,0-2.241-2.25,2.331,2.331,0,0,0-1.683.6,2.107,2.107,0,0,0-.628,1.6H10.387A3.264,3.264,0,0,1,11.5,5.034a4.05,4.05,0,0,1,2.826-1.006,4,4,0,0,1,2.839.958,3.461,3.461,0,0,1,1.028,2.663,2.809,2.809,0,0,1-.541,1.617,3.264,3.264,0,0,1-1.472,1.169,3.145,3.145,0,0,1,1.63,1.107,3.076,3.076,0,0,1,.576,1.89,3.491,3.491,0,0,1-1.125,2.733,4.213,4.213,0,0,1-2.927,1.011A4.324,4.324,0,0,1,11.4,16.2a3.236,3.236,0,0,1-1.129-2.575h1.635a2.092,2.092,0,0,0,.659,1.617,2.507,2.507,0,0,0,1.767.606,2.46,2.46,0,0,0,1.8-.615,2.371,2.371,0,0,0,.624-1.767,2.151,2.151,0,0,0-.686-1.714,2.987,2.987,0,0,0-1.978-.615H12.874Z" transform="translate(61.235 48)" fill="#12263f"/>
        <line id="Línea_3269-5" data-name="Línea 3269" y2="24.5" transform="translate(50.327 46.5)" fill="none" stroke="#efb499" stroke-width="2"/>
      </g>
      <g id="Grupo_1118055" data-name="Grupo 1118055" transform="translate(-5282.289 -6954)">
        <g id="Rectángulo_408520-6" data-name="Rectángulo 408520" transform="translate(0.289)" fill="#fecab2" stroke="#efb499" stroke-width="2">
          <rect width="98" height="25" stroke="none"/>
          <rect x="1" y="1" width="96" height="23" fill="none"/>
        </g>
        <g id="Rectángulo_408523-6" data-name="Rectángulo 408523" transform="translate(0.289 23)" fill="#ffe9df" stroke="#efb499" stroke-width="2">
          <rect width="98" height="25" stroke="none"/>
          <rect x="1" y="1" width="96" height="23" fill="none"/>
        </g>
        <g id="Rectángulo_408524-6" data-name="Rectángulo 408524" transform="translate(0.289 46)" fill="#ffe9df" stroke="#efb499" stroke-width="2">
          <rect width="98" height="25" stroke="none"/>
          <rect x="1" y="1" width="96" height="23" fill="none"/>
        </g>
        <path id="Trazado_908696" data-name="Trazado 908696" d="M18.3,4.852H14.645V15H13.152V4.852H9.5V3.625h8.8ZM24.1,15a3.036,3.036,0,0,1-.2-.891,3.225,3.225,0,0,1-2.406,1.047,2.984,2.984,0,0,1-2.051-.707,2.287,2.287,0,0,1-.8-1.793,2.39,2.39,0,0,1,1-2.051,4.733,4.733,0,0,1,2.824-.73h1.406V9.211A1.623,1.623,0,0,0,23.418,8a1.821,1.821,0,0,0-1.336-.449,2.108,2.108,0,0,0-1.3.391,1.151,1.151,0,0,0-.523.945H18.809a2,2,0,0,1,.449-1.223,3.066,3.066,0,0,1,1.219-.934,4.1,4.1,0,0,1,1.691-.344,3.342,3.342,0,0,1,2.289.73,2.635,2.635,0,0,1,.859,2.012v3.891a4.757,4.757,0,0,0,.3,1.852V15Zm-2.4-1.1a2.54,2.54,0,0,0,1.289-.352,2.127,2.127,0,0,0,.883-.914V10.9H22.738q-2.656,0-2.656,1.555a1.316,1.316,0,0,0,.453,1.063A1.742,1.742,0,0,0,21.7,13.9Zm9.969-6.055a4.331,4.331,0,0,0-.711-.055A1.9,1.9,0,0,0,29.027,9v6H27.582V6.547h1.406l.023.977a2.251,2.251,0,0,1,2.016-1.133,1.477,1.477,0,0,1,.641.109Zm4.688,7.313a3.693,3.693,0,0,1-2.8-1.129,4.19,4.19,0,0,1-1.078-3.02v-.266a5.073,5.073,0,0,1,.48-2.246A3.748,3.748,0,0,1,34.3,6.949a3.378,3.378,0,0,1,1.871-.559,3.166,3.166,0,0,1,2.563,1.086,4.7,4.7,0,0,1,.914,3.109v.6H33.926a3,3,0,0,0,.73,2.02,2.3,2.3,0,0,0,1.777.77,2.517,2.517,0,0,0,1.3-.312,3.259,3.259,0,0,0,.93-.828l.883.688A3.55,3.55,0,0,1,36.355,15.156Zm-.18-7.578a1.928,1.928,0,0,0-1.469.637A3.1,3.1,0,0,0,33.973,10h4.234V9.891a2.753,2.753,0,0,0-.594-1.707A1.815,1.815,0,0,0,36.176,7.578ZM46.543,15a3.036,3.036,0,0,1-.2-.891,3.225,3.225,0,0,1-2.406,1.047,2.984,2.984,0,0,1-2.051-.707,2.287,2.287,0,0,1-.8-1.793,2.39,2.39,0,0,1,1-2.051,4.733,4.733,0,0,1,2.824-.73h1.406V9.211A1.623,1.623,0,0,0,45.863,8a1.821,1.821,0,0,0-1.336-.449,2.107,2.107,0,0,0-1.3.391,1.151,1.151,0,0,0-.523.945H41.254A2,2,0,0,1,41.7,7.668a3.066,3.066,0,0,1,1.219-.934,4.1,4.1,0,0,1,1.691-.344,3.342,3.342,0,0,1,2.289.73,2.635,2.635,0,0,1,.859,2.012v3.891a4.757,4.757,0,0,0,.3,1.852V15Zm-2.4-1.1a2.54,2.54,0,0,0,1.289-.352,2.127,2.127,0,0,0,.883-.914V10.9H45.184q-2.656,0-2.656,1.555a1.316,1.316,0,0,0,.453,1.063A1.742,1.742,0,0,0,44.145,13.9Zm15.8-2.719H61.52v1.18H59.941V15H58.488V12.359h-5.18v-.852L58.4,3.625h1.539Zm-4.992,0h3.539V5.6l-.172.313Z" transform="translate(11.289 2)" fill="#12263f"/>
        <path id="Trazado_908698" data-name="Trazado 908698" d="M5.746,15V3.625H8.957a5.169,5.169,0,0,1,2.625.656,4.438,4.438,0,0,1,1.762,1.867,6.078,6.078,0,0,1,.629,2.781v.727a6.1,6.1,0,0,1-.621,2.82,4.369,4.369,0,0,1-1.773,1.859A5.5,5.5,0,0,1,8.895,15Zm1.5-10.148v8.922H8.824a3.434,3.434,0,0,0,2.7-1.079,4.458,4.458,0,0,0,.965-3.073V8.957a4.529,4.529,0,0,0-.91-3.014A3.239,3.239,0,0,0,9,4.852ZM21.23,14.164a3.07,3.07,0,0,1-2.477.992,2.628,2.628,0,0,1-2.059-.785,3.4,3.4,0,0,1-.715-2.324v-5.5h1.445v5.461q0,1.922,1.563,1.922a2.163,2.163,0,0,0,2.2-1.234V6.547h1.445V15H21.262Zm7.688-6.32a4.331,4.331,0,0,0-.711-.055A1.9,1.9,0,0,0,26.277,9v6H24.832V6.547h1.406l.023.977a2.251,2.251,0,0,1,2.016-1.133,1.477,1.477,0,0,1,.641.109ZM35.152,15a3.036,3.036,0,0,1-.2-.891,3.225,3.225,0,0,1-2.406,1.047,2.984,2.984,0,0,1-2.051-.707,2.287,2.287,0,0,1-.8-1.793,2.39,2.39,0,0,1,1-2.051,4.733,4.733,0,0,1,2.824-.73h1.406V9.211A1.623,1.623,0,0,0,34.473,8a1.821,1.821,0,0,0-1.336-.449,2.107,2.107,0,0,0-1.3.391,1.151,1.151,0,0,0-.523.945H29.863a2,2,0,0,1,.449-1.223,3.066,3.066,0,0,1,1.219-.934,4.1,4.1,0,0,1,1.691-.344,3.342,3.342,0,0,1,2.289.73,2.635,2.635,0,0,1,.859,2.012v3.891a4.757,4.757,0,0,0,.3,1.852V15Zm-2.4-1.1a2.54,2.54,0,0,0,1.289-.352,2.127,2.127,0,0,0,.883-.914V10.9H33.793q-2.656,0-2.656,1.555a1.316,1.316,0,0,0,.453,1.063A1.742,1.742,0,0,0,32.754,13.9Zm9.273.078a2.082,2.082,0,0,0,1.352-.469,1.649,1.649,0,0,0,.641-1.172h1.367a2.621,2.621,0,0,1-.5,1.383,3.293,3.293,0,0,1-1.23,1.047,3.55,3.55,0,0,1-1.629.391A3.482,3.482,0,0,1,39.281,14a4.59,4.59,0,0,1-1.02-3.152v-.242a5.089,5.089,0,0,1,.453-2.2,3.451,3.451,0,0,1,1.3-1.492,3.7,3.7,0,0,1,2-.531,3.39,3.39,0,0,1,2.363.852,3.043,3.043,0,0,1,1,2.211H44.02A1.992,1.992,0,0,0,43.4,8.105a1.932,1.932,0,0,0-1.379-.527,2.023,2.023,0,0,0-1.707.793,3.724,3.724,0,0,0-.605,2.293v.273a3.65,3.65,0,0,0,.6,2.25A2.033,2.033,0,0,0,42.027,13.977ZM48.582,15H47.137V6.547h1.445ZM47.02,4.3a.863.863,0,0,1,.215-.594.807.807,0,0,1,.637-.242.819.819,0,0,1,.641.242.854.854,0,0,1,.219.594.826.826,0,0,1-.219.586.834.834,0,0,1-.641.234.821.821,0,0,1-.637-.234A.834.834,0,0,1,47.02,4.3ZM50.512,10.7A4.993,4.993,0,0,1,51,8.461,3.643,3.643,0,0,1,52.359,6.93a3.7,3.7,0,0,1,1.988-.539,3.565,3.565,0,0,1,2.793,1.2,4.6,4.6,0,0,1,1.066,3.18v.1a5.036,5.036,0,0,1-.473,2.215,3.589,3.589,0,0,1-1.352,1.527,3.743,3.743,0,0,1-2.02.547,3.556,3.556,0,0,1-2.785-1.2A4.575,4.575,0,0,1,50.512,10.8Zm1.453.172a3.616,3.616,0,0,0,.652,2.258,2.211,2.211,0,0,0,3.5-.012,3.955,3.955,0,0,0,.648-2.418,3.61,3.61,0,0,0-.66-2.254,2.1,2.1,0,0,0-1.754-.863,2.075,2.075,0,0,0-1.727.852A3.925,3.925,0,0,0,51.965,10.867ZM55,3h1.75L54.66,5.3l-1.164,0Zm6.383,3.547.047,1.063a3.08,3.08,0,0,1,2.531-1.219q2.68,0,2.7,3.023V15H65.223V9.406A1.946,1.946,0,0,0,64.8,8.055a1.675,1.675,0,0,0-1.277-.437,2.086,2.086,0,0,0-1.234.375,2.546,2.546,0,0,0-.828.984V15H60.02V6.547Zm7.414,7.7a.905.905,0,0,1,.223-.625.848.848,0,0,1,.668-.25.874.874,0,0,1,.676.25.887.887,0,0,1,.23.625.839.839,0,0,1-.23.6.89.89,0,0,1-.676.242.8.8,0,0,1-.891-.844Zm.008-6.9a.905.905,0,0,1,.223-.625.848.848,0,0,1,.668-.25.874.874,0,0,1,.676.25.887.887,0,0,1,.23.625.839.839,0,0,1-.23.6.89.89,0,0,1-.676.242.8.8,0,0,1-.891-.844ZM83.988,15H76.535V13.961l3.938-4.375A9.354,9.354,0,0,0,81.68,7.973a2.693,2.693,0,0,0,.332-1.285,2.041,2.041,0,0,0-.539-1.461,1.885,1.885,0,0,0-1.437-.57,2.232,2.232,0,0,0-1.676.613,2.343,2.343,0,0,0-.6,1.707H76.316a3.355,3.355,0,0,1,1.012-2.539,3.751,3.751,0,0,1,2.707-.969,3.6,3.6,0,0,1,2.508.832,2.838,2.838,0,0,1,.922,2.215q0,1.68-2.141,4l-3.047,3.3h5.711Z" transform="translate(4.289 25)" fill="#12263f"/>
        <path id="Trazado_908703" data-name="Trazado 908703" d="M16.891,4.194v1.38h-.3A4.281,4.281,0,0,0,13.568,6.7a4.681,4.681,0,0,0-1.3,3.067,3.471,3.471,0,0,1,2.76-1.16,3.319,3.319,0,0,1,2.667,1.178,4.543,4.543,0,0,1,1,3.041,4.528,4.528,0,0,1-1.077,3.164,3.707,3.707,0,0,1-2.887,1.187,3.653,3.653,0,0,1-2.979-1.411,5.591,5.591,0,0,1-1.143-3.634v-.624a8.424,8.424,0,0,1,1.507-5.4A5.536,5.536,0,0,1,16.6,4.194ZM14.755,9.96a2.733,2.733,0,0,0-2.514,1.758v.6a4.2,4.2,0,0,0,.712,2.549,2.133,2.133,0,0,0,1.775.967,2.067,2.067,0,0,0,1.727-.809,3.355,3.355,0,0,0,.628-2.118,3.356,3.356,0,0,0-.637-2.131A2.042,2.042,0,0,0,14.755,9.96Z" transform="translate(10.289 48)" fill="#12263f"/>
        <path id="Trazado_908702" data-name="Trazado 908702" d="M16.741,11.375a3.978,3.978,0,0,1-1.217.976,3.3,3.3,0,0,1-1.551.369,3.41,3.41,0,0,1-1.929-.545,3.543,3.543,0,0,1-1.27-1.534,5.229,5.229,0,0,1-.448-2.184,5.327,5.327,0,0,1,.488-2.312A3.583,3.583,0,0,1,12.2,4.572a3.947,3.947,0,0,1,2.092-.545,3.574,3.574,0,0,1,2.993,1.419,6.191,6.191,0,0,1,1.094,3.872v.475q0,3.735-1.477,5.454a5.673,5.673,0,0,1-4.456,1.762h-.316v-1.38h.343a4.476,4.476,0,0,0,3.094-1.048A4.5,4.5,0,0,0,16.741,11.375Zm-2.5,0a2.511,2.511,0,0,0,1.507-.5A2.953,2.953,0,0,0,16.75,9.635v-.65a4.474,4.474,0,0,0-.694-2.6,2.122,2.122,0,0,0-3.48-.18,3.39,3.39,0,0,0-.65,2.167,3.528,3.528,0,0,0,.628,2.158A1.99,1.99,0,0,0,14.236,11.375Z" transform="translate(60.289 48)" fill="#12263f"/>
        <line id="Línea_3269-6" data-name="Línea 3269" y2="24.5" transform="translate(48.479 46.5)" fill="none" stroke="#efb499" stroke-width="2"/>
      </g>
      <g id="Grupo_1118056" data-name="Grupo 1118056" transform="translate(-5167.289 -6954)">
        <g id="Rectángulo_408520-7" data-name="Rectángulo 408520" transform="translate(0.289)" fill="#fecab2" stroke="#efb499" stroke-width="2">
          <rect width="98" height="25" stroke="none"/>
          <rect x="1" y="1" width="96" height="23" fill="none"/>
        </g>
        <g id="Rectángulo_408523-7" data-name="Rectángulo 408523" transform="translate(0.289 23)" fill="#ffe9df" stroke="#efb499" stroke-width="2">
          <rect width="98" height="25" stroke="none"/>
          <rect x="1" y="1" width="96" height="23" fill="none"/>
        </g>
        <g id="Rectángulo_408524-7" data-name="Rectángulo 408524" transform="translate(0.289 46)" fill="#ffe9df" stroke="#efb499" stroke-width="2">
          <rect width="98" height="25" stroke="none"/>
          <rect x="1" y="1" width="96" height="23" fill="none"/>
        </g>
        <path id="Trazado_908697" data-name="Trazado 908697" d="M18.3,4.852H14.645V15H13.152V4.852H9.5V3.625h8.8ZM24.1,15a3.036,3.036,0,0,1-.2-.891,3.225,3.225,0,0,1-2.406,1.047,2.984,2.984,0,0,1-2.051-.707,2.287,2.287,0,0,1-.8-1.793,2.39,2.39,0,0,1,1-2.051,4.733,4.733,0,0,1,2.824-.73h1.406V9.211A1.623,1.623,0,0,0,23.418,8a1.821,1.821,0,0,0-1.336-.449,2.108,2.108,0,0,0-1.3.391,1.151,1.151,0,0,0-.523.945H18.809a2,2,0,0,1,.449-1.223,3.066,3.066,0,0,1,1.219-.934,4.1,4.1,0,0,1,1.691-.344,3.342,3.342,0,0,1,2.289.73,2.635,2.635,0,0,1,.859,2.012v3.891a4.757,4.757,0,0,0,.3,1.852V15Zm-2.4-1.1a2.54,2.54,0,0,0,1.289-.352,2.127,2.127,0,0,0,.883-.914V10.9H22.738q-2.656,0-2.656,1.555a1.316,1.316,0,0,0,.453,1.063A1.742,1.742,0,0,0,21.7,13.9Zm9.969-6.055a4.331,4.331,0,0,0-.711-.055A1.9,1.9,0,0,0,29.027,9v6H27.582V6.547h1.406l.023.977a2.251,2.251,0,0,1,2.016-1.133,1.477,1.477,0,0,1,.641.109Zm4.688,7.313a3.693,3.693,0,0,1-2.8-1.129,4.19,4.19,0,0,1-1.078-3.02v-.266a5.073,5.073,0,0,1,.48-2.246A3.748,3.748,0,0,1,34.3,6.949a3.378,3.378,0,0,1,1.871-.559,3.166,3.166,0,0,1,2.563,1.086,4.7,4.7,0,0,1,.914,3.109v.6H33.926a3,3,0,0,0,.73,2.02,2.3,2.3,0,0,0,1.777.77,2.517,2.517,0,0,0,1.3-.312,3.259,3.259,0,0,0,.93-.828l.883.688A3.55,3.55,0,0,1,36.355,15.156Zm-.18-7.578a1.928,1.928,0,0,0-1.469.637A3.1,3.1,0,0,0,33.973,10h4.234V9.891a2.753,2.753,0,0,0-.594-1.707A1.815,1.815,0,0,0,36.176,7.578ZM46.543,15a3.036,3.036,0,0,1-.2-.891,3.225,3.225,0,0,1-2.406,1.047,2.984,2.984,0,0,1-2.051-.707,2.287,2.287,0,0,1-.8-1.793,2.39,2.39,0,0,1,1-2.051,4.733,4.733,0,0,1,2.824-.73h1.406V9.211A1.623,1.623,0,0,0,45.863,8a1.821,1.821,0,0,0-1.336-.449,2.107,2.107,0,0,0-1.3.391,1.151,1.151,0,0,0-.523.945H41.254A2,2,0,0,1,41.7,7.668a3.066,3.066,0,0,1,1.219-.934,4.1,4.1,0,0,1,1.691-.344,3.342,3.342,0,0,1,2.289.73,2.635,2.635,0,0,1,.859,2.012v3.891a4.757,4.757,0,0,0,.3,1.852V15Zm-2.4-1.1a2.54,2.54,0,0,0,1.289-.352,2.127,2.127,0,0,0,.883-.914V10.9H45.184q-2.656,0-2.656,1.555a1.316,1.316,0,0,0,.453,1.063A1.742,1.742,0,0,0,44.145,13.9ZM61.184,4.438,56.473,15H54.957l4.7-10.187H53.5V3.625h7.688Z" transform="translate(11.289 2)" fill="#12263f"/>
        <path id="Trazado_908699" data-name="Trazado 908699" d="M5.746,15V3.625H8.957a5.169,5.169,0,0,1,2.625.656,4.438,4.438,0,0,1,1.762,1.867,6.078,6.078,0,0,1,.629,2.781v.727a6.1,6.1,0,0,1-.621,2.82,4.369,4.369,0,0,1-1.773,1.859A5.5,5.5,0,0,1,8.895,15Zm1.5-10.148v8.922H8.824a3.434,3.434,0,0,0,2.7-1.079,4.458,4.458,0,0,0,.965-3.073V8.957a4.529,4.529,0,0,0-.91-3.014A3.239,3.239,0,0,0,9,4.852ZM21.23,14.164a3.07,3.07,0,0,1-2.477.992,2.628,2.628,0,0,1-2.059-.785,3.4,3.4,0,0,1-.715-2.324v-5.5h1.445v5.461q0,1.922,1.563,1.922a2.163,2.163,0,0,0,2.2-1.234V6.547h1.445V15H21.262Zm7.688-6.32a4.331,4.331,0,0,0-.711-.055A1.9,1.9,0,0,0,26.277,9v6H24.832V6.547h1.406l.023.977a2.251,2.251,0,0,1,2.016-1.133,1.477,1.477,0,0,1,.641.109ZM35.152,15a3.036,3.036,0,0,1-.2-.891,3.225,3.225,0,0,1-2.406,1.047,2.984,2.984,0,0,1-2.051-.707,2.287,2.287,0,0,1-.8-1.793,2.39,2.39,0,0,1,1-2.051,4.733,4.733,0,0,1,2.824-.73h1.406V9.211A1.623,1.623,0,0,0,34.473,8a1.821,1.821,0,0,0-1.336-.449,2.107,2.107,0,0,0-1.3.391,1.151,1.151,0,0,0-.523.945H29.863a2,2,0,0,1,.449-1.223,3.066,3.066,0,0,1,1.219-.934,4.1,4.1,0,0,1,1.691-.344,3.342,3.342,0,0,1,2.289.73,2.635,2.635,0,0,1,.859,2.012v3.891a4.757,4.757,0,0,0,.3,1.852V15Zm-2.4-1.1a2.54,2.54,0,0,0,1.289-.352,2.127,2.127,0,0,0,.883-.914V10.9H33.793q-2.656,0-2.656,1.555a1.316,1.316,0,0,0,.453,1.063A1.742,1.742,0,0,0,32.754,13.9Zm9.273.078a2.082,2.082,0,0,0,1.352-.469,1.649,1.649,0,0,0,.641-1.172h1.367a2.621,2.621,0,0,1-.5,1.383,3.293,3.293,0,0,1-1.23,1.047,3.55,3.55,0,0,1-1.629.391A3.482,3.482,0,0,1,39.281,14a4.59,4.59,0,0,1-1.02-3.152v-.242a5.089,5.089,0,0,1,.453-2.2,3.451,3.451,0,0,1,1.3-1.492,3.7,3.7,0,0,1,2-.531,3.39,3.39,0,0,1,2.363.852,3.043,3.043,0,0,1,1,2.211H44.02A1.992,1.992,0,0,0,43.4,8.105a1.932,1.932,0,0,0-1.379-.527,2.023,2.023,0,0,0-1.707.793,3.724,3.724,0,0,0-.605,2.293v.273a3.65,3.65,0,0,0,.6,2.25A2.033,2.033,0,0,0,42.027,13.977ZM48.582,15H47.137V6.547h1.445ZM47.02,4.3a.863.863,0,0,1,.215-.594.807.807,0,0,1,.637-.242.819.819,0,0,1,.641.242.854.854,0,0,1,.219.594.826.826,0,0,1-.219.586.834.834,0,0,1-.641.234.821.821,0,0,1-.637-.234A.834.834,0,0,1,47.02,4.3ZM50.512,10.7A4.993,4.993,0,0,1,51,8.461,3.643,3.643,0,0,1,52.359,6.93a3.7,3.7,0,0,1,1.988-.539,3.565,3.565,0,0,1,2.793,1.2,4.6,4.6,0,0,1,1.066,3.18v.1a5.036,5.036,0,0,1-.473,2.215,3.589,3.589,0,0,1-1.352,1.527,3.743,3.743,0,0,1-2.02.547,3.556,3.556,0,0,1-2.785-1.2A4.575,4.575,0,0,1,50.512,10.8Zm1.453.172a3.616,3.616,0,0,0,.652,2.258,2.211,2.211,0,0,0,3.5-.012,3.955,3.955,0,0,0,.648-2.418,3.61,3.61,0,0,0-.66-2.254,2.1,2.1,0,0,0-1.754-.863,2.075,2.075,0,0,0-1.727.852A3.925,3.925,0,0,0,51.965,10.867ZM55,3h1.75L54.66,5.3l-1.164,0Zm6.383,3.547.047,1.063a3.08,3.08,0,0,1,2.531-1.219q2.68,0,2.7,3.023V15H65.223V9.406A1.946,1.946,0,0,0,64.8,8.055a1.675,1.675,0,0,0-1.277-.437,2.086,2.086,0,0,0-1.234.375,2.546,2.546,0,0,0-.828.984V15H60.02V6.547Zm7.414,7.7a.905.905,0,0,1,.223-.625.848.848,0,0,1,.668-.25.874.874,0,0,1,.676.25.887.887,0,0,1,.23.625.839.839,0,0,1-.23.6.89.89,0,0,1-.676.242.8.8,0,0,1-.891-.844Zm.008-6.9a.905.905,0,0,1,.223-.625.848.848,0,0,1,.668-.25.874.874,0,0,1,.676.25.887.887,0,0,1,.23.625.839.839,0,0,1-.23.6.89.89,0,0,1-.676.242.8.8,0,0,1-.891-.844Zm9.828,1.266h1.086a2.387,2.387,0,0,0,1.609-.539,1.8,1.8,0,0,0,.586-1.414,1.764,1.764,0,0,0-1.992-2,2.072,2.072,0,0,0-1.5.535,1.873,1.873,0,0,0-.559,1.418H76.426a2.9,2.9,0,0,1,.988-2.246,3.6,3.6,0,0,1,2.512-.895,3.558,3.558,0,0,1,2.523.852,3.076,3.076,0,0,1,.914,2.367,2.5,2.5,0,0,1-.48,1.438,2.9,2.9,0,0,1-1.309,1.039,2.8,2.8,0,0,1,1.449.984,2.734,2.734,0,0,1,.512,1.68,3.1,3.1,0,0,1-1,2.43,3.745,3.745,0,0,1-2.6.9,3.844,3.844,0,0,1-2.605-.867,2.877,2.877,0,0,1-1-2.289h1.453a1.859,1.859,0,0,0,.586,1.438,2.229,2.229,0,0,0,1.57.539,2.187,2.187,0,0,0,1.6-.547,2.108,2.108,0,0,0,.555-1.57,1.912,1.912,0,0,0-.609-1.523,2.655,2.655,0,0,0-1.758-.547H78.637Z" transform="translate(4.289 25)" fill="#12263f"/>
        <path id="Trazado_908701" data-name="Trazado 908701" d="M18.271,7.543a2.972,2.972,0,0,1-.505,1.705A3.439,3.439,0,0,1,16.4,10.417a3.668,3.668,0,0,1,1.586,1.257,3.163,3.163,0,0,1,.584,1.872,3.344,3.344,0,0,1-1.121,2.646,4.305,4.305,0,0,1-2.949.984,4.286,4.286,0,0,1-2.958-.989,3.36,3.36,0,0,1-1.112-2.641A3.257,3.257,0,0,1,11,11.674a3.528,3.528,0,0,1,1.569-1.266,3.354,3.354,0,0,1-1.345-1.169,3.014,3.014,0,0,1-.492-1.7,3.308,3.308,0,0,1,1.037-2.566A3.89,3.89,0,0,1,14.5,4.027a3.894,3.894,0,0,1,2.729.949A3.3,3.3,0,0,1,18.271,7.543Zm-1.327,5.968a2.359,2.359,0,0,0-.681-1.749,2.416,2.416,0,0,0-1.78-.677,2.288,2.288,0,0,0-2.426,2.426,2.271,2.271,0,0,0,.646,1.714,2.48,2.48,0,0,0,1.8.624,2.472,2.472,0,0,0,1.793-.628A2.266,2.266,0,0,0,16.943,13.511ZM14.5,5.363a2.1,2.1,0,0,0-1.551.593,2.179,2.179,0,0,0-.593,1.613,2.169,2.169,0,0,0,.584,1.578,2.074,2.074,0,0,0,1.56.6,2.074,2.074,0,0,0,1.56-.6,2.169,2.169,0,0,0,.584-1.578,2.17,2.17,0,0,0-.606-1.591A2.068,2.068,0,0,0,14.5,5.363Z" transform="translate(10.289 48)" fill="#12263f"/>
        <path id="Trazado_908700" data-name="Trazado 908700" d="M18.271,7.543a2.972,2.972,0,0,1-.505,1.705A3.439,3.439,0,0,1,16.4,10.417a3.668,3.668,0,0,1,1.586,1.257,3.163,3.163,0,0,1,.584,1.872,3.344,3.344,0,0,1-1.121,2.646,4.305,4.305,0,0,1-2.949.984,4.286,4.286,0,0,1-2.958-.989,3.36,3.36,0,0,1-1.112-2.641A3.257,3.257,0,0,1,11,11.674a3.528,3.528,0,0,1,1.569-1.266,3.354,3.354,0,0,1-1.345-1.169,3.014,3.014,0,0,1-.492-1.7,3.308,3.308,0,0,1,1.037-2.566A3.89,3.89,0,0,1,14.5,4.027a3.894,3.894,0,0,1,2.729.949A3.3,3.3,0,0,1,18.271,7.543Zm-1.327,5.968a2.359,2.359,0,0,0-.681-1.749,2.416,2.416,0,0,0-1.78-.677,2.288,2.288,0,0,0-2.426,2.426,2.271,2.271,0,0,0,.646,1.714,2.48,2.48,0,0,0,1.8.624,2.472,2.472,0,0,0,1.793-.628A2.266,2.266,0,0,0,16.943,13.511ZM14.5,5.363a2.1,2.1,0,0,0-1.551.593,2.179,2.179,0,0,0-.593,1.613,2.169,2.169,0,0,0,.584,1.578,2.074,2.074,0,0,0,1.56.6,2.074,2.074,0,0,0,1.56-.6,2.169,2.169,0,0,0,.584-1.578,2.17,2.17,0,0,0-.606-1.591A2.068,2.068,0,0,0,14.5,5.363Z" transform="translate(60.289 48)" fill="#12263f"/>
        <line id="Línea_3269-7" data-name="Línea 3269" y2="24.5" transform="translate(48.479 46.5)" fill="none" stroke="#efb499" stroke-width="2"/>
      </g>
      <g id="Grupo_1118054" data-name="Grupo 1118054" transform="translate(-5047.235 -7146)">
        <g id="Rectángulo_408520-8" data-name="Rectángulo 408520" transform="translate(0.235)" fill="#fecab2" stroke="#efb499" stroke-width="2">
          <rect width="98" height="25" stroke="none"/>
          <rect x="1" y="1" width="96" height="23" fill="none"/>
        </g>
        <g id="Rectángulo_408523-8" data-name="Rectángulo 408523" transform="translate(0.235 23)" fill="#ffe9df" stroke="#efb499" stroke-width="2">
          <rect width="98" height="25" stroke="none"/>
          <rect x="1" y="1" width="96" height="23" fill="none"/>
        </g>
        <g id="Rectángulo_408524-8" data-name="Rectángulo 408524" transform="translate(0.235 46)" fill="#ffe9df" stroke="#efb499" stroke-width="2">
          <rect width="98" height="25" stroke="none"/>
          <rect x="1" y="1" width="96" height="23" fill="none"/>
        </g>
        <path id="Trazado_908688" data-name="Trazado 908688" d="M18.3,4.852H14.645V15H13.152V4.852H9.5V3.625h8.8ZM24.1,15a3.036,3.036,0,0,1-.2-.891,3.225,3.225,0,0,1-2.406,1.047,2.984,2.984,0,0,1-2.051-.707,2.287,2.287,0,0,1-.8-1.793,2.39,2.39,0,0,1,1-2.051,4.733,4.733,0,0,1,2.824-.73h1.406V9.211A1.623,1.623,0,0,0,23.418,8a1.821,1.821,0,0,0-1.336-.449,2.108,2.108,0,0,0-1.3.391,1.151,1.151,0,0,0-.523.945H18.809a2,2,0,0,1,.449-1.223,3.066,3.066,0,0,1,1.219-.934,4.1,4.1,0,0,1,1.691-.344,3.342,3.342,0,0,1,2.289.73,2.635,2.635,0,0,1,.859,2.012v3.891a4.757,4.757,0,0,0,.3,1.852V15Zm-2.4-1.1a2.54,2.54,0,0,0,1.289-.352,2.127,2.127,0,0,0,.883-.914V10.9H22.738q-2.656,0-2.656,1.555a1.316,1.316,0,0,0,.453,1.063A1.742,1.742,0,0,0,21.7,13.9Zm9.969-6.055a4.331,4.331,0,0,0-.711-.055A1.9,1.9,0,0,0,29.027,9v6H27.582V6.547h1.406l.023.977a2.251,2.251,0,0,1,2.016-1.133,1.477,1.477,0,0,1,.641.109Zm4.688,7.313a3.693,3.693,0,0,1-2.8-1.129,4.19,4.19,0,0,1-1.078-3.02v-.266a5.073,5.073,0,0,1,.48-2.246A3.748,3.748,0,0,1,34.3,6.949a3.378,3.378,0,0,1,1.871-.559,3.166,3.166,0,0,1,2.563,1.086,4.7,4.7,0,0,1,.914,3.109v.6H33.926a3,3,0,0,0,.73,2.02,2.3,2.3,0,0,0,1.777.77,2.517,2.517,0,0,0,1.3-.312,3.259,3.259,0,0,0,.93-.828l.883.688A3.55,3.55,0,0,1,36.355,15.156Zm-.18-7.578a1.928,1.928,0,0,0-1.469.637A3.1,3.1,0,0,0,33.973,10h4.234V9.891a2.753,2.753,0,0,0-.594-1.707A1.815,1.815,0,0,0,36.176,7.578ZM46.543,15a3.036,3.036,0,0,1-.2-.891,3.225,3.225,0,0,1-2.406,1.047,2.984,2.984,0,0,1-2.051-.707,2.287,2.287,0,0,1-.8-1.793,2.39,2.39,0,0,1,1-2.051,4.733,4.733,0,0,1,2.824-.73h1.406V9.211A1.623,1.623,0,0,0,45.863,8a1.821,1.821,0,0,0-1.336-.449,2.107,2.107,0,0,0-1.3.391,1.151,1.151,0,0,0-.523.945H41.254A2,2,0,0,1,41.7,7.668a3.066,3.066,0,0,1,1.219-.934,4.1,4.1,0,0,1,1.691-.344,3.342,3.342,0,0,1,2.289.73,2.635,2.635,0,0,1,.859,2.012v3.891a4.757,4.757,0,0,0,.3,1.852V15Zm-2.4-1.1a2.54,2.54,0,0,0,1.289-.352,2.127,2.127,0,0,0,.883-.914V10.9H45.184q-2.656,0-2.656,1.555a1.316,1.316,0,0,0,.453,1.063A1.742,1.742,0,0,0,44.145,13.9ZM54.5,9.3l.578-5.672H60.91V4.961h-4.6l-.344,3.1a3.671,3.671,0,0,1,1.9-.492A3.138,3.138,0,0,1,60.332,8.6a4.026,4.026,0,0,1,.914,2.777,3.886,3.886,0,0,1-.949,2.77,3.46,3.46,0,0,1-2.652,1.012,3.6,3.6,0,0,1-2.461-.836A3.337,3.337,0,0,1,54.1,12.008h1.367a2.3,2.3,0,0,0,.7,1.473,2.162,2.162,0,0,0,1.484.5,1.95,1.95,0,0,0,1.582-.687,2.874,2.874,0,0,0,.574-1.9,2.638,2.638,0,0,0-.621-1.832,2.113,2.113,0,0,0-1.652-.691,2.383,2.383,0,0,0-1.484.414l-.383.313Z" transform="translate(14.235 2)" fill="#12263f"/>
        <path id="Trazado_908689" data-name="Trazado 908689" d="M5.746,15V3.625H8.957a5.169,5.169,0,0,1,2.625.656,4.438,4.438,0,0,1,1.762,1.867,6.078,6.078,0,0,1,.629,2.781v.727a6.1,6.1,0,0,1-.621,2.82,4.369,4.369,0,0,1-1.773,1.859A5.5,5.5,0,0,1,8.895,15Zm1.5-10.148v8.922H8.824a3.434,3.434,0,0,0,2.7-1.079,4.458,4.458,0,0,0,.965-3.073V8.957a4.529,4.529,0,0,0-.91-3.014A3.239,3.239,0,0,0,9,4.852ZM21.23,14.164a3.07,3.07,0,0,1-2.477.992,2.628,2.628,0,0,1-2.059-.785,3.4,3.4,0,0,1-.715-2.324v-5.5h1.445v5.461q0,1.922,1.563,1.922a2.163,2.163,0,0,0,2.2-1.234V6.547h1.445V15H21.262Zm7.688-6.32a4.331,4.331,0,0,0-.711-.055A1.9,1.9,0,0,0,26.277,9v6H24.832V6.547h1.406l.023.977a2.251,2.251,0,0,1,2.016-1.133,1.477,1.477,0,0,1,.641.109ZM35.152,15a3.036,3.036,0,0,1-.2-.891,3.225,3.225,0,0,1-2.406,1.047,2.984,2.984,0,0,1-2.051-.707,2.287,2.287,0,0,1-.8-1.793,2.39,2.39,0,0,1,1-2.051,4.733,4.733,0,0,1,2.824-.73h1.406V9.211A1.623,1.623,0,0,0,34.473,8a1.821,1.821,0,0,0-1.336-.449,2.107,2.107,0,0,0-1.3.391,1.151,1.151,0,0,0-.523.945H29.863a2,2,0,0,1,.449-1.223,3.066,3.066,0,0,1,1.219-.934,4.1,4.1,0,0,1,1.691-.344,3.342,3.342,0,0,1,2.289.73,2.635,2.635,0,0,1,.859,2.012v3.891a4.757,4.757,0,0,0,.3,1.852V15Zm-2.4-1.1a2.54,2.54,0,0,0,1.289-.352,2.127,2.127,0,0,0,.883-.914V10.9H33.793q-2.656,0-2.656,1.555a1.316,1.316,0,0,0,.453,1.063A1.742,1.742,0,0,0,32.754,13.9Zm9.273.078a2.082,2.082,0,0,0,1.352-.469,1.649,1.649,0,0,0,.641-1.172h1.367a2.621,2.621,0,0,1-.5,1.383,3.293,3.293,0,0,1-1.23,1.047,3.55,3.55,0,0,1-1.629.391A3.482,3.482,0,0,1,39.281,14a4.59,4.59,0,0,1-1.02-3.152v-.242a5.089,5.089,0,0,1,.453-2.2,3.451,3.451,0,0,1,1.3-1.492,3.7,3.7,0,0,1,2-.531,3.39,3.39,0,0,1,2.363.852,3.043,3.043,0,0,1,1,2.211H44.02A1.992,1.992,0,0,0,43.4,8.105a1.932,1.932,0,0,0-1.379-.527,2.023,2.023,0,0,0-1.707.793,3.724,3.724,0,0,0-.605,2.293v.273a3.65,3.65,0,0,0,.6,2.25A2.033,2.033,0,0,0,42.027,13.977ZM48.582,15H47.137V6.547h1.445ZM47.02,4.3a.863.863,0,0,1,.215-.594.807.807,0,0,1,.637-.242.819.819,0,0,1,.641.242.854.854,0,0,1,.219.594.826.826,0,0,1-.219.586.834.834,0,0,1-.641.234.821.821,0,0,1-.637-.234A.834.834,0,0,1,47.02,4.3ZM50.512,10.7A4.993,4.993,0,0,1,51,8.461,3.643,3.643,0,0,1,52.359,6.93a3.7,3.7,0,0,1,1.988-.539,3.565,3.565,0,0,1,2.793,1.2,4.6,4.6,0,0,1,1.066,3.18v.1a5.036,5.036,0,0,1-.473,2.215,3.589,3.589,0,0,1-1.352,1.527,3.743,3.743,0,0,1-2.02.547,3.556,3.556,0,0,1-2.785-1.2A4.575,4.575,0,0,1,50.512,10.8Zm1.453.172a3.616,3.616,0,0,0,.652,2.258,2.211,2.211,0,0,0,3.5-.012,3.955,3.955,0,0,0,.648-2.418,3.61,3.61,0,0,0-.66-2.254,2.1,2.1,0,0,0-1.754-.863,2.075,2.075,0,0,0-1.727.852A3.925,3.925,0,0,0,51.965,10.867ZM55,3h1.75L54.66,5.3l-1.164,0Zm6.383,3.547.047,1.063a3.08,3.08,0,0,1,2.531-1.219q2.68,0,2.7,3.023V15H65.223V9.406A1.946,1.946,0,0,0,64.8,8.055a1.675,1.675,0,0,0-1.277-.437,2.086,2.086,0,0,0-1.234.375,2.546,2.546,0,0,0-.828.984V15H60.02V6.547Zm7.414,7.7a.905.905,0,0,1,.223-.625.848.848,0,0,1,.668-.25.874.874,0,0,1,.676.25.887.887,0,0,1,.23.625.839.839,0,0,1-.23.6.89.89,0,0,1-.676.242.8.8,0,0,1-.891-.844Zm.008-6.9a.905.905,0,0,1,.223-.625.848.848,0,0,1,.668-.25.874.874,0,0,1,.676.25.887.887,0,0,1,.23.625.839.839,0,0,1-.23.6.89.89,0,0,1-.676.242.8.8,0,0,1-.891-.844ZM77.2,9.3l.578-5.672h5.828V4.961H79l-.344,3.1a3.671,3.671,0,0,1,1.9-.492A3.138,3.138,0,0,1,83.027,8.6a4.026,4.026,0,0,1,.914,2.777,3.886,3.886,0,0,1-.949,2.77,3.46,3.46,0,0,1-2.652,1.012,3.6,3.6,0,0,1-2.461-.836,3.337,3.337,0,0,1-1.086-2.312H78.16a2.3,2.3,0,0,0,.7,1.473,2.162,2.162,0,0,0,1.484.5,1.95,1.95,0,0,0,1.582-.687,2.874,2.874,0,0,0,.574-1.9,2.638,2.638,0,0,0-.621-1.832,2.113,2.113,0,0,0-1.652-.691,2.383,2.383,0,0,0-1.484.414l-.383.313Z" transform="translate(5.235 25)" fill="#12263f"/>
        <path id="Trazado_908690" data-name="Trazado 908690" d="M18.534,11.542a7.436,7.436,0,0,1-.976,4.245,3.47,3.47,0,0,1-3.05,1.389,3.5,3.5,0,0,1-3.032-1.358,7.058,7.058,0,0,1-1.02-4.056V9.591A7.271,7.271,0,0,1,11.433,5.4a3.5,3.5,0,0,1,3.059-1.371A3.528,3.528,0,0,1,17.532,5.35a7.017,7.017,0,0,1,1,4.083ZM16.908,9.318a5.958,5.958,0,0,0-.58-3.01,2,2,0,0,0-1.837-.945,1.97,1.97,0,0,0-1.819.94A5.817,5.817,0,0,0,12.083,9.2v2.6a6.053,6.053,0,0,0,.6,3.063,1.993,1.993,0,0,0,1.824.989,1.966,1.966,0,0,0,1.789-.932,5.834,5.834,0,0,0,.611-2.936Z" transform="translate(13.235 48)" fill="#12263f"/>
        <path id="Trazado_908691" data-name="Trazado 908691" d="M16.891,4.194v1.38h-.3A4.281,4.281,0,0,0,13.568,6.7a4.681,4.681,0,0,0-1.3,3.067,3.471,3.471,0,0,1,2.76-1.16,3.319,3.319,0,0,1,2.667,1.178,4.543,4.543,0,0,1,1,3.041,4.528,4.528,0,0,1-1.077,3.164,3.707,3.707,0,0,1-2.887,1.187,3.653,3.653,0,0,1-2.979-1.411,5.591,5.591,0,0,1-1.143-3.634v-.624a8.424,8.424,0,0,1,1.507-5.4A5.536,5.536,0,0,1,16.6,4.194ZM14.755,9.96a2.733,2.733,0,0,0-2.514,1.758v.6a4.2,4.2,0,0,0,.712,2.549,2.133,2.133,0,0,0,1.775.967,2.067,2.067,0,0,0,1.727-.809,3.355,3.355,0,0,0,.628-2.118,3.356,3.356,0,0,0-.637-2.131A2.042,2.042,0,0,0,14.755,9.96Z" transform="translate(61.235 48)" fill="#12263f"/>
        <line id="Línea_3269-8" data-name="Línea 3269" y2="24.5" transform="translate(50.327 46.5)" fill="none" stroke="#efb499" stroke-width="2"/>
      </g>
      <g id="Grupo_1118053" data-name="Grupo 1118053" transform="translate(-5167.078 -7050)">
        <g id="Rectángulo_408520-9" data-name="Rectángulo 408520" transform="translate(0.078)" fill="#fecab2" stroke="#efb499" stroke-width="2">
          <rect width="98" height="25" stroke="none"/>
          <rect x="1" y="1" width="96" height="23" fill="none"/>
        </g>
        <g id="Rectángulo_408523-9" data-name="Rectángulo 408523" transform="translate(0.078 23)" fill="#ffe9df" stroke="#efb499" stroke-width="2">
          <rect width="98" height="25" stroke="none"/>
          <rect x="1" y="1" width="96" height="23" fill="none"/>
        </g>
        <g id="Rectángulo_408524-9" data-name="Rectángulo 408524" transform="translate(0.078 46)" fill="#ffe9df" stroke="#efb499" stroke-width="2">
          <rect width="98" height="25" stroke="none"/>
          <rect x="1" y="1" width="96" height="23" fill="none"/>
        </g>
        <path id="Trazado_908692" data-name="Trazado 908692" d="M18.3,4.852H14.645V15H13.152V4.852H9.5V3.625h8.8ZM24.1,15a3.036,3.036,0,0,1-.2-.891,3.225,3.225,0,0,1-2.406,1.047,2.984,2.984,0,0,1-2.051-.707,2.287,2.287,0,0,1-.8-1.793,2.39,2.39,0,0,1,1-2.051,4.733,4.733,0,0,1,2.824-.73h1.406V9.211A1.623,1.623,0,0,0,23.418,8a1.821,1.821,0,0,0-1.336-.449,2.108,2.108,0,0,0-1.3.391,1.151,1.151,0,0,0-.523.945H18.809a2,2,0,0,1,.449-1.223,3.066,3.066,0,0,1,1.219-.934,4.1,4.1,0,0,1,1.691-.344,3.342,3.342,0,0,1,2.289.73,2.635,2.635,0,0,1,.859,2.012v3.891a4.757,4.757,0,0,0,.3,1.852V15Zm-2.4-1.1a2.54,2.54,0,0,0,1.289-.352,2.127,2.127,0,0,0,.883-.914V10.9H22.738q-2.656,0-2.656,1.555a1.316,1.316,0,0,0,.453,1.063A1.742,1.742,0,0,0,21.7,13.9Zm9.969-6.055a4.331,4.331,0,0,0-.711-.055A1.9,1.9,0,0,0,29.027,9v6H27.582V6.547h1.406l.023.977a2.251,2.251,0,0,1,2.016-1.133,1.477,1.477,0,0,1,.641.109Zm4.688,7.313a3.693,3.693,0,0,1-2.8-1.129,4.19,4.19,0,0,1-1.078-3.02v-.266a5.073,5.073,0,0,1,.48-2.246A3.748,3.748,0,0,1,34.3,6.949a3.378,3.378,0,0,1,1.871-.559,3.166,3.166,0,0,1,2.563,1.086,4.7,4.7,0,0,1,.914,3.109v.6H33.926a3,3,0,0,0,.73,2.02,2.3,2.3,0,0,0,1.777.77,2.517,2.517,0,0,0,1.3-.312,3.259,3.259,0,0,0,.93-.828l.883.688A3.55,3.55,0,0,1,36.355,15.156Zm-.18-7.578a1.928,1.928,0,0,0-1.469.637A3.1,3.1,0,0,0,33.973,10h4.234V9.891a2.753,2.753,0,0,0-.594-1.707A1.815,1.815,0,0,0,36.176,7.578ZM46.543,15a3.036,3.036,0,0,1-.2-.891,3.225,3.225,0,0,1-2.406,1.047,2.984,2.984,0,0,1-2.051-.707,2.287,2.287,0,0,1-.8-1.793,2.39,2.39,0,0,1,1-2.051,4.733,4.733,0,0,1,2.824-.73h1.406V9.211A1.623,1.623,0,0,0,45.863,8a1.821,1.821,0,0,0-1.336-.449,2.107,2.107,0,0,0-1.3.391,1.151,1.151,0,0,0-.523.945H41.254A2,2,0,0,1,41.7,7.668a3.066,3.066,0,0,1,1.219-.934,4.1,4.1,0,0,1,1.691-.344,3.342,3.342,0,0,1,2.289.73,2.635,2.635,0,0,1,.859,2.012v3.891a4.757,4.757,0,0,0,.3,1.852V15Zm-2.4-1.1a2.54,2.54,0,0,0,1.289-.352,2.127,2.127,0,0,0,.883-.914V10.9H45.184q-2.656,0-2.656,1.555a1.316,1.316,0,0,0,.453,1.063A1.742,1.742,0,0,0,44.145,13.9ZM59.512,3.617V4.844h-.266a3.805,3.805,0,0,0-2.687,1A4.161,4.161,0,0,0,55.4,8.57a3.085,3.085,0,0,1,2.453-1.031,2.95,2.95,0,0,1,2.371,1.047,4.038,4.038,0,0,1,.887,2.7,4.025,4.025,0,0,1-.957,2.813,3.3,3.3,0,0,1-2.566,1.055A3.247,3.247,0,0,1,54.941,13.9a4.97,4.97,0,0,1-1.016-3.23v-.555a7.488,7.488,0,0,1,1.34-4.8,4.921,4.921,0,0,1,3.988-1.7Zm-1.9,5.125A2.429,2.429,0,0,0,55.379,10.3v.531a3.731,3.731,0,0,0,.633,2.266,1.9,1.9,0,0,0,1.578.859,1.838,1.838,0,0,0,1.535-.719,2.982,2.982,0,0,0,.559-1.883,2.983,2.983,0,0,0-.566-1.895A1.816,1.816,0,0,0,57.613,8.742Z" transform="translate(15.078 2)" fill="#12263f"/>
        <path id="Trazado_908693" data-name="Trazado 908693" d="M5.746,15V3.625H8.957a5.169,5.169,0,0,1,2.625.656,4.438,4.438,0,0,1,1.762,1.867,6.078,6.078,0,0,1,.629,2.781v.727a6.1,6.1,0,0,1-.621,2.82,4.369,4.369,0,0,1-1.773,1.859A5.5,5.5,0,0,1,8.895,15Zm1.5-10.148v8.922H8.824a3.434,3.434,0,0,0,2.7-1.079,4.458,4.458,0,0,0,.965-3.073V8.957a4.529,4.529,0,0,0-.91-3.014A3.239,3.239,0,0,0,9,4.852ZM21.23,14.164a3.07,3.07,0,0,1-2.477.992,2.628,2.628,0,0,1-2.059-.785,3.4,3.4,0,0,1-.715-2.324v-5.5h1.445v5.461q0,1.922,1.563,1.922a2.163,2.163,0,0,0,2.2-1.234V6.547h1.445V15H21.262Zm7.688-6.32a4.331,4.331,0,0,0-.711-.055A1.9,1.9,0,0,0,26.277,9v6H24.832V6.547h1.406l.023.977a2.251,2.251,0,0,1,2.016-1.133,1.477,1.477,0,0,1,.641.109ZM35.152,15a3.036,3.036,0,0,1-.2-.891,3.225,3.225,0,0,1-2.406,1.047,2.984,2.984,0,0,1-2.051-.707,2.287,2.287,0,0,1-.8-1.793,2.39,2.39,0,0,1,1-2.051,4.733,4.733,0,0,1,2.824-.73h1.406V9.211A1.623,1.623,0,0,0,34.473,8a1.821,1.821,0,0,0-1.336-.449,2.107,2.107,0,0,0-1.3.391,1.151,1.151,0,0,0-.523.945H29.863a2,2,0,0,1,.449-1.223,3.066,3.066,0,0,1,1.219-.934,4.1,4.1,0,0,1,1.691-.344,3.342,3.342,0,0,1,2.289.73,2.635,2.635,0,0,1,.859,2.012v3.891a4.757,4.757,0,0,0,.3,1.852V15Zm-2.4-1.1a2.54,2.54,0,0,0,1.289-.352,2.127,2.127,0,0,0,.883-.914V10.9H33.793q-2.656,0-2.656,1.555a1.316,1.316,0,0,0,.453,1.063A1.742,1.742,0,0,0,32.754,13.9Zm9.273.078a2.082,2.082,0,0,0,1.352-.469,1.649,1.649,0,0,0,.641-1.172h1.367a2.621,2.621,0,0,1-.5,1.383,3.293,3.293,0,0,1-1.23,1.047,3.55,3.55,0,0,1-1.629.391A3.482,3.482,0,0,1,39.281,14a4.59,4.59,0,0,1-1.02-3.152v-.242a5.089,5.089,0,0,1,.453-2.2,3.451,3.451,0,0,1,1.3-1.492,3.7,3.7,0,0,1,2-.531,3.39,3.39,0,0,1,2.363.852,3.043,3.043,0,0,1,1,2.211H44.02A1.992,1.992,0,0,0,43.4,8.105a1.932,1.932,0,0,0-1.379-.527,2.023,2.023,0,0,0-1.707.793,3.724,3.724,0,0,0-.605,2.293v.273a3.65,3.65,0,0,0,.6,2.25A2.033,2.033,0,0,0,42.027,13.977ZM48.582,15H47.137V6.547h1.445ZM47.02,4.3a.863.863,0,0,1,.215-.594.807.807,0,0,1,.637-.242.819.819,0,0,1,.641.242.854.854,0,0,1,.219.594.826.826,0,0,1-.219.586.834.834,0,0,1-.641.234.821.821,0,0,1-.637-.234A.834.834,0,0,1,47.02,4.3ZM50.512,10.7A4.993,4.993,0,0,1,51,8.461,3.643,3.643,0,0,1,52.359,6.93a3.7,3.7,0,0,1,1.988-.539,3.565,3.565,0,0,1,2.793,1.2,4.6,4.6,0,0,1,1.066,3.18v.1a5.036,5.036,0,0,1-.473,2.215,3.589,3.589,0,0,1-1.352,1.527,3.743,3.743,0,0,1-2.02.547,3.556,3.556,0,0,1-2.785-1.2A4.575,4.575,0,0,1,50.512,10.8Zm1.453.172a3.616,3.616,0,0,0,.652,2.258,2.211,2.211,0,0,0,3.5-.012,3.955,3.955,0,0,0,.648-2.418,3.61,3.61,0,0,0-.66-2.254,2.1,2.1,0,0,0-1.754-.863,2.075,2.075,0,0,0-1.727.852A3.925,3.925,0,0,0,51.965,10.867ZM55,3h1.75L54.66,5.3l-1.164,0Zm6.383,3.547.047,1.063a3.08,3.08,0,0,1,2.531-1.219q2.68,0,2.7,3.023V15H65.223V9.406A1.946,1.946,0,0,0,64.8,8.055a1.675,1.675,0,0,0-1.277-.437,2.086,2.086,0,0,0-1.234.375,2.546,2.546,0,0,0-.828.984V15H60.02V6.547Zm7.414,7.7a.905.905,0,0,1,.223-.625.848.848,0,0,1,.668-.25.874.874,0,0,1,.676.25.887.887,0,0,1,.23.625.839.839,0,0,1-.23.6.89.89,0,0,1-.676.242.8.8,0,0,1-.891-.844Zm.008-6.9a.905.905,0,0,1,.223-.625.848.848,0,0,1,.668-.25.874.874,0,0,1,.676.25.887.887,0,0,1,.23.625.839.839,0,0,1-.23.6.89.89,0,0,1-.676.242.8.8,0,0,1-.891-.844ZM83.988,15H76.535V13.961l3.938-4.375A9.354,9.354,0,0,0,81.68,7.973a2.693,2.693,0,0,0,.332-1.285,2.041,2.041,0,0,0-.539-1.461,1.885,1.885,0,0,0-1.437-.57,2.232,2.232,0,0,0-1.676.613,2.343,2.343,0,0,0-.6,1.707H76.316a3.355,3.355,0,0,1,1.012-2.539,3.751,3.751,0,0,1,2.707-.969,3.6,3.6,0,0,1,2.508.832,2.838,2.838,0,0,1,.922,2.215q0,1.68-2.141,4l-3.047,3.3h5.711Z" transform="translate(6.078 26)" fill="#12263f"/>
        <path id="Trazado_908694" data-name="Trazado 908694" d="M16.891,4.194v1.38h-.3A4.281,4.281,0,0,0,13.568,6.7a4.681,4.681,0,0,0-1.3,3.067,3.471,3.471,0,0,1,2.76-1.16,3.319,3.319,0,0,1,2.667,1.178,4.543,4.543,0,0,1,1,3.041,4.528,4.528,0,0,1-1.077,3.164,3.707,3.707,0,0,1-2.887,1.187,3.653,3.653,0,0,1-2.979-1.411,5.591,5.591,0,0,1-1.143-3.634v-.624a8.424,8.424,0,0,1,1.507-5.4A5.536,5.536,0,0,1,16.6,4.194ZM14.755,9.96a2.733,2.733,0,0,0-2.514,1.758v.6a4.2,4.2,0,0,0,.712,2.549,2.133,2.133,0,0,0,1.775.967,2.067,2.067,0,0,0,1.727-.809,3.355,3.355,0,0,0,.628-2.118,3.356,3.356,0,0,0-.637-2.131A2.042,2.042,0,0,0,14.755,9.96Z" transform="translate(11.078 48)" fill="#12263f"/>
        <path id="Trazado_908695" data-name="Trazado 908695" d="M16.891,4.194v1.38h-.3A4.281,4.281,0,0,0,13.568,6.7a4.681,4.681,0,0,0-1.3,3.067,3.471,3.471,0,0,1,2.76-1.16,3.319,3.319,0,0,1,2.667,1.178,4.543,4.543,0,0,1,1,3.041,4.528,4.528,0,0,1-1.077,3.164,3.707,3.707,0,0,1-2.887,1.187,3.653,3.653,0,0,1-2.979-1.411,5.591,5.591,0,0,1-1.143-3.634v-.624a8.424,8.424,0,0,1,1.507-5.4A5.536,5.536,0,0,1,16.6,4.194ZM14.755,9.96a2.733,2.733,0,0,0-2.514,1.758v.6a4.2,4.2,0,0,0,.712,2.549,2.133,2.133,0,0,0,1.775.967,2.067,2.067,0,0,0,1.727-.809,3.355,3.355,0,0,0,.628-2.118,3.356,3.356,0,0,0-.637-2.131A2.042,2.042,0,0,0,14.755,9.96Z" transform="translate(59.078 48)" fill="#12263f"/>
        <line id="Línea_3269-9" data-name="Línea 3269" y2="24.5" transform="translate(50.298 46.5)" fill="none" stroke="#efb499" stroke-width="2"/>
      </g>
      <line id="Línea_3270" data-name="Línea 3270" y1="56" x2="70" transform="translate(-5232.5 -7393.5)" fill="none" stroke="#7a4f00" stroke-linecap="round" stroke-width="2"/>
      <g id="Grupo_1118060" data-name="Grupo 1118060" transform="translate(-11687 -1871.162) rotate(90)">
        <line id="Línea_3271" data-name="Línea 3271" x2="23.422" transform="translate(-5395.838 -6454.5)" fill="none" stroke="#7a4f00" stroke-linecap="round" stroke-width="2"/>
        <path id="Polígono_9" data-name="Polígono 9" d="M3.5,0,7,6H0Z" transform="translate(-5370.838 -6458) rotate(90)" fill="#7a4f00"/>
      </g>
      <g id="Grupo_1118061" data-name="Grupo 1118061" transform="translate(-11687 -1774.162) rotate(90)">
        <line id="Línea_3271-2" data-name="Línea 3271" x2="23.422" transform="translate(-5395.838 -6454.5)" fill="none" stroke="#7a4f00" stroke-linecap="round" stroke-width="2"/>
        <path id="Polígono_9-2" data-name="Polígono 9" d="M3.5,0,7,6H0Z" transform="translate(-5370.838 -6458) rotate(90)" fill="#7a4f00"/>
      </g>
      <g id="Grupo_1118066" data-name="Grupo 1118066" transform="translate(-11687 -1678.162) rotate(90)">
        <line id="Línea_3271-3" data-name="Línea 3271" x2="116.5" transform="translate(-5395.838 -6454.5)" fill="none" stroke="#7a4f00" stroke-linecap="round" stroke-width="2"/>
        <path id="Polígono_9-3" data-name="Polígono 9" d="M3.5,0,7,6H0Z" transform="translate(-5273.838 -6458) rotate(90)" fill="#7a4f00"/>
      </g>
      <g id="Grupo_1118063" data-name="Grupo 1118063" transform="translate(-11572 -1583.162) rotate(90)">
        <line id="Línea_3271-4" data-name="Línea 3271" x2="23.422" transform="translate(-5395.838 -6454.5)" fill="none" stroke="#7a4f00" stroke-linecap="round" stroke-width="2"/>
        <path id="Polígono_9-4" data-name="Polígono 9" d="M3.5,0,7,6H0Z" transform="translate(-5370.838 -6458) rotate(90)" fill="#7a4f00"/>
      </g>
      <g id="Grupo_1118064" data-name="Grupo 1118064" transform="translate(-11572 -1486.162) rotate(90)">
        <line id="Línea_3271-5" data-name="Línea 3271" x2="23.422" transform="translate(-5395.838 -6454.5)" fill="none" stroke="#7a4f00" stroke-linecap="round" stroke-width="2"/>
        <path id="Polígono_9-5" data-name="Polígono 9" d="M3.5,0,7,6H0Z" transform="translate(-5370.838 -6458) rotate(90)" fill="#7a4f00"/>
      </g>
      <g id="Grupo_1118065" data-name="Grupo 1118065" transform="translate(-302.679 -428.5)">
        <path id="Trazado_907454" data-name="Trazado 907454" d="M60.434,0,0,64.845" transform="translate(-4865.477 -6454.5) rotate(90)" fill="none" stroke="#7a4f00" stroke-linecap="round" stroke-width="2"/>
        <path id="Polígono_14" data-name="Polígono 14" d="M3.5,0,7,6H0Z" transform="matrix(-0.719, 0.695, -0.695, -0.719, -4860.097, -6393.971)" fill="#7a4f00"/>
      </g>
      <g id="Grupo_1118062" data-name="Grupo 1118062" transform="translate(10.676 -691.064)">
        <path id="Trazado_907453" data-name="Trazado 907453" d="M59.233,0,0,61.975" transform="translate(-5132.701 -6419.436) rotate(90)" fill="none" stroke="#7a4f00" stroke-linecap="round" stroke-width="2"/>
        <path id="Polígono_16" data-name="Polígono 16" d="M3.5,0,7,6H0Z" transform="matrix(-0.755, 0.656, -0.656, -0.755, -5128.176, -6361.024)" fill="#7a4f00"/>
      </g>
      <path id="Polígono_18" data-name="Polígono 18" d="M3.5,0,7,6H0Z" transform="translate(-5232.146 -7332.904) rotate(-135)" fill="#7a4f00"/>
      <path id="Polígono_19" data-name="Polígono 19" d="M3.5,0,7,6H0Z" transform="translate(-4993.13 -7145.154) rotate(163)" fill="#7a4f00"/>
      <path id="Polígono_20" data-name="Polígono 20" d="M3.5,0,7,6H0Z" transform="translate(-5065.53 -6818.608) rotate(-163)" fill="#7a4f00"/>
    </g>
  </g>
</svg>
